M48
; DRILL file {KiCad 8.0.2-8.0.2-0~ubuntu22.04.1} date 2024-05-27T12:02:27+1000
; FORMAT={-:-/ absolute / inch / decimal}
; #@! TF.CreationDate,2024-05-27T12:02:27+10:00
; #@! TF.GenerationSoftware,Kicad,Pcbnew,8.0.2-8.0.2-0~ubuntu22.04.1
; #@! TF.FileFunction,Plated,1,2,PTH
FMAT,2
INCH
; #@! TA.AperFunction,Plated,PTH,ViaDrill
T1C0.0157
; #@! TA.AperFunction,Plated,PTH,ComponentDrill
T2C0.0276
; #@! TA.AperFunction,Plated,PTH,ComponentDrill
T3C0.0315
; #@! TA.AperFunction,Plated,PTH,ComponentDrill
T4C0.0335
; #@! TA.AperFunction,Plated,PTH,ComponentDrill
T5C0.0354
; #@! TA.AperFunction,Plated,PTH,ComponentDrill
T6C0.0394
; #@! TA.AperFunction,Plated,PTH,ComponentDrill
T7C0.0433
; #@! TA.AperFunction,Plated,PTH,ComponentDrill
T8C0.0709
; #@! TA.AperFunction,Plated,PTH,ComponentDrill
T9C0.0787
%
G90
G05
T1
X4.4488Y-3.9764
X4.8819Y-3.9567
X5.128Y-2.4114
X5.1575Y-3.2874
X5.1791Y-3.563
X5.1969Y-4.1732
X5.2362Y-3.4449
X5.2756Y-3.8976
X5.315Y-3.2283
X5.315Y-3.3858
X5.315Y-3.6614
X5.315Y-3.937
X5.3341Y-3.3263
X5.3346Y-2.3228
X5.3543Y-3.4252
X5.3937Y-3.8386
X5.5043Y-3.3179
X5.8071Y-2.4803
X6.0236Y-3.1299
T2
X4.0157Y-4.252
X4.1732Y-4.252
X5.6366Y-4.2601
X5.794Y-4.2601
T3
X3.9991Y-3.0434
X3.9991Y-3.2403
X4.0029Y-3.381
X4.0094Y-2.0472
X4.0094Y-2.1654
X4.0094Y-2.2835
X4.05Y-3.6014
X4.05Y-4.0014
X4.2044Y-3.6177
X4.2094Y-3.7402
X4.2094Y-3.8583
X4.2094Y-3.9764
X4.4029Y-3.381
X4.4094Y-2.0472
X4.4094Y-2.1654
X4.4094Y-2.2835
X4.5207Y-3.0915
X4.5207Y-3.3915
X4.5276Y-2.0866
X4.5276Y-2.2835
X4.6044Y-3.6177
X4.6094Y-3.7402
X4.6094Y-3.8583
X4.6094Y-3.9764
X4.6207Y-3.0915
X4.6207Y-3.3915
X4.6291Y-2.4639
X4.6291Y-2.8639
X4.6315Y-2.9682
X4.6457Y-2.0866
X4.6457Y-2.2835
X4.7207Y-3.0915
X4.7207Y-3.3915
X4.7213Y-3.622
X4.7213Y-3.7402
X4.7213Y-3.8583
X4.8207Y-3.0915
X4.8207Y-3.3915
X4.8284Y-2.9682
X4.9207Y-3.0915
X4.9207Y-3.3915
X4.9277Y-2.9696
X5.0207Y-3.0915
X5.0207Y-3.3915
X5.1207Y-3.0915
X5.1207Y-3.3915
X5.1213Y-3.622
X5.1213Y-3.7402
X5.1213Y-3.8583
X5.1245Y-2.9696
X5.2362Y-3.3858
X5.2386Y-3.0304
X5.2386Y-3.1485
X5.2386Y-3.2667
X5.2415Y-3.6112
X5.2415Y-4.0112
X5.401Y-2.0448
X5.4041Y-2.1629
X5.4041Y-2.281
X5.4331Y-3.3858
X5.4354Y-3.0304
X5.4354Y-3.1485
X5.4354Y-3.2667
X5.468Y-3.7318
X5.4693Y-3.8549
X5.4693Y-3.9764
X5.5816Y-3.6109
X5.6102Y-3.3858
X5.7785Y-3.6109
X5.801Y-2.0448
X5.8041Y-2.1629
X5.8041Y-2.281
X5.8071Y-3.3858
X5.868Y-3.7318
X5.8693Y-3.8549
X5.8693Y-3.9764
X5.9616Y-2.1843
X5.9616Y-2.263
X6.0024Y-3.266
X6.0024Y-3.666
X6.0036Y-3.8716
X6.0036Y-4.2716
T4
X0.0699Y-0.06
X0.0699Y-0.2195
X0.0699Y-0.3789
X0.0699Y-0.5384
X4.7773Y-2.0407
X4.792Y-4.2538
X5.2061Y-4.2654
X5.3714Y-4.2654
X5.5053Y-4.265
X5.9449Y-2.0472
X6.0057Y-3.7679
T5
X4.2307Y-3.1496
X4.2807Y-3.1496
X4.3307Y-3.1496
X4.3807Y-3.1496
X4.95Y-4.252
X5.05Y-4.252
X5.6087Y-3.1496
X5.6587Y-3.1496
X5.7087Y-3.1496
X5.7587Y-3.1496
T6
X4.1142Y-2.876
X4.2126Y-2.876
X4.311Y-2.876
X4.9016Y-2.2638
X4.9016Y-2.8346
X5.0Y-2.8346
X5.0984Y-2.2638
X5.0984Y-2.8346
X5.689Y-2.876
X5.7874Y-2.876
X5.8858Y-2.876
X5.9339Y-2.9898
X5.9339Y-3.0898
X5.9339Y-3.1898
T7
X3.9969Y-3.5039
X3.9969Y-4.1039
X4.0969Y-3.5039
X4.0969Y-4.1039
X4.1969Y-3.5039
X4.1969Y-4.1039
X4.2969Y-3.5039
X4.2969Y-4.1039
X4.3457Y-4.252
X4.3969Y-3.5039
X4.3969Y-4.1039
X4.4969Y-3.5039
X4.4969Y-4.1039
X4.5969Y-3.5039
X4.5969Y-4.1039
X4.6457Y-4.252
X4.6969Y-3.5039
X4.6969Y-4.1039
X4.7969Y-3.5039
X4.7969Y-4.1039
X4.8969Y-3.5039
X4.8969Y-4.1039
X4.9969Y-3.5039
X4.9969Y-4.1039
X5.0969Y-3.5039
X5.0969Y-4.1039
X5.1969Y-3.5039
X5.1969Y-4.1039
X5.2969Y-3.5039
X5.2969Y-4.1039
X5.3969Y-3.5039
X5.3969Y-4.1039
X5.4969Y-3.5039
X5.4969Y-4.1039
X5.5969Y-3.5039
X5.5969Y-4.1039
X5.6969Y-3.5039
X5.6969Y-4.1039
X5.7969Y-3.5039
X5.7969Y-4.1039
X5.8969Y-3.5039
X5.8969Y-4.1039
T8
G00X4.0394Y-2.6063
M15
G01X4.0394Y-2.5945
M16
G05
G00X4.3858Y-2.6063
M15
G01X4.3858Y-2.5945
M16
G05
G00X5.6142Y-2.6063
M15
G01X5.6142Y-2.5945
M16
G05
G00X5.9606Y-2.6063
M15
G01X5.9606Y-2.5945
M16
G05
T9
G00X4.7795Y-2.5492
M15
G01X4.7795Y-2.5295
M16
G05
G00X5.2205Y-2.5492
M15
G01X5.2205Y-2.5295
M16
G05
M30
