%TF.GenerationSoftware,KiCad,Pcbnew,8.0.2-8.0.2-0~ubuntu22.04.1*%
%TF.CreationDate,2024-05-27T12:02:15+10:00*%
%TF.ProjectId,podal_1590b,706f6461-6c5f-4313-9539-30622e6b6963,0.3*%
%TF.SameCoordinates,Original*%
%TF.FileFunction,Copper,L1,Top*%
%TF.FilePolarity,Positive*%
%FSLAX46Y46*%
G04 Gerber Fmt 4.6, Leading zero omitted, Abs format (unit mm)*
G04 Created by KiCad (PCBNEW 8.0.2-8.0.2-0~ubuntu22.04.1) date 2024-05-27 12:02:15*
%MOMM*%
%LPD*%
G01*
G04 APERTURE LIST*
G04 Aperture macros list*
%AMRoundRect*
0 Rectangle with rounded corners*
0 $1 Rounding radius*
0 $2 $3 $4 $5 $6 $7 $8 $9 X,Y pos of 4 corners*
0 Add a 4 corners polygon primitive as box body*
4,1,4,$2,$3,$4,$5,$6,$7,$8,$9,$2,$3,0*
0 Add four circle primitives for the rounded corners*
1,1,$1+$1,$2,$3*
1,1,$1+$1,$4,$5*
1,1,$1+$1,$6,$7*
1,1,$1+$1,$8,$9*
0 Add four rect primitives between the rounded corners*
20,1,$1+$1,$2,$3,$4,$5,0*
20,1,$1+$1,$4,$5,$6,$7,0*
20,1,$1+$1,$6,$7,$8,$9,0*
20,1,$1+$1,$8,$9,$2,$3,0*%
G04 Aperture macros list end*
%TA.AperFunction,ComponentPad*%
%ADD10RoundRect,0.250000X-0.750000X-0.750000X0.750000X-0.750000X0.750000X0.750000X-0.750000X0.750000X0*%
%TD*%
%TA.AperFunction,ComponentPad*%
%ADD11R,2.200000X2.200000*%
%TD*%
%TA.AperFunction,ComponentPad*%
%ADD12O,2.200000X2.200000*%
%TD*%
%TA.AperFunction,ComponentPad*%
%ADD13R,1.070000X1.800000*%
%TD*%
%TA.AperFunction,ComponentPad*%
%ADD14O,1.070000X1.800000*%
%TD*%
%TA.AperFunction,ComponentPad*%
%ADD15C,1.600000*%
%TD*%
%TA.AperFunction,ComponentPad*%
%ADD16O,1.600000X1.600000*%
%TD*%
%TA.AperFunction,ComponentPad*%
%ADD17RoundRect,0.250000X0.750000X0.750000X-0.750000X0.750000X-0.750000X-0.750000X0.750000X-0.750000X0*%
%TD*%
%TA.AperFunction,ComponentPad*%
%ADD18R,1.800000X1.800000*%
%TD*%
%TA.AperFunction,ComponentPad*%
%ADD19C,1.800000*%
%TD*%
%TA.AperFunction,ComponentPad*%
%ADD20RoundRect,0.750000X0.750000X-1.250000X0.750000X1.250000X-0.750000X1.250000X-0.750000X-1.250000X0*%
%TD*%
%TA.AperFunction,ComponentPad*%
%ADD21RoundRect,0.250000X0.600000X0.600000X-0.600000X0.600000X-0.600000X-0.600000X0.600000X-0.600000X0*%
%TD*%
%TA.AperFunction,ComponentPad*%
%ADD22C,1.700000*%
%TD*%
%TA.AperFunction,ComponentPad*%
%ADD23R,2.000000X2.000000*%
%TD*%
%TA.AperFunction,ComponentPad*%
%ADD24C,2.000000*%
%TD*%
%TA.AperFunction,ComponentPad*%
%ADD25R,2.500000X3.000000*%
%TD*%
%TA.AperFunction,ComponentPad*%
%ADD26RoundRect,0.250000X-0.675000X-0.675000X0.675000X-0.675000X0.675000X0.675000X-0.675000X0.675000X0*%
%TD*%
%TA.AperFunction,ComponentPad*%
%ADD27C,1.850000*%
%TD*%
%TA.AperFunction,ComponentPad*%
%ADD28R,1.600000X1.600000*%
%TD*%
%TA.AperFunction,ComponentPad*%
%ADD29R,1.700000X1.700000*%
%TD*%
%TA.AperFunction,ViaPad*%
%ADD30C,0.800000*%
%TD*%
%TA.AperFunction,Conductor*%
%ADD31C,0.250000*%
%TD*%
%TA.AperFunction,Conductor*%
%ADD32C,0.300000*%
%TD*%
G04 APERTURE END LIST*
D10*
%TO.P,J7,1*%
%TO.N,N/C*%
X1775000Y-13675000D03*
%TD*%
%TO.P,J6,1,Pin_1*%
%TO.N,Net-(J6-Pin_1)*%
X1775000Y-9625000D03*
%TD*%
%TO.P,J2,1,Pin_1*%
%TO.N,Net-(J2-Pin_1)*%
X1775000Y-5575000D03*
%TD*%
%TO.P,J1,1*%
%TO.N,N/C*%
X1775000Y-1525000D03*
%TD*%
D11*
%TO.P,D2,1,K*%
%TO.N,/VCC*%
X118000000Y-108000000D03*
D12*
%TO.P,D2,2,A*%
%TO.N,Net-(BT1-+)*%
X110380000Y-108000000D03*
%TD*%
D13*
%TO.P,D3,1,RK*%
%TO.N,Net-(D3-RK)*%
X107460000Y-80000000D03*
D14*
%TO.P,D3,2,A*%
%TO.N,/3v3*%
X108730000Y-80000000D03*
%TO.P,D3,3,GK*%
%TO.N,Net-(D3-GK)*%
X110000000Y-80000000D03*
%TO.P,D3,4,BK*%
%TO.N,Net-(D3-BK)*%
X111270000Y-80000000D03*
%TD*%
D15*
%TO.P,R16,1*%
%TO.N,Net-(U1B--)*%
X133135033Y-101885273D03*
D16*
%TO.P,R16,2*%
%TO.N,Net-(C10-Pad1)*%
X133135033Y-91725273D03*
%TD*%
D15*
%TO.P,R13,1*%
%TO.N,/LED_2_G*%
X138920000Y-101000000D03*
D16*
%TO.P,R13,2*%
%TO.N,Net-(D4-GK)*%
X149080000Y-101000000D03*
%TD*%
D15*
%TO.P,C9,1*%
%TO.N,Net-(C9-Pad1)*%
X122641261Y-75392489D03*
%TO.P,C9,2*%
%TO.N,Net-(C9-Pad2)*%
X117641261Y-75392489D03*
%TD*%
%TO.P,R4,1*%
%TO.N,Net-(U1A-+)*%
X137184369Y-51938278D03*
D16*
%TO.P,R4,2*%
%TO.N,GND*%
X147344369Y-51938278D03*
%TD*%
D17*
%TO.P,J8,1*%
%TO.N,N/C*%
X121343000Y-51832521D03*
%TD*%
D15*
%TO.P,C7,1*%
%TO.N,Net-(C12-Pad2)*%
X147500000Y-86000000D03*
%TO.P,C7,2*%
%TO.N,Net-(U1C-+)*%
X142500000Y-86000000D03*
%TD*%
%TO.P,C10,1*%
%TO.N,Net-(C10-Pad1)*%
X141773178Y-91715983D03*
%TO.P,C10,2*%
%TO.N,Net-(J9-Pin_1)*%
X146773178Y-91715983D03*
%TD*%
%TO.P,R18,1*%
%TO.N,Net-(J9-Pin_1)*%
X152492686Y-98337906D03*
D16*
%TO.P,R18,2*%
%TO.N,GND*%
X152492686Y-108497906D03*
%TD*%
D15*
%TO.P,R19,1*%
%TO.N,+5V*%
X130080000Y-92000000D03*
D16*
%TO.P,R19,2*%
%TO.N,Net-(U1D-+)*%
X119920000Y-92000000D03*
%TD*%
D18*
%TO.P,D1,1,K*%
%TO.N,Net-(D1-K)*%
X125730000Y-108000000D03*
D19*
%TO.P,D1,2,A*%
%TO.N,Net-(D1-A)*%
X128270000Y-108000000D03*
%TD*%
D15*
%TO.P,R9,1*%
%TO.N,/LED_1_R*%
X117080000Y-95000000D03*
D16*
%TO.P,R9,2*%
%TO.N,Net-(D3-RK)*%
X106920000Y-95000000D03*
%TD*%
D15*
%TO.P,C3,1*%
%TO.N,GND*%
X138059677Y-76973138D03*
%TO.P,C3,2*%
%TO.N,/VCC*%
X133059677Y-76973138D03*
%TD*%
D10*
%TO.P,J9,1,Pin_1*%
%TO.N,Net-(J9-Pin_1)*%
X152544920Y-95704947D03*
%TD*%
%TO.P,J5,1,Pin_1*%
%TO.N,GND*%
X139834357Y-108332163D03*
%TD*%
D13*
%TO.P,D4,1,RK*%
%TO.N,Net-(D4-RK)*%
X146270000Y-80000000D03*
D14*
%TO.P,D4,2,A*%
%TO.N,/3v3*%
X145000000Y-80000000D03*
%TO.P,D4,3,GK*%
%TO.N,Net-(D4-GK)*%
X143730000Y-80000000D03*
%TO.P,D4,4,BK*%
%TO.N,Net-(D4-BK)*%
X142460000Y-80000000D03*
%TD*%
D15*
%TO.P,R22,1*%
%TO.N,/Right out*%
X152461572Y-93116935D03*
D16*
%TO.P,R22,2*%
%TO.N,Net-(C12-Pad2)*%
X152461572Y-82956935D03*
%TD*%
D15*
%TO.P,R7,1*%
%TO.N,+5V*%
X101840000Y-55000000D03*
D16*
%TO.P,R7,2*%
%TO.N,Net-(U1B-+)*%
X112000000Y-55000000D03*
%TD*%
D15*
%TO.P,R14,1*%
%TO.N,/LED_2_B*%
X138887232Y-94788600D03*
D16*
%TO.P,R14,2*%
%TO.N,Net-(D4-BK)*%
X149047232Y-94788600D03*
%TD*%
D18*
%TO.P,RV2,1,1*%
%TO.N,GND*%
X144500000Y-73050000D03*
D19*
%TO.P,RV2,2,2*%
%TO.N,Net-(A1-ADC_0)*%
X147000000Y-73050000D03*
%TO.P,RV2,3,3*%
%TO.N,/3v3*%
X149500000Y-73050000D03*
D20*
%TO.P,RV2,MP*%
%TO.N,N/C*%
X142600000Y-66050000D03*
X151400000Y-66050000D03*
%TD*%
D15*
%TO.P,R20,1*%
%TO.N,Net-(U1D-+)*%
X119920000Y-95000000D03*
D16*
%TO.P,R20,2*%
%TO.N,GND*%
X130080000Y-95000000D03*
%TD*%
D15*
%TO.P,R3,1*%
%TO.N,+5V*%
X137264369Y-54938278D03*
D16*
%TO.P,R3,2*%
%TO.N,Net-(U1A-+)*%
X147424369Y-54938278D03*
%TD*%
D15*
%TO.P,C11,1*%
%TO.N,GND*%
X118000000Y-53000000D03*
%TO.P,C11,2*%
%TO.N,Net-(C11-Pad2)*%
X118000000Y-58000000D03*
%TD*%
%TO.P,R8,1*%
%TO.N,Net-(U1B-+)*%
X112000000Y-52000000D03*
D16*
%TO.P,R8,2*%
%TO.N,GND*%
X101840000Y-52000000D03*
%TD*%
D18*
%TO.P,RV1,1,1*%
%TO.N,GND*%
X104500000Y-73050000D03*
D19*
%TO.P,RV1,2,2*%
%TO.N,Net-(A1-ADC_6)*%
X107000000Y-73050000D03*
%TO.P,RV1,3,3*%
%TO.N,/3v3*%
X109500000Y-73050000D03*
D20*
%TO.P,RV1,MP*%
%TO.N,N/C*%
X102600000Y-66050000D03*
X111400000Y-66050000D03*
%TD*%
D15*
%TO.P,R12,1*%
%TO.N,/LED_2_R*%
X138920000Y-97914528D03*
D16*
%TO.P,R12,2*%
%TO.N,Net-(D4-RK)*%
X149080000Y-97914528D03*
%TD*%
D15*
%TO.P,R10,1*%
%TO.N,/LED_1_G*%
X117080000Y-98000000D03*
D16*
%TO.P,R10,2*%
%TO.N,Net-(D3-GK)*%
X106920000Y-98000000D03*
%TD*%
D21*
%TO.P,SW1,1,1*%
%TO.N,Net-(A1-SAI2_FS)*%
X106000000Y-108000000D03*
D22*
%TO.P,SW1,2,2*%
%TO.N,GND*%
X102000000Y-108000000D03*
%TD*%
D15*
%TO.P,R1,1*%
%TO.N,Net-(BT1-+)*%
X130080000Y-98000000D03*
D16*
%TO.P,R1,2*%
%TO.N,Net-(D1-A)*%
X119920000Y-98000000D03*
%TD*%
D15*
%TO.P,C6,1*%
%TO.N,GND*%
X138000000Y-86000000D03*
%TO.P,C6,2*%
%TO.N,+5V*%
X133000000Y-86000000D03*
%TD*%
%TO.P,C4,1*%
%TO.N,GND*%
X138059677Y-79973138D03*
%TO.P,C4,2*%
%TO.N,/VCC*%
X133059677Y-79973138D03*
%TD*%
D17*
%TO.P,J4,1,Pin_1*%
%TO.N,Net-(J4-Pin_1)*%
X151000000Y-52000000D03*
%TD*%
D23*
%TO.P,SW3,A,A*%
%TO.N,Net-(A1-SAI2_SD_A)*%
X124500000Y-72000000D03*
D24*
%TO.P,SW3,B,B*%
%TO.N,Net-(A1-SAI2_SD_B)*%
X129500000Y-72000000D03*
%TO.P,SW3,C,C*%
%TO.N,GND*%
X127000000Y-72000000D03*
D25*
%TO.P,SW3,MP*%
%TO.N,N/C*%
X121400000Y-64500000D03*
X132600000Y-64500000D03*
D24*
%TO.P,SW3,S1,S1*%
%TO.N,GND*%
X124500000Y-57500000D03*
%TO.P,SW3,S2,S2*%
%TO.N,/ENC_CLICK*%
X129500000Y-57500000D03*
%TD*%
D15*
%TO.P,C12,1*%
%TO.N,GND*%
X101576468Y-82302941D03*
%TO.P,C12,2*%
%TO.N,Net-(C12-Pad2)*%
X101576468Y-77302941D03*
%TD*%
%TO.P,C8,1*%
%TO.N,Net-(C11-Pad2)*%
X115000000Y-58000000D03*
%TO.P,C8,2*%
%TO.N,Net-(U1B-+)*%
X115000000Y-53000000D03*
%TD*%
%TO.P,R2,1*%
%TO.N,Net-(J4-Pin_1)*%
X147424369Y-57938278D03*
D16*
%TO.P,R2,2*%
%TO.N,GND*%
X137264369Y-57938278D03*
%TD*%
D15*
%TO.P,R11,1*%
%TO.N,/LED_1_B*%
X117080000Y-101000000D03*
D16*
%TO.P,R11,2*%
%TO.N,Net-(D3-BK)*%
X106920000Y-101000000D03*
%TD*%
D10*
%TO.P,J3,1,Pin_1*%
%TO.N,Net-(D1-K)*%
X121717602Y-108046503D03*
%TD*%
D15*
%TO.P,R5,1*%
%TO.N,+5V*%
X111834916Y-85877458D03*
D16*
%TO.P,R5,2*%
%TO.N,Net-(U1C-+)*%
X101674916Y-85877458D03*
%TD*%
D26*
%TO.P,BT1,1,+*%
%TO.N,Net-(BT1-+)*%
X132234097Y-108341084D03*
D27*
%TO.P,BT1,2,-*%
%TO.N,GND*%
X136434097Y-108341084D03*
%TD*%
D15*
%TO.P,R17,1*%
%TO.N,Net-(C9-Pad2)*%
X102868752Y-91475009D03*
D16*
%TO.P,R17,2*%
%TO.N,GND*%
X102868752Y-101635009D03*
%TD*%
D15*
%TO.P,R15,1*%
%TO.N,Net-(U1C--)*%
X117578672Y-72743604D03*
D16*
%TO.P,R15,2*%
%TO.N,Net-(C9-Pad1)*%
X117578672Y-62583604D03*
%TD*%
D15*
%TO.P,R21,1*%
%TO.N,/Left out*%
X101840000Y-58000000D03*
D16*
%TO.P,R21,2*%
%TO.N,Net-(C11-Pad2)*%
X112000000Y-58000000D03*
%TD*%
D15*
%TO.P,C5,1*%
%TO.N,GND*%
X138059677Y-82973138D03*
%TO.P,C5,2*%
%TO.N,+5V*%
X133059677Y-82973138D03*
%TD*%
D28*
%TO.P,U1,1*%
%TO.N,/Left in*%
X130066294Y-78523539D03*
D16*
%TO.P,U1,2,-*%
X127526294Y-78523539D03*
%TO.P,U1,3,+*%
%TO.N,Net-(U1A-+)*%
X124986294Y-78523539D03*
%TO.P,U1,4,V+*%
%TO.N,+5V*%
X122446294Y-78523539D03*
%TO.P,U1,5,+*%
%TO.N,Net-(U1B-+)*%
X119906294Y-78523539D03*
%TO.P,U1,6,-*%
%TO.N,Net-(U1B--)*%
X117366294Y-78523539D03*
%TO.P,U1,7*%
X114826294Y-78523539D03*
%TO.P,U1,8*%
%TO.N,Net-(U1C--)*%
X114826294Y-86143539D03*
%TO.P,U1,9,-*%
X117366294Y-86143539D03*
%TO.P,U1,10,+*%
%TO.N,Net-(U1C-+)*%
X119906294Y-86143539D03*
%TO.P,U1,11,V-*%
%TO.N,GND*%
X122446294Y-86143539D03*
%TO.P,U1,12,+*%
%TO.N,Net-(U1D-+)*%
X124986294Y-86143539D03*
%TO.P,U1,13,-*%
%TO.N,Net-(U1D--)*%
X127526294Y-86143539D03*
%TO.P,U1,14*%
X130066294Y-86143539D03*
%TD*%
D15*
%TO.P,C2,1*%
%TO.N,Net-(J4-Pin_1)*%
X130162851Y-75428426D03*
%TO.P,C2,2*%
%TO.N,Net-(U1A-+)*%
X125162851Y-75428426D03*
%TD*%
D21*
%TO.P,SW2,1,1*%
%TO.N,Net-(A1-SAI2_SCK)*%
X147168626Y-108207141D03*
D22*
%TO.P,SW2,2,2*%
%TO.N,GND*%
X143168626Y-108207141D03*
%TD*%
D15*
%TO.P,R6,1*%
%TO.N,Net-(U1C-+)*%
X106792500Y-91889742D03*
D16*
%TO.P,R6,2*%
%TO.N,GND*%
X116952500Y-91889742D03*
%TD*%
D15*
%TO.P,C1,1*%
%TO.N,/VCC*%
X151425383Y-55481020D03*
%TO.P,C1,2*%
%TO.N,GND*%
X151425383Y-57481020D03*
%TD*%
D29*
%TO.P,A1,1,USB_ID*%
%TO.N,unconnected-(A1-USB_ID-Pad1)*%
X101520000Y-89000000D03*
D22*
%TO.P,A1,2,SD_DATA_3*%
%TO.N,unconnected-(A1-SD_DATA_3-Pad2)*%
X104060000Y-89000000D03*
%TO.P,A1,3,SD_DATA_2*%
%TO.N,unconnected-(A1-SD_DATA_2-Pad3)*%
X106600000Y-89000000D03*
%TO.P,A1,4,SD_DATA_1*%
%TO.N,unconnected-(A1-SD_DATA_1-Pad4)*%
X109140000Y-89000000D03*
%TO.P,A1,5,SD_DATA_0*%
%TO.N,unconnected-(A1-SD_DATA_0-Pad5)*%
X111680000Y-89000000D03*
%TO.P,A1,6,SD_CMD*%
%TO.N,unconnected-(A1-SD_CMD-Pad6)*%
X114220000Y-89000000D03*
%TO.P,A1,7,SD_CLK*%
%TO.N,unconnected-(A1-SD_CLK-Pad7)*%
X116760000Y-89000000D03*
%TO.P,A1,8,SPI1_CS*%
%TO.N,unconnected-(A1-SPI1_CS-Pad8)*%
X119300000Y-89000000D03*
%TO.P,A1,9,SPI1_SCK*%
%TO.N,unconnected-(A1-SPI1_SCK-Pad9)*%
X121840000Y-89000000D03*
%TO.P,A1,10,SPI1_POCI*%
%TO.N,unconnected-(A1-SPI1_POCI-Pad10)*%
X124380000Y-89000000D03*
%TO.P,A1,11,SPI1_PICO*%
%TO.N,unconnected-(A1-SPI1_PICO-Pad11)*%
X126920000Y-89000000D03*
%TO.P,A1,12,I2C1_SCL*%
%TO.N,unconnected-(A1-I2C1_SCL-Pad12)*%
X129460000Y-89000000D03*
%TO.P,A1,13,I2C1_SDA*%
%TO.N,unconnected-(A1-I2C1_SDA-Pad13)*%
X132000000Y-89000000D03*
%TO.P,A1,14,USART1_TX*%
%TO.N,/ENC_CLICK*%
X134540000Y-89000000D03*
%TO.P,A1,15,USART1_RX*%
%TO.N,unconnected-(A1-USART1_RX-Pad15)*%
X137080000Y-89000000D03*
%TO.P,A1,16,AUDIO_IN_1*%
%TO.N,/Left in*%
X139620000Y-89000000D03*
%TO.P,A1,17,AUDIO_IN_2*%
%TO.N,unconnected-(A1-AUDIO_IN_2-Pad17)*%
X142160000Y-89000000D03*
%TO.P,A1,18,AUDIO_OUT_1*%
%TO.N,/Left out*%
X144700000Y-89000000D03*
%TO.P,A1,19,AUDIO_OUT_2*%
%TO.N,/Right out*%
X147240000Y-89000000D03*
%TO.P,A1,20,AGND*%
%TO.N,GND*%
X149780000Y-89000000D03*
%TO.P,A1,21,3V3_A*%
%TO.N,/3v3*%
X149780000Y-104240000D03*
%TO.P,A1,22,ADC_0*%
%TO.N,Net-(A1-ADC_0)*%
X147240000Y-104240000D03*
%TO.P,A1,23,ADC_1*%
%TO.N,unconnected-(A1-ADC_1-Pad23)*%
X144700000Y-104240000D03*
%TO.P,A1,24,ADC_2*%
%TO.N,/LED_2_R*%
X142160000Y-104240000D03*
%TO.P,A1,25,ADC_3*%
%TO.N,/LED_1_B*%
X139620000Y-104240000D03*
%TO.P,A1,26,ADC_4*%
%TO.N,/LED_1_G*%
X137080000Y-104240000D03*
%TO.P,A1,27,ADC_5*%
%TO.N,/LED_1_R*%
X134540000Y-104240000D03*
%TO.P,A1,28,ADC_6*%
%TO.N,Net-(A1-ADC_6)*%
X132000000Y-104240000D03*
%TO.P,A1,29,DAC_OUT2*%
%TO.N,unconnected-(A1-DAC_OUT2-Pad29)*%
X129460000Y-104240000D03*
%TO.P,A1,30,DAC_OUT1*%
%TO.N,/LED_2_B*%
X126920000Y-104240000D03*
%TO.P,A1,31,SAI2_MCLK*%
%TO.N,/LED_2_G*%
X124380000Y-104240000D03*
%TO.P,A1,32,SAI2_SD_B*%
%TO.N,Net-(A1-SAI2_SD_B)*%
X121840000Y-104240000D03*
%TO.P,A1,33,SAI2_SD_A*%
%TO.N,Net-(A1-SAI2_SD_A)*%
X119300000Y-104240000D03*
%TO.P,A1,34,SAI2_FS*%
%TO.N,Net-(A1-SAI2_FS)*%
X116760000Y-104240000D03*
%TO.P,A1,35,SAI2_SCK*%
%TO.N,Net-(A1-SAI2_SCK)*%
X114220000Y-104240000D03*
%TO.P,A1,36,USB_D_-*%
%TO.N,unconnected-(A1-USB_D_--Pad36)*%
X111680000Y-104240000D03*
%TO.P,A1,37,USB_D_+*%
%TO.N,unconnected-(A1-USB_D_+-Pad37)*%
X109140000Y-104240000D03*
%TO.P,A1,38,3V3_D*%
%TO.N,unconnected-(A1-3V3_D-Pad38)*%
X106600000Y-104240000D03*
%TO.P,A1,39,VIN*%
%TO.N,/VCC*%
X104060000Y-104240000D03*
%TO.P,A1,40,DGND*%
%TO.N,GND*%
X101520000Y-104240000D03*
%TD*%
D18*
%TO.P,U2,1,VO*%
%TO.N,+5V*%
X150720433Y-75940131D03*
D19*
%TO.P,U2,2,GND*%
%TO.N,GND*%
X150720433Y-78480131D03*
%TO.P,U2,3,VI*%
%TO.N,/VCC*%
X150720433Y-81020131D03*
%TD*%
D30*
%TO.N,/ENC_CLICK*%
X135000000Y-86000000D03*
%TO.N,/Left in*%
X135487347Y-84487347D03*
%TO.N,GND*%
X136000000Y-87000000D03*
X131550000Y-90500000D03*
X137000000Y-97500000D03*
X130250000Y-61250000D03*
%TO.N,/LED_1_B*%
X135000000Y-100000000D03*
%TO.N,/LED_1_G*%
X134000000Y-99000000D03*
%TO.N,/LED_1_R*%
X124000000Y-100500000D03*
%TO.N,/LED_2_B*%
X132000000Y-106000000D03*
%TO.N,Net-(A1-SAI2_SD_A)*%
X113000000Y-101000000D03*
%TO.N,Net-(A1-SAI2_SCK)*%
X135000000Y-93000000D03*
%TO.N,/VCC*%
X153000000Y-79500000D03*
%TO.N,+5V*%
X131000000Y-83500000D03*
X139810000Y-84275000D03*
%TO.N,Net-(J4-Pin_1)*%
X147500000Y-63000000D03*
%TO.N,Net-(U1A-+)*%
X135500000Y-59000000D03*
%TO.N,Net-(U1C-+)*%
X133000000Y-87500000D03*
%TO.N,Net-(C12-Pad2)*%
X135000000Y-82000000D03*
%TD*%
D31*
%TO.N,/ENC_CLICK*%
X135000000Y-88540000D02*
X134540000Y-89000000D01*
X135000000Y-86000000D02*
X135000000Y-88540000D01*
%TO.N,/Left in*%
X135487347Y-84487347D02*
X135487347Y-85078338D01*
X130066294Y-78523539D02*
X127526294Y-78523539D01*
X135487347Y-85078338D02*
X139409009Y-89000000D01*
X139409009Y-89000000D02*
X139620000Y-89000000D01*
%TO.N,GND*%
X102868752Y-101631248D02*
X101520000Y-102980000D01*
X118125000Y-88513299D02*
X119138299Y-87500000D01*
X149495433Y-77165131D02*
X149495433Y-74786979D01*
X150720433Y-78390131D02*
X149495433Y-77165131D01*
X101520000Y-102980000D02*
X101520000Y-104240000D01*
X101576468Y-82302941D02*
X101576468Y-82076468D01*
X132384657Y-90884657D02*
X132769314Y-90500000D01*
X102868752Y-101635009D02*
X103668751Y-102435008D01*
X118125000Y-90717242D02*
X118125000Y-88513299D01*
X134500000Y-95000000D02*
X130080000Y-95000000D01*
X132000000Y-90500000D02*
X132384657Y-90884657D01*
X124500000Y-57500000D02*
X124500000Y-57000000D01*
X133561722Y-57938278D02*
X137264369Y-57938278D01*
X101576468Y-82076468D02*
X101500000Y-82000000D01*
X104500000Y-79000000D02*
X104500000Y-73050000D01*
X135715000Y-89785000D02*
X135715000Y-87285000D01*
X149182412Y-71000000D02*
X146550000Y-71000000D01*
X137264369Y-57938278D02*
X141344369Y-57938278D01*
X151000000Y-73282412D02*
X151000000Y-72817588D01*
X135715000Y-87285000D02*
X136000000Y-87000000D01*
X116952500Y-92558491D02*
X116952500Y-91889742D01*
X149495433Y-74786979D02*
X151000000Y-73282412D01*
X124500000Y-57000000D02*
X122000000Y-57000000D01*
X150720433Y-78480131D02*
X150720433Y-78390131D01*
X102868752Y-101635009D02*
X102868752Y-101631248D01*
X121089833Y-87500000D02*
X122446294Y-86143539D01*
X132769314Y-90500000D02*
X135000000Y-90500000D01*
X122000000Y-57000000D02*
X118000000Y-53000000D01*
X146550000Y-71000000D02*
X144500000Y-73050000D01*
X151000000Y-72817588D02*
X149182412Y-71000000D01*
X119138299Y-87500000D02*
X121089833Y-87500000D01*
X130080000Y-95000000D02*
X132010033Y-93069967D01*
X137000000Y-97500000D02*
X134500000Y-95000000D01*
X116952500Y-91889742D02*
X118125000Y-90717242D01*
X132010033Y-93069967D02*
X132010033Y-91259282D01*
X135000000Y-90500000D02*
X135715000Y-89785000D01*
X141344369Y-57938278D02*
X147344369Y-51938278D01*
X132010033Y-91259282D02*
X132384657Y-90884657D01*
X101500000Y-82000000D02*
X104500000Y-79000000D01*
X107075983Y-102435008D02*
X116952500Y-92558491D01*
X131550000Y-90500000D02*
X132000000Y-90500000D01*
X130250000Y-61250000D02*
X133561722Y-57938278D01*
X103668751Y-102435008D02*
X107075983Y-102435008D01*
%TO.N,/3v3*%
X149795131Y-79795131D02*
X151295131Y-79795131D01*
X109500000Y-73050000D02*
X109050000Y-73050000D01*
X145000000Y-79185000D02*
X145410000Y-78775000D01*
X153869920Y-100150080D02*
X149780000Y-104240000D01*
X145000000Y-77550000D02*
X145000000Y-80000000D01*
X149500000Y-73050000D02*
X145000000Y-77550000D01*
X109050000Y-73050000D02*
X109000000Y-73000000D01*
X109000000Y-73000000D02*
X108730000Y-73270000D01*
X108730000Y-73270000D02*
X108730000Y-80000000D01*
X153869920Y-82369920D02*
X153869920Y-100150080D01*
X145410000Y-78775000D02*
X148775000Y-78775000D01*
X151295131Y-79795131D02*
X153869920Y-82369920D01*
X148775000Y-78775000D02*
X149795131Y-79795131D01*
X145000000Y-80000000D02*
X145000000Y-79185000D01*
%TO.N,/LED_1_B*%
X135380000Y-100000000D02*
X139620000Y-104240000D01*
X135000000Y-100000000D02*
X135380000Y-100000000D01*
%TO.N,/LED_1_G*%
X134000000Y-101160000D02*
X137080000Y-104240000D01*
X134000000Y-99000000D02*
X134000000Y-101160000D01*
%TO.N,/LED_1_R*%
X117080000Y-95000000D02*
X117000000Y-95000000D01*
X118500000Y-96500000D02*
X120010991Y-96500000D01*
X117000000Y-95000000D02*
X118500000Y-96500000D01*
X124000000Y-100489009D02*
X124000000Y-100500000D01*
X120010991Y-96500000D02*
X124000000Y-100489009D01*
%TO.N,/LED_2_B*%
X140985000Y-97522764D02*
X138569034Y-95106798D01*
X140000000Y-106000000D02*
X141000000Y-105000000D01*
X141000000Y-105000000D02*
X140985000Y-104985000D01*
X132000000Y-106000000D02*
X140000000Y-106000000D01*
X140985000Y-104985000D02*
X140985000Y-97522764D01*
%TO.N,/LED_2_G*%
X128955000Y-99665000D02*
X124380000Y-104240000D01*
X134045000Y-96125000D02*
X130000000Y-96125000D01*
X130000000Y-96125000D02*
X128955000Y-97170000D01*
X138920000Y-101000000D02*
X134045000Y-96125000D01*
X128955000Y-97170000D02*
X128955000Y-99665000D01*
%TO.N,Net-(A1-SAI2_SD_B)*%
X123861294Y-78989530D02*
X126401294Y-81529530D01*
X125745000Y-88513299D02*
X125745000Y-100335000D01*
X123861294Y-75138992D02*
X123861294Y-78989530D01*
X126401294Y-81529530D02*
X126401294Y-87857005D01*
X124821859Y-74178427D02*
X123861294Y-75138992D01*
X127321573Y-74178427D02*
X124821859Y-74178427D01*
X125745000Y-100335000D02*
X121840000Y-104240000D01*
X129500000Y-72000000D02*
X127321573Y-74178427D01*
X126401294Y-87857005D02*
X125745000Y-88513299D01*
%TO.N,Net-(A1-SAI2_SD_A)*%
X114500000Y-99500000D02*
X117500000Y-99500000D01*
X113000000Y-101000000D02*
X114500000Y-99500000D01*
X119300000Y-101300000D02*
X119300000Y-104240000D01*
X117500000Y-99500000D02*
X119300000Y-101300000D01*
%TO.N,Net-(A1-SAI2_FS)*%
X115585000Y-105415000D02*
X116760000Y-104240000D01*
X106000000Y-108000000D02*
X108585000Y-105415000D01*
X108585000Y-105415000D02*
X115585000Y-105415000D01*
%TO.N,Net-(A1-SAI2_SCK)*%
X135000000Y-93000000D02*
X141000000Y-93000000D01*
X147726701Y-99726701D02*
X147726701Y-103065000D01*
X148415000Y-106960767D02*
X147168626Y-108207141D01*
X147726701Y-103065000D02*
X148415000Y-103753299D01*
X141000000Y-93000000D02*
X147726701Y-99726701D01*
X148415000Y-103753299D02*
X148415000Y-106960767D01*
%TO.N,/VCC*%
X153725000Y-57780637D02*
X153725000Y-78775000D01*
X123205000Y-104726701D02*
X123205000Y-103753299D01*
X118000000Y-103818299D02*
X118000000Y-108000000D01*
X128285000Y-98673299D02*
X128285000Y-87715000D01*
X120585000Y-105415000D02*
X122516701Y-105415000D01*
X151425383Y-55481020D02*
X153725000Y-57780637D01*
D32*
X150720433Y-81020131D02*
X149820433Y-81920131D01*
D31*
X122516701Y-105415000D02*
X123205000Y-104726701D01*
X105300000Y-103000000D02*
X117181701Y-103000000D01*
X128941294Y-87058706D02*
X128941294Y-84091521D01*
X117181701Y-103000000D02*
X118000000Y-103818299D01*
X128285000Y-87715000D02*
X128941294Y-87058706D01*
X118000000Y-108000000D02*
X120585000Y-105415000D01*
X104060000Y-104240000D02*
X105300000Y-103000000D01*
X128941294Y-84091521D02*
X133059677Y-79973138D01*
D32*
X139123138Y-81123138D02*
X134209677Y-81123138D01*
X139920131Y-81920131D02*
X139123138Y-81123138D01*
D31*
X123205000Y-103753299D02*
X128285000Y-98673299D01*
D32*
X149820433Y-81920131D02*
X139920131Y-81920131D01*
X134209677Y-81123138D02*
X133059677Y-79973138D01*
D31*
X153725000Y-78775000D02*
X153000000Y-79500000D01*
X133059677Y-76973138D02*
X133059677Y-79973138D01*
D32*
%TO.N,Net-(BT1-+)*%
X111830000Y-109450000D02*
X110380000Y-108000000D01*
X127050000Y-109450000D02*
X111830000Y-109450000D01*
X130800000Y-106906987D02*
X130800000Y-98720000D01*
X127250000Y-109250000D02*
X127050000Y-109450000D01*
X130800000Y-98720000D02*
X130080000Y-98000000D01*
X131325181Y-109250000D02*
X127250000Y-109250000D01*
X132234097Y-108341084D02*
X131325181Y-109250000D01*
X132234097Y-108341084D02*
X130800000Y-106906987D01*
%TO.N,+5V*%
X139810000Y-84275000D02*
X139658138Y-84123138D01*
X142052647Y-50150000D02*
X137264369Y-54938278D01*
D31*
X133000000Y-86000000D02*
X130825000Y-88175000D01*
X130825000Y-91255000D02*
X130080000Y-92000000D01*
D32*
X139658138Y-84123138D02*
X137471666Y-84123138D01*
D31*
X132000000Y-85000000D02*
X133000000Y-86000000D01*
X122446294Y-78523539D02*
X121321294Y-79648539D01*
X121321294Y-79648539D02*
X118063835Y-79648539D01*
X131467185Y-83500000D02*
X132000000Y-84032815D01*
D32*
X153250000Y-63250000D02*
X148574369Y-58574369D01*
D31*
X130825000Y-88175000D02*
X130825000Y-91255000D01*
D32*
X148574369Y-50724369D02*
X148000000Y-50150000D01*
D31*
X131000000Y-83500000D02*
X131467185Y-83500000D01*
X133059677Y-82973138D02*
X132000000Y-84032815D01*
D32*
X153250000Y-73410564D02*
X153250000Y-63250000D01*
D31*
X121516261Y-77593506D02*
X122446294Y-78523539D01*
X132000000Y-84032815D02*
X132000000Y-85000000D01*
X118063835Y-79648539D02*
X111834916Y-85877458D01*
X101840000Y-55000000D02*
X103870282Y-55000000D01*
X103870282Y-55000000D02*
X121516261Y-72645979D01*
D32*
X148000000Y-50150000D02*
X142052647Y-50150000D01*
X137471666Y-84123138D02*
X136321666Y-82973138D01*
X148574369Y-58574369D02*
X148574369Y-50724369D01*
X136321666Y-82973138D02*
X133059677Y-82973138D01*
X150720433Y-75940131D02*
X153250000Y-73410564D01*
D31*
X121516261Y-72645979D02*
X121516261Y-77593506D01*
%TO.N,Net-(J4-Pin_1)*%
X130162851Y-75428426D02*
X138071574Y-75428426D01*
X138071574Y-75428426D02*
X147424369Y-66075631D01*
X147424369Y-66075631D02*
X147500000Y-66000000D01*
X147500000Y-66000000D02*
X147500000Y-63000000D01*
%TO.N,Net-(U1A-+)*%
X128871573Y-74628427D02*
X135500000Y-68000000D01*
X125162851Y-75428426D02*
X125162851Y-78346982D01*
X125162851Y-75428426D02*
X125962850Y-74628427D01*
X125162851Y-78346982D02*
X124986294Y-78523539D01*
X135500000Y-68000000D02*
X135500000Y-59000000D01*
X125962850Y-74628427D02*
X128871573Y-74628427D01*
%TO.N,Net-(D1-K)*%
X125730000Y-108000000D02*
X121764105Y-108000000D01*
X121764105Y-108000000D02*
X121717602Y-108046503D01*
%TO.N,Net-(D3-GK)*%
X110000000Y-80311224D02*
X110000000Y-80000000D01*
X102885000Y-89885000D02*
X102885000Y-87426224D01*
X103993752Y-95073752D02*
X103993752Y-90993752D01*
X103993752Y-90993752D02*
X102885000Y-89885000D01*
X106920000Y-98000000D02*
X103993752Y-95073752D01*
X102885000Y-87426224D02*
X110000000Y-80311224D01*
%TO.N,Net-(D3-BK)*%
X106920000Y-101000000D02*
X110315000Y-97605000D01*
X111270000Y-80365000D02*
X111270000Y-80000000D01*
X110315000Y-97605000D02*
X110315000Y-81320000D01*
X110315000Y-81320000D02*
X111270000Y-80365000D01*
%TO.N,Net-(U1C-+)*%
X134737653Y-83762347D02*
X136024999Y-83762347D01*
X136024999Y-83762347D02*
X136860790Y-84598138D01*
X133090991Y-87500000D02*
X134125000Y-86465991D01*
X142500000Y-86000000D02*
X143000000Y-86000000D01*
X140475475Y-86000000D02*
X142500000Y-86000000D01*
X139073613Y-84598138D02*
X140475475Y-86000000D01*
X133000000Y-87500000D02*
X133090991Y-87500000D01*
X134125000Y-84375000D02*
X134737653Y-83762347D01*
X136860790Y-84598138D02*
X139073613Y-84598138D01*
X134125000Y-86465991D02*
X134125000Y-84375000D01*
%TO.N,Net-(U1B-+)*%
X112000000Y-52000000D02*
X112000000Y-55000000D01*
X113000000Y-53000000D02*
X112000000Y-52000000D01*
X118267489Y-74267489D02*
X119906294Y-75906294D01*
X119906294Y-75906294D02*
X119906294Y-78523539D01*
X100715000Y-53910000D02*
X100715000Y-59715000D01*
X101500000Y-53125000D02*
X100715000Y-53910000D01*
X112000000Y-55000000D02*
X110125000Y-53125000D01*
X115267489Y-74267489D02*
X118267489Y-74267489D01*
X110125000Y-53125000D02*
X101500000Y-53125000D01*
X100715000Y-59715000D02*
X115267489Y-74267489D01*
X115000000Y-53000000D02*
X113000000Y-53000000D01*
%TO.N,Net-(J9-Pin_1)*%
X146998985Y-91500000D02*
X146609243Y-91889742D01*
X152500000Y-98500000D02*
X152544920Y-98455080D01*
X152492686Y-98337906D02*
X152492686Y-98492686D01*
X152544920Y-95704947D02*
X148339973Y-91500000D01*
X152492686Y-98492686D02*
X152500000Y-98500000D01*
X148339973Y-91500000D02*
X146998985Y-91500000D01*
X152544920Y-98455080D02*
X152544920Y-95704947D01*
%TO.N,Net-(C9-Pad1)*%
X117578672Y-62583604D02*
X117578672Y-67078672D01*
X117578672Y-67078672D02*
X122641261Y-72141261D01*
X122641261Y-72141261D02*
X122641261Y-75392489D01*
%TO.N,Net-(C9-Pad2)*%
X101600009Y-91475009D02*
X102868752Y-91475009D01*
X117641261Y-75392489D02*
X115392489Y-75392489D01*
X115392489Y-75392489D02*
X111000000Y-71000000D01*
X111000000Y-71000000D02*
X104000000Y-71000000D01*
X100125000Y-90000000D02*
X101600009Y-91475009D01*
X104000000Y-71000000D02*
X100125000Y-74875000D01*
X100125000Y-74875000D02*
X100125000Y-90000000D01*
%TO.N,Net-(C10-Pad1)*%
X141609243Y-91889742D02*
X141219501Y-91500000D01*
X133360306Y-91500000D02*
X133135033Y-91725273D01*
X141219501Y-91500000D02*
X133360306Y-91500000D01*
%TO.N,Net-(U1C--)*%
X117366294Y-86143539D02*
X114826294Y-86143539D01*
%TO.N,Net-(U1B--)*%
X117366294Y-78523539D02*
X114826294Y-78523539D01*
%TO.N,Net-(U1D-+)*%
X119920000Y-94920000D02*
X119920000Y-92000000D01*
X123205000Y-87924833D02*
X124986294Y-86143539D01*
X121051370Y-92000000D02*
X123205000Y-89846370D01*
X119920000Y-92000000D02*
X121051370Y-92000000D01*
X123205000Y-89846370D02*
X123205000Y-87924833D01*
X119920000Y-95000000D02*
X120000000Y-95000000D01*
X120000000Y-95000000D02*
X119920000Y-94920000D01*
%TO.N,Net-(C12-Pad2)*%
X138848138Y-81848138D02*
X141875000Y-84875000D01*
X135151862Y-81848138D02*
X138848138Y-81848138D01*
X150543065Y-82956935D02*
X147500000Y-86000000D01*
X146375000Y-84875000D02*
X147500000Y-86000000D01*
X152461572Y-82956935D02*
X150543065Y-82956935D01*
X135000000Y-82000000D02*
X135151862Y-81848138D01*
X141875000Y-84875000D02*
X146375000Y-84875000D01*
%TO.N,Net-(C11-Pad2)*%
X115000000Y-58000000D02*
X118000000Y-58000000D01*
X112000000Y-58000000D02*
X115000000Y-58000000D01*
%TD*%
%TA.AperFunction,Conductor*%
%TO.N,GND*%
G36*
X102634925Y-105001373D02*
G01*
X102688119Y-104925405D01*
X102742696Y-104881781D01*
X102812195Y-104874588D01*
X102874549Y-104906110D01*
X102891269Y-104925405D01*
X103021505Y-105111401D01*
X103188599Y-105278495D01*
X103285384Y-105346265D01*
X103382165Y-105414032D01*
X103382167Y-105414033D01*
X103382170Y-105414035D01*
X103596337Y-105513903D01*
X103596343Y-105513904D01*
X103596344Y-105513905D01*
X103607798Y-105516974D01*
X103824592Y-105575063D01*
X103997159Y-105590161D01*
X104059999Y-105595659D01*
X104060000Y-105595659D01*
X104060001Y-105595659D01*
X104099234Y-105592226D01*
X104295408Y-105575063D01*
X104523663Y-105513903D01*
X104737830Y-105414035D01*
X104931401Y-105278495D01*
X105098495Y-105111401D01*
X105228425Y-104925842D01*
X105283002Y-104882217D01*
X105352500Y-104875023D01*
X105414855Y-104906546D01*
X105431575Y-104925842D01*
X105561500Y-105111395D01*
X105561505Y-105111401D01*
X105728599Y-105278495D01*
X105825384Y-105346265D01*
X105922165Y-105414032D01*
X105922167Y-105414033D01*
X105922170Y-105414035D01*
X106136337Y-105513903D01*
X106136343Y-105513904D01*
X106136344Y-105513905D01*
X106147798Y-105516974D01*
X106364592Y-105575063D01*
X106537159Y-105590161D01*
X106599999Y-105595659D01*
X106600000Y-105595659D01*
X106600001Y-105595659D01*
X106639234Y-105592226D01*
X106835408Y-105575063D01*
X107063663Y-105513903D01*
X107277830Y-105414035D01*
X107471401Y-105278495D01*
X107638495Y-105111401D01*
X107768425Y-104925842D01*
X107823002Y-104882217D01*
X107892500Y-104875023D01*
X107954855Y-104906546D01*
X107971576Y-104925843D01*
X108001673Y-104968827D01*
X108024000Y-105035033D01*
X108006988Y-105102800D01*
X107987778Y-105127630D01*
X106502227Y-106613181D01*
X106440904Y-106646666D01*
X106414546Y-106649500D01*
X105349998Y-106649500D01*
X105349981Y-106649501D01*
X105247203Y-106660000D01*
X105247200Y-106660001D01*
X105080668Y-106715185D01*
X105080663Y-106715187D01*
X104931342Y-106807289D01*
X104807289Y-106931342D01*
X104715187Y-107080663D01*
X104715185Y-107080668D01*
X104687349Y-107164670D01*
X104660001Y-107247203D01*
X104660001Y-107247204D01*
X104660000Y-107247204D01*
X104649500Y-107349983D01*
X104649500Y-108650001D01*
X104649501Y-108650018D01*
X104660000Y-108752796D01*
X104687902Y-108836995D01*
X104690304Y-108906824D01*
X104654572Y-108966866D01*
X104592052Y-108998059D01*
X104570196Y-109000000D01*
X103186039Y-109000000D01*
X103119000Y-108980315D01*
X103073245Y-108927511D01*
X103063301Y-108858353D01*
X103084465Y-108804876D01*
X103173595Y-108677585D01*
X103173599Y-108677579D01*
X103273429Y-108463492D01*
X103273433Y-108463483D01*
X103334567Y-108235326D01*
X103334569Y-108235315D01*
X103355157Y-108000001D01*
X103355157Y-107999998D01*
X103334569Y-107764684D01*
X103334567Y-107764673D01*
X103273433Y-107536516D01*
X103273429Y-107536507D01*
X103173600Y-107322423D01*
X103173599Y-107322421D01*
X103114925Y-107238626D01*
X103114925Y-107238625D01*
X102350000Y-108003550D01*
X102350000Y-107953922D01*
X102326148Y-107864905D01*
X102280070Y-107785095D01*
X102214905Y-107719930D01*
X102135095Y-107673852D01*
X102046078Y-107650000D01*
X101996447Y-107650000D01*
X102761373Y-106885073D01*
X102761373Y-106885072D01*
X102677583Y-106826402D01*
X102677579Y-106826400D01*
X102463492Y-106726570D01*
X102463483Y-106726566D01*
X102235326Y-106665432D01*
X102235315Y-106665430D01*
X102000002Y-106644843D01*
X101999998Y-106644843D01*
X101764684Y-106665430D01*
X101764673Y-106665432D01*
X101536516Y-106726566D01*
X101536507Y-106726570D01*
X101322422Y-106826399D01*
X101322420Y-106826400D01*
X101195123Y-106915535D01*
X101128917Y-106937862D01*
X101061150Y-106920852D01*
X101013337Y-106869904D01*
X101000000Y-106813960D01*
X101000000Y-105659889D01*
X101019685Y-105592850D01*
X101072489Y-105547095D01*
X101141647Y-105537151D01*
X101156094Y-105540114D01*
X101284677Y-105574568D01*
X101284684Y-105574569D01*
X101519998Y-105595157D01*
X101520002Y-105595157D01*
X101755315Y-105574569D01*
X101755326Y-105574567D01*
X101983483Y-105513433D01*
X101983492Y-105513429D01*
X102197578Y-105413600D01*
X102197582Y-105413598D01*
X102281373Y-105354926D01*
X102281373Y-105354925D01*
X101690235Y-104763787D01*
X101732292Y-104752518D01*
X101857708Y-104680110D01*
X101960110Y-104577708D01*
X102032518Y-104452292D01*
X102043787Y-104410235D01*
X102634925Y-105001373D01*
G37*
%TD.AperFunction*%
%TA.AperFunction,Conductor*%
G36*
X138885612Y-106645185D02*
G01*
X138931367Y-106697989D01*
X138941311Y-106767147D01*
X138912286Y-106830703D01*
X138857577Y-106867206D01*
X138765237Y-106897804D01*
X138765232Y-106897806D01*
X138616011Y-106989847D01*
X138492041Y-107113817D01*
X138400000Y-107263038D01*
X138399998Y-107263043D01*
X138344851Y-107429465D01*
X138344850Y-107429472D01*
X138334357Y-107532176D01*
X138334357Y-108082163D01*
X139487947Y-108082163D01*
X139438320Y-108168119D01*
X139409357Y-108276211D01*
X139409357Y-108388115D01*
X139438320Y-108496207D01*
X139487947Y-108582163D01*
X138334358Y-108582163D01*
X138334358Y-108876000D01*
X138314673Y-108943039D01*
X138261869Y-108988794D01*
X138210358Y-109000000D01*
X137890928Y-109000000D01*
X137823889Y-108980315D01*
X137778134Y-108927511D01*
X137768190Y-108858353D01*
X137777372Y-108826190D01*
X137786506Y-108805365D01*
X137844479Y-108576431D01*
X137863981Y-108341089D01*
X137863981Y-108341078D01*
X137844479Y-108105736D01*
X137786505Y-107876800D01*
X137691643Y-107660537D01*
X137603345Y-107525386D01*
X136855822Y-108272909D01*
X136830134Y-108177040D01*
X136774181Y-108080128D01*
X136695053Y-108001000D01*
X136598141Y-107945047D01*
X136502270Y-107919358D01*
X137250709Y-107170917D01*
X137250709Y-107170915D01*
X137216177Y-107144038D01*
X137216171Y-107144034D01*
X137008475Y-107031634D01*
X137008467Y-107031631D01*
X136785115Y-106954954D01*
X136552176Y-106916084D01*
X136316018Y-106916084D01*
X136083078Y-106954954D01*
X135859726Y-107031631D01*
X135859718Y-107031634D01*
X135652019Y-107144036D01*
X135617483Y-107170915D01*
X135617482Y-107170917D01*
X136365924Y-107919358D01*
X136270053Y-107945047D01*
X136173141Y-108001000D01*
X136094013Y-108080128D01*
X136038060Y-108177040D01*
X136012371Y-108272911D01*
X135264846Y-107525386D01*
X135176551Y-107660534D01*
X135081688Y-107876800D01*
X135023714Y-108105736D01*
X135004213Y-108341078D01*
X135004213Y-108341089D01*
X135023714Y-108576431D01*
X135081687Y-108805365D01*
X135090822Y-108826190D01*
X135099725Y-108895490D01*
X135069748Y-108958602D01*
X135010408Y-108995489D01*
X134977266Y-109000000D01*
X133783597Y-109000000D01*
X133716558Y-108980315D01*
X133670803Y-108927511D01*
X133659597Y-108876000D01*
X133659596Y-107616082D01*
X133659595Y-107616065D01*
X133649096Y-107513287D01*
X133649095Y-107513284D01*
X133645982Y-107503889D01*
X133593911Y-107346750D01*
X133501809Y-107197428D01*
X133377753Y-107073372D01*
X133273465Y-107009047D01*
X133228433Y-106981271D01*
X133228428Y-106981269D01*
X133192978Y-106969522D01*
X133061894Y-106926085D01*
X133061892Y-106926084D01*
X132959113Y-106915584D01*
X132959106Y-106915584D01*
X132653461Y-106915584D01*
X132586422Y-106895899D01*
X132540667Y-106843095D01*
X132530723Y-106773937D01*
X132559748Y-106710381D01*
X132580576Y-106691266D01*
X132583377Y-106689230D01*
X132605871Y-106672888D01*
X132608788Y-106669647D01*
X132611600Y-106666526D01*
X132671087Y-106629879D01*
X132703748Y-106625500D01*
X138818573Y-106625500D01*
X138885612Y-106645185D01*
G37*
%TD.AperFunction*%
%TA.AperFunction,Conductor*%
G36*
X146054855Y-104906546D02*
G01*
X146071575Y-104925842D01*
X146201500Y-105111395D01*
X146201505Y-105111401D01*
X146368599Y-105278495D01*
X146465384Y-105346265D01*
X146562165Y-105414032D01*
X146562167Y-105414033D01*
X146562170Y-105414035D01*
X146776337Y-105513903D01*
X146776343Y-105513904D01*
X146776344Y-105513905D01*
X146787798Y-105516974D01*
X147004592Y-105575063D01*
X147177159Y-105590161D01*
X147239999Y-105595659D01*
X147240000Y-105595659D01*
X147240001Y-105595659D01*
X147279234Y-105592226D01*
X147475408Y-105575063D01*
X147605841Y-105540114D01*
X147633407Y-105532728D01*
X147703257Y-105534391D01*
X147761119Y-105573554D01*
X147788623Y-105637782D01*
X147789500Y-105652503D01*
X147789500Y-106650313D01*
X147769815Y-106717352D01*
X147753181Y-106737994D01*
X147670853Y-106820322D01*
X147609530Y-106853807D01*
X147583172Y-106856641D01*
X146518624Y-106856641D01*
X146518607Y-106856642D01*
X146415829Y-106867141D01*
X146415826Y-106867142D01*
X146249294Y-106922326D01*
X146249289Y-106922328D01*
X146099968Y-107014430D01*
X145975915Y-107138483D01*
X145883813Y-107287804D01*
X145883811Y-107287809D01*
X145855975Y-107371811D01*
X145828627Y-107454344D01*
X145828627Y-107454345D01*
X145828626Y-107454345D01*
X145818126Y-107557124D01*
X145818126Y-108857142D01*
X145818128Y-108857165D01*
X145818765Y-108863401D01*
X145805994Y-108932094D01*
X145758112Y-108982977D01*
X145695407Y-109000000D01*
X144483111Y-109000000D01*
X144416072Y-108980315D01*
X144370317Y-108927511D01*
X144360373Y-108858353D01*
X144370729Y-108823595D01*
X144442055Y-108670633D01*
X144442059Y-108670624D01*
X144503193Y-108442467D01*
X144503195Y-108442456D01*
X144523783Y-108207142D01*
X144523783Y-108207139D01*
X144503195Y-107971825D01*
X144503193Y-107971814D01*
X144442059Y-107743657D01*
X144442055Y-107743648D01*
X144342226Y-107529564D01*
X144342225Y-107529562D01*
X144283551Y-107445767D01*
X144283551Y-107445766D01*
X143518626Y-108210691D01*
X143518626Y-108161063D01*
X143494774Y-108072046D01*
X143448696Y-107992236D01*
X143383531Y-107927071D01*
X143303721Y-107880993D01*
X143214704Y-107857141D01*
X143122548Y-107857141D01*
X143033531Y-107880993D01*
X142953721Y-107927071D01*
X142888556Y-107992236D01*
X142842478Y-108072046D01*
X142818626Y-108161063D01*
X142818626Y-108210694D01*
X142053698Y-107445766D01*
X141995027Y-107529560D01*
X141895196Y-107743648D01*
X141895192Y-107743657D01*
X141834058Y-107971814D01*
X141834056Y-107971825D01*
X141813469Y-108207139D01*
X141813469Y-108207142D01*
X141834056Y-108442456D01*
X141834058Y-108442467D01*
X141895192Y-108670624D01*
X141895196Y-108670633D01*
X141966523Y-108823595D01*
X141977015Y-108892673D01*
X141948495Y-108956457D01*
X141890019Y-108994696D01*
X141854141Y-109000000D01*
X141458357Y-109000000D01*
X141391318Y-108980315D01*
X141345563Y-108927511D01*
X141334357Y-108876000D01*
X141334357Y-108582163D01*
X140180767Y-108582163D01*
X140230394Y-108496207D01*
X140259357Y-108388115D01*
X140259357Y-108276211D01*
X140230394Y-108168119D01*
X140180767Y-108082163D01*
X141334356Y-108082163D01*
X141334356Y-107532191D01*
X141334355Y-107532176D01*
X141323862Y-107429465D01*
X141268715Y-107263043D01*
X141268713Y-107263038D01*
X141176672Y-107113817D01*
X141155068Y-107092213D01*
X142407251Y-107092213D01*
X143168626Y-107853588D01*
X143168627Y-107853588D01*
X143929999Y-107092214D01*
X143929999Y-107092213D01*
X143846209Y-107033543D01*
X143846205Y-107033541D01*
X143632118Y-106933711D01*
X143632109Y-106933707D01*
X143403952Y-106872573D01*
X143403941Y-106872571D01*
X143168628Y-106851984D01*
X143168624Y-106851984D01*
X142933310Y-106872571D01*
X142933299Y-106872573D01*
X142705142Y-106933707D01*
X142705133Y-106933711D01*
X142491045Y-107033542D01*
X142407251Y-107092213D01*
X141155068Y-107092213D01*
X141052702Y-106989847D01*
X140903481Y-106897806D01*
X140903476Y-106897804D01*
X140737054Y-106842657D01*
X140737047Y-106842656D01*
X140634343Y-106832163D01*
X140248882Y-106832163D01*
X140181843Y-106812478D01*
X140136088Y-106759674D01*
X140126144Y-106690516D01*
X140155169Y-106626960D01*
X140201426Y-106593603D01*
X140232496Y-106580734D01*
X140296286Y-106554312D01*
X140347509Y-106520084D01*
X140398733Y-106485858D01*
X140485858Y-106398733D01*
X140485858Y-106398731D01*
X140496066Y-106388524D01*
X140496067Y-106388521D01*
X141412855Y-105471734D01*
X141474176Y-105438251D01*
X141543868Y-105443235D01*
X141552934Y-105447033D01*
X141696337Y-105513903D01*
X141696343Y-105513904D01*
X141696344Y-105513905D01*
X141707798Y-105516974D01*
X141924592Y-105575063D01*
X142097159Y-105590161D01*
X142159999Y-105595659D01*
X142160000Y-105595659D01*
X142160001Y-105595659D01*
X142199234Y-105592226D01*
X142395408Y-105575063D01*
X142623663Y-105513903D01*
X142837830Y-105414035D01*
X143031401Y-105278495D01*
X143198495Y-105111401D01*
X143328425Y-104925842D01*
X143383002Y-104882217D01*
X143452500Y-104875023D01*
X143514855Y-104906546D01*
X143531575Y-104925842D01*
X143661500Y-105111395D01*
X143661505Y-105111401D01*
X143828599Y-105278495D01*
X143925384Y-105346265D01*
X144022165Y-105414032D01*
X144022167Y-105414033D01*
X144022170Y-105414035D01*
X144236337Y-105513903D01*
X144236343Y-105513904D01*
X144236344Y-105513905D01*
X144247798Y-105516974D01*
X144464592Y-105575063D01*
X144637159Y-105590161D01*
X144699999Y-105595659D01*
X144700000Y-105595659D01*
X144700001Y-105595659D01*
X144739234Y-105592226D01*
X144935408Y-105575063D01*
X145163663Y-105513903D01*
X145377830Y-105414035D01*
X145571401Y-105278495D01*
X145738495Y-105111401D01*
X145868425Y-104925842D01*
X145923002Y-104882217D01*
X145992500Y-104875023D01*
X146054855Y-104906546D01*
G37*
%TD.AperFunction*%
%TA.AperFunction,Conductor*%
G36*
X152850180Y-102156923D02*
G01*
X152906113Y-102198795D01*
X152930530Y-102264259D01*
X152930845Y-102273491D01*
X152915816Y-107104209D01*
X152895923Y-107171187D01*
X152842977Y-107216777D01*
X152773788Y-107226505D01*
X152759723Y-107223598D01*
X152742686Y-107219033D01*
X152742686Y-108182220D01*
X152738292Y-108177826D01*
X152647080Y-108125165D01*
X152545347Y-108097906D01*
X152440025Y-108097906D01*
X152338292Y-108125165D01*
X152247080Y-108177826D01*
X152242686Y-108182220D01*
X152242686Y-107219033D01*
X152046357Y-107271640D01*
X151840203Y-107367771D01*
X151653865Y-107498248D01*
X151493028Y-107659085D01*
X151362551Y-107845423D01*
X151266420Y-108051579D01*
X151266416Y-108051588D01*
X151213813Y-108247905D01*
X151213814Y-108247906D01*
X152177000Y-108247906D01*
X152172606Y-108252300D01*
X152119945Y-108343512D01*
X152092686Y-108445245D01*
X152092686Y-108550567D01*
X152119945Y-108652300D01*
X152172606Y-108743512D01*
X152177000Y-108747906D01*
X151213814Y-108747906D01*
X151239537Y-108843906D01*
X151237874Y-108913756D01*
X151198712Y-108971619D01*
X151134483Y-108999123D01*
X151119762Y-109000000D01*
X148641846Y-109000000D01*
X148574807Y-108980315D01*
X148529052Y-108927511D01*
X148518488Y-108863399D01*
X148519125Y-108857162D01*
X148519125Y-108857159D01*
X148519126Y-108857150D01*
X148519125Y-107792591D01*
X148538809Y-107725553D01*
X148555439Y-107704916D01*
X148813729Y-107446627D01*
X148813733Y-107446625D01*
X148900858Y-107359500D01*
X148959896Y-107271144D01*
X148959898Y-107271142D01*
X148969308Y-107257059D01*
X148969308Y-107257058D01*
X148969312Y-107257053D01*
X149016463Y-107143218D01*
X149017405Y-107138485D01*
X149040500Y-107022373D01*
X149040500Y-105579918D01*
X149060185Y-105512879D01*
X149112989Y-105467124D01*
X149182147Y-105457180D01*
X149216899Y-105467534D01*
X149316337Y-105513903D01*
X149316342Y-105513904D01*
X149316344Y-105513905D01*
X149327798Y-105516974D01*
X149544592Y-105575063D01*
X149717159Y-105590161D01*
X149779999Y-105595659D01*
X149780000Y-105595659D01*
X149780001Y-105595659D01*
X149819234Y-105592226D01*
X150015408Y-105575063D01*
X150243663Y-105513903D01*
X150457830Y-105414035D01*
X150651401Y-105278495D01*
X150818495Y-105111401D01*
X150954035Y-104917830D01*
X151053903Y-104703663D01*
X151115063Y-104475408D01*
X151135659Y-104240000D01*
X151115063Y-104004592D01*
X151088143Y-103904125D01*
X151089806Y-103834276D01*
X151120235Y-103784353D01*
X152719167Y-102185422D01*
X152780488Y-102151939D01*
X152850180Y-102156923D01*
G37*
%TD.AperFunction*%
%TA.AperFunction,Conductor*%
G36*
X101195342Y-91958782D02*
G01*
X101196211Y-91957483D01*
X101303719Y-92029318D01*
X101303720Y-92029318D01*
X101303724Y-92029321D01*
X101364056Y-92054311D01*
X101417557Y-92076472D01*
X101538398Y-92100508D01*
X101538402Y-92100509D01*
X101538403Y-92100509D01*
X101654564Y-92100509D01*
X101721603Y-92120194D01*
X101756139Y-92153386D01*
X101868706Y-92314150D01*
X102029610Y-92475054D01*
X102029613Y-92475056D01*
X102216018Y-92605577D01*
X102422256Y-92701748D01*
X102642060Y-92760644D01*
X102803982Y-92774810D01*
X102868750Y-92780477D01*
X102868752Y-92780477D01*
X102868754Y-92780477D01*
X102925425Y-92775518D01*
X103095444Y-92760644D01*
X103212160Y-92729370D01*
X103282008Y-92731033D01*
X103339871Y-92770195D01*
X103367375Y-92834424D01*
X103368252Y-92849145D01*
X103368252Y-95135358D01*
X103388090Y-95235096D01*
X103392289Y-95256203D01*
X103439440Y-95370038D01*
X103463373Y-95405855D01*
X103463374Y-95405858D01*
X103463375Y-95405858D01*
X103507892Y-95472483D01*
X103507893Y-95472484D01*
X103507894Y-95472485D01*
X103595019Y-95559610D01*
X103595020Y-95559610D01*
X103602087Y-95566677D01*
X103602086Y-95566677D01*
X103602090Y-95566680D01*
X105620586Y-97585177D01*
X105654071Y-97646500D01*
X105652680Y-97704949D01*
X105634367Y-97773296D01*
X105634364Y-97773313D01*
X105614532Y-97999999D01*
X105614532Y-98000001D01*
X105634364Y-98226686D01*
X105634366Y-98226697D01*
X105693258Y-98446488D01*
X105693261Y-98446497D01*
X105789431Y-98652732D01*
X105789432Y-98652734D01*
X105919954Y-98839141D01*
X106080858Y-99000045D01*
X106080861Y-99000047D01*
X106267266Y-99130568D01*
X106473504Y-99226739D01*
X106693308Y-99285635D01*
X106850494Y-99299387D01*
X106919998Y-99305468D01*
X106920000Y-99305468D01*
X106920002Y-99305468D01*
X106989506Y-99299387D01*
X107146692Y-99285635D01*
X107366496Y-99226739D01*
X107557667Y-99137593D01*
X107626743Y-99127102D01*
X107690527Y-99155622D01*
X107728767Y-99214098D01*
X107729322Y-99283965D01*
X107697752Y-99337657D01*
X107334822Y-99700586D01*
X107273499Y-99734071D01*
X107215049Y-99732680D01*
X107152238Y-99715851D01*
X107146692Y-99714365D01*
X107146689Y-99714364D01*
X107146686Y-99714364D01*
X106920001Y-99694532D01*
X106919998Y-99694532D01*
X106693313Y-99714364D01*
X106693302Y-99714366D01*
X106473511Y-99773258D01*
X106473502Y-99773261D01*
X106267267Y-99869431D01*
X106267265Y-99869432D01*
X106080858Y-99999954D01*
X105919954Y-100160858D01*
X105789432Y-100347265D01*
X105789431Y-100347267D01*
X105693261Y-100553502D01*
X105693258Y-100553511D01*
X105634366Y-100773302D01*
X105634364Y-100773313D01*
X105614532Y-100999998D01*
X105614532Y-101000001D01*
X105634364Y-101226686D01*
X105634366Y-101226697D01*
X105693258Y-101446488D01*
X105693261Y-101446497D01*
X105789431Y-101652732D01*
X105789432Y-101652734D01*
X105919954Y-101839141D01*
X106080858Y-102000045D01*
X106080861Y-102000047D01*
X106267266Y-102130568D01*
X106283459Y-102138119D01*
X106335897Y-102184291D01*
X106355048Y-102251485D01*
X106334832Y-102318366D01*
X106281666Y-102363700D01*
X106231052Y-102374500D01*
X105238389Y-102374500D01*
X105177971Y-102386518D01*
X105124682Y-102397118D01*
X105117543Y-102398538D01*
X105084207Y-102412347D01*
X105070397Y-102418067D01*
X105048169Y-102427274D01*
X105003713Y-102445688D01*
X104993557Y-102452475D01*
X104993449Y-102452547D01*
X104901268Y-102514140D01*
X104877404Y-102538005D01*
X104814142Y-102601267D01*
X104814139Y-102601270D01*
X104515646Y-102899762D01*
X104454323Y-102933247D01*
X104395872Y-102931856D01*
X104295413Y-102904938D01*
X104295403Y-102904936D01*
X104060001Y-102884341D01*
X104059999Y-102884341D01*
X103824596Y-102904936D01*
X103824586Y-102904938D01*
X103689062Y-102941251D01*
X103619212Y-102939588D01*
X103561349Y-102900425D01*
X103533846Y-102836196D01*
X103545433Y-102767294D01*
X103585846Y-102719901D01*
X103707569Y-102634669D01*
X103868409Y-102473829D01*
X103998886Y-102287491D01*
X104095017Y-102081335D01*
X104095021Y-102081326D01*
X104147624Y-101885009D01*
X103184438Y-101885009D01*
X103188832Y-101880615D01*
X103241493Y-101789403D01*
X103268752Y-101687670D01*
X103268752Y-101582348D01*
X103241493Y-101480615D01*
X103188832Y-101389403D01*
X103184438Y-101385009D01*
X104147624Y-101385009D01*
X104147624Y-101385008D01*
X104095021Y-101188691D01*
X104095017Y-101188682D01*
X103998886Y-100982526D01*
X103868409Y-100796188D01*
X103707572Y-100635351D01*
X103521234Y-100504874D01*
X103315080Y-100408743D01*
X103118752Y-100356136D01*
X103118752Y-101319323D01*
X103114358Y-101314929D01*
X103023146Y-101262268D01*
X102921413Y-101235009D01*
X102816091Y-101235009D01*
X102714358Y-101262268D01*
X102623146Y-101314929D01*
X102618752Y-101319323D01*
X102618752Y-100356136D01*
X102422423Y-100408743D01*
X102216269Y-100504874D01*
X102029931Y-100635351D01*
X101869094Y-100796188D01*
X101738617Y-100982526D01*
X101642486Y-101188682D01*
X101642482Y-101188691D01*
X101589879Y-101385008D01*
X101589880Y-101385009D01*
X102553066Y-101385009D01*
X102548672Y-101389403D01*
X102496011Y-101480615D01*
X102468752Y-101582348D01*
X102468752Y-101687670D01*
X102496011Y-101789403D01*
X102548672Y-101880615D01*
X102553066Y-101885009D01*
X101589880Y-101885009D01*
X101642482Y-102081326D01*
X101642486Y-102081335D01*
X101738617Y-102287491D01*
X101869094Y-102473829D01*
X102029931Y-102634666D01*
X102216269Y-102765143D01*
X102422425Y-102861274D01*
X102422434Y-102861278D01*
X102618751Y-102913881D01*
X102618752Y-102913880D01*
X102618752Y-101950695D01*
X102623146Y-101955089D01*
X102714358Y-102007750D01*
X102816091Y-102035009D01*
X102921413Y-102035009D01*
X103023146Y-102007750D01*
X103114358Y-101955089D01*
X103118752Y-101950695D01*
X103118752Y-102913880D01*
X103218016Y-102887283D01*
X103287866Y-102888946D01*
X103345729Y-102928108D01*
X103373233Y-102992337D01*
X103361647Y-103061239D01*
X103321234Y-103108633D01*
X103188594Y-103201508D01*
X103021505Y-103368597D01*
X102891269Y-103554595D01*
X102836692Y-103598220D01*
X102767194Y-103605414D01*
X102704839Y-103573891D01*
X102688119Y-103554595D01*
X102634925Y-103478626D01*
X102634925Y-103478625D01*
X102043787Y-104069764D01*
X102032518Y-104027708D01*
X101960110Y-103902292D01*
X101857708Y-103799890D01*
X101732292Y-103727482D01*
X101690234Y-103716212D01*
X102281373Y-103125073D01*
X102281373Y-103125072D01*
X102197583Y-103066402D01*
X102197579Y-103066400D01*
X101983492Y-102966570D01*
X101983483Y-102966566D01*
X101755326Y-102905432D01*
X101755315Y-102905430D01*
X101520002Y-102884843D01*
X101519998Y-102884843D01*
X101284684Y-102905430D01*
X101284673Y-102905432D01*
X101156093Y-102939885D01*
X101086243Y-102938222D01*
X101028381Y-102899059D01*
X101000877Y-102834831D01*
X101000000Y-102820110D01*
X101000000Y-92057860D01*
X101019685Y-91990821D01*
X101072489Y-91945066D01*
X101141647Y-91935122D01*
X101195342Y-91958782D01*
G37*
%TD.AperFunction*%
%TA.AperFunction,Conductor*%
G36*
X120654855Y-89666546D02*
G01*
X120671575Y-89685842D01*
X120801505Y-89871401D01*
X120968599Y-90038495D01*
X121065384Y-90106265D01*
X121162165Y-90174032D01*
X121162167Y-90174033D01*
X121162170Y-90174035D01*
X121376337Y-90273903D01*
X121376343Y-90273904D01*
X121376344Y-90273905D01*
X121472647Y-90299709D01*
X121537705Y-90317141D01*
X121576262Y-90327472D01*
X121635923Y-90363837D01*
X121666452Y-90426683D01*
X121658158Y-90496059D01*
X121631850Y-90534928D01*
X121050663Y-91116115D01*
X120989340Y-91149600D01*
X120919648Y-91144616D01*
X120875302Y-91116116D01*
X120759139Y-90999953D01*
X120759138Y-90999952D01*
X120759137Y-90999951D01*
X120572734Y-90869432D01*
X120572732Y-90869431D01*
X120366497Y-90773261D01*
X120366488Y-90773258D01*
X120146697Y-90714366D01*
X120146693Y-90714365D01*
X120146692Y-90714365D01*
X120146691Y-90714364D01*
X120146686Y-90714364D01*
X119920002Y-90694532D01*
X119919998Y-90694532D01*
X119693313Y-90714364D01*
X119693302Y-90714366D01*
X119473511Y-90773258D01*
X119473502Y-90773261D01*
X119267267Y-90869431D01*
X119267265Y-90869432D01*
X119080858Y-90999954D01*
X118919954Y-91160858D01*
X118789432Y-91347265D01*
X118789431Y-91347267D01*
X118693261Y-91553502D01*
X118693258Y-91553511D01*
X118634366Y-91773302D01*
X118634364Y-91773313D01*
X118614532Y-91999998D01*
X118614532Y-92000001D01*
X118634364Y-92226686D01*
X118634366Y-92226697D01*
X118693258Y-92446488D01*
X118693261Y-92446497D01*
X118789431Y-92652732D01*
X118789432Y-92652734D01*
X118919954Y-92839141D01*
X119080858Y-93000045D01*
X119241623Y-93112613D01*
X119285248Y-93167189D01*
X119294500Y-93214188D01*
X119294500Y-93785811D01*
X119274815Y-93852850D01*
X119241623Y-93887386D01*
X119080859Y-93999953D01*
X118919954Y-94160858D01*
X118789432Y-94347265D01*
X118789431Y-94347267D01*
X118693261Y-94553502D01*
X118693258Y-94553511D01*
X118634366Y-94773302D01*
X118634364Y-94773312D01*
X118623528Y-94897175D01*
X118598075Y-94962243D01*
X118543682Y-95001631D01*
X118589061Y-95027353D01*
X118621569Y-95089200D01*
X118623528Y-95102825D01*
X118634364Y-95226686D01*
X118634366Y-95226697D01*
X118693258Y-95446488D01*
X118693263Y-95446502D01*
X118712505Y-95487766D01*
X118722997Y-95556843D01*
X118694477Y-95620627D01*
X118636000Y-95658866D01*
X118566133Y-95659420D01*
X118512442Y-95627851D01*
X118362507Y-95477916D01*
X118329022Y-95416593D01*
X118330413Y-95358141D01*
X118330490Y-95357853D01*
X118365635Y-95226692D01*
X118376472Y-95102825D01*
X118401924Y-95037756D01*
X118456317Y-94998367D01*
X118410939Y-94972646D01*
X118378431Y-94910799D01*
X118376472Y-94897175D01*
X118366973Y-94788600D01*
X118365635Y-94773308D01*
X118313975Y-94580509D01*
X118306741Y-94553511D01*
X118306738Y-94553502D01*
X118210568Y-94347267D01*
X118210567Y-94347265D01*
X118206953Y-94342104D01*
X118080047Y-94160861D01*
X118080045Y-94160858D01*
X117919141Y-93999954D01*
X117732734Y-93869432D01*
X117732732Y-93869431D01*
X117526497Y-93773261D01*
X117526488Y-93773258D01*
X117306697Y-93714366D01*
X117306693Y-93714365D01*
X117306692Y-93714365D01*
X117306691Y-93714364D01*
X117306686Y-93714364D01*
X117080002Y-93694532D01*
X117079998Y-93694532D01*
X116853313Y-93714364D01*
X116853302Y-93714366D01*
X116633511Y-93773258D01*
X116633502Y-93773261D01*
X116427267Y-93869431D01*
X116427265Y-93869432D01*
X116240858Y-93999954D01*
X116079954Y-94160858D01*
X115949432Y-94347265D01*
X115949431Y-94347267D01*
X115853261Y-94553502D01*
X115853258Y-94553511D01*
X115794366Y-94773302D01*
X115794364Y-94773313D01*
X115774532Y-94999998D01*
X115774532Y-95000001D01*
X115794364Y-95226686D01*
X115794366Y-95226697D01*
X115853258Y-95446488D01*
X115853261Y-95446497D01*
X115949431Y-95652732D01*
X115949432Y-95652734D01*
X116079954Y-95839141D01*
X116240858Y-96000045D01*
X116240861Y-96000047D01*
X116427266Y-96130568D01*
X116633504Y-96226739D01*
X116853308Y-96285635D01*
X117015230Y-96299801D01*
X117079998Y-96305468D01*
X117080000Y-96305468D01*
X117080002Y-96305468D01*
X117136673Y-96300509D01*
X117306692Y-96285635D01*
X117311942Y-96284228D01*
X117381790Y-96285883D01*
X117431727Y-96316318D01*
X117707851Y-96592442D01*
X117741336Y-96653765D01*
X117736352Y-96723457D01*
X117694480Y-96779390D01*
X117629016Y-96803807D01*
X117567766Y-96792505D01*
X117526502Y-96773263D01*
X117526488Y-96773258D01*
X117306697Y-96714366D01*
X117306693Y-96714365D01*
X117306692Y-96714365D01*
X117306691Y-96714364D01*
X117306686Y-96714364D01*
X117080002Y-96694532D01*
X117079998Y-96694532D01*
X116853313Y-96714364D01*
X116853302Y-96714366D01*
X116633511Y-96773258D01*
X116633502Y-96773261D01*
X116427267Y-96869431D01*
X116427265Y-96869432D01*
X116240858Y-96999954D01*
X116079954Y-97160858D01*
X115949432Y-97347265D01*
X115949431Y-97347267D01*
X115853261Y-97553502D01*
X115853258Y-97553511D01*
X115794366Y-97773302D01*
X115794364Y-97773313D01*
X115774532Y-97999998D01*
X115774532Y-98000001D01*
X115794364Y-98226686D01*
X115794366Y-98226697D01*
X115853258Y-98446488D01*
X115853261Y-98446497D01*
X115949431Y-98652732D01*
X115949432Y-98652734D01*
X115968088Y-98679378D01*
X115990415Y-98745583D01*
X115973405Y-98813350D01*
X115922457Y-98861163D01*
X115866513Y-98874500D01*
X114438389Y-98874500D01*
X114377971Y-98886518D01*
X114334743Y-98895116D01*
X114317546Y-98898537D01*
X114203716Y-98945687D01*
X114108381Y-99009387D01*
X114108382Y-99009388D01*
X114101265Y-99014143D01*
X114101260Y-99014147D01*
X113052229Y-100063181D01*
X112990906Y-100096666D01*
X112964548Y-100099500D01*
X112905354Y-100099500D01*
X112872897Y-100106398D01*
X112720197Y-100138855D01*
X112720192Y-100138857D01*
X112547270Y-100215848D01*
X112547265Y-100215851D01*
X112394129Y-100327111D01*
X112267466Y-100467785D01*
X112172821Y-100631715D01*
X112172818Y-100631722D01*
X112126813Y-100773313D01*
X112114326Y-100811744D01*
X112094540Y-101000000D01*
X112114326Y-101188256D01*
X112114327Y-101188259D01*
X112172818Y-101368277D01*
X112172821Y-101368284D01*
X112267467Y-101532216D01*
X112381247Y-101658581D01*
X112394129Y-101672888D01*
X112547265Y-101784148D01*
X112547270Y-101784151D01*
X112720192Y-101861142D01*
X112720197Y-101861144D01*
X112905354Y-101900500D01*
X112905355Y-101900500D01*
X113094644Y-101900500D01*
X113094646Y-101900500D01*
X113279803Y-101861144D01*
X113452730Y-101784151D01*
X113605871Y-101672888D01*
X113732533Y-101532216D01*
X113827179Y-101368284D01*
X113885674Y-101188256D01*
X113903321Y-101020344D01*
X113929904Y-100955734D01*
X113938951Y-100945639D01*
X114722772Y-100161819D01*
X114784095Y-100128334D01*
X114810453Y-100125500D01*
X115866513Y-100125500D01*
X115933552Y-100145185D01*
X115979307Y-100197989D01*
X115989251Y-100267147D01*
X115968088Y-100320621D01*
X115963545Y-100327111D01*
X115949432Y-100347265D01*
X115949431Y-100347267D01*
X115853261Y-100553502D01*
X115853258Y-100553511D01*
X115794366Y-100773302D01*
X115794364Y-100773313D01*
X115774532Y-100999998D01*
X115774532Y-101000001D01*
X115794364Y-101226686D01*
X115794366Y-101226697D01*
X115853258Y-101446488D01*
X115853261Y-101446497D01*
X115949431Y-101652732D01*
X115949432Y-101652734D01*
X116079954Y-101839141D01*
X116240858Y-102000045D01*
X116240861Y-102000047D01*
X116427266Y-102130568D01*
X116443459Y-102138119D01*
X116495897Y-102184291D01*
X116515048Y-102251485D01*
X116494832Y-102318366D01*
X116441666Y-102363700D01*
X116391052Y-102374500D01*
X107608948Y-102374500D01*
X107541909Y-102354815D01*
X107496154Y-102302011D01*
X107486210Y-102232853D01*
X107515235Y-102169297D01*
X107556540Y-102138119D01*
X107572734Y-102130568D01*
X107759139Y-102000047D01*
X107920047Y-101839139D01*
X108050568Y-101652734D01*
X108146739Y-101446496D01*
X108205635Y-101226692D01*
X108225468Y-101000000D01*
X108205635Y-100773308D01*
X108187318Y-100704947D01*
X108188981Y-100635101D01*
X108219410Y-100585178D01*
X110713729Y-98090860D01*
X110713733Y-98090858D01*
X110800858Y-98003733D01*
X110846161Y-97935933D01*
X110846162Y-97935932D01*
X110869309Y-97901290D01*
X110869312Y-97901286D01*
X110916463Y-97787451D01*
X110940500Y-97666607D01*
X110940500Y-97543393D01*
X110940500Y-91639741D01*
X115673627Y-91639741D01*
X115673628Y-91639742D01*
X116636814Y-91639742D01*
X116632420Y-91644136D01*
X116579759Y-91735348D01*
X116552500Y-91837081D01*
X116552500Y-91942403D01*
X116579759Y-92044136D01*
X116632420Y-92135348D01*
X116636814Y-92139742D01*
X115673628Y-92139742D01*
X115726230Y-92336059D01*
X115726234Y-92336068D01*
X115822365Y-92542224D01*
X115952842Y-92728562D01*
X116113679Y-92889399D01*
X116300017Y-93019876D01*
X116506173Y-93116007D01*
X116506182Y-93116011D01*
X116702499Y-93168614D01*
X116702500Y-93168613D01*
X116702500Y-92205428D01*
X116706894Y-92209822D01*
X116798106Y-92262483D01*
X116899839Y-92289742D01*
X117005161Y-92289742D01*
X117106894Y-92262483D01*
X117198106Y-92209822D01*
X117202500Y-92205428D01*
X117202500Y-93168614D01*
X117398817Y-93116011D01*
X117398826Y-93116007D01*
X117604982Y-93019876D01*
X117791320Y-92889399D01*
X117952157Y-92728562D01*
X118082634Y-92542224D01*
X118178765Y-92336068D01*
X118178769Y-92336059D01*
X118231372Y-92139742D01*
X117268186Y-92139742D01*
X117272580Y-92135348D01*
X117325241Y-92044136D01*
X117352500Y-91942403D01*
X117352500Y-91837081D01*
X117325241Y-91735348D01*
X117272580Y-91644136D01*
X117268186Y-91639742D01*
X118231372Y-91639742D01*
X118231372Y-91639741D01*
X118178769Y-91443424D01*
X118178765Y-91443415D01*
X118082634Y-91237259D01*
X117952157Y-91050921D01*
X117791320Y-90890084D01*
X117604982Y-90759607D01*
X117398828Y-90663476D01*
X117202500Y-90610869D01*
X117202500Y-91574056D01*
X117198106Y-91569662D01*
X117106894Y-91517001D01*
X117005161Y-91489742D01*
X116899839Y-91489742D01*
X116798106Y-91517001D01*
X116706894Y-91569662D01*
X116702500Y-91574056D01*
X116702500Y-90610869D01*
X116702498Y-90610868D01*
X116506175Y-90663475D01*
X116300017Y-90759607D01*
X116113679Y-90890084D01*
X115952842Y-91050921D01*
X115822365Y-91237259D01*
X115726234Y-91443415D01*
X115726230Y-91443424D01*
X115673627Y-91639741D01*
X110940500Y-91639741D01*
X110940500Y-90339918D01*
X110960185Y-90272879D01*
X111012989Y-90227124D01*
X111082147Y-90217180D01*
X111116899Y-90227534D01*
X111216337Y-90273903D01*
X111444592Y-90335063D01*
X111632918Y-90351539D01*
X111679999Y-90355659D01*
X111680000Y-90355659D01*
X111680001Y-90355659D01*
X111719234Y-90352226D01*
X111915408Y-90335063D01*
X112143663Y-90273903D01*
X112357830Y-90174035D01*
X112551401Y-90038495D01*
X112718495Y-89871401D01*
X112848425Y-89685842D01*
X112903002Y-89642217D01*
X112972500Y-89635023D01*
X113034855Y-89666546D01*
X113051575Y-89685842D01*
X113181505Y-89871401D01*
X113348599Y-90038495D01*
X113445384Y-90106265D01*
X113542165Y-90174032D01*
X113542167Y-90174033D01*
X113542170Y-90174035D01*
X113756337Y-90273903D01*
X113984592Y-90335063D01*
X114172918Y-90351539D01*
X114219999Y-90355659D01*
X114220000Y-90355659D01*
X114220001Y-90355659D01*
X114259234Y-90352226D01*
X114455408Y-90335063D01*
X114683663Y-90273903D01*
X114897830Y-90174035D01*
X115091401Y-90038495D01*
X115258495Y-89871401D01*
X115388425Y-89685842D01*
X115443002Y-89642217D01*
X115512500Y-89635023D01*
X115574855Y-89666546D01*
X115591575Y-89685842D01*
X115721505Y-89871401D01*
X115888599Y-90038495D01*
X115985384Y-90106265D01*
X116082165Y-90174032D01*
X116082167Y-90174033D01*
X116082170Y-90174035D01*
X116296337Y-90273903D01*
X116524592Y-90335063D01*
X116734105Y-90353393D01*
X116737144Y-90354582D01*
X116743507Y-90354216D01*
X116760000Y-90355659D01*
X116995408Y-90335063D01*
X117223663Y-90273903D01*
X117437830Y-90174035D01*
X117631401Y-90038495D01*
X117798495Y-89871401D01*
X117928425Y-89685842D01*
X117983002Y-89642217D01*
X118052500Y-89635023D01*
X118114855Y-89666546D01*
X118131575Y-89685842D01*
X118261505Y-89871401D01*
X118428599Y-90038495D01*
X118525384Y-90106265D01*
X118622165Y-90174032D01*
X118622167Y-90174033D01*
X118622170Y-90174035D01*
X118836337Y-90273903D01*
X119064592Y-90335063D01*
X119252918Y-90351539D01*
X119299999Y-90355659D01*
X119300000Y-90355659D01*
X119300001Y-90355659D01*
X119339234Y-90352226D01*
X119535408Y-90335063D01*
X119763663Y-90273903D01*
X119977830Y-90174035D01*
X120171401Y-90038495D01*
X120338495Y-89871401D01*
X120468425Y-89685842D01*
X120523002Y-89642217D01*
X120592500Y-89635023D01*
X120654855Y-89666546D01*
G37*
%TD.AperFunction*%
%TA.AperFunction,Conductor*%
G36*
X140974855Y-89666546D02*
G01*
X140991575Y-89685842D01*
X141121505Y-89871401D01*
X141288599Y-90038495D01*
X141385384Y-90106265D01*
X141482165Y-90174032D01*
X141482167Y-90174033D01*
X141482170Y-90174035D01*
X141545950Y-90203776D01*
X141598390Y-90249948D01*
X141617542Y-90317141D01*
X141597327Y-90384023D01*
X141544161Y-90429357D01*
X141525640Y-90435933D01*
X141326686Y-90489242D01*
X141326680Y-90489244D01*
X141120445Y-90585414D01*
X141120443Y-90585415D01*
X140934040Y-90715934D01*
X140890802Y-90759173D01*
X140811792Y-90838182D01*
X140750472Y-90871666D01*
X140724113Y-90874500D01*
X134174808Y-90874500D01*
X134107769Y-90854815D01*
X134087131Y-90838185D01*
X133974172Y-90725226D01*
X133974171Y-90725225D01*
X133974170Y-90725224D01*
X133787767Y-90594705D01*
X133787765Y-90594704D01*
X133581530Y-90498534D01*
X133581521Y-90498531D01*
X133361730Y-90439639D01*
X133361726Y-90439638D01*
X133361725Y-90439638D01*
X133361724Y-90439637D01*
X133361719Y-90439637D01*
X133135035Y-90419805D01*
X133135031Y-90419805D01*
X132908346Y-90439637D01*
X132908335Y-90439639D01*
X132688544Y-90498531D01*
X132688535Y-90498534D01*
X132482300Y-90594704D01*
X132482298Y-90594705D01*
X132295891Y-90725227D01*
X132134987Y-90886131D01*
X132004465Y-91072538D01*
X132004464Y-91072540D01*
X131908294Y-91278775D01*
X131908291Y-91278784D01*
X131849399Y-91498575D01*
X131849397Y-91498586D01*
X131829565Y-91725271D01*
X131829565Y-91725274D01*
X131849397Y-91951959D01*
X131849399Y-91951970D01*
X131908291Y-92171761D01*
X131908294Y-92171770D01*
X132004464Y-92378005D01*
X132004465Y-92378007D01*
X132134987Y-92564414D01*
X132295891Y-92725318D01*
X132301678Y-92729370D01*
X132482299Y-92855841D01*
X132688537Y-92952012D01*
X132908341Y-93010908D01*
X133070263Y-93025074D01*
X133135031Y-93030741D01*
X133135033Y-93030741D01*
X133135035Y-93030741D01*
X133191706Y-93025782D01*
X133361725Y-93010908D01*
X133581529Y-92952012D01*
X133787767Y-92855841D01*
X133912382Y-92768585D01*
X133978586Y-92746259D01*
X134046353Y-92763269D01*
X134094166Y-92814217D01*
X134106844Y-92882927D01*
X134106824Y-92883122D01*
X134106124Y-92889787D01*
X134094540Y-93000000D01*
X134114326Y-93188256D01*
X134114327Y-93188259D01*
X134172818Y-93368277D01*
X134172821Y-93368284D01*
X134267467Y-93532216D01*
X134369185Y-93645185D01*
X134394129Y-93672888D01*
X134547265Y-93784148D01*
X134547270Y-93784151D01*
X134720192Y-93861142D01*
X134720197Y-93861144D01*
X134905354Y-93900500D01*
X134905355Y-93900500D01*
X135094644Y-93900500D01*
X135094646Y-93900500D01*
X135279803Y-93861144D01*
X135452730Y-93784151D01*
X135605871Y-93672888D01*
X135608788Y-93669647D01*
X135611600Y-93666526D01*
X135671087Y-93629879D01*
X135703748Y-93625500D01*
X137911783Y-93625500D01*
X137978822Y-93645185D01*
X138024577Y-93697989D01*
X138034521Y-93767147D01*
X138005496Y-93830703D01*
X137999464Y-93837181D01*
X137887186Y-93949458D01*
X137756664Y-94135865D01*
X137756663Y-94135867D01*
X137660493Y-94342102D01*
X137660490Y-94342111D01*
X137601598Y-94561902D01*
X137601596Y-94561913D01*
X137581764Y-94788598D01*
X137581764Y-94788601D01*
X137601596Y-95015286D01*
X137601598Y-95015297D01*
X137660490Y-95235088D01*
X137660492Y-95235093D01*
X137660493Y-95235096D01*
X137700122Y-95320080D01*
X137756663Y-95441332D01*
X137756664Y-95441334D01*
X137887186Y-95627741D01*
X138048090Y-95788645D01*
X138048093Y-95788647D01*
X138234498Y-95919168D01*
X138440736Y-96015339D01*
X138616618Y-96062466D01*
X138672205Y-96094559D01*
X138977216Y-96399570D01*
X139010701Y-96460893D01*
X139005717Y-96530585D01*
X138963845Y-96586518D01*
X138900343Y-96610779D01*
X138693312Y-96628892D01*
X138693302Y-96628894D01*
X138473511Y-96687786D01*
X138473502Y-96687789D01*
X138267267Y-96783959D01*
X138267265Y-96783960D01*
X138080858Y-96914482D01*
X137919954Y-97075386D01*
X137789432Y-97261793D01*
X137789431Y-97261795D01*
X137693261Y-97468030D01*
X137693258Y-97468039D01*
X137634366Y-97687830D01*
X137634364Y-97687841D01*
X137614532Y-97914526D01*
X137614532Y-97914529D01*
X137634364Y-98141214D01*
X137634366Y-98141225D01*
X137693258Y-98361016D01*
X137693261Y-98361025D01*
X137789431Y-98567260D01*
X137789432Y-98567262D01*
X137919954Y-98753669D01*
X138080858Y-98914573D01*
X138125294Y-98945687D01*
X138267266Y-99045096D01*
X138473504Y-99141267D01*
X138693308Y-99200163D01*
X138852586Y-99214098D01*
X138919998Y-99219996D01*
X138920000Y-99219996D01*
X138920002Y-99219996D01*
X138987414Y-99214098D01*
X139146692Y-99200163D01*
X139366496Y-99141267D01*
X139572734Y-99045096D01*
X139759139Y-98914575D01*
X139920047Y-98753667D01*
X140050568Y-98567262D01*
X140123119Y-98411676D01*
X140169290Y-98359239D01*
X140236484Y-98340087D01*
X140303365Y-98360303D01*
X140348700Y-98413468D01*
X140359500Y-98464083D01*
X140359500Y-100450444D01*
X140339815Y-100517483D01*
X140287011Y-100563238D01*
X140217853Y-100573182D01*
X140154297Y-100544157D01*
X140123118Y-100502849D01*
X140050568Y-100347266D01*
X139920047Y-100160861D01*
X139920045Y-100160858D01*
X139759141Y-99999954D01*
X139572734Y-99869432D01*
X139572732Y-99869431D01*
X139366497Y-99773261D01*
X139366488Y-99773258D01*
X139146697Y-99714366D01*
X139146693Y-99714365D01*
X139146692Y-99714365D01*
X139146691Y-99714364D01*
X139146686Y-99714364D01*
X138920002Y-99694532D01*
X138919999Y-99694532D01*
X138693313Y-99714364D01*
X138693307Y-99714365D01*
X138624948Y-99732681D01*
X138555098Y-99731016D01*
X138505176Y-99700586D01*
X134535198Y-95730608D01*
X134535178Y-95730586D01*
X134443733Y-95639141D01*
X134392509Y-95604915D01*
X134341287Y-95570689D01*
X134341286Y-95570688D01*
X134341283Y-95570686D01*
X134341280Y-95570685D01*
X134260792Y-95537347D01*
X134227454Y-95523538D01*
X134227455Y-95523538D01*
X134227452Y-95523537D01*
X134227448Y-95523536D01*
X134227444Y-95523535D01*
X134136926Y-95505530D01*
X134136925Y-95505530D01*
X134106611Y-95499500D01*
X134106607Y-95499500D01*
X134106606Y-95499500D01*
X131453619Y-95499500D01*
X131386580Y-95479815D01*
X131340825Y-95427011D01*
X131330881Y-95357853D01*
X131333844Y-95343406D01*
X131358872Y-95250000D01*
X130395686Y-95250000D01*
X130400080Y-95245606D01*
X130452741Y-95154394D01*
X130480000Y-95052661D01*
X130480000Y-94947339D01*
X130452741Y-94845606D01*
X130400080Y-94754394D01*
X130395686Y-94750000D01*
X131358872Y-94750000D01*
X131358872Y-94749999D01*
X131306269Y-94553682D01*
X131306265Y-94553673D01*
X131210134Y-94347517D01*
X131079657Y-94161179D01*
X130918820Y-94000342D01*
X130732482Y-93869865D01*
X130526328Y-93773734D01*
X130330000Y-93721127D01*
X130330000Y-94684314D01*
X130325606Y-94679920D01*
X130234394Y-94627259D01*
X130132661Y-94600000D01*
X130027339Y-94600000D01*
X129925606Y-94627259D01*
X129834394Y-94679920D01*
X129830000Y-94684314D01*
X129830000Y-93721127D01*
X129633671Y-93773734D01*
X129427517Y-93869865D01*
X129241179Y-94000342D01*
X129122181Y-94119341D01*
X129060858Y-94152826D01*
X128991166Y-94147842D01*
X128935233Y-94105970D01*
X128910816Y-94040506D01*
X128910500Y-94031660D01*
X128910500Y-92969049D01*
X128930185Y-92902010D01*
X128982989Y-92856255D01*
X129052147Y-92846311D01*
X129115703Y-92875336D01*
X129122181Y-92881368D01*
X129240858Y-93000045D01*
X129240861Y-93000047D01*
X129427266Y-93130568D01*
X129633504Y-93226739D01*
X129633509Y-93226740D01*
X129633511Y-93226741D01*
X129686415Y-93240916D01*
X129853308Y-93285635D01*
X130015230Y-93299801D01*
X130079998Y-93305468D01*
X130080000Y-93305468D01*
X130080002Y-93305468D01*
X130136673Y-93300509D01*
X130306692Y-93285635D01*
X130526496Y-93226739D01*
X130732734Y-93130568D01*
X130919139Y-93000047D01*
X131080047Y-92839139D01*
X131210568Y-92652734D01*
X131306739Y-92446496D01*
X131365635Y-92226692D01*
X131385468Y-92000000D01*
X131381265Y-91951965D01*
X131371214Y-91837081D01*
X131365635Y-91773308D01*
X131341628Y-91683712D01*
X131343291Y-91613864D01*
X131358300Y-91582730D01*
X131379312Y-91551286D01*
X131424063Y-91443246D01*
X131426463Y-91437452D01*
X131435832Y-91390349D01*
X131448525Y-91326539D01*
X131448526Y-91326539D01*
X131448526Y-91326529D01*
X131450500Y-91316607D01*
X131450500Y-91193393D01*
X131450500Y-90412503D01*
X131470185Y-90345464D01*
X131522989Y-90299709D01*
X131592147Y-90289765D01*
X131606593Y-90292728D01*
X131632647Y-90299709D01*
X131764592Y-90335063D01*
X131952918Y-90351539D01*
X131999999Y-90355659D01*
X132000000Y-90355659D01*
X132000001Y-90355659D01*
X132039234Y-90352226D01*
X132235408Y-90335063D01*
X132463663Y-90273903D01*
X132677830Y-90174035D01*
X132871401Y-90038495D01*
X133038495Y-89871401D01*
X133168425Y-89685842D01*
X133223002Y-89642217D01*
X133292500Y-89635023D01*
X133354855Y-89666546D01*
X133371575Y-89685842D01*
X133501505Y-89871401D01*
X133668599Y-90038495D01*
X133765384Y-90106265D01*
X133862165Y-90174032D01*
X133862167Y-90174033D01*
X133862170Y-90174035D01*
X134076337Y-90273903D01*
X134304592Y-90335063D01*
X134492918Y-90351539D01*
X134539999Y-90355659D01*
X134540000Y-90355659D01*
X134540001Y-90355659D01*
X134579234Y-90352226D01*
X134775408Y-90335063D01*
X135003663Y-90273903D01*
X135217830Y-90174035D01*
X135411401Y-90038495D01*
X135578495Y-89871401D01*
X135708425Y-89685842D01*
X135763002Y-89642217D01*
X135832500Y-89635023D01*
X135894855Y-89666546D01*
X135911575Y-89685842D01*
X136041505Y-89871401D01*
X136208599Y-90038495D01*
X136305384Y-90106265D01*
X136402165Y-90174032D01*
X136402167Y-90174033D01*
X136402170Y-90174035D01*
X136616337Y-90273903D01*
X136844592Y-90335063D01*
X137032918Y-90351539D01*
X137079999Y-90355659D01*
X137080000Y-90355659D01*
X137080001Y-90355659D01*
X137119234Y-90352226D01*
X137315408Y-90335063D01*
X137543663Y-90273903D01*
X137757830Y-90174035D01*
X137951401Y-90038495D01*
X138118495Y-89871401D01*
X138248425Y-89685842D01*
X138303002Y-89642217D01*
X138372500Y-89635023D01*
X138434855Y-89666546D01*
X138451575Y-89685842D01*
X138581505Y-89871401D01*
X138748599Y-90038495D01*
X138845384Y-90106265D01*
X138942165Y-90174032D01*
X138942167Y-90174033D01*
X138942170Y-90174035D01*
X139156337Y-90273903D01*
X139384592Y-90335063D01*
X139572918Y-90351539D01*
X139619999Y-90355659D01*
X139620000Y-90355659D01*
X139620001Y-90355659D01*
X139659234Y-90352226D01*
X139855408Y-90335063D01*
X140083663Y-90273903D01*
X140297830Y-90174035D01*
X140491401Y-90038495D01*
X140658495Y-89871401D01*
X140788425Y-89685842D01*
X140843002Y-89642217D01*
X140912500Y-89635023D01*
X140974855Y-89666546D01*
G37*
%TD.AperFunction*%
%TA.AperFunction,Conductor*%
G36*
X151314423Y-83602120D02*
G01*
X151348959Y-83635312D01*
X151461526Y-83796076D01*
X151622430Y-83956980D01*
X151622433Y-83956982D01*
X151808838Y-84087503D01*
X152015076Y-84183674D01*
X152234880Y-84242570D01*
X152396802Y-84256736D01*
X152461570Y-84262403D01*
X152461572Y-84262403D01*
X152461574Y-84262403D01*
X152518245Y-84257444D01*
X152688264Y-84242570D01*
X152830597Y-84204432D01*
X152900444Y-84206095D01*
X152958307Y-84245257D01*
X152985811Y-84309486D01*
X152986687Y-84324593D01*
X152963605Y-91743863D01*
X152943712Y-91810841D01*
X152890766Y-91856431D01*
X152821577Y-91866159D01*
X152807513Y-91863252D01*
X152688269Y-91831301D01*
X152688265Y-91831300D01*
X152688264Y-91831300D01*
X152688263Y-91831299D01*
X152688258Y-91831299D01*
X152461574Y-91811467D01*
X152461570Y-91811467D01*
X152234885Y-91831299D01*
X152234874Y-91831301D01*
X152015083Y-91890193D01*
X152015074Y-91890196D01*
X151808839Y-91986366D01*
X151808837Y-91986367D01*
X151622430Y-92116889D01*
X151461526Y-92277793D01*
X151331004Y-92464200D01*
X151331003Y-92464202D01*
X151234833Y-92670437D01*
X151234830Y-92670446D01*
X151175938Y-92890237D01*
X151175936Y-92890248D01*
X151156104Y-93116933D01*
X151156575Y-93122319D01*
X151142805Y-93190818D01*
X151094188Y-93240999D01*
X151026159Y-93256930D01*
X150960316Y-93233552D01*
X150945365Y-93220802D01*
X148830171Y-91105608D01*
X148830151Y-91105586D01*
X148738706Y-91014141D01*
X148687482Y-90979915D01*
X148636259Y-90945688D01*
X148636256Y-90945686D01*
X148636255Y-90945686D01*
X148636254Y-90945685D01*
X148528311Y-90900975D01*
X148528306Y-90900971D01*
X148528306Y-90900973D01*
X148522428Y-90898538D01*
X148522418Y-90898535D01*
X148460068Y-90886133D01*
X148460067Y-90886133D01*
X148401584Y-90874500D01*
X148401580Y-90874500D01*
X148401579Y-90874500D01*
X147822243Y-90874500D01*
X147755204Y-90854815D01*
X147734566Y-90838185D01*
X147612317Y-90715936D01*
X147612316Y-90715935D01*
X147612315Y-90715934D01*
X147462263Y-90610868D01*
X147425912Y-90585415D01*
X147401078Y-90573835D01*
X147348641Y-90527663D01*
X147329490Y-90460469D01*
X147349706Y-90393588D01*
X147402872Y-90348254D01*
X147442677Y-90337926D01*
X147475408Y-90335063D01*
X147703663Y-90273903D01*
X147917830Y-90174035D01*
X148111401Y-90038495D01*
X148278495Y-89871401D01*
X148408732Y-89685403D01*
X148463307Y-89641780D01*
X148532805Y-89634586D01*
X148595160Y-89666109D01*
X148611880Y-89685405D01*
X148665073Y-89761373D01*
X149256212Y-89170234D01*
X149267482Y-89212292D01*
X149339890Y-89337708D01*
X149442292Y-89440110D01*
X149567708Y-89512518D01*
X149609765Y-89523787D01*
X149018625Y-90114925D01*
X149102421Y-90173599D01*
X149316507Y-90273429D01*
X149316516Y-90273433D01*
X149544673Y-90334567D01*
X149544684Y-90334569D01*
X149779998Y-90355157D01*
X149780002Y-90355157D01*
X150015315Y-90334569D01*
X150015326Y-90334567D01*
X150243483Y-90273433D01*
X150243492Y-90273429D01*
X150457578Y-90173600D01*
X150457582Y-90173598D01*
X150541373Y-90114926D01*
X150541373Y-90114925D01*
X149950234Y-89523787D01*
X149992292Y-89512518D01*
X150117708Y-89440110D01*
X150220110Y-89337708D01*
X150292518Y-89212292D01*
X150303787Y-89170235D01*
X150894925Y-89761373D01*
X150894926Y-89761373D01*
X150953598Y-89677582D01*
X150953600Y-89677578D01*
X151053429Y-89463492D01*
X151053433Y-89463483D01*
X151114567Y-89235326D01*
X151114569Y-89235315D01*
X151135157Y-89000001D01*
X151135157Y-88999998D01*
X151114569Y-88764684D01*
X151114567Y-88764673D01*
X151053433Y-88536516D01*
X151053429Y-88536507D01*
X150953600Y-88322423D01*
X150953599Y-88322421D01*
X150894925Y-88238626D01*
X150894925Y-88238625D01*
X150303787Y-88829764D01*
X150292518Y-88787708D01*
X150220110Y-88662292D01*
X150117708Y-88559890D01*
X149992292Y-88487482D01*
X149950234Y-88476212D01*
X150541373Y-87885073D01*
X150541373Y-87885072D01*
X150457583Y-87826402D01*
X150457579Y-87826400D01*
X150243492Y-87726570D01*
X150243483Y-87726566D01*
X150015326Y-87665432D01*
X150015315Y-87665430D01*
X149780002Y-87644843D01*
X149779998Y-87644843D01*
X149544684Y-87665430D01*
X149544673Y-87665432D01*
X149316516Y-87726566D01*
X149316507Y-87726570D01*
X149102419Y-87826401D01*
X149018625Y-87885072D01*
X149609765Y-88476212D01*
X149567708Y-88487482D01*
X149442292Y-88559890D01*
X149339890Y-88662292D01*
X149267482Y-88787708D01*
X149256212Y-88829764D01*
X148665073Y-88238626D01*
X148611881Y-88314594D01*
X148557304Y-88358219D01*
X148487806Y-88365413D01*
X148425451Y-88333891D01*
X148408730Y-88314594D01*
X148278494Y-88128597D01*
X148111402Y-87961506D01*
X148111395Y-87961501D01*
X147917834Y-87825967D01*
X147917830Y-87825965D01*
X147867994Y-87802726D01*
X147703663Y-87726097D01*
X147703659Y-87726096D01*
X147703655Y-87726094D01*
X147475413Y-87664938D01*
X147475403Y-87664936D01*
X147240001Y-87644341D01*
X147239999Y-87644341D01*
X147004596Y-87664936D01*
X147004586Y-87664938D01*
X146776344Y-87726094D01*
X146776337Y-87726096D01*
X146776337Y-87726097D01*
X146775331Y-87726566D01*
X146562171Y-87825964D01*
X146562169Y-87825965D01*
X146368597Y-87961505D01*
X146201505Y-88128597D01*
X146071575Y-88314158D01*
X146016998Y-88357783D01*
X145947500Y-88364977D01*
X145885145Y-88333454D01*
X145868425Y-88314158D01*
X145738494Y-88128597D01*
X145571402Y-87961506D01*
X145571395Y-87961501D01*
X145377834Y-87825967D01*
X145377830Y-87825965D01*
X145327994Y-87802726D01*
X145163663Y-87726097D01*
X145163659Y-87726096D01*
X145163655Y-87726094D01*
X144935413Y-87664938D01*
X144935403Y-87664936D01*
X144700001Y-87644341D01*
X144699999Y-87644341D01*
X144464596Y-87664936D01*
X144464586Y-87664938D01*
X144236344Y-87726094D01*
X144236337Y-87726096D01*
X144236337Y-87726097D01*
X144235331Y-87726566D01*
X144022171Y-87825964D01*
X144022169Y-87825965D01*
X143828597Y-87961505D01*
X143661505Y-88128597D01*
X143531575Y-88314158D01*
X143476998Y-88357783D01*
X143407500Y-88364977D01*
X143345145Y-88333454D01*
X143328425Y-88314158D01*
X143198494Y-88128597D01*
X143031402Y-87961506D01*
X143031395Y-87961501D01*
X142837834Y-87825967D01*
X142837830Y-87825965D01*
X142787994Y-87802726D01*
X142623663Y-87726097D01*
X142623659Y-87726096D01*
X142623655Y-87726094D01*
X142395413Y-87664938D01*
X142395403Y-87664936D01*
X142160001Y-87644341D01*
X142159999Y-87644341D01*
X141924596Y-87664936D01*
X141924586Y-87664938D01*
X141696344Y-87726094D01*
X141696337Y-87726096D01*
X141696337Y-87726097D01*
X141695331Y-87726566D01*
X141482171Y-87825964D01*
X141482169Y-87825965D01*
X141288597Y-87961505D01*
X141121505Y-88128597D01*
X140991575Y-88314158D01*
X140936998Y-88357783D01*
X140867500Y-88364977D01*
X140805145Y-88333454D01*
X140788425Y-88314158D01*
X140658494Y-88128597D01*
X140491402Y-87961506D01*
X140491395Y-87961501D01*
X140297834Y-87825967D01*
X140297830Y-87825965D01*
X140247994Y-87802726D01*
X140083663Y-87726097D01*
X140083659Y-87726096D01*
X140083655Y-87726094D01*
X139855413Y-87664938D01*
X139855403Y-87664936D01*
X139620001Y-87644341D01*
X139619999Y-87644341D01*
X139384596Y-87664936D01*
X139384586Y-87664938D01*
X139156341Y-87726095D01*
X139141835Y-87732859D01*
X139072757Y-87743347D01*
X139008974Y-87714824D01*
X139001755Y-87708155D01*
X138621701Y-87328101D01*
X138588216Y-87266778D01*
X138593200Y-87197086D01*
X138635072Y-87141153D01*
X138648101Y-87133354D01*
X138647802Y-87132836D01*
X138652487Y-87130131D01*
X138725471Y-87079024D01*
X138046447Y-86400000D01*
X138052661Y-86400000D01*
X138154394Y-86372741D01*
X138245606Y-86320080D01*
X138320080Y-86245606D01*
X138372741Y-86154394D01*
X138400000Y-86052661D01*
X138400000Y-86046447D01*
X139079024Y-86725471D01*
X139130136Y-86652478D01*
X139226264Y-86446331D01*
X139226269Y-86446317D01*
X139285139Y-86226610D01*
X139285141Y-86226599D01*
X139304792Y-86001990D01*
X139330244Y-85936921D01*
X139386835Y-85895942D01*
X139456597Y-85892064D01*
X139516001Y-85925116D01*
X139986491Y-86395606D01*
X139986520Y-86395637D01*
X140076738Y-86485855D01*
X140076742Y-86485858D01*
X140179182Y-86554307D01*
X140179188Y-86554310D01*
X140179189Y-86554311D01*
X140293023Y-86601463D01*
X140353446Y-86613481D01*
X140413868Y-86625500D01*
X140413869Y-86625500D01*
X141285812Y-86625500D01*
X141352851Y-86645185D01*
X141387387Y-86678377D01*
X141499954Y-86839141D01*
X141660858Y-87000045D01*
X141660861Y-87000047D01*
X141847266Y-87130568D01*
X142053504Y-87226739D01*
X142273308Y-87285635D01*
X142435230Y-87299801D01*
X142499998Y-87305468D01*
X142500000Y-87305468D01*
X142500002Y-87305468D01*
X142556673Y-87300509D01*
X142726692Y-87285635D01*
X142946496Y-87226739D01*
X143152734Y-87130568D01*
X143339139Y-87000047D01*
X143500047Y-86839139D01*
X143630568Y-86652734D01*
X143726739Y-86446496D01*
X143785635Y-86226692D01*
X143805468Y-86000000D01*
X143785635Y-85773308D01*
X143765200Y-85697043D01*
X143754362Y-85656593D01*
X143756025Y-85586743D01*
X143795188Y-85528881D01*
X143859417Y-85501377D01*
X143874137Y-85500500D01*
X146064548Y-85500500D01*
X146131587Y-85520185D01*
X146152229Y-85536819D01*
X146200586Y-85585176D01*
X146234071Y-85646499D01*
X146232681Y-85704948D01*
X146214365Y-85773307D01*
X146214364Y-85773313D01*
X146194532Y-85999999D01*
X146194532Y-86000001D01*
X146214364Y-86226686D01*
X146214366Y-86226697D01*
X146273258Y-86446488D01*
X146273261Y-86446497D01*
X146369431Y-86652732D01*
X146369432Y-86652734D01*
X146499954Y-86839141D01*
X146660858Y-87000045D01*
X146660861Y-87000047D01*
X146847266Y-87130568D01*
X147053504Y-87226739D01*
X147273308Y-87285635D01*
X147435230Y-87299801D01*
X147499998Y-87305468D01*
X147500000Y-87305468D01*
X147500002Y-87305468D01*
X147556673Y-87300509D01*
X147726692Y-87285635D01*
X147946496Y-87226739D01*
X148152734Y-87130568D01*
X148339139Y-87000047D01*
X148500047Y-86839139D01*
X148630568Y-86652734D01*
X148726739Y-86446496D01*
X148785635Y-86226692D01*
X148805468Y-86000000D01*
X148785635Y-85773308D01*
X148767318Y-85704947D01*
X148768981Y-85635101D01*
X148799410Y-85585178D01*
X150765836Y-83618754D01*
X150827159Y-83585269D01*
X150853517Y-83582435D01*
X151247384Y-83582435D01*
X151314423Y-83602120D01*
G37*
%TD.AperFunction*%
%TA.AperFunction,Conductor*%
G36*
X123441426Y-79470101D02*
G01*
X123485777Y-79498603D01*
X125739475Y-81752301D01*
X125772960Y-81813624D01*
X125775794Y-81839982D01*
X125775794Y-84882105D01*
X125756109Y-84949144D01*
X125703305Y-84994899D01*
X125634147Y-85004843D01*
X125599389Y-84994487D01*
X125432790Y-84916800D01*
X125432786Y-84916799D01*
X125432782Y-84916797D01*
X125212991Y-84857905D01*
X125212987Y-84857904D01*
X125212986Y-84857904D01*
X125212985Y-84857903D01*
X125212980Y-84857903D01*
X124986296Y-84838071D01*
X124986292Y-84838071D01*
X124759607Y-84857903D01*
X124759596Y-84857905D01*
X124539805Y-84916797D01*
X124539796Y-84916800D01*
X124333561Y-85012970D01*
X124333559Y-85012971D01*
X124147152Y-85143493D01*
X123986248Y-85304397D01*
X123859189Y-85485859D01*
X123855726Y-85490805D01*
X123843027Y-85518039D01*
X123828400Y-85549406D01*
X123782227Y-85601845D01*
X123715033Y-85620996D01*
X123648152Y-85600780D01*
X123603636Y-85549404D01*
X123576429Y-85491059D01*
X123576428Y-85491057D01*
X123445951Y-85304718D01*
X123285114Y-85143881D01*
X123098776Y-85013404D01*
X122892622Y-84917273D01*
X122696294Y-84864666D01*
X122696294Y-85827853D01*
X122691900Y-85823459D01*
X122600688Y-85770798D01*
X122498955Y-85743539D01*
X122393633Y-85743539D01*
X122291900Y-85770798D01*
X122200688Y-85823459D01*
X122196294Y-85827853D01*
X122196294Y-84864666D01*
X121999965Y-84917273D01*
X121793811Y-85013404D01*
X121607473Y-85143881D01*
X121446636Y-85304718D01*
X121316161Y-85491054D01*
X121288951Y-85549406D01*
X121242778Y-85601845D01*
X121175584Y-85620996D01*
X121108703Y-85600780D01*
X121064187Y-85549404D01*
X121058318Y-85536819D01*
X121036862Y-85490805D01*
X120936356Y-85347266D01*
X120906339Y-85304397D01*
X120745435Y-85143493D01*
X120559028Y-85012971D01*
X120559026Y-85012970D01*
X120352791Y-84916800D01*
X120352782Y-84916797D01*
X120132991Y-84857905D01*
X120132987Y-84857904D01*
X120132986Y-84857904D01*
X120132985Y-84857903D01*
X120132980Y-84857903D01*
X119906296Y-84838071D01*
X119906292Y-84838071D01*
X119679607Y-84857903D01*
X119679596Y-84857905D01*
X119459805Y-84916797D01*
X119459796Y-84916800D01*
X119253561Y-85012970D01*
X119253559Y-85012971D01*
X119067152Y-85143493D01*
X118906248Y-85304397D01*
X118775726Y-85490804D01*
X118775725Y-85490806D01*
X118748676Y-85548814D01*
X118702503Y-85601253D01*
X118635310Y-85620405D01*
X118568429Y-85600189D01*
X118523912Y-85548814D01*
X118510562Y-85520185D01*
X118496862Y-85490805D01*
X118396356Y-85347266D01*
X118366339Y-85304397D01*
X118205435Y-85143493D01*
X118019028Y-85012971D01*
X118019026Y-85012970D01*
X117812791Y-84916800D01*
X117812782Y-84916797D01*
X117592991Y-84857905D01*
X117592987Y-84857904D01*
X117592986Y-84857904D01*
X117592985Y-84857903D01*
X117592980Y-84857903D01*
X117366296Y-84838071D01*
X117366292Y-84838071D01*
X117139607Y-84857903D01*
X117139596Y-84857905D01*
X116919805Y-84916797D01*
X116919796Y-84916800D01*
X116713561Y-85012970D01*
X116713559Y-85012971D01*
X116527152Y-85143493D01*
X116366248Y-85304397D01*
X116253681Y-85465162D01*
X116199105Y-85508787D01*
X116152106Y-85518039D01*
X116040482Y-85518039D01*
X115973443Y-85498354D01*
X115938907Y-85465162D01*
X115826339Y-85304397D01*
X115665435Y-85143493D01*
X115479028Y-85012971D01*
X115479026Y-85012970D01*
X115272791Y-84916800D01*
X115272782Y-84916797D01*
X115052991Y-84857905D01*
X115052987Y-84857904D01*
X115052986Y-84857904D01*
X115052985Y-84857903D01*
X115052980Y-84857903D01*
X114826296Y-84838071D01*
X114826292Y-84838071D01*
X114599607Y-84857903D01*
X114599596Y-84857905D01*
X114379805Y-84916797D01*
X114379796Y-84916800D01*
X114173561Y-85012970D01*
X114173559Y-85012971D01*
X113987152Y-85143493D01*
X113826248Y-85304397D01*
X113695726Y-85490804D01*
X113695725Y-85490806D01*
X113599555Y-85697041D01*
X113599552Y-85697050D01*
X113540660Y-85916841D01*
X113540658Y-85916852D01*
X113520826Y-86143537D01*
X113520826Y-86143540D01*
X113540658Y-86370225D01*
X113540660Y-86370236D01*
X113599552Y-86590027D01*
X113599555Y-86590036D01*
X113695725Y-86796271D01*
X113695726Y-86796273D01*
X113826248Y-86982680D01*
X113987152Y-87143584D01*
X113987155Y-87143586D01*
X114173560Y-87274107D01*
X114379798Y-87370278D01*
X114599602Y-87429174D01*
X114757074Y-87442951D01*
X114826292Y-87449007D01*
X114826294Y-87449007D01*
X114826296Y-87449007D01*
X114895514Y-87442951D01*
X115052986Y-87429174D01*
X115272790Y-87370278D01*
X115479028Y-87274107D01*
X115665433Y-87143586D01*
X115826341Y-86982678D01*
X115926847Y-86839139D01*
X115938907Y-86821916D01*
X115993483Y-86778291D01*
X116040482Y-86769039D01*
X116152106Y-86769039D01*
X116219145Y-86788724D01*
X116253681Y-86821916D01*
X116366248Y-86982680D01*
X116527152Y-87143584D01*
X116527155Y-87143586D01*
X116713560Y-87274107D01*
X116919798Y-87370278D01*
X117139602Y-87429174D01*
X117297074Y-87442951D01*
X117366292Y-87449007D01*
X117366294Y-87449007D01*
X117366296Y-87449007D01*
X117435514Y-87442951D01*
X117592986Y-87429174D01*
X117812790Y-87370278D01*
X118019028Y-87274107D01*
X118205433Y-87143586D01*
X118366341Y-86982678D01*
X118496862Y-86796273D01*
X118523912Y-86738263D01*
X118570084Y-86685824D01*
X118637277Y-86666672D01*
X118704159Y-86686887D01*
X118748676Y-86738264D01*
X118775723Y-86796267D01*
X118775726Y-86796273D01*
X118906248Y-86982680D01*
X119067152Y-87143584D01*
X119067155Y-87143586D01*
X119253560Y-87274107D01*
X119459798Y-87370278D01*
X119679602Y-87429174D01*
X119837074Y-87442951D01*
X119906292Y-87449007D01*
X119906294Y-87449007D01*
X119906296Y-87449007D01*
X119975514Y-87442951D01*
X120132986Y-87429174D01*
X120352790Y-87370278D01*
X120559028Y-87274107D01*
X120745433Y-87143586D01*
X120906341Y-86982678D01*
X121036862Y-86796273D01*
X121064189Y-86737668D01*
X121110358Y-86685234D01*
X121177551Y-86666081D01*
X121244433Y-86686296D01*
X121288951Y-86737672D01*
X121316159Y-86796021D01*
X121446636Y-86982359D01*
X121607473Y-87143196D01*
X121793811Y-87273673D01*
X121999967Y-87369804D01*
X121999976Y-87369808D01*
X122196293Y-87422411D01*
X122196294Y-87422410D01*
X122196294Y-86459225D01*
X122200688Y-86463619D01*
X122291900Y-86516280D01*
X122393633Y-86543539D01*
X122498955Y-86543539D01*
X122600688Y-86516280D01*
X122691900Y-86463619D01*
X122696294Y-86459225D01*
X122696294Y-87441220D01*
X122706263Y-87454874D01*
X122710417Y-87524620D01*
X122692674Y-87565712D01*
X122650690Y-87628542D01*
X122650685Y-87628551D01*
X122618522Y-87706203D01*
X122618521Y-87706206D01*
X122610214Y-87726260D01*
X122566372Y-87780662D01*
X122500078Y-87802726D01*
X122443249Y-87791187D01*
X122389499Y-87766123D01*
X122303663Y-87726097D01*
X122303659Y-87726096D01*
X122303655Y-87726094D01*
X122075413Y-87664938D01*
X122075403Y-87664936D01*
X121840001Y-87644341D01*
X121839999Y-87644341D01*
X121604596Y-87664936D01*
X121604586Y-87664938D01*
X121376344Y-87726094D01*
X121376337Y-87726096D01*
X121376337Y-87726097D01*
X121375331Y-87726566D01*
X121162171Y-87825964D01*
X121162169Y-87825965D01*
X120968597Y-87961505D01*
X120801505Y-88128597D01*
X120671575Y-88314158D01*
X120616998Y-88357783D01*
X120547500Y-88364977D01*
X120485145Y-88333454D01*
X120468425Y-88314158D01*
X120338494Y-88128597D01*
X120171402Y-87961506D01*
X120171395Y-87961501D01*
X119977834Y-87825967D01*
X119977830Y-87825965D01*
X119927994Y-87802726D01*
X119763663Y-87726097D01*
X119763659Y-87726096D01*
X119763655Y-87726094D01*
X119535413Y-87664938D01*
X119535403Y-87664936D01*
X119300001Y-87644341D01*
X119299999Y-87644341D01*
X119064596Y-87664936D01*
X119064586Y-87664938D01*
X118836344Y-87726094D01*
X118836337Y-87726096D01*
X118836337Y-87726097D01*
X118835331Y-87726566D01*
X118622171Y-87825964D01*
X118622169Y-87825965D01*
X118428597Y-87961505D01*
X118261505Y-88128597D01*
X118131575Y-88314158D01*
X118076998Y-88357783D01*
X118007500Y-88364977D01*
X117945145Y-88333454D01*
X117928425Y-88314158D01*
X117798494Y-88128597D01*
X117631402Y-87961506D01*
X117631395Y-87961501D01*
X117437834Y-87825967D01*
X117437830Y-87825965D01*
X117387994Y-87802726D01*
X117223663Y-87726097D01*
X117223659Y-87726096D01*
X117223655Y-87726094D01*
X116995413Y-87664938D01*
X116995403Y-87664936D01*
X116760001Y-87644341D01*
X116759999Y-87644341D01*
X116524596Y-87664936D01*
X116524586Y-87664938D01*
X116296344Y-87726094D01*
X116296337Y-87726096D01*
X116296337Y-87726097D01*
X116295331Y-87726566D01*
X116082171Y-87825964D01*
X116082169Y-87825965D01*
X115888597Y-87961505D01*
X115721505Y-88128597D01*
X115591575Y-88314158D01*
X115536998Y-88357783D01*
X115467500Y-88364977D01*
X115405145Y-88333454D01*
X115388425Y-88314158D01*
X115258494Y-88128597D01*
X115091402Y-87961506D01*
X115091395Y-87961501D01*
X114897834Y-87825967D01*
X114897830Y-87825965D01*
X114847994Y-87802726D01*
X114683663Y-87726097D01*
X114683659Y-87726096D01*
X114683655Y-87726094D01*
X114455413Y-87664938D01*
X114455403Y-87664936D01*
X114220001Y-87644341D01*
X114219999Y-87644341D01*
X113984596Y-87664936D01*
X113984586Y-87664938D01*
X113756344Y-87726094D01*
X113756337Y-87726096D01*
X113756337Y-87726097D01*
X113755331Y-87726566D01*
X113542171Y-87825964D01*
X113542169Y-87825965D01*
X113348597Y-87961505D01*
X113181505Y-88128597D01*
X113051575Y-88314158D01*
X112996998Y-88357783D01*
X112927500Y-88364977D01*
X112865145Y-88333454D01*
X112848425Y-88314158D01*
X112718494Y-88128597D01*
X112551402Y-87961506D01*
X112551395Y-87961501D01*
X112357834Y-87825967D01*
X112357830Y-87825965D01*
X112307994Y-87802726D01*
X112143663Y-87726097D01*
X112143659Y-87726096D01*
X112143655Y-87726094D01*
X111915413Y-87664938D01*
X111915403Y-87664936D01*
X111680001Y-87644341D01*
X111679999Y-87644341D01*
X111444596Y-87664936D01*
X111444586Y-87664938D01*
X111216344Y-87726094D01*
X111216337Y-87726096D01*
X111216337Y-87726097D01*
X111215331Y-87726566D01*
X111116905Y-87772463D01*
X111047827Y-87782955D01*
X110984043Y-87754435D01*
X110945804Y-87695959D01*
X110940500Y-87660081D01*
X110940500Y-87077000D01*
X110960185Y-87009961D01*
X111012989Y-86964206D01*
X111082147Y-86954262D01*
X111135621Y-86975424D01*
X111182182Y-87008026D01*
X111388420Y-87104197D01*
X111388425Y-87104198D01*
X111388427Y-87104199D01*
X111441331Y-87118374D01*
X111608224Y-87163093D01*
X111770146Y-87177259D01*
X111834914Y-87182926D01*
X111834916Y-87182926D01*
X111834918Y-87182926D01*
X111891589Y-87177967D01*
X112061608Y-87163093D01*
X112281412Y-87104197D01*
X112487650Y-87008026D01*
X112674055Y-86877505D01*
X112834963Y-86716597D01*
X112965484Y-86530192D01*
X113061655Y-86323954D01*
X113120551Y-86104150D01*
X113140384Y-85877458D01*
X113120551Y-85650766D01*
X113102234Y-85582406D01*
X113103897Y-85512561D01*
X113134326Y-85462637D01*
X118286607Y-80310358D01*
X118347930Y-80276873D01*
X118374288Y-80274039D01*
X121382901Y-80274039D01*
X121443323Y-80262020D01*
X121503746Y-80250002D01*
X121538023Y-80235804D01*
X121617580Y-80202851D01*
X121647280Y-80183004D01*
X121677395Y-80162883D01*
X121677397Y-80162881D01*
X121720027Y-80134397D01*
X121807152Y-80047272D01*
X121807153Y-80047270D01*
X121814219Y-80040204D01*
X121814222Y-80040200D01*
X122031472Y-79822949D01*
X122092793Y-79789466D01*
X122151240Y-79790856D01*
X122219602Y-79809174D01*
X122377074Y-79822951D01*
X122446292Y-79829007D01*
X122446294Y-79829007D01*
X122446296Y-79829007D01*
X122515514Y-79822951D01*
X122672986Y-79809174D01*
X122892790Y-79750278D01*
X123099028Y-79654107D01*
X123285433Y-79523586D01*
X123310414Y-79498604D01*
X123371734Y-79465119D01*
X123441426Y-79470101D01*
G37*
%TD.AperFunction*%
%TA.AperFunction,Conductor*%
G36*
X135954400Y-86431222D02*
G01*
X135965430Y-86441012D01*
X136973586Y-87449168D01*
X137007071Y-87510491D01*
X137002087Y-87580183D01*
X136960215Y-87636116D01*
X136896713Y-87660376D01*
X136889740Y-87660986D01*
X136844596Y-87664936D01*
X136844586Y-87664938D01*
X136616344Y-87726094D01*
X136616337Y-87726096D01*
X136616337Y-87726097D01*
X136615331Y-87726566D01*
X136402171Y-87825964D01*
X136402169Y-87825965D01*
X136208597Y-87961505D01*
X136041508Y-88128594D01*
X135911574Y-88314160D01*
X135856997Y-88357784D01*
X135787498Y-88364977D01*
X135725144Y-88333455D01*
X135708429Y-88314165D01*
X135647924Y-88227754D01*
X135625597Y-88161548D01*
X135625500Y-88156632D01*
X135625500Y-86698687D01*
X135645185Y-86631648D01*
X135657350Y-86615715D01*
X135689339Y-86580187D01*
X135732533Y-86532216D01*
X135770363Y-86466691D01*
X135820928Y-86418478D01*
X135889535Y-86405254D01*
X135954400Y-86431222D01*
G37*
%TD.AperFunction*%
%TA.AperFunction,Conductor*%
G36*
X104034075Y-72857007D02*
G01*
X104000000Y-72984174D01*
X104000000Y-73115826D01*
X104034075Y-73242993D01*
X104066988Y-73300000D01*
X103100000Y-73300000D01*
X103100000Y-73997844D01*
X103106401Y-74057372D01*
X103106403Y-74057379D01*
X103156645Y-74192086D01*
X103156649Y-74192093D01*
X103242809Y-74307187D01*
X103242812Y-74307190D01*
X103357906Y-74393350D01*
X103357913Y-74393354D01*
X103492620Y-74443596D01*
X103492627Y-74443598D01*
X103552155Y-74449999D01*
X103552172Y-74450000D01*
X104250000Y-74450000D01*
X104250000Y-73483012D01*
X104307007Y-73515925D01*
X104434174Y-73550000D01*
X104565826Y-73550000D01*
X104692993Y-73515925D01*
X104750000Y-73483012D01*
X104750000Y-74450000D01*
X105447828Y-74450000D01*
X105447844Y-74449999D01*
X105507372Y-74443598D01*
X105507379Y-74443596D01*
X105642086Y-74393354D01*
X105642093Y-74393350D01*
X105757187Y-74307190D01*
X105757190Y-74307187D01*
X105843350Y-74192093D01*
X105843353Y-74192088D01*
X105861678Y-74142955D01*
X105903549Y-74087020D01*
X105969013Y-74062602D01*
X106037286Y-74077453D01*
X106054023Y-74088433D01*
X106231365Y-74226464D01*
X106231371Y-74226468D01*
X106231374Y-74226470D01*
X106363287Y-74297858D01*
X106430862Y-74334428D01*
X106435497Y-74336936D01*
X106549487Y-74376068D01*
X106655015Y-74412297D01*
X106655017Y-74412297D01*
X106655019Y-74412298D01*
X106883951Y-74450500D01*
X106883952Y-74450500D01*
X107116048Y-74450500D01*
X107116049Y-74450500D01*
X107344981Y-74412298D01*
X107564503Y-74336936D01*
X107768626Y-74226470D01*
X107770132Y-74225298D01*
X107904338Y-74120842D01*
X107969332Y-74095199D01*
X108037872Y-74108765D01*
X108088196Y-74157234D01*
X108104500Y-74218695D01*
X108104500Y-78475500D01*
X108084815Y-78542539D01*
X108032011Y-78588294D01*
X107980500Y-78599500D01*
X106877129Y-78599500D01*
X106877123Y-78599501D01*
X106817516Y-78605908D01*
X106682671Y-78656202D01*
X106682664Y-78656206D01*
X106567455Y-78742452D01*
X106567452Y-78742455D01*
X106481206Y-78857664D01*
X106481202Y-78857671D01*
X106430908Y-78992517D01*
X106424501Y-79052116D01*
X106424500Y-79052135D01*
X106424500Y-80947870D01*
X106424501Y-80947876D01*
X106430908Y-81007483D01*
X106481202Y-81142328D01*
X106481206Y-81142335D01*
X106567452Y-81257544D01*
X106567455Y-81257547D01*
X106682664Y-81343793D01*
X106682671Y-81343797D01*
X106817517Y-81394091D01*
X106817516Y-81394091D01*
X106824444Y-81394835D01*
X106877127Y-81400500D01*
X107726771Y-81400499D01*
X107793810Y-81420183D01*
X107839565Y-81472987D01*
X107849509Y-81542146D01*
X107820484Y-81605702D01*
X107814452Y-81612180D01*
X103155305Y-86271327D01*
X103093982Y-86304812D01*
X103024290Y-86299828D01*
X102968357Y-86257956D01*
X102943940Y-86192492D01*
X102947848Y-86151556D01*
X102960551Y-86104150D01*
X102980384Y-85877458D01*
X102960551Y-85650766D01*
X102901655Y-85430962D01*
X102805484Y-85224724D01*
X102674963Y-85038319D01*
X102674961Y-85038316D01*
X102514057Y-84877412D01*
X102327650Y-84746890D01*
X102327648Y-84746889D01*
X102121413Y-84650719D01*
X102121404Y-84650716D01*
X101901613Y-84591824D01*
X101901609Y-84591823D01*
X101901608Y-84591823D01*
X101901607Y-84591822D01*
X101901602Y-84591822D01*
X101674918Y-84571990D01*
X101674914Y-84571990D01*
X101448229Y-84591822D01*
X101448218Y-84591824D01*
X101228427Y-84650716D01*
X101228413Y-84650721D01*
X101176404Y-84674974D01*
X101107327Y-84685466D01*
X101043543Y-84656946D01*
X101005304Y-84598469D01*
X101000000Y-84562592D01*
X101000000Y-83655936D01*
X101019685Y-83588897D01*
X101072489Y-83543142D01*
X101141647Y-83533198D01*
X101156094Y-83536161D01*
X101349861Y-83588081D01*
X101349868Y-83588082D01*
X101576466Y-83607907D01*
X101576470Y-83607907D01*
X101803067Y-83588082D01*
X101803078Y-83588080D01*
X102022785Y-83529210D01*
X102022799Y-83529205D01*
X102228946Y-83433077D01*
X102301939Y-83381965D01*
X101622915Y-82702941D01*
X101629129Y-82702941D01*
X101730862Y-82675682D01*
X101822074Y-82623021D01*
X101896548Y-82548547D01*
X101949209Y-82457335D01*
X101976468Y-82355602D01*
X101976468Y-82349388D01*
X102655492Y-83028412D01*
X102706604Y-82955419D01*
X102802732Y-82749272D01*
X102802737Y-82749258D01*
X102861607Y-82529551D01*
X102861609Y-82529540D01*
X102881434Y-82302943D01*
X102881434Y-82302938D01*
X102861609Y-82076341D01*
X102861607Y-82076330D01*
X102802737Y-81856623D01*
X102802732Y-81856609D01*
X102706604Y-81650462D01*
X102706600Y-81650454D01*
X102655493Y-81577467D01*
X101976468Y-82256492D01*
X101976468Y-82250280D01*
X101949209Y-82148547D01*
X101896548Y-82057335D01*
X101822074Y-81982861D01*
X101730862Y-81930200D01*
X101629129Y-81902941D01*
X101622915Y-81902941D01*
X102301940Y-81223915D01*
X102228946Y-81172804D01*
X102022799Y-81076676D01*
X102022785Y-81076671D01*
X101803078Y-81017801D01*
X101803067Y-81017799D01*
X101576470Y-80997975D01*
X101576466Y-80997975D01*
X101349868Y-81017799D01*
X101349857Y-81017801D01*
X101156093Y-81069720D01*
X101086243Y-81068057D01*
X101028381Y-81028894D01*
X101000877Y-80964666D01*
X101000000Y-80949945D01*
X101000000Y-78656454D01*
X101019685Y-78589415D01*
X101072489Y-78543660D01*
X101141647Y-78533716D01*
X101156091Y-78536678D01*
X101349776Y-78588576D01*
X101511698Y-78602742D01*
X101576466Y-78608409D01*
X101576468Y-78608409D01*
X101576470Y-78608409D01*
X101633141Y-78603450D01*
X101803160Y-78588576D01*
X102022964Y-78529680D01*
X102229202Y-78433509D01*
X102415607Y-78302988D01*
X102576515Y-78142080D01*
X102707036Y-77955675D01*
X102803207Y-77749437D01*
X102862103Y-77529633D01*
X102881936Y-77302941D01*
X102881398Y-77296797D01*
X102872727Y-77197678D01*
X102862103Y-77076249D01*
X102803207Y-76856445D01*
X102707036Y-76650207D01*
X102576515Y-76463802D01*
X102576513Y-76463799D01*
X102415609Y-76302895D01*
X102229202Y-76172373D01*
X102229200Y-76172372D01*
X102022965Y-76076202D01*
X102022956Y-76076199D01*
X101803165Y-76017307D01*
X101803161Y-76017306D01*
X101803160Y-76017306D01*
X101803159Y-76017305D01*
X101803154Y-76017305D01*
X101576470Y-75997473D01*
X101576466Y-75997473D01*
X101349781Y-76017305D01*
X101349770Y-76017307D01*
X101156093Y-76069202D01*
X101086243Y-76067539D01*
X101028381Y-76028376D01*
X101000877Y-75964147D01*
X101000000Y-75949427D01*
X101000000Y-74935952D01*
X101019685Y-74868913D01*
X101036319Y-74848271D01*
X102390499Y-73494091D01*
X103048272Y-72836318D01*
X103109594Y-72802834D01*
X103135952Y-72800000D01*
X104066988Y-72800000D01*
X104034075Y-72857007D01*
G37*
%TD.AperFunction*%
%TA.AperFunction,Conductor*%
G36*
X119785539Y-51019685D02*
G01*
X119831294Y-51072489D01*
X119842500Y-51124000D01*
X119842500Y-52632522D01*
X119842501Y-52632539D01*
X119853000Y-52735317D01*
X119853001Y-52735320D01*
X119908185Y-52901852D01*
X119908187Y-52901857D01*
X119930681Y-52938325D01*
X120000288Y-53051177D01*
X120124344Y-53175233D01*
X120273666Y-53267335D01*
X120440203Y-53322520D01*
X120542991Y-53333021D01*
X122143008Y-53333020D01*
X122245797Y-53322520D01*
X122412334Y-53267335D01*
X122561656Y-53175233D01*
X122685712Y-53051177D01*
X122777814Y-52901855D01*
X122832999Y-52735318D01*
X122843500Y-52632530D01*
X122843499Y-51123999D01*
X122863184Y-51056961D01*
X122915987Y-51011206D01*
X122967499Y-51000000D01*
X136015539Y-51000000D01*
X136082578Y-51019685D01*
X136128333Y-51072489D01*
X136138277Y-51141647D01*
X136117114Y-51195123D01*
X136053801Y-51285543D01*
X136053800Y-51285545D01*
X135957630Y-51491780D01*
X135957627Y-51491789D01*
X135898735Y-51711580D01*
X135898733Y-51711591D01*
X135878901Y-51938276D01*
X135878901Y-51938279D01*
X135898733Y-52164964D01*
X135898735Y-52164975D01*
X135957627Y-52384766D01*
X135957630Y-52384775D01*
X136053800Y-52591010D01*
X136053801Y-52591012D01*
X136184323Y-52777419D01*
X136345227Y-52938323D01*
X136345230Y-52938325D01*
X136531635Y-53068846D01*
X136737873Y-53165017D01*
X136737878Y-53165018D01*
X136737880Y-53165019D01*
X136775992Y-53175231D01*
X136957677Y-53223913D01*
X137119599Y-53238079D01*
X137184367Y-53243746D01*
X137184369Y-53243746D01*
X137184371Y-53243746D01*
X137241042Y-53238787D01*
X137411061Y-53223913D01*
X137630865Y-53165017D01*
X137837103Y-53068846D01*
X137932806Y-53001834D01*
X137999010Y-52979508D01*
X138066777Y-52996518D01*
X138114590Y-53047466D01*
X138127268Y-53116176D01*
X138100786Y-53180833D01*
X138091608Y-53191091D01*
X137651306Y-53631393D01*
X137589983Y-53664878D01*
X137531532Y-53663487D01*
X137491066Y-53652644D01*
X137491062Y-53652643D01*
X137491061Y-53652643D01*
X137491060Y-53652642D01*
X137491055Y-53652642D01*
X137264371Y-53632810D01*
X137264367Y-53632810D01*
X137037682Y-53652642D01*
X137037671Y-53652644D01*
X136817880Y-53711536D01*
X136817871Y-53711539D01*
X136611636Y-53807709D01*
X136611634Y-53807710D01*
X136425227Y-53938232D01*
X136264323Y-54099136D01*
X136133801Y-54285543D01*
X136133800Y-54285545D01*
X136037630Y-54491780D01*
X136037627Y-54491789D01*
X135978735Y-54711580D01*
X135978733Y-54711591D01*
X135958901Y-54938276D01*
X135958901Y-54938279D01*
X135978733Y-55164964D01*
X135978735Y-55164975D01*
X136037627Y-55384766D01*
X136037630Y-55384775D01*
X136133800Y-55591010D01*
X136133801Y-55591012D01*
X136264323Y-55777419D01*
X136425227Y-55938323D01*
X136425230Y-55938325D01*
X136611635Y-56068846D01*
X136817873Y-56165017D01*
X137037677Y-56223913D01*
X137199599Y-56238079D01*
X137264367Y-56243746D01*
X137264369Y-56243746D01*
X137264371Y-56243746D01*
X137321042Y-56238787D01*
X137491061Y-56223913D01*
X137710865Y-56165017D01*
X137917103Y-56068846D01*
X138103508Y-55938325D01*
X138264416Y-55777417D01*
X138394937Y-55591012D01*
X138491108Y-55384774D01*
X138550004Y-55164970D01*
X138569837Y-54938278D01*
X138550004Y-54711586D01*
X138539159Y-54671112D01*
X138540822Y-54601262D01*
X138571251Y-54551340D01*
X142086274Y-51036319D01*
X142147597Y-51002834D01*
X142173955Y-51000000D01*
X146176149Y-51000000D01*
X146243188Y-51019685D01*
X146288943Y-51072489D01*
X146298887Y-51141647D01*
X146277724Y-51195124D01*
X146214235Y-51285795D01*
X146118103Y-51491951D01*
X146118099Y-51491960D01*
X146065496Y-51688277D01*
X146065497Y-51688278D01*
X147028683Y-51688278D01*
X147024289Y-51692672D01*
X146971628Y-51783884D01*
X146944369Y-51885617D01*
X146944369Y-51990939D01*
X146971628Y-52092672D01*
X147024289Y-52183884D01*
X147028683Y-52188278D01*
X146065497Y-52188278D01*
X146118099Y-52384595D01*
X146118103Y-52384604D01*
X146214234Y-52590760D01*
X146344711Y-52777098D01*
X146505548Y-52937935D01*
X146691886Y-53068412D01*
X146898042Y-53164543D01*
X146898051Y-53164547D01*
X147094368Y-53217150D01*
X147094369Y-53217149D01*
X147094369Y-52253964D01*
X147098763Y-52258358D01*
X147189975Y-52311019D01*
X147291708Y-52338278D01*
X147397030Y-52338278D01*
X147498763Y-52311019D01*
X147589975Y-52258358D01*
X147594369Y-52253964D01*
X147594369Y-53217149D01*
X147767775Y-53170686D01*
X147837625Y-53172349D01*
X147895488Y-53211511D01*
X147922992Y-53275740D01*
X147923869Y-53290461D01*
X147923869Y-53564141D01*
X147904184Y-53631180D01*
X147851380Y-53676935D01*
X147782222Y-53686879D01*
X147767776Y-53683916D01*
X147651066Y-53652644D01*
X147651062Y-53652643D01*
X147651061Y-53652643D01*
X147651060Y-53652642D01*
X147651055Y-53652642D01*
X147424371Y-53632810D01*
X147424367Y-53632810D01*
X147197682Y-53652642D01*
X147197671Y-53652644D01*
X146977880Y-53711536D01*
X146977871Y-53711539D01*
X146771636Y-53807709D01*
X146771634Y-53807710D01*
X146585227Y-53938232D01*
X146424323Y-54099136D01*
X146293801Y-54285543D01*
X146293800Y-54285545D01*
X146197630Y-54491780D01*
X146197627Y-54491789D01*
X146138735Y-54711580D01*
X146138733Y-54711591D01*
X146118901Y-54938276D01*
X146118901Y-54938279D01*
X146138733Y-55164964D01*
X146138735Y-55164975D01*
X146197627Y-55384766D01*
X146197630Y-55384775D01*
X146293800Y-55591010D01*
X146293801Y-55591012D01*
X146424323Y-55777419D01*
X146585227Y-55938323D01*
X146585230Y-55938325D01*
X146771635Y-56068846D01*
X146977873Y-56165017D01*
X147197677Y-56223913D01*
X147359599Y-56238079D01*
X147424367Y-56243746D01*
X147424369Y-56243746D01*
X147424371Y-56243746D01*
X147481042Y-56238787D01*
X147651061Y-56223913D01*
X147767777Y-56192639D01*
X147837625Y-56194302D01*
X147895488Y-56233464D01*
X147922992Y-56297693D01*
X147923869Y-56312414D01*
X147923869Y-56564141D01*
X147904184Y-56631180D01*
X147851380Y-56676935D01*
X147782222Y-56686879D01*
X147767776Y-56683916D01*
X147651066Y-56652644D01*
X147651062Y-56652643D01*
X147651061Y-56652643D01*
X147651060Y-56652642D01*
X147651055Y-56652642D01*
X147424371Y-56632810D01*
X147424367Y-56632810D01*
X147197682Y-56652642D01*
X147197671Y-56652644D01*
X146977880Y-56711536D01*
X146977871Y-56711539D01*
X146771636Y-56807709D01*
X146771634Y-56807710D01*
X146585227Y-56938232D01*
X146424323Y-57099136D01*
X146293801Y-57285543D01*
X146293800Y-57285545D01*
X146197630Y-57491780D01*
X146197627Y-57491789D01*
X146138735Y-57711580D01*
X146138733Y-57711591D01*
X146118901Y-57938276D01*
X146118901Y-57938279D01*
X146138733Y-58164964D01*
X146138735Y-58164975D01*
X146197627Y-58384766D01*
X146197630Y-58384775D01*
X146293800Y-58591010D01*
X146293801Y-58591012D01*
X146424323Y-58777419D01*
X146585227Y-58938323D01*
X146585230Y-58938325D01*
X146771635Y-59068846D01*
X146977873Y-59165017D01*
X147197677Y-59223913D01*
X147359599Y-59238079D01*
X147424367Y-59243746D01*
X147424369Y-59243746D01*
X147424371Y-59243746D01*
X147481042Y-59238787D01*
X147651061Y-59223913D01*
X147870865Y-59165017D01*
X148047379Y-59082706D01*
X148116453Y-59072215D01*
X148180237Y-59100734D01*
X148187462Y-59107408D01*
X152427364Y-63347310D01*
X152460849Y-63408633D01*
X152455865Y-63478325D01*
X152413993Y-63534258D01*
X152348529Y-63558675D01*
X152329957Y-63558609D01*
X152214217Y-63549500D01*
X152214215Y-63549500D01*
X150585791Y-63549500D01*
X150585776Y-63549501D01*
X150453586Y-63559904D01*
X150453579Y-63559905D01*
X150235321Y-63614902D01*
X150235318Y-63614903D01*
X150030377Y-63707991D01*
X150030367Y-63707997D01*
X149845354Y-63836174D01*
X149845342Y-63836184D01*
X149686184Y-63995342D01*
X149686174Y-63995354D01*
X149557997Y-64180367D01*
X149557991Y-64180377D01*
X149464903Y-64385318D01*
X149464902Y-64385321D01*
X149409905Y-64603579D01*
X149409904Y-64603586D01*
X149399500Y-64735777D01*
X149399500Y-67364208D01*
X149399501Y-67364223D01*
X149409904Y-67496413D01*
X149409905Y-67496420D01*
X149464902Y-67714678D01*
X149464903Y-67714681D01*
X149557991Y-67919622D01*
X149557997Y-67919632D01*
X149686174Y-68104645D01*
X149686178Y-68104650D01*
X149686181Y-68104654D01*
X149845346Y-68263819D01*
X149845350Y-68263822D01*
X149845354Y-68263825D01*
X149892209Y-68296286D01*
X150030374Y-68392007D01*
X150235317Y-68485096D01*
X150235321Y-68485097D01*
X150453579Y-68540094D01*
X150453581Y-68540094D01*
X150453588Y-68540096D01*
X150585783Y-68550500D01*
X152214216Y-68550499D01*
X152346412Y-68540096D01*
X152445201Y-68515203D01*
X152515018Y-68517910D01*
X152572289Y-68557933D01*
X152598829Y-68622566D01*
X152599500Y-68635444D01*
X152599500Y-73089755D01*
X152579815Y-73156794D01*
X152563181Y-73177436D01*
X151237304Y-74503312D01*
X151175981Y-74536797D01*
X151149623Y-74539631D01*
X150179619Y-74539631D01*
X150112580Y-74519946D01*
X150066825Y-74467142D01*
X150056881Y-74397984D01*
X150085906Y-74334428D01*
X150120599Y-74306578D01*
X150268626Y-74226470D01*
X150278616Y-74218695D01*
X150357581Y-74157234D01*
X150451784Y-74083913D01*
X150608979Y-73913153D01*
X150735924Y-73718849D01*
X150829157Y-73506300D01*
X150886134Y-73281305D01*
X150889309Y-73242993D01*
X150905300Y-73050006D01*
X150905300Y-73049993D01*
X150886135Y-72818702D01*
X150886133Y-72818691D01*
X150829157Y-72593699D01*
X150735924Y-72381151D01*
X150608983Y-72186852D01*
X150608980Y-72186849D01*
X150608979Y-72186847D01*
X150451784Y-72016087D01*
X150451779Y-72016083D01*
X150451777Y-72016081D01*
X150268634Y-71873535D01*
X150268628Y-71873531D01*
X150064504Y-71763064D01*
X150064495Y-71763061D01*
X149844984Y-71687702D01*
X149648577Y-71654928D01*
X149616049Y-71649500D01*
X149383951Y-71649500D01*
X149351423Y-71654928D01*
X149155015Y-71687702D01*
X148935504Y-71763061D01*
X148935495Y-71763064D01*
X148731371Y-71873531D01*
X148731365Y-71873535D01*
X148548222Y-72016081D01*
X148548219Y-72016084D01*
X148548216Y-72016086D01*
X148548216Y-72016087D01*
X148482310Y-72087681D01*
X148391015Y-72186854D01*
X148353808Y-72243804D01*
X148300662Y-72289161D01*
X148231430Y-72298584D01*
X148168095Y-72269082D01*
X148146192Y-72243804D01*
X148108984Y-72186854D01*
X148108982Y-72186852D01*
X148108979Y-72186847D01*
X147951784Y-72016087D01*
X147951779Y-72016083D01*
X147951777Y-72016081D01*
X147768634Y-71873535D01*
X147768628Y-71873531D01*
X147564504Y-71763064D01*
X147564495Y-71763061D01*
X147344984Y-71687702D01*
X147148577Y-71654928D01*
X147116049Y-71649500D01*
X146883951Y-71649500D01*
X146851423Y-71654928D01*
X146655015Y-71687702D01*
X146435504Y-71763061D01*
X146435495Y-71763064D01*
X146231372Y-71873531D01*
X146054023Y-72011567D01*
X145989029Y-72037209D01*
X145920489Y-72023642D01*
X145870164Y-71975174D01*
X145861679Y-71957045D01*
X145843355Y-71907915D01*
X145843350Y-71907906D01*
X145757190Y-71792812D01*
X145757187Y-71792809D01*
X145642093Y-71706649D01*
X145642086Y-71706645D01*
X145507379Y-71656403D01*
X145507372Y-71656401D01*
X145447844Y-71650000D01*
X144750000Y-71650000D01*
X144750000Y-72616988D01*
X144692993Y-72584075D01*
X144565826Y-72550000D01*
X144434174Y-72550000D01*
X144307007Y-72584075D01*
X144250000Y-72616988D01*
X144250000Y-71650000D01*
X143552155Y-71650000D01*
X143492627Y-71656401D01*
X143492620Y-71656403D01*
X143357913Y-71706645D01*
X143357906Y-71706649D01*
X143242812Y-71792809D01*
X143242809Y-71792812D01*
X143156649Y-71907906D01*
X143156645Y-71907913D01*
X143106403Y-72042620D01*
X143106401Y-72042627D01*
X143100000Y-72102155D01*
X143100000Y-72800000D01*
X144066988Y-72800000D01*
X144034075Y-72857007D01*
X144000000Y-72984174D01*
X144000000Y-73115826D01*
X144034075Y-73242993D01*
X144066988Y-73300000D01*
X143100000Y-73300000D01*
X143100000Y-73997844D01*
X143106401Y-74057372D01*
X143106403Y-74057379D01*
X143156645Y-74192086D01*
X143156649Y-74192093D01*
X143242809Y-74307187D01*
X143242812Y-74307190D01*
X143357906Y-74393350D01*
X143357913Y-74393354D01*
X143492620Y-74443596D01*
X143492627Y-74443598D01*
X143552155Y-74449999D01*
X143552172Y-74450000D01*
X144250000Y-74450000D01*
X144250000Y-73483012D01*
X144307007Y-73515925D01*
X144434174Y-73550000D01*
X144565826Y-73550000D01*
X144692993Y-73515925D01*
X144750000Y-73483012D01*
X144750000Y-74450000D01*
X145447828Y-74450000D01*
X145447844Y-74449999D01*
X145507372Y-74443598D01*
X145507379Y-74443596D01*
X145642086Y-74393354D01*
X145642093Y-74393350D01*
X145757187Y-74307190D01*
X145757190Y-74307187D01*
X145843350Y-74192093D01*
X145843353Y-74192088D01*
X145861678Y-74142955D01*
X145903549Y-74087020D01*
X145969013Y-74062602D01*
X146037286Y-74077453D01*
X146054023Y-74088433D01*
X146231365Y-74226464D01*
X146231371Y-74226468D01*
X146231374Y-74226470D01*
X146363287Y-74297858D01*
X146430862Y-74334428D01*
X146435497Y-74336936D01*
X146549487Y-74376068D01*
X146655015Y-74412297D01*
X146655017Y-74412297D01*
X146655019Y-74412298D01*
X146883951Y-74450500D01*
X146883952Y-74450500D01*
X146915547Y-74450500D01*
X146982586Y-74470185D01*
X147028341Y-74522989D01*
X147038285Y-74592147D01*
X147009260Y-74655703D01*
X147003228Y-74662181D01*
X144601270Y-77064139D01*
X144601267Y-77064142D01*
X144557704Y-77107704D01*
X144514142Y-77151266D01*
X144485072Y-77194773D01*
X144485071Y-77194772D01*
X144445689Y-77253711D01*
X144442532Y-77261333D01*
X144434907Y-77279743D01*
X144398538Y-77367545D01*
X144398535Y-77367555D01*
X144374500Y-77488389D01*
X144374500Y-78595564D01*
X144354815Y-78662603D01*
X144302011Y-78708358D01*
X144232853Y-78718302D01*
X144203048Y-78710125D01*
X144032048Y-78639295D01*
X144032038Y-78639292D01*
X143831990Y-78599500D01*
X143831988Y-78599500D01*
X143628012Y-78599500D01*
X143628010Y-78599500D01*
X143427961Y-78639292D01*
X143427951Y-78639295D01*
X143239509Y-78717350D01*
X143195333Y-78746868D01*
X143177253Y-78758949D01*
X143163891Y-78767877D01*
X143097213Y-78788755D01*
X143029833Y-78770270D01*
X143026109Y-78767877D01*
X143012747Y-78758949D01*
X142950493Y-78717352D01*
X142950492Y-78717351D01*
X142950490Y-78717350D01*
X142762048Y-78639295D01*
X142762038Y-78639292D01*
X142561990Y-78599500D01*
X142561988Y-78599500D01*
X142358012Y-78599500D01*
X142358010Y-78599500D01*
X142157961Y-78639292D01*
X142157951Y-78639295D01*
X141969513Y-78717348D01*
X141969500Y-78717355D01*
X141799907Y-78830674D01*
X141799903Y-78830677D01*
X141655677Y-78974903D01*
X141655674Y-78974907D01*
X141542355Y-79144500D01*
X141542348Y-79144513D01*
X141464295Y-79332951D01*
X141464292Y-79332961D01*
X141424500Y-79533009D01*
X141424500Y-79533012D01*
X141424500Y-80466988D01*
X141424500Y-80466990D01*
X141424499Y-80466990D01*
X141464292Y-80667038D01*
X141464295Y-80667048D01*
X141542348Y-80855486D01*
X141542355Y-80855499D01*
X141655674Y-81025092D01*
X141655677Y-81025096D01*
X141688531Y-81057950D01*
X141722016Y-81119273D01*
X141717032Y-81188965D01*
X141675160Y-81244898D01*
X141609696Y-81269315D01*
X141600850Y-81269631D01*
X140240939Y-81269631D01*
X140173900Y-81249946D01*
X140153258Y-81233312D01*
X139537812Y-80617865D01*
X139537811Y-80617864D01*
X139431262Y-80546671D01*
X139370247Y-80521398D01*
X139315844Y-80477557D01*
X139293779Y-80411262D01*
X139297925Y-80374742D01*
X139344817Y-80199741D01*
X139344818Y-80199737D01*
X139364643Y-79973140D01*
X139364643Y-79973135D01*
X139344818Y-79746538D01*
X139344816Y-79746527D01*
X139285946Y-79526820D01*
X139285941Y-79526806D01*
X139189813Y-79320659D01*
X139189809Y-79320651D01*
X139138702Y-79247664D01*
X138459677Y-79926689D01*
X138459677Y-79920477D01*
X138432418Y-79818744D01*
X138379757Y-79727532D01*
X138305283Y-79653058D01*
X138214071Y-79600397D01*
X138112338Y-79573138D01*
X138106125Y-79573138D01*
X138785149Y-78894112D01*
X138712155Y-78843001D01*
X138506008Y-78746873D01*
X138505994Y-78746868D01*
X138286287Y-78687998D01*
X138286276Y-78687996D01*
X138059679Y-78668172D01*
X138059675Y-78668172D01*
X137833077Y-78687996D01*
X137833066Y-78687998D01*
X137613359Y-78746868D01*
X137613350Y-78746872D01*
X137407193Y-78843004D01*
X137407189Y-78843006D01*
X137334203Y-78894111D01*
X137334203Y-78894112D01*
X138013230Y-79573138D01*
X138007016Y-79573138D01*
X137905283Y-79600397D01*
X137814071Y-79653058D01*
X137739597Y-79727532D01*
X137686936Y-79818744D01*
X137659677Y-79920477D01*
X137659677Y-79926690D01*
X136980651Y-79247664D01*
X136980650Y-79247664D01*
X136929545Y-79320650D01*
X136929543Y-79320654D01*
X136833411Y-79526811D01*
X136833407Y-79526820D01*
X136774537Y-79746527D01*
X136774535Y-79746538D01*
X136754711Y-79973135D01*
X136754711Y-79973140D01*
X136774535Y-80199737D01*
X136774537Y-80199747D01*
X136805833Y-80316545D01*
X136804170Y-80386394D01*
X136765008Y-80444257D01*
X136700779Y-80471761D01*
X136686058Y-80472638D01*
X134530485Y-80472638D01*
X134463446Y-80452953D01*
X134442804Y-80436319D01*
X134366561Y-80360076D01*
X134333076Y-80298753D01*
X134334468Y-80240300D01*
X134344502Y-80202852D01*
X134345312Y-80199830D01*
X134365145Y-79973138D01*
X134345312Y-79746446D01*
X134286416Y-79526642D01*
X134190245Y-79320404D01*
X134084674Y-79169631D01*
X134059722Y-79133996D01*
X133898817Y-78973091D01*
X133738054Y-78860524D01*
X133694429Y-78805947D01*
X133685177Y-78758949D01*
X133685177Y-78187326D01*
X133704862Y-78120287D01*
X133738054Y-78085751D01*
X133786513Y-78051819D01*
X133898816Y-77973185D01*
X134059724Y-77812277D01*
X134190245Y-77625872D01*
X134286416Y-77419634D01*
X134345312Y-77199830D01*
X134365145Y-76973138D01*
X134345312Y-76746446D01*
X134286416Y-76526642D01*
X134190245Y-76320404D01*
X134140281Y-76249048D01*
X134117955Y-76182843D01*
X134134965Y-76115075D01*
X134185914Y-76067263D01*
X134241857Y-76053926D01*
X136878107Y-76053926D01*
X136945146Y-76073611D01*
X136990901Y-76126415D01*
X137000845Y-76195573D01*
X136979682Y-76249050D01*
X136929543Y-76320655D01*
X136833411Y-76526811D01*
X136833407Y-76526820D01*
X136774537Y-76746527D01*
X136774535Y-76746538D01*
X136754711Y-76973135D01*
X136754711Y-76973140D01*
X136774535Y-77199737D01*
X136774537Y-77199748D01*
X136833407Y-77419455D01*
X136833412Y-77419469D01*
X136929540Y-77625616D01*
X136980651Y-77698610D01*
X137659677Y-77019584D01*
X137659677Y-77025799D01*
X137686936Y-77127532D01*
X137739597Y-77218744D01*
X137814071Y-77293218D01*
X137905283Y-77345879D01*
X138007016Y-77373138D01*
X138013230Y-77373138D01*
X137334203Y-78052163D01*
X137407190Y-78103270D01*
X137407198Y-78103274D01*
X137613345Y-78199402D01*
X137613359Y-78199407D01*
X137833066Y-78258277D01*
X137833077Y-78258279D01*
X138059675Y-78278104D01*
X138059679Y-78278104D01*
X138286276Y-78258279D01*
X138286287Y-78258277D01*
X138505994Y-78199407D01*
X138506008Y-78199402D01*
X138712155Y-78103274D01*
X138785148Y-78052162D01*
X138106124Y-77373138D01*
X138112338Y-77373138D01*
X138214071Y-77345879D01*
X138305283Y-77293218D01*
X138379757Y-77218744D01*
X138432418Y-77127532D01*
X138459677Y-77025799D01*
X138459677Y-77019585D01*
X139138701Y-77698609D01*
X139189813Y-77625616D01*
X139285941Y-77419469D01*
X139285946Y-77419455D01*
X139344816Y-77199748D01*
X139344818Y-77199737D01*
X139364643Y-76973140D01*
X139364643Y-76973135D01*
X139344818Y-76746538D01*
X139344816Y-76746527D01*
X139285946Y-76526820D01*
X139285941Y-76526806D01*
X139189813Y-76320659D01*
X139189809Y-76320651D01*
X139138702Y-76247664D01*
X138459677Y-76926689D01*
X138459677Y-76920477D01*
X138432418Y-76818744D01*
X138379757Y-76727532D01*
X138305283Y-76653058D01*
X138214071Y-76600397D01*
X138112338Y-76573138D01*
X138106123Y-76573138D01*
X138785149Y-75894112D01*
X138732884Y-75857516D01*
X138689260Y-75802939D01*
X138682067Y-75733440D01*
X138713589Y-75671086D01*
X138716263Y-75668325D01*
X147910227Y-66474364D01*
X147985858Y-66398733D01*
X148054311Y-66296286D01*
X148101463Y-66182452D01*
X148125500Y-66061606D01*
X148125500Y-63698687D01*
X148145185Y-63631648D01*
X148157350Y-63615715D01*
X148186222Y-63583649D01*
X148232533Y-63532216D01*
X148327179Y-63368284D01*
X148385674Y-63188256D01*
X148405460Y-63000000D01*
X148385674Y-62811744D01*
X148327179Y-62631716D01*
X148232533Y-62467784D01*
X148105871Y-62327112D01*
X148105870Y-62327111D01*
X147952734Y-62215851D01*
X147952729Y-62215848D01*
X147779807Y-62138857D01*
X147779802Y-62138855D01*
X147634001Y-62107865D01*
X147594646Y-62099500D01*
X147405354Y-62099500D01*
X147372897Y-62106398D01*
X147220197Y-62138855D01*
X147220192Y-62138857D01*
X147047270Y-62215848D01*
X147047265Y-62215851D01*
X146894129Y-62327111D01*
X146767466Y-62467785D01*
X146672821Y-62631715D01*
X146672818Y-62631722D01*
X146631896Y-62757669D01*
X146614326Y-62811744D01*
X146594540Y-63000000D01*
X146614326Y-63188256D01*
X146614327Y-63188259D01*
X146672818Y-63368277D01*
X146672821Y-63368284D01*
X146767467Y-63532216D01*
X146783030Y-63549500D01*
X146842650Y-63615715D01*
X146872880Y-63678706D01*
X146874500Y-63698687D01*
X146874500Y-65689547D01*
X146854815Y-65756586D01*
X146838181Y-65777228D01*
X144713964Y-67901444D01*
X144652641Y-67934929D01*
X144582949Y-67929945D01*
X144527016Y-67888073D01*
X144502599Y-67822609D01*
X144513382Y-67762486D01*
X144535096Y-67714683D01*
X144590096Y-67496412D01*
X144600500Y-67364217D01*
X144600499Y-64735784D01*
X144590096Y-64603588D01*
X144546673Y-64431263D01*
X144535097Y-64385321D01*
X144535096Y-64385318D01*
X144442008Y-64180377D01*
X144442007Y-64180374D01*
X144313819Y-63995346D01*
X144154654Y-63836181D01*
X144154650Y-63836178D01*
X144154645Y-63836174D01*
X143969632Y-63707997D01*
X143969630Y-63707995D01*
X143969626Y-63707993D01*
X143943700Y-63696217D01*
X143764681Y-63614903D01*
X143764678Y-63614902D01*
X143546420Y-63559905D01*
X143546413Y-63559904D01*
X143502347Y-63556436D01*
X143414217Y-63549500D01*
X143414215Y-63549500D01*
X141785791Y-63549500D01*
X141785776Y-63549501D01*
X141653586Y-63559904D01*
X141653579Y-63559905D01*
X141435321Y-63614902D01*
X141435318Y-63614903D01*
X141230377Y-63707991D01*
X141230367Y-63707997D01*
X141045354Y-63836174D01*
X141045342Y-63836184D01*
X140886184Y-63995342D01*
X140886174Y-63995354D01*
X140757997Y-64180367D01*
X140757991Y-64180377D01*
X140664903Y-64385318D01*
X140664902Y-64385321D01*
X140609905Y-64603579D01*
X140609904Y-64603586D01*
X140599500Y-64735777D01*
X140599500Y-67364208D01*
X140599501Y-67364223D01*
X140609904Y-67496413D01*
X140609905Y-67496420D01*
X140664902Y-67714678D01*
X140664903Y-67714681D01*
X140757991Y-67919622D01*
X140757997Y-67919632D01*
X140886174Y-68104645D01*
X140886178Y-68104650D01*
X140886181Y-68104654D01*
X141045346Y-68263819D01*
X141045350Y-68263822D01*
X141045354Y-68263825D01*
X141092209Y-68296286D01*
X141230374Y-68392007D01*
X141435317Y-68485096D01*
X141435321Y-68485097D01*
X141653579Y-68540094D01*
X141653581Y-68540094D01*
X141653588Y-68540096D01*
X141785783Y-68550500D01*
X143414216Y-68550499D01*
X143546412Y-68540096D01*
X143764683Y-68485096D01*
X143812485Y-68463383D01*
X143881659Y-68453581D01*
X143945156Y-68482735D01*
X143982811Y-68541590D01*
X143982669Y-68611459D01*
X143951444Y-68663964D01*
X137848803Y-74766607D01*
X137787480Y-74800092D01*
X137761122Y-74802926D01*
X131377039Y-74802926D01*
X131310000Y-74783241D01*
X131275464Y-74750049D01*
X131162896Y-74589284D01*
X131001992Y-74428380D01*
X130815585Y-74297858D01*
X130815583Y-74297857D01*
X130609348Y-74201687D01*
X130609339Y-74201684D01*
X130480476Y-74167156D01*
X130420815Y-74130791D01*
X130390286Y-74067944D01*
X130398581Y-73998569D01*
X130424885Y-73959703D01*
X135985857Y-68398734D01*
X136054311Y-68296286D01*
X136101463Y-68182451D01*
X136125500Y-68061607D01*
X136125500Y-67938394D01*
X136125500Y-59698687D01*
X136145185Y-59631648D01*
X136157350Y-59615715D01*
X136175891Y-59595122D01*
X136232533Y-59532216D01*
X136327179Y-59368284D01*
X136385674Y-59188256D01*
X136390909Y-59138443D01*
X136417492Y-59073833D01*
X136474789Y-59033847D01*
X136544608Y-59031187D01*
X136585352Y-59049833D01*
X136611881Y-59068409D01*
X136611885Y-59068411D01*
X136818042Y-59164543D01*
X136818051Y-59164547D01*
X137014368Y-59217150D01*
X137014369Y-59217149D01*
X137014369Y-58253964D01*
X137018763Y-58258358D01*
X137109975Y-58311019D01*
X137211708Y-58338278D01*
X137317030Y-58338278D01*
X137418763Y-58311019D01*
X137509975Y-58258358D01*
X137514369Y-58253964D01*
X137514369Y-59217150D01*
X137710686Y-59164547D01*
X137710695Y-59164543D01*
X137916851Y-59068412D01*
X138103189Y-58937935D01*
X138264026Y-58777098D01*
X138394503Y-58590760D01*
X138490634Y-58384604D01*
X138490638Y-58384595D01*
X138543241Y-58188278D01*
X137580055Y-58188278D01*
X137584449Y-58183884D01*
X137637110Y-58092672D01*
X137664369Y-57990939D01*
X137664369Y-57885617D01*
X137637110Y-57783884D01*
X137584449Y-57692672D01*
X137580055Y-57688278D01*
X138543241Y-57688278D01*
X138543241Y-57688277D01*
X138490638Y-57491960D01*
X138490634Y-57491951D01*
X138394503Y-57285795D01*
X138264026Y-57099457D01*
X138103189Y-56938620D01*
X137916851Y-56808143D01*
X137710697Y-56712012D01*
X137514369Y-56659405D01*
X137514369Y-57622592D01*
X137509975Y-57618198D01*
X137418763Y-57565537D01*
X137317030Y-57538278D01*
X137211708Y-57538278D01*
X137109975Y-57565537D01*
X137018763Y-57618198D01*
X137014369Y-57622592D01*
X137014369Y-56659405D01*
X136818040Y-56712012D01*
X136611886Y-56808143D01*
X136425548Y-56938620D01*
X136264711Y-57099457D01*
X136134234Y-57285795D01*
X136038103Y-57491951D01*
X136038099Y-57491960D01*
X135985496Y-57688277D01*
X135985497Y-57688278D01*
X136948683Y-57688278D01*
X136944289Y-57692672D01*
X136891628Y-57783884D01*
X136864369Y-57885617D01*
X136864369Y-57990939D01*
X136891628Y-58092672D01*
X136944289Y-58183884D01*
X136948683Y-58188278D01*
X135924347Y-58188278D01*
X135924347Y-58185740D01*
X135894697Y-58187501D01*
X135872081Y-58179941D01*
X135779807Y-58138857D01*
X135779802Y-58138855D01*
X135634001Y-58107865D01*
X135594646Y-58099500D01*
X135405354Y-58099500D01*
X135372897Y-58106398D01*
X135220197Y-58138855D01*
X135220192Y-58138857D01*
X135047270Y-58215848D01*
X135047265Y-58215851D01*
X134894129Y-58327111D01*
X134767466Y-58467785D01*
X134672821Y-58631715D01*
X134672818Y-58631722D01*
X134622695Y-58785986D01*
X134614326Y-58811744D01*
X134594540Y-59000000D01*
X134614326Y-59188256D01*
X134614327Y-59188259D01*
X134672818Y-59368277D01*
X134672821Y-59368284D01*
X134767467Y-59532216D01*
X134810772Y-59580310D01*
X134842650Y-59615715D01*
X134872880Y-59678706D01*
X134874500Y-59698687D01*
X134874500Y-67689546D01*
X134854815Y-67756585D01*
X134838181Y-67777227D01*
X131107346Y-71508061D01*
X131046023Y-71541546D01*
X130976331Y-71536562D01*
X130920398Y-71494690D01*
X130906112Y-71470195D01*
X130824173Y-71283393D01*
X130688166Y-71075217D01*
X130666557Y-71051744D01*
X130519744Y-70892262D01*
X130323509Y-70739526D01*
X130323507Y-70739525D01*
X130323506Y-70739524D01*
X130104811Y-70621172D01*
X130104802Y-70621169D01*
X129869616Y-70540429D01*
X129624335Y-70499500D01*
X129375665Y-70499500D01*
X129130383Y-70540429D01*
X128895197Y-70621169D01*
X128895188Y-70621172D01*
X128676493Y-70739524D01*
X128480257Y-70892261D01*
X128311837Y-71075213D01*
X128308690Y-71079258D01*
X128306973Y-71077922D01*
X128260771Y-71117294D01*
X128231596Y-71121954D01*
X127482962Y-71870588D01*
X127465925Y-71807007D01*
X127400099Y-71692993D01*
X127307007Y-71599901D01*
X127192993Y-71534075D01*
X127129409Y-71517037D01*
X127870057Y-70776389D01*
X127823229Y-70739943D01*
X127604614Y-70621635D01*
X127604603Y-70621630D01*
X127369493Y-70540916D01*
X127124293Y-70500000D01*
X126875707Y-70500000D01*
X126630506Y-70540916D01*
X126395396Y-70621630D01*
X126395385Y-70621635D01*
X126176768Y-70739944D01*
X126176757Y-70739951D01*
X126120890Y-70783435D01*
X126055896Y-70809078D01*
X125987356Y-70795512D01*
X125945462Y-70759893D01*
X125857547Y-70642455D01*
X125857544Y-70642452D01*
X125742335Y-70556206D01*
X125742328Y-70556202D01*
X125607482Y-70505908D01*
X125607483Y-70505908D01*
X125547883Y-70499501D01*
X125547881Y-70499500D01*
X125547873Y-70499500D01*
X125547864Y-70499500D01*
X123452129Y-70499500D01*
X123452123Y-70499501D01*
X123392516Y-70505908D01*
X123257671Y-70556202D01*
X123257664Y-70556206D01*
X123142455Y-70642452D01*
X123142452Y-70642455D01*
X123056206Y-70757664D01*
X123056202Y-70757671D01*
X123005908Y-70892517D01*
X122999501Y-70952116D01*
X122999500Y-70952135D01*
X122999500Y-71315548D01*
X122979815Y-71382587D01*
X122927011Y-71428342D01*
X122857853Y-71438286D01*
X122794297Y-71409261D01*
X122787819Y-71403229D01*
X118240491Y-66855901D01*
X118207006Y-66794578D01*
X118204172Y-66768220D01*
X118204172Y-63797792D01*
X118223857Y-63730753D01*
X118257049Y-63696217D01*
X118305508Y-63662285D01*
X118417811Y-63583651D01*
X118578719Y-63422743D01*
X118709240Y-63236338D01*
X118805411Y-63030100D01*
X118826302Y-62952135D01*
X119649500Y-62952135D01*
X119649500Y-66047870D01*
X119649501Y-66047876D01*
X119655908Y-66107483D01*
X119706202Y-66242328D01*
X119706206Y-66242335D01*
X119792452Y-66357544D01*
X119792455Y-66357547D01*
X119907664Y-66443793D01*
X119907671Y-66443797D01*
X120042517Y-66494091D01*
X120042516Y-66494091D01*
X120049444Y-66494835D01*
X120102127Y-66500500D01*
X122697872Y-66500499D01*
X122757483Y-66494091D01*
X122892331Y-66443796D01*
X123007546Y-66357546D01*
X123093796Y-66242331D01*
X123144091Y-66107483D01*
X123150500Y-66047873D01*
X123150499Y-62952135D01*
X130849500Y-62952135D01*
X130849500Y-66047870D01*
X130849501Y-66047876D01*
X130855908Y-66107483D01*
X130906202Y-66242328D01*
X130906206Y-66242335D01*
X130992452Y-66357544D01*
X130992455Y-66357547D01*
X131107664Y-66443793D01*
X131107671Y-66443797D01*
X131242517Y-66494091D01*
X131242516Y-66494091D01*
X131249444Y-66494835D01*
X131302127Y-66500500D01*
X133897872Y-66500499D01*
X133957483Y-66494091D01*
X134092331Y-66443796D01*
X134207546Y-66357546D01*
X134293796Y-66242331D01*
X134344091Y-66107483D01*
X134350500Y-66047873D01*
X134350499Y-62952128D01*
X134344091Y-62892517D01*
X134313426Y-62810301D01*
X134293797Y-62757671D01*
X134293793Y-62757664D01*
X134207547Y-62642455D01*
X134207544Y-62642452D01*
X134092335Y-62556206D01*
X134092328Y-62556202D01*
X133957482Y-62505908D01*
X133957483Y-62505908D01*
X133897883Y-62499501D01*
X133897881Y-62499500D01*
X133897873Y-62499500D01*
X133897864Y-62499500D01*
X131302129Y-62499500D01*
X131302123Y-62499501D01*
X131242516Y-62505908D01*
X131107671Y-62556202D01*
X131107664Y-62556206D01*
X130992455Y-62642452D01*
X130992452Y-62642455D01*
X130906206Y-62757664D01*
X130906202Y-62757671D01*
X130855908Y-62892517D01*
X130850602Y-62941873D01*
X130849501Y-62952123D01*
X130849500Y-62952135D01*
X123150499Y-62952135D01*
X123150499Y-62952128D01*
X123144091Y-62892517D01*
X123113426Y-62810301D01*
X123093797Y-62757671D01*
X123093793Y-62757664D01*
X123007547Y-62642455D01*
X123007544Y-62642452D01*
X122892335Y-62556206D01*
X122892328Y-62556202D01*
X122757482Y-62505908D01*
X122757483Y-62505908D01*
X122697883Y-62499501D01*
X122697881Y-62499500D01*
X122697873Y-62499500D01*
X122697864Y-62499500D01*
X120102129Y-62499500D01*
X120102123Y-62499501D01*
X120042516Y-62505908D01*
X119907671Y-62556202D01*
X119907664Y-62556206D01*
X119792455Y-62642452D01*
X119792452Y-62642455D01*
X119706206Y-62757664D01*
X119706202Y-62757671D01*
X119655908Y-62892517D01*
X119650602Y-62941873D01*
X119649501Y-62952123D01*
X119649500Y-62952135D01*
X118826302Y-62952135D01*
X118864307Y-62810296D01*
X118884140Y-62583604D01*
X118864307Y-62356912D01*
X118805411Y-62137108D01*
X118709240Y-61930870D01*
X118578719Y-61744465D01*
X118578717Y-61744462D01*
X118417813Y-61583558D01*
X118231406Y-61453036D01*
X118231404Y-61453035D01*
X118025169Y-61356865D01*
X118025160Y-61356862D01*
X117805369Y-61297970D01*
X117805365Y-61297969D01*
X117805364Y-61297969D01*
X117805363Y-61297968D01*
X117805358Y-61297968D01*
X117578674Y-61278136D01*
X117578670Y-61278136D01*
X117351985Y-61297968D01*
X117351974Y-61297970D01*
X117132183Y-61356862D01*
X117132174Y-61356865D01*
X116925939Y-61453035D01*
X116925937Y-61453036D01*
X116739530Y-61583558D01*
X116578626Y-61744462D01*
X116448104Y-61930869D01*
X116448103Y-61930871D01*
X116351933Y-62137106D01*
X116351930Y-62137115D01*
X116293038Y-62356906D01*
X116293036Y-62356917D01*
X116273204Y-62583602D01*
X116273204Y-62583605D01*
X116293036Y-62810290D01*
X116293038Y-62810301D01*
X116351930Y-63030092D01*
X116351933Y-63030101D01*
X116448103Y-63236336D01*
X116448104Y-63236338D01*
X116578626Y-63422745D01*
X116739530Y-63583649D01*
X116900295Y-63696217D01*
X116943920Y-63750793D01*
X116953172Y-63797792D01*
X116953172Y-66898938D01*
X116933487Y-66965977D01*
X116880683Y-67011732D01*
X116811525Y-67021676D01*
X116747969Y-66992651D01*
X116741491Y-66986619D01*
X107754870Y-57999998D01*
X110694532Y-57999998D01*
X110694532Y-58000001D01*
X110714364Y-58226686D01*
X110714366Y-58226697D01*
X110773258Y-58446488D01*
X110773261Y-58446497D01*
X110869431Y-58652732D01*
X110869432Y-58652734D01*
X110999954Y-58839141D01*
X111160858Y-59000045D01*
X111160861Y-59000047D01*
X111347266Y-59130568D01*
X111553504Y-59226739D01*
X111773308Y-59285635D01*
X111935230Y-59299801D01*
X111999998Y-59305468D01*
X112000000Y-59305468D01*
X112000002Y-59305468D01*
X112056673Y-59300509D01*
X112226692Y-59285635D01*
X112446496Y-59226739D01*
X112652734Y-59130568D01*
X112839139Y-59000047D01*
X113000047Y-58839139D01*
X113112613Y-58678377D01*
X113167189Y-58634752D01*
X113214188Y-58625500D01*
X113785812Y-58625500D01*
X113852851Y-58645185D01*
X113887387Y-58678377D01*
X113999954Y-58839141D01*
X114160858Y-59000045D01*
X114160861Y-59000047D01*
X114347266Y-59130568D01*
X114553504Y-59226739D01*
X114773308Y-59285635D01*
X114935230Y-59299801D01*
X114999998Y-59305468D01*
X115000000Y-59305468D01*
X115000002Y-59305468D01*
X115056673Y-59300509D01*
X115226692Y-59285635D01*
X115446496Y-59226739D01*
X115652734Y-59130568D01*
X115839139Y-59000047D01*
X116000047Y-58839139D01*
X116112613Y-58678377D01*
X116167189Y-58634752D01*
X116214188Y-58625500D01*
X116785812Y-58625500D01*
X116852851Y-58645185D01*
X116887387Y-58678377D01*
X116999954Y-58839141D01*
X117160858Y-59000045D01*
X117160861Y-59000047D01*
X117347266Y-59130568D01*
X117553504Y-59226739D01*
X117773308Y-59285635D01*
X117935230Y-59299801D01*
X117999998Y-59305468D01*
X118000000Y-59305468D01*
X118000002Y-59305468D01*
X118056673Y-59300509D01*
X118226692Y-59285635D01*
X118446496Y-59226739D01*
X118652734Y-59130568D01*
X118839139Y-59000047D01*
X119000047Y-58839139D01*
X119130568Y-58652734D01*
X119226739Y-58446496D01*
X119285635Y-58226692D01*
X119305468Y-58000000D01*
X119285635Y-57773308D01*
X119226739Y-57553504D01*
X119201787Y-57499994D01*
X122994859Y-57499994D01*
X122994859Y-57500005D01*
X123015385Y-57747729D01*
X123015387Y-57747738D01*
X123076412Y-57988717D01*
X123176266Y-58216364D01*
X123276564Y-58369882D01*
X124017037Y-57629409D01*
X124034075Y-57692993D01*
X124099901Y-57807007D01*
X124192993Y-57900099D01*
X124307007Y-57965925D01*
X124370590Y-57982962D01*
X123629942Y-58723609D01*
X123676768Y-58760055D01*
X123676770Y-58760056D01*
X123895385Y-58878364D01*
X123895396Y-58878369D01*
X124130506Y-58959083D01*
X124375707Y-59000000D01*
X124624293Y-59000000D01*
X124869493Y-58959083D01*
X125104603Y-58878369D01*
X125104614Y-58878364D01*
X125323228Y-58760057D01*
X125323231Y-58760055D01*
X125370056Y-58723609D01*
X124629409Y-57982962D01*
X124692993Y-57965925D01*
X124807007Y-57900099D01*
X124900099Y-57807007D01*
X124965925Y-57692993D01*
X124982962Y-57629410D01*
X125723434Y-58369882D01*
X125823731Y-58216369D01*
X125923587Y-57988717D01*
X125984612Y-57747738D01*
X125984614Y-57747729D01*
X126005141Y-57500005D01*
X126005141Y-57499994D01*
X127994357Y-57499994D01*
X127994357Y-57500005D01*
X128014890Y-57747812D01*
X128014892Y-57747824D01*
X128075936Y-57988881D01*
X128175826Y-58216606D01*
X128311833Y-58424782D01*
X128311836Y-58424785D01*
X128480256Y-58607738D01*
X128676491Y-58760474D01*
X128707799Y-58777417D01*
X128894332Y-58878364D01*
X128895190Y-58878828D01*
X129067363Y-58937935D01*
X129128964Y-58959083D01*
X129130386Y-58959571D01*
X129375665Y-59000500D01*
X129624335Y-59000500D01*
X129869614Y-58959571D01*
X130104810Y-58878828D01*
X130323509Y-58760474D01*
X130519744Y-58607738D01*
X130688164Y-58424785D01*
X130824173Y-58216607D01*
X130924063Y-57988881D01*
X130985108Y-57747821D01*
X130985116Y-57747729D01*
X131005643Y-57500005D01*
X131005643Y-57499994D01*
X130985109Y-57252187D01*
X130985107Y-57252175D01*
X130924063Y-57011118D01*
X130824173Y-56783393D01*
X130688166Y-56575217D01*
X130666557Y-56551744D01*
X130519744Y-56392262D01*
X130323509Y-56239526D01*
X130323507Y-56239525D01*
X130323506Y-56239524D01*
X130104811Y-56121172D01*
X130104802Y-56121169D01*
X129869616Y-56040429D01*
X129624335Y-55999500D01*
X129375665Y-55999500D01*
X129130383Y-56040429D01*
X128895197Y-56121169D01*
X128895188Y-56121172D01*
X128676493Y-56239524D01*
X128480257Y-56392261D01*
X128311833Y-56575217D01*
X128175826Y-56783393D01*
X128075936Y-57011118D01*
X128014892Y-57252175D01*
X128014890Y-57252187D01*
X127994357Y-57499994D01*
X126005141Y-57499994D01*
X125984614Y-57252270D01*
X125984612Y-57252261D01*
X125923587Y-57011282D01*
X125823731Y-56783630D01*
X125723434Y-56630116D01*
X124982962Y-57370589D01*
X124965925Y-57307007D01*
X124900099Y-57192993D01*
X124807007Y-57099901D01*
X124692993Y-57034075D01*
X124629410Y-57017037D01*
X125370057Y-56276390D01*
X125370056Y-56276389D01*
X125323229Y-56239943D01*
X125104614Y-56121635D01*
X125104603Y-56121630D01*
X124869493Y-56040916D01*
X124624293Y-56000000D01*
X124375707Y-56000000D01*
X124130506Y-56040916D01*
X123895396Y-56121630D01*
X123895390Y-56121632D01*
X123676761Y-56239949D01*
X123629942Y-56276388D01*
X123629942Y-56276390D01*
X124370590Y-57017037D01*
X124307007Y-57034075D01*
X124192993Y-57099901D01*
X124099901Y-57192993D01*
X124034075Y-57307007D01*
X124017037Y-57370589D01*
X123276564Y-56630116D01*
X123176267Y-56783632D01*
X123076412Y-57011282D01*
X123015387Y-57252261D01*
X123015385Y-57252270D01*
X122994859Y-57499994D01*
X119201787Y-57499994D01*
X119130568Y-57347266D01*
X119000047Y-57160861D01*
X119000045Y-57160858D01*
X118839141Y-56999954D01*
X118652734Y-56869432D01*
X118652732Y-56869431D01*
X118446497Y-56773261D01*
X118446488Y-56773258D01*
X118226697Y-56714366D01*
X118226693Y-56714365D01*
X118226692Y-56714365D01*
X118226691Y-56714364D01*
X118226686Y-56714364D01*
X118000002Y-56694532D01*
X117999998Y-56694532D01*
X117773313Y-56714364D01*
X117773302Y-56714366D01*
X117553511Y-56773258D01*
X117553502Y-56773261D01*
X117347267Y-56869431D01*
X117347265Y-56869432D01*
X117160858Y-56999954D01*
X116999954Y-57160858D01*
X116887387Y-57321623D01*
X116832811Y-57365248D01*
X116785812Y-57374500D01*
X116214188Y-57374500D01*
X116147149Y-57354815D01*
X116112613Y-57321623D01*
X116000045Y-57160858D01*
X115839141Y-56999954D01*
X115652734Y-56869432D01*
X115652732Y-56869431D01*
X115446497Y-56773261D01*
X115446488Y-56773258D01*
X115226697Y-56714366D01*
X115226693Y-56714365D01*
X115226692Y-56714365D01*
X115226691Y-56714364D01*
X115226686Y-56714364D01*
X115000002Y-56694532D01*
X114999998Y-56694532D01*
X114773313Y-56714364D01*
X114773302Y-56714366D01*
X114553511Y-56773258D01*
X114553502Y-56773261D01*
X114347267Y-56869431D01*
X114347265Y-56869432D01*
X114160858Y-56999954D01*
X113999954Y-57160858D01*
X113887387Y-57321623D01*
X113832811Y-57365248D01*
X113785812Y-57374500D01*
X113214188Y-57374500D01*
X113147149Y-57354815D01*
X113112613Y-57321623D01*
X113000045Y-57160858D01*
X112839141Y-56999954D01*
X112652734Y-56869432D01*
X112652732Y-56869431D01*
X112446497Y-56773261D01*
X112446488Y-56773258D01*
X112226697Y-56714366D01*
X112226693Y-56714365D01*
X112226692Y-56714365D01*
X112226691Y-56714364D01*
X112226686Y-56714364D01*
X112000002Y-56694532D01*
X111999998Y-56694532D01*
X111773313Y-56714364D01*
X111773302Y-56714366D01*
X111553511Y-56773258D01*
X111553502Y-56773261D01*
X111347267Y-56869431D01*
X111347265Y-56869432D01*
X111160858Y-56999954D01*
X110999954Y-57160858D01*
X110869432Y-57347265D01*
X110869431Y-57347267D01*
X110773261Y-57553502D01*
X110773258Y-57553511D01*
X110714366Y-57773302D01*
X110714364Y-57773313D01*
X110694532Y-57999998D01*
X107754870Y-57999998D01*
X104360480Y-54605608D01*
X104360460Y-54605586D01*
X104269015Y-54514141D01*
X104217791Y-54479915D01*
X104166569Y-54445689D01*
X104166568Y-54445688D01*
X104166565Y-54445686D01*
X104166562Y-54445685D01*
X104086074Y-54412347D01*
X104052735Y-54398537D01*
X104042709Y-54396543D01*
X103992311Y-54386518D01*
X103931892Y-54374500D01*
X103931889Y-54374500D01*
X103931888Y-54374500D01*
X103054188Y-54374500D01*
X102987149Y-54354815D01*
X102952613Y-54321623D01*
X102840045Y-54160858D01*
X102679141Y-53999954D01*
X102645038Y-53976075D01*
X102601413Y-53921498D01*
X102594219Y-53852000D01*
X102625742Y-53789645D01*
X102685971Y-53754231D01*
X102716161Y-53750500D01*
X109814548Y-53750500D01*
X109881587Y-53770185D01*
X109902229Y-53786819D01*
X110700586Y-54585177D01*
X110734071Y-54646500D01*
X110732680Y-54704949D01*
X110714367Y-54773296D01*
X110714364Y-54773313D01*
X110694532Y-54999999D01*
X110694532Y-55000001D01*
X110714364Y-55226686D01*
X110714366Y-55226697D01*
X110773258Y-55446488D01*
X110773261Y-55446497D01*
X110869431Y-55652732D01*
X110869432Y-55652734D01*
X110999954Y-55839141D01*
X111160858Y-56000045D01*
X111160861Y-56000047D01*
X111347266Y-56130568D01*
X111553504Y-56226739D01*
X111553509Y-56226740D01*
X111553511Y-56226741D01*
X111601226Y-56239526D01*
X111773308Y-56285635D01*
X111935230Y-56299801D01*
X111999998Y-56305468D01*
X112000000Y-56305468D01*
X112000002Y-56305468D01*
X112056673Y-56300509D01*
X112226692Y-56285635D01*
X112446496Y-56226739D01*
X112652734Y-56130568D01*
X112839139Y-56000047D01*
X113000047Y-55839139D01*
X113130568Y-55652734D01*
X113226739Y-55446496D01*
X113285635Y-55226692D01*
X113305468Y-55000000D01*
X113285635Y-54773308D01*
X113226739Y-54553504D01*
X113130568Y-54347266D01*
X113000047Y-54160861D01*
X113000045Y-54160858D01*
X112839140Y-53999953D01*
X112678377Y-53887386D01*
X112634752Y-53832809D01*
X112625500Y-53785811D01*
X112625500Y-53707493D01*
X112645185Y-53640454D01*
X112697989Y-53594699D01*
X112767147Y-53584755D01*
X112796952Y-53592931D01*
X112817548Y-53601463D01*
X112837597Y-53605451D01*
X112871196Y-53612134D01*
X112938392Y-53625501D01*
X112938394Y-53625501D01*
X113067721Y-53625501D01*
X113067741Y-53625500D01*
X113785812Y-53625500D01*
X113852851Y-53645185D01*
X113887387Y-53678377D01*
X113999954Y-53839141D01*
X114160858Y-54000045D01*
X114160861Y-54000047D01*
X114347266Y-54130568D01*
X114553504Y-54226739D01*
X114773308Y-54285635D01*
X114935230Y-54299801D01*
X114999998Y-54305468D01*
X115000000Y-54305468D01*
X115000002Y-54305468D01*
X115056673Y-54300509D01*
X115226692Y-54285635D01*
X115446496Y-54226739D01*
X115652734Y-54130568D01*
X115839139Y-54000047D01*
X116000047Y-53839139D01*
X116130568Y-53652734D01*
X116226739Y-53446496D01*
X116285635Y-53226692D01*
X116302634Y-53032384D01*
X116305468Y-53000001D01*
X116305468Y-52999998D01*
X116305468Y-52999997D01*
X116695034Y-52999997D01*
X116695034Y-53000002D01*
X116714858Y-53226599D01*
X116714860Y-53226610D01*
X116773730Y-53446317D01*
X116773735Y-53446331D01*
X116869863Y-53652478D01*
X116920974Y-53725472D01*
X117600000Y-53046446D01*
X117600000Y-53052661D01*
X117627259Y-53154394D01*
X117679920Y-53245606D01*
X117754394Y-53320080D01*
X117845606Y-53372741D01*
X117947339Y-53400000D01*
X117953553Y-53400000D01*
X117274526Y-54079025D01*
X117347513Y-54130132D01*
X117347521Y-54130136D01*
X117553668Y-54226264D01*
X117553682Y-54226269D01*
X117773389Y-54285139D01*
X117773400Y-54285141D01*
X117999998Y-54304966D01*
X118000002Y-54304966D01*
X118226599Y-54285141D01*
X118226610Y-54285139D01*
X118446317Y-54226269D01*
X118446331Y-54226264D01*
X118652478Y-54130136D01*
X118725471Y-54079024D01*
X118046447Y-53400000D01*
X118052661Y-53400000D01*
X118154394Y-53372741D01*
X118245606Y-53320080D01*
X118320080Y-53245606D01*
X118372741Y-53154394D01*
X118400000Y-53052661D01*
X118400000Y-53046447D01*
X119079024Y-53725471D01*
X119130136Y-53652478D01*
X119226264Y-53446331D01*
X119226269Y-53446317D01*
X119285139Y-53226610D01*
X119285141Y-53226599D01*
X119304966Y-53000002D01*
X119304966Y-52999997D01*
X119285141Y-52773400D01*
X119285139Y-52773389D01*
X119226269Y-52553682D01*
X119226264Y-52553668D01*
X119130136Y-52347521D01*
X119130132Y-52347513D01*
X119079025Y-52274526D01*
X118400000Y-52953551D01*
X118400000Y-52947339D01*
X118372741Y-52845606D01*
X118320080Y-52754394D01*
X118245606Y-52679920D01*
X118154394Y-52627259D01*
X118052661Y-52600000D01*
X118046448Y-52600000D01*
X118725472Y-51920974D01*
X118652478Y-51869863D01*
X118446331Y-51773735D01*
X118446317Y-51773730D01*
X118226610Y-51714860D01*
X118226599Y-51714858D01*
X118000002Y-51695034D01*
X117999998Y-51695034D01*
X117773400Y-51714858D01*
X117773389Y-51714860D01*
X117553682Y-51773730D01*
X117553673Y-51773734D01*
X117347516Y-51869866D01*
X117347512Y-51869868D01*
X117274526Y-51920973D01*
X117274526Y-51920974D01*
X117953553Y-52600000D01*
X117947339Y-52600000D01*
X117845606Y-52627259D01*
X117754394Y-52679920D01*
X117679920Y-52754394D01*
X117627259Y-52845606D01*
X117600000Y-52947339D01*
X117600000Y-52953552D01*
X116920974Y-52274526D01*
X116920973Y-52274526D01*
X116869868Y-52347512D01*
X116869866Y-52347516D01*
X116773734Y-52553673D01*
X116773730Y-52553682D01*
X116714860Y-52773389D01*
X116714858Y-52773400D01*
X116695034Y-52999997D01*
X116305468Y-52999997D01*
X116291394Y-52839139D01*
X116285635Y-52773308D01*
X116226739Y-52553504D01*
X116130568Y-52347266D01*
X116000047Y-52160861D01*
X116000045Y-52160858D01*
X115839141Y-51999954D01*
X115652734Y-51869432D01*
X115652732Y-51869431D01*
X115446497Y-51773261D01*
X115446488Y-51773258D01*
X115226697Y-51714366D01*
X115226693Y-51714365D01*
X115226692Y-51714365D01*
X115226691Y-51714364D01*
X115226686Y-51714364D01*
X115000002Y-51694532D01*
X114999998Y-51694532D01*
X114773313Y-51714364D01*
X114773302Y-51714366D01*
X114553511Y-51773258D01*
X114553502Y-51773261D01*
X114347267Y-51869431D01*
X114347265Y-51869432D01*
X114160858Y-51999954D01*
X113999954Y-52160858D01*
X113887387Y-52321623D01*
X113832811Y-52365248D01*
X113785812Y-52374500D01*
X113407350Y-52374500D01*
X113340311Y-52354815D01*
X113294556Y-52302011D01*
X113284612Y-52232853D01*
X113285233Y-52228973D01*
X113285633Y-52226699D01*
X113285635Y-52226692D01*
X113305468Y-52000000D01*
X113285635Y-51773308D01*
X113226739Y-51553504D01*
X113130568Y-51347266D01*
X113087350Y-51285544D01*
X113024038Y-51195123D01*
X113001710Y-51128916D01*
X113018722Y-51061149D01*
X113069670Y-51013337D01*
X113125613Y-51000000D01*
X119718500Y-51000000D01*
X119785539Y-51019685D01*
G37*
%TD.AperFunction*%
%TA.AperFunction,Conductor*%
G36*
X152935456Y-74747566D02*
G01*
X152991389Y-74789438D01*
X153015806Y-74854902D01*
X153016121Y-74864134D01*
X153004877Y-78478318D01*
X152984984Y-78545296D01*
X152932038Y-78590886D01*
X152906659Y-78599222D01*
X152720197Y-78638855D01*
X152720192Y-78638857D01*
X152547270Y-78715848D01*
X152547265Y-78715851D01*
X152394129Y-78827111D01*
X152394128Y-78827112D01*
X152287977Y-78945004D01*
X152228491Y-78981652D01*
X152158634Y-78980321D01*
X152100585Y-78941434D01*
X152072776Y-78877337D01*
X152075622Y-78831590D01*
X152106071Y-78711347D01*
X152125231Y-78480136D01*
X152125231Y-78480125D01*
X152106071Y-78248912D01*
X152049115Y-78023995D01*
X151955917Y-77811524D01*
X151871619Y-77682496D01*
X151203395Y-78350720D01*
X151186358Y-78287138D01*
X151120532Y-78173124D01*
X151027440Y-78080032D01*
X150913426Y-78014206D01*
X150849842Y-77997168D01*
X151470060Y-77376949D01*
X151531383Y-77343464D01*
X151557740Y-77340630D01*
X151668305Y-77340630D01*
X151727916Y-77334222D01*
X151862764Y-77283927D01*
X151977979Y-77197677D01*
X152064229Y-77082462D01*
X152114524Y-76947614D01*
X152120933Y-76888004D01*
X152120932Y-75510937D01*
X152140617Y-75443899D01*
X152157246Y-75423262D01*
X152804444Y-74776065D01*
X152865764Y-74742582D01*
X152935456Y-74747566D01*
G37*
%TD.AperFunction*%
%TA.AperFunction,Conductor*%
G36*
X149129420Y-74403509D02*
G01*
X149155019Y-74412298D01*
X149383951Y-74450500D01*
X149383952Y-74450500D01*
X149400356Y-74450500D01*
X149467395Y-74470185D01*
X149513150Y-74522989D01*
X149523094Y-74592147D01*
X149494069Y-74655703D01*
X149474668Y-74673766D01*
X149462885Y-74682586D01*
X149376639Y-74797795D01*
X149376635Y-74797802D01*
X149326341Y-74932648D01*
X149319934Y-74992247D01*
X149319933Y-74992266D01*
X149319933Y-76888001D01*
X149319934Y-76888007D01*
X149326341Y-76947614D01*
X149376635Y-77082459D01*
X149376639Y-77082466D01*
X149462885Y-77197675D01*
X149462888Y-77197678D01*
X149578097Y-77283924D01*
X149578104Y-77283928D01*
X149623051Y-77300692D01*
X149712950Y-77334222D01*
X149772560Y-77340631D01*
X149883126Y-77340630D01*
X149950163Y-77360314D01*
X149970805Y-77376949D01*
X150591024Y-77997168D01*
X150527440Y-78014206D01*
X150413426Y-78080032D01*
X150320334Y-78173124D01*
X150254508Y-78287138D01*
X150237470Y-78350722D01*
X149569244Y-77682496D01*
X149484949Y-77811521D01*
X149391750Y-78023994D01*
X149345875Y-78205152D01*
X149310335Y-78265307D01*
X149247914Y-78296699D01*
X149178431Y-78289361D01*
X149156778Y-78277813D01*
X149122509Y-78254915D01*
X149071287Y-78220689D01*
X149071286Y-78220688D01*
X149071283Y-78220686D01*
X149071280Y-78220685D01*
X148990792Y-78187347D01*
X148957453Y-78173537D01*
X148947427Y-78171543D01*
X148897029Y-78161518D01*
X148886069Y-78159338D01*
X148836610Y-78149500D01*
X148836607Y-78149500D01*
X148836606Y-78149500D01*
X145749500Y-78149500D01*
X145682461Y-78129815D01*
X145636706Y-78077011D01*
X145625500Y-78025500D01*
X145625500Y-77860451D01*
X145645185Y-77793412D01*
X145661814Y-77772775D01*
X149001480Y-74433108D01*
X149062801Y-74399625D01*
X149129420Y-74403509D01*
G37*
%TD.AperFunction*%
%TA.AperFunction,Conductor*%
G36*
X149449657Y-51019685D02*
G01*
X149495412Y-51072489D01*
X149505976Y-51136603D01*
X149499500Y-51199983D01*
X149499500Y-52800001D01*
X149499501Y-52800018D01*
X149510000Y-52902796D01*
X149510001Y-52902799D01*
X149542819Y-53001835D01*
X149565186Y-53069334D01*
X149657288Y-53218656D01*
X149781344Y-53342712D01*
X149930666Y-53434814D01*
X150097203Y-53489999D01*
X150199991Y-53500500D01*
X151800008Y-53500499D01*
X151902797Y-53489999D01*
X152069334Y-53434814D01*
X152218656Y-53342712D01*
X152342712Y-53218656D01*
X152434814Y-53069334D01*
X152489999Y-52902797D01*
X152500500Y-52800009D01*
X152500499Y-51199992D01*
X152494024Y-51136601D01*
X152506794Y-51067908D01*
X152554675Y-51017024D01*
X152617382Y-51000000D01*
X152965982Y-51000000D01*
X153033021Y-51019685D01*
X153078776Y-51072489D01*
X153089981Y-51124386D01*
X153074976Y-55947047D01*
X153055083Y-56014025D01*
X153002137Y-56059615D01*
X152932948Y-56069343D01*
X152869483Y-56040121D01*
X152863296Y-56034342D01*
X152724796Y-55895842D01*
X152691311Y-55834519D01*
X152692702Y-55776068D01*
X152711018Y-55707712D01*
X152730851Y-55481020D01*
X152711018Y-55254328D01*
X152652122Y-55034524D01*
X152555951Y-54828286D01*
X152425430Y-54641881D01*
X152425428Y-54641878D01*
X152264524Y-54480974D01*
X152078117Y-54350452D01*
X152078115Y-54350451D01*
X151871880Y-54254281D01*
X151871871Y-54254278D01*
X151652080Y-54195386D01*
X151652076Y-54195385D01*
X151652075Y-54195385D01*
X151652074Y-54195384D01*
X151652069Y-54195384D01*
X151425385Y-54175552D01*
X151425381Y-54175552D01*
X151198696Y-54195384D01*
X151198685Y-54195386D01*
X150978894Y-54254278D01*
X150978885Y-54254281D01*
X150772650Y-54350451D01*
X150772648Y-54350452D01*
X150586241Y-54480974D01*
X150425337Y-54641878D01*
X150294815Y-54828285D01*
X150294814Y-54828287D01*
X150198644Y-55034522D01*
X150198641Y-55034531D01*
X150139749Y-55254322D01*
X150139747Y-55254333D01*
X150119915Y-55481018D01*
X150119915Y-55481021D01*
X150139747Y-55707706D01*
X150139749Y-55707717D01*
X150198641Y-55927508D01*
X150198644Y-55927517D01*
X150294814Y-56133752D01*
X150294815Y-56133754D01*
X150425337Y-56320161D01*
X150586241Y-56481065D01*
X150586244Y-56481067D01*
X150772649Y-56611588D01*
X150978887Y-56707759D01*
X150978889Y-56707759D01*
X150978896Y-56707762D01*
X150983386Y-56708965D01*
X151038975Y-56741059D01*
X151378936Y-57081020D01*
X151372722Y-57081020D01*
X151270989Y-57108279D01*
X151179777Y-57160940D01*
X151105303Y-57235414D01*
X151052642Y-57326626D01*
X151025383Y-57428359D01*
X151025383Y-57434572D01*
X150346357Y-56755546D01*
X150346356Y-56755546D01*
X150295251Y-56828532D01*
X150295249Y-56828536D01*
X150199117Y-57034693D01*
X150199113Y-57034702D01*
X150140243Y-57254409D01*
X150140241Y-57254420D01*
X150120417Y-57481017D01*
X150120417Y-57481022D01*
X150140241Y-57707619D01*
X150140243Y-57707630D01*
X150199113Y-57927337D01*
X150199118Y-57927351D01*
X150295246Y-58133498D01*
X150346357Y-58206492D01*
X151025383Y-57527466D01*
X151025383Y-57533681D01*
X151052642Y-57635414D01*
X151105303Y-57726626D01*
X151179777Y-57801100D01*
X151270989Y-57853761D01*
X151372722Y-57881020D01*
X151378936Y-57881020D01*
X150699909Y-58560045D01*
X150772896Y-58611152D01*
X150772904Y-58611156D01*
X150979051Y-58707284D01*
X150979065Y-58707289D01*
X151198772Y-58766159D01*
X151198783Y-58766161D01*
X151425381Y-58785986D01*
X151425385Y-58785986D01*
X151651982Y-58766161D01*
X151651993Y-58766159D01*
X151871700Y-58707289D01*
X151871714Y-58707284D01*
X152077861Y-58611156D01*
X152150854Y-58560044D01*
X151471830Y-57881020D01*
X151478044Y-57881020D01*
X151579777Y-57853761D01*
X151670989Y-57801100D01*
X151745463Y-57726626D01*
X151798124Y-57635414D01*
X151825383Y-57533681D01*
X151825383Y-57527467D01*
X152504407Y-58206491D01*
X152555519Y-58133498D01*
X152651647Y-57927351D01*
X152651652Y-57927337D01*
X152666955Y-57870227D01*
X152703320Y-57810566D01*
X152766167Y-57780037D01*
X152835542Y-57788332D01*
X152874411Y-57814639D01*
X153032083Y-57972311D01*
X153065568Y-58033634D01*
X153068401Y-58060378D01*
X153056649Y-61837728D01*
X153036756Y-61904706D01*
X152983810Y-61950296D01*
X152914621Y-61960024D01*
X152851156Y-61930802D01*
X152844969Y-61925023D01*
X149261188Y-58341242D01*
X149227703Y-58279919D01*
X149224869Y-58253561D01*
X149224869Y-51124000D01*
X149244554Y-51056961D01*
X149297358Y-51011206D01*
X149348869Y-51000000D01*
X149382618Y-51000000D01*
X149449657Y-51019685D01*
G37*
%TD.AperFunction*%
%TA.AperFunction,Conductor*%
G36*
X110941426Y-51019685D02*
G01*
X110987181Y-51072489D01*
X110997125Y-51141647D01*
X110975962Y-51195123D01*
X110869432Y-51347265D01*
X110869431Y-51347267D01*
X110773261Y-51553502D01*
X110773258Y-51553511D01*
X110714366Y-51773302D01*
X110714364Y-51773313D01*
X110694532Y-51999998D01*
X110694532Y-52000001D01*
X110714364Y-52226686D01*
X110714366Y-52226697D01*
X110773258Y-52446488D01*
X110773260Y-52446492D01*
X110773261Y-52446496D01*
X110823239Y-52553673D01*
X110862406Y-52637667D01*
X110872898Y-52706745D01*
X110844378Y-52770529D01*
X110785902Y-52808768D01*
X110716034Y-52809323D01*
X110662343Y-52777753D01*
X110617928Y-52733338D01*
X110617925Y-52733334D01*
X110617925Y-52733335D01*
X110610859Y-52726269D01*
X110610858Y-52726267D01*
X110523733Y-52639142D01*
X110467049Y-52601267D01*
X110421286Y-52570688D01*
X110421287Y-52570688D01*
X110421285Y-52570687D01*
X110379794Y-52553502D01*
X110340792Y-52537347D01*
X110307453Y-52523537D01*
X110297427Y-52521543D01*
X110247029Y-52511518D01*
X110186610Y-52499500D01*
X110186607Y-52499500D01*
X110186606Y-52499500D01*
X103213619Y-52499500D01*
X103146580Y-52479815D01*
X103100825Y-52427011D01*
X103090881Y-52357853D01*
X103093844Y-52343406D01*
X103118872Y-52250000D01*
X102155686Y-52250000D01*
X102160080Y-52245606D01*
X102212741Y-52154394D01*
X102240000Y-52052661D01*
X102240000Y-51947339D01*
X102212741Y-51845606D01*
X102160080Y-51754394D01*
X102155686Y-51750000D01*
X103118872Y-51750000D01*
X103118872Y-51749999D01*
X103066269Y-51553682D01*
X103066265Y-51553673D01*
X102970134Y-51347517D01*
X102863426Y-51195124D01*
X102841099Y-51128918D01*
X102858109Y-51061150D01*
X102909057Y-51013337D01*
X102965001Y-51000000D01*
X110874387Y-51000000D01*
X110941426Y-51019685D01*
G37*
%TD.AperFunction*%
%TD*%
M02*
