%TF.GenerationSoftware,KiCad,Pcbnew,8.0.2-8.0.2-0~ubuntu22.04.1*%
%TF.CreationDate,2024-05-27T12:02:15+10:00*%
%TF.ProjectId,podal_1590b,706f6461-6c5f-4313-9539-30622e6b6963,0.3*%
%TF.SameCoordinates,Original*%
%TF.FileFunction,Soldermask,Top*%
%TF.FilePolarity,Negative*%
%FSLAX46Y46*%
G04 Gerber Fmt 4.6, Leading zero omitted, Abs format (unit mm)*
G04 Created by KiCad (PCBNEW 8.0.2-8.0.2-0~ubuntu22.04.1) date 2024-05-27 12:02:15*
%MOMM*%
%LPD*%
G01*
G04 APERTURE LIST*
G04 Aperture macros list*
%AMRoundRect*
0 Rectangle with rounded corners*
0 $1 Rounding radius*
0 $2 $3 $4 $5 $6 $7 $8 $9 X,Y pos of 4 corners*
0 Add a 4 corners polygon primitive as box body*
4,1,4,$2,$3,$4,$5,$6,$7,$8,$9,$2,$3,0*
0 Add four circle primitives for the rounded corners*
1,1,$1+$1,$2,$3*
1,1,$1+$1,$4,$5*
1,1,$1+$1,$6,$7*
1,1,$1+$1,$8,$9*
0 Add four rect primitives between the rounded corners*
20,1,$1+$1,$2,$3,$4,$5,0*
20,1,$1+$1,$4,$5,$6,$7,0*
20,1,$1+$1,$6,$7,$8,$9,0*
20,1,$1+$1,$8,$9,$2,$3,0*%
G04 Aperture macros list end*
%ADD10C,0.150000*%
%ADD11RoundRect,0.250000X-0.750000X-0.750000X0.750000X-0.750000X0.750000X0.750000X-0.750000X0.750000X0*%
%ADD12R,2.200000X2.200000*%
%ADD13O,2.200000X2.200000*%
%ADD14R,1.070000X1.800000*%
%ADD15O,1.070000X1.800000*%
%ADD16C,1.600000*%
%ADD17O,1.600000X1.600000*%
%ADD18RoundRect,0.250000X0.750000X0.750000X-0.750000X0.750000X-0.750000X-0.750000X0.750000X-0.750000X0*%
%ADD19R,1.800000X1.800000*%
%ADD20C,1.800000*%
%ADD21RoundRect,0.750000X0.750000X-1.250000X0.750000X1.250000X-0.750000X1.250000X-0.750000X-1.250000X0*%
%ADD22RoundRect,0.250000X0.600000X0.600000X-0.600000X0.600000X-0.600000X-0.600000X0.600000X-0.600000X0*%
%ADD23C,1.700000*%
%ADD24R,2.000000X2.000000*%
%ADD25C,2.000000*%
%ADD26R,2.500000X3.000000*%
%ADD27RoundRect,0.250000X-0.675000X-0.675000X0.675000X-0.675000X0.675000X0.675000X-0.675000X0.675000X0*%
%ADD28C,1.850000*%
%ADD29R,1.600000X1.600000*%
%ADD30R,1.700000X1.700000*%
G04 APERTURE END LIST*
D10*
X174000000Y-44000000D02*
X186000000Y-44000000D01*
D11*
%TO.C,J7*%
X1775000Y-13675000D03*
%TD*%
%TO.C,J6*%
X1775000Y-9625000D03*
%TD*%
%TO.C,J2*%
X1775000Y-5575000D03*
%TD*%
%TO.C,J1*%
X1775000Y-1525000D03*
%TD*%
D12*
%TO.C,D2*%
X118000000Y-108000000D03*
D13*
X110380000Y-108000000D03*
%TD*%
D14*
%TO.C,D3*%
X107460000Y-80000000D03*
D15*
X108730000Y-80000000D03*
X110000000Y-80000000D03*
X111270000Y-80000000D03*
%TD*%
D16*
%TO.C,R16*%
X133135033Y-101885273D03*
D17*
X133135033Y-91725273D03*
%TD*%
D16*
%TO.C,R13*%
X138920000Y-101000000D03*
D17*
X149080000Y-101000000D03*
%TD*%
D16*
%TO.C,C9*%
X122641261Y-75392489D03*
X117641261Y-75392489D03*
%TD*%
%TO.C,R4*%
X137184369Y-51938278D03*
D17*
X147344369Y-51938278D03*
%TD*%
D18*
%TO.C,J8*%
X121343000Y-51832521D03*
%TD*%
D16*
%TO.C,C7*%
X147500000Y-86000000D03*
X142500000Y-86000000D03*
%TD*%
%TO.C,C10*%
X141773178Y-91715983D03*
X146773178Y-91715983D03*
%TD*%
%TO.C,R18*%
X152492686Y-98337906D03*
D17*
X152492686Y-108497906D03*
%TD*%
D16*
%TO.C,R19*%
X130080000Y-92000000D03*
D17*
X119920000Y-92000000D03*
%TD*%
D19*
%TO.C,D1*%
X125730000Y-108000000D03*
D20*
X128270000Y-108000000D03*
%TD*%
D16*
%TO.C,R9*%
X117080000Y-95000000D03*
D17*
X106920000Y-95000000D03*
%TD*%
D16*
%TO.C,C3*%
X138059677Y-76973138D03*
X133059677Y-76973138D03*
%TD*%
D11*
%TO.C,J9*%
X152544920Y-95704947D03*
%TD*%
%TO.C,J5*%
X139834357Y-108332163D03*
%TD*%
D14*
%TO.C,D4*%
X146270000Y-80000000D03*
D15*
X145000000Y-80000000D03*
X143730000Y-80000000D03*
X142460000Y-80000000D03*
%TD*%
D16*
%TO.C,R22*%
X152461572Y-93116935D03*
D17*
X152461572Y-82956935D03*
%TD*%
D16*
%TO.C,R7*%
X101840000Y-55000000D03*
D17*
X112000000Y-55000000D03*
%TD*%
D16*
%TO.C,R14*%
X138887232Y-94788600D03*
D17*
X149047232Y-94788600D03*
%TD*%
D19*
%TO.C,RV2*%
X144500000Y-73050000D03*
D20*
X147000000Y-73050000D03*
X149500000Y-73050000D03*
D21*
X142600000Y-66050000D03*
X151400000Y-66050000D03*
%TD*%
D16*
%TO.C,R20*%
X119920000Y-95000000D03*
D17*
X130080000Y-95000000D03*
%TD*%
D16*
%TO.C,R3*%
X137264369Y-54938278D03*
D17*
X147424369Y-54938278D03*
%TD*%
D16*
%TO.C,C11*%
X118000000Y-53000000D03*
X118000000Y-58000000D03*
%TD*%
%TO.C,R8*%
X112000000Y-52000000D03*
D17*
X101840000Y-52000000D03*
%TD*%
D19*
%TO.C,RV1*%
X104500000Y-73050000D03*
D20*
X107000000Y-73050000D03*
X109500000Y-73050000D03*
D21*
X102600000Y-66050000D03*
X111400000Y-66050000D03*
%TD*%
D16*
%TO.C,R12*%
X138920000Y-97914528D03*
D17*
X149080000Y-97914528D03*
%TD*%
D16*
%TO.C,R10*%
X117080000Y-98000000D03*
D17*
X106920000Y-98000000D03*
%TD*%
D22*
%TO.C,SW1*%
X106000000Y-108000000D03*
D23*
X102000000Y-108000000D03*
%TD*%
D16*
%TO.C,R1*%
X130080000Y-98000000D03*
D17*
X119920000Y-98000000D03*
%TD*%
D16*
%TO.C,C6*%
X138000000Y-86000000D03*
X133000000Y-86000000D03*
%TD*%
%TO.C,C4*%
X138059677Y-79973138D03*
X133059677Y-79973138D03*
%TD*%
D18*
%TO.C,J4*%
X151000000Y-52000000D03*
%TD*%
D24*
%TO.C,SW3*%
X124500000Y-72000000D03*
D25*
X129500000Y-72000000D03*
X127000000Y-72000000D03*
D26*
X121400000Y-64500000D03*
X132600000Y-64500000D03*
D25*
X124500000Y-57500000D03*
X129500000Y-57500000D03*
%TD*%
D16*
%TO.C,C12*%
X101576468Y-82302941D03*
X101576468Y-77302941D03*
%TD*%
%TO.C,C8*%
X115000000Y-58000000D03*
X115000000Y-53000000D03*
%TD*%
%TO.C,R2*%
X147424369Y-57938278D03*
D17*
X137264369Y-57938278D03*
%TD*%
D16*
%TO.C,R11*%
X117080000Y-101000000D03*
D17*
X106920000Y-101000000D03*
%TD*%
D11*
%TO.C,J3*%
X121717602Y-108046503D03*
%TD*%
D16*
%TO.C,R5*%
X111834916Y-85877458D03*
D17*
X101674916Y-85877458D03*
%TD*%
D27*
%TO.C,BT1*%
X132234097Y-108341084D03*
D28*
X136434097Y-108341084D03*
%TD*%
D16*
%TO.C,R17*%
X102868752Y-91475009D03*
D17*
X102868752Y-101635009D03*
%TD*%
D16*
%TO.C,R15*%
X117578672Y-72743604D03*
D17*
X117578672Y-62583604D03*
%TD*%
D16*
%TO.C,R21*%
X101840000Y-58000000D03*
D17*
X112000000Y-58000000D03*
%TD*%
D16*
%TO.C,C5*%
X138059677Y-82973138D03*
X133059677Y-82973138D03*
%TD*%
D29*
%TO.C,U1*%
X130066294Y-78523539D03*
D17*
X127526294Y-78523539D03*
X124986294Y-78523539D03*
X122446294Y-78523539D03*
X119906294Y-78523539D03*
X117366294Y-78523539D03*
X114826294Y-78523539D03*
X114826294Y-86143539D03*
X117366294Y-86143539D03*
X119906294Y-86143539D03*
X122446294Y-86143539D03*
X124986294Y-86143539D03*
X127526294Y-86143539D03*
X130066294Y-86143539D03*
%TD*%
D16*
%TO.C,C2*%
X130162851Y-75428426D03*
X125162851Y-75428426D03*
%TD*%
D22*
%TO.C,SW2*%
X147168626Y-108207141D03*
D23*
X143168626Y-108207141D03*
%TD*%
D16*
%TO.C,R6*%
X106792500Y-91889742D03*
D17*
X116952500Y-91889742D03*
%TD*%
D16*
%TO.C,C1*%
X151425383Y-55481020D03*
X151425383Y-57481020D03*
%TD*%
D30*
%TO.C,A1*%
X101520000Y-89000000D03*
D23*
X104060000Y-89000000D03*
X106600000Y-89000000D03*
X109140000Y-89000000D03*
X111680000Y-89000000D03*
X114220000Y-89000000D03*
X116760000Y-89000000D03*
X119300000Y-89000000D03*
X121840000Y-89000000D03*
X124380000Y-89000000D03*
X126920000Y-89000000D03*
X129460000Y-89000000D03*
X132000000Y-89000000D03*
X134540000Y-89000000D03*
X137080000Y-89000000D03*
X139620000Y-89000000D03*
X142160000Y-89000000D03*
X144700000Y-89000000D03*
X147240000Y-89000000D03*
X149780000Y-89000000D03*
X149780000Y-104240000D03*
X147240000Y-104240000D03*
X144700000Y-104240000D03*
X142160000Y-104240000D03*
X139620000Y-104240000D03*
X137080000Y-104240000D03*
X134540000Y-104240000D03*
X132000000Y-104240000D03*
X129460000Y-104240000D03*
X126920000Y-104240000D03*
X124380000Y-104240000D03*
X121840000Y-104240000D03*
X119300000Y-104240000D03*
X116760000Y-104240000D03*
X114220000Y-104240000D03*
X111680000Y-104240000D03*
X109140000Y-104240000D03*
X106600000Y-104240000D03*
X104060000Y-104240000D03*
X101520000Y-104240000D03*
%TD*%
D19*
%TO.C,U2*%
X150720433Y-75940131D03*
D20*
X150720433Y-78480131D03*
X150720433Y-81020131D03*
%TD*%
M02*
