%TF.GenerationSoftware,KiCad,Pcbnew,8.0.2-8.0.2-0~ubuntu22.04.1*%
%TF.CreationDate,2024-05-27T12:02:15+10:00*%
%TF.ProjectId,podal_1590b,706f6461-6c5f-4313-9539-30622e6b6963,0.3*%
%TF.SameCoordinates,Original*%
%TF.FileFunction,Legend,Top*%
%TF.FilePolarity,Positive*%
%FSLAX46Y46*%
G04 Gerber Fmt 4.6, Leading zero omitted, Abs format (unit mm)*
G04 Created by KiCad (PCBNEW 8.0.2-8.0.2-0~ubuntu22.04.1) date 2024-05-27 12:02:15*
%MOMM*%
%LPD*%
G01*
G04 APERTURE LIST*
%ADD10C,0.150000*%
%ADD11C,0.120000*%
G04 APERTURE END LIST*
D10*
X1441666Y-10929819D02*
X1441666Y-11644104D01*
X1441666Y-11644104D02*
X1394047Y-11786961D01*
X1394047Y-11786961D02*
X1298809Y-11882200D01*
X1298809Y-11882200D02*
X1155952Y-11929819D01*
X1155952Y-11929819D02*
X1060714Y-11929819D01*
X1822619Y-10929819D02*
X2489285Y-10929819D01*
X2489285Y-10929819D02*
X2060714Y-11929819D01*
X1441666Y-6879819D02*
X1441666Y-7594104D01*
X1441666Y-7594104D02*
X1394047Y-7736961D01*
X1394047Y-7736961D02*
X1298809Y-7832200D01*
X1298809Y-7832200D02*
X1155952Y-7879819D01*
X1155952Y-7879819D02*
X1060714Y-7879819D01*
X2346428Y-6879819D02*
X2155952Y-6879819D01*
X2155952Y-6879819D02*
X2060714Y-6927438D01*
X2060714Y-6927438D02*
X2013095Y-6975057D01*
X2013095Y-6975057D02*
X1917857Y-7117914D01*
X1917857Y-7117914D02*
X1870238Y-7308390D01*
X1870238Y-7308390D02*
X1870238Y-7689342D01*
X1870238Y-7689342D02*
X1917857Y-7784580D01*
X1917857Y-7784580D02*
X1965476Y-7832200D01*
X1965476Y-7832200D02*
X2060714Y-7879819D01*
X2060714Y-7879819D02*
X2251190Y-7879819D01*
X2251190Y-7879819D02*
X2346428Y-7832200D01*
X2346428Y-7832200D02*
X2394047Y-7784580D01*
X2394047Y-7784580D02*
X2441666Y-7689342D01*
X2441666Y-7689342D02*
X2441666Y-7451247D01*
X2441666Y-7451247D02*
X2394047Y-7356009D01*
X2394047Y-7356009D02*
X2346428Y-7308390D01*
X2346428Y-7308390D02*
X2251190Y-7260771D01*
X2251190Y-7260771D02*
X2060714Y-7260771D01*
X2060714Y-7260771D02*
X1965476Y-7308390D01*
X1965476Y-7308390D02*
X1917857Y-7356009D01*
X1917857Y-7356009D02*
X1870238Y-7451247D01*
X1441666Y-2829819D02*
X1441666Y-3544104D01*
X1441666Y-3544104D02*
X1394047Y-3686961D01*
X1394047Y-3686961D02*
X1298809Y-3782200D01*
X1298809Y-3782200D02*
X1155952Y-3829819D01*
X1155952Y-3829819D02*
X1060714Y-3829819D01*
X1870238Y-2925057D02*
X1917857Y-2877438D01*
X1917857Y-2877438D02*
X2013095Y-2829819D01*
X2013095Y-2829819D02*
X2251190Y-2829819D01*
X2251190Y-2829819D02*
X2346428Y-2877438D01*
X2346428Y-2877438D02*
X2394047Y-2925057D01*
X2394047Y-2925057D02*
X2441666Y-3020295D01*
X2441666Y-3020295D02*
X2441666Y-3115533D01*
X2441666Y-3115533D02*
X2394047Y-3258390D01*
X2394047Y-3258390D02*
X1822619Y-3829819D01*
X1822619Y-3829819D02*
X2441666Y-3829819D01*
X1441666Y1220180D02*
X1441666Y505895D01*
X1441666Y505895D02*
X1394047Y363038D01*
X1394047Y363038D02*
X1298809Y267800D01*
X1298809Y267800D02*
X1155952Y220180D01*
X1155952Y220180D02*
X1060714Y220180D01*
X2441666Y220180D02*
X1870238Y220180D01*
X2155952Y220180D02*
X2155952Y1220180D01*
X2155952Y1220180D02*
X2060714Y1077323D01*
X2060714Y1077323D02*
X1965476Y982085D01*
X1965476Y982085D02*
X1870238Y934466D01*
X113546950Y-106294386D02*
X113546950Y-105294386D01*
X113546950Y-105294386D02*
X113785045Y-105294386D01*
X113785045Y-105294386D02*
X113927902Y-105342005D01*
X113927902Y-105342005D02*
X114023140Y-105437243D01*
X114023140Y-105437243D02*
X114070759Y-105532481D01*
X114070759Y-105532481D02*
X114118378Y-105722957D01*
X114118378Y-105722957D02*
X114118378Y-105865814D01*
X114118378Y-105865814D02*
X114070759Y-106056290D01*
X114070759Y-106056290D02*
X114023140Y-106151528D01*
X114023140Y-106151528D02*
X113927902Y-106246767D01*
X113927902Y-106246767D02*
X113785045Y-106294386D01*
X113785045Y-106294386D02*
X113546950Y-106294386D01*
X114499331Y-105389624D02*
X114546950Y-105342005D01*
X114546950Y-105342005D02*
X114642188Y-105294386D01*
X114642188Y-105294386D02*
X114880283Y-105294386D01*
X114880283Y-105294386D02*
X114975521Y-105342005D01*
X114975521Y-105342005D02*
X115023140Y-105389624D01*
X115023140Y-105389624D02*
X115070759Y-105484862D01*
X115070759Y-105484862D02*
X115070759Y-105580100D01*
X115070759Y-105580100D02*
X115023140Y-105722957D01*
X115023140Y-105722957D02*
X114451712Y-106294386D01*
X114451712Y-106294386D02*
X115070759Y-106294386D01*
X117774373Y-106549425D02*
X117774373Y-105549425D01*
X118345801Y-106549425D02*
X117917230Y-105977996D01*
X118345801Y-105549425D02*
X117774373Y-106120853D01*
X109946021Y-76052343D02*
X109946021Y-75052343D01*
X109946021Y-75052343D02*
X110184116Y-75052343D01*
X110184116Y-75052343D02*
X110326973Y-75099962D01*
X110326973Y-75099962D02*
X110422211Y-75195200D01*
X110422211Y-75195200D02*
X110469830Y-75290438D01*
X110469830Y-75290438D02*
X110517449Y-75480914D01*
X110517449Y-75480914D02*
X110517449Y-75623771D01*
X110517449Y-75623771D02*
X110469830Y-75814247D01*
X110469830Y-75814247D02*
X110422211Y-75909485D01*
X110422211Y-75909485D02*
X110326973Y-76004724D01*
X110326973Y-76004724D02*
X110184116Y-76052343D01*
X110184116Y-76052343D02*
X109946021Y-76052343D01*
X110850783Y-75052343D02*
X111469830Y-75052343D01*
X111469830Y-75052343D02*
X111136497Y-75433295D01*
X111136497Y-75433295D02*
X111279354Y-75433295D01*
X111279354Y-75433295D02*
X111374592Y-75480914D01*
X111374592Y-75480914D02*
X111422211Y-75528533D01*
X111422211Y-75528533D02*
X111469830Y-75623771D01*
X111469830Y-75623771D02*
X111469830Y-75861866D01*
X111469830Y-75861866D02*
X111422211Y-75957104D01*
X111422211Y-75957104D02*
X111374592Y-76004724D01*
X111374592Y-76004724D02*
X111279354Y-76052343D01*
X111279354Y-76052343D02*
X110993640Y-76052343D01*
X110993640Y-76052343D02*
X110898402Y-76004724D01*
X110898402Y-76004724D02*
X110850783Y-75957104D01*
X128505567Y-102120851D02*
X128172234Y-101644660D01*
X127934139Y-102120851D02*
X127934139Y-101120851D01*
X127934139Y-101120851D02*
X128315091Y-101120851D01*
X128315091Y-101120851D02*
X128410329Y-101168470D01*
X128410329Y-101168470D02*
X128457948Y-101216089D01*
X128457948Y-101216089D02*
X128505567Y-101311327D01*
X128505567Y-101311327D02*
X128505567Y-101454184D01*
X128505567Y-101454184D02*
X128457948Y-101549422D01*
X128457948Y-101549422D02*
X128410329Y-101597041D01*
X128410329Y-101597041D02*
X128315091Y-101644660D01*
X128315091Y-101644660D02*
X127934139Y-101644660D01*
X129457948Y-102120851D02*
X128886520Y-102120851D01*
X129172234Y-102120851D02*
X129172234Y-101120851D01*
X129172234Y-101120851D02*
X129076996Y-101263708D01*
X129076996Y-101263708D02*
X128981758Y-101358946D01*
X128981758Y-101358946D02*
X128886520Y-101406565D01*
X130315091Y-101120851D02*
X130124615Y-101120851D01*
X130124615Y-101120851D02*
X130029377Y-101168470D01*
X130029377Y-101168470D02*
X129981758Y-101216089D01*
X129981758Y-101216089D02*
X129886520Y-101358946D01*
X129886520Y-101358946D02*
X129838901Y-101549422D01*
X129838901Y-101549422D02*
X129838901Y-101930374D01*
X129838901Y-101930374D02*
X129886520Y-102025612D01*
X129886520Y-102025612D02*
X129934139Y-102073232D01*
X129934139Y-102073232D02*
X130029377Y-102120851D01*
X130029377Y-102120851D02*
X130219853Y-102120851D01*
X130219853Y-102120851D02*
X130315091Y-102073232D01*
X130315091Y-102073232D02*
X130362710Y-102025612D01*
X130362710Y-102025612D02*
X130410329Y-101930374D01*
X130410329Y-101930374D02*
X130410329Y-101692279D01*
X130410329Y-101692279D02*
X130362710Y-101597041D01*
X130362710Y-101597041D02*
X130315091Y-101549422D01*
X130315091Y-101549422D02*
X130219853Y-101501803D01*
X130219853Y-101501803D02*
X130029377Y-101501803D01*
X130029377Y-101501803D02*
X129934139Y-101549422D01*
X129934139Y-101549422D02*
X129886520Y-101597041D01*
X129886520Y-101597041D02*
X129838901Y-101692279D01*
X135903289Y-101407245D02*
X135569956Y-100931054D01*
X135331861Y-101407245D02*
X135331861Y-100407245D01*
X135331861Y-100407245D02*
X135712813Y-100407245D01*
X135712813Y-100407245D02*
X135808051Y-100454864D01*
X135808051Y-100454864D02*
X135855670Y-100502483D01*
X135855670Y-100502483D02*
X135903289Y-100597721D01*
X135903289Y-100597721D02*
X135903289Y-100740578D01*
X135903289Y-100740578D02*
X135855670Y-100835816D01*
X135855670Y-100835816D02*
X135808051Y-100883435D01*
X135808051Y-100883435D02*
X135712813Y-100931054D01*
X135712813Y-100931054D02*
X135331861Y-100931054D01*
X136855670Y-101407245D02*
X136284242Y-101407245D01*
X136569956Y-101407245D02*
X136569956Y-100407245D01*
X136569956Y-100407245D02*
X136474718Y-100550102D01*
X136474718Y-100550102D02*
X136379480Y-100645340D01*
X136379480Y-100645340D02*
X136284242Y-100692959D01*
X137189004Y-100407245D02*
X137808051Y-100407245D01*
X137808051Y-100407245D02*
X137474718Y-100788197D01*
X137474718Y-100788197D02*
X137617575Y-100788197D01*
X137617575Y-100788197D02*
X137712813Y-100835816D01*
X137712813Y-100835816D02*
X137760432Y-100883435D01*
X137760432Y-100883435D02*
X137808051Y-100978673D01*
X137808051Y-100978673D02*
X137808051Y-101216768D01*
X137808051Y-101216768D02*
X137760432Y-101312006D01*
X137760432Y-101312006D02*
X137712813Y-101359626D01*
X137712813Y-101359626D02*
X137617575Y-101407245D01*
X137617575Y-101407245D02*
X137331861Y-101407245D01*
X137331861Y-101407245D02*
X137236623Y-101359626D01*
X137236623Y-101359626D02*
X137189004Y-101312006D01*
X115333333Y-75859580D02*
X115285714Y-75907200D01*
X115285714Y-75907200D02*
X115142857Y-75954819D01*
X115142857Y-75954819D02*
X115047619Y-75954819D01*
X115047619Y-75954819D02*
X114904762Y-75907200D01*
X114904762Y-75907200D02*
X114809524Y-75811961D01*
X114809524Y-75811961D02*
X114761905Y-75716723D01*
X114761905Y-75716723D02*
X114714286Y-75526247D01*
X114714286Y-75526247D02*
X114714286Y-75383390D01*
X114714286Y-75383390D02*
X114761905Y-75192914D01*
X114761905Y-75192914D02*
X114809524Y-75097676D01*
X114809524Y-75097676D02*
X114904762Y-75002438D01*
X114904762Y-75002438D02*
X115047619Y-74954819D01*
X115047619Y-74954819D02*
X115142857Y-74954819D01*
X115142857Y-74954819D02*
X115285714Y-75002438D01*
X115285714Y-75002438D02*
X115333333Y-75050057D01*
X115809524Y-75954819D02*
X116000000Y-75954819D01*
X116000000Y-75954819D02*
X116095238Y-75907200D01*
X116095238Y-75907200D02*
X116142857Y-75859580D01*
X116142857Y-75859580D02*
X116238095Y-75716723D01*
X116238095Y-75716723D02*
X116285714Y-75526247D01*
X116285714Y-75526247D02*
X116285714Y-75145295D01*
X116285714Y-75145295D02*
X116238095Y-75050057D01*
X116238095Y-75050057D02*
X116190476Y-75002438D01*
X116190476Y-75002438D02*
X116095238Y-74954819D01*
X116095238Y-74954819D02*
X115904762Y-74954819D01*
X115904762Y-74954819D02*
X115809524Y-75002438D01*
X115809524Y-75002438D02*
X115761905Y-75050057D01*
X115761905Y-75050057D02*
X115714286Y-75145295D01*
X115714286Y-75145295D02*
X115714286Y-75383390D01*
X115714286Y-75383390D02*
X115761905Y-75478628D01*
X115761905Y-75478628D02*
X115809524Y-75526247D01*
X115809524Y-75526247D02*
X115904762Y-75573866D01*
X115904762Y-75573866D02*
X116095238Y-75573866D01*
X116095238Y-75573866D02*
X116190476Y-75526247D01*
X116190476Y-75526247D02*
X116238095Y-75478628D01*
X116238095Y-75478628D02*
X116285714Y-75383390D01*
X134505554Y-52579468D02*
X134172221Y-52103277D01*
X133934126Y-52579468D02*
X133934126Y-51579468D01*
X133934126Y-51579468D02*
X134315078Y-51579468D01*
X134315078Y-51579468D02*
X134410316Y-51627087D01*
X134410316Y-51627087D02*
X134457935Y-51674706D01*
X134457935Y-51674706D02*
X134505554Y-51769944D01*
X134505554Y-51769944D02*
X134505554Y-51912801D01*
X134505554Y-51912801D02*
X134457935Y-52008039D01*
X134457935Y-52008039D02*
X134410316Y-52055658D01*
X134410316Y-52055658D02*
X134315078Y-52103277D01*
X134315078Y-52103277D02*
X133934126Y-52103277D01*
X135362697Y-51912801D02*
X135362697Y-52579468D01*
X135124602Y-51531849D02*
X134886507Y-52246134D01*
X134886507Y-52246134D02*
X135505554Y-52246134D01*
X121009666Y-53487340D02*
X121009666Y-54201625D01*
X121009666Y-54201625D02*
X120962047Y-54344482D01*
X120962047Y-54344482D02*
X120866809Y-54439721D01*
X120866809Y-54439721D02*
X120723952Y-54487340D01*
X120723952Y-54487340D02*
X120628714Y-54487340D01*
X121628714Y-53915911D02*
X121533476Y-53868292D01*
X121533476Y-53868292D02*
X121485857Y-53820673D01*
X121485857Y-53820673D02*
X121438238Y-53725435D01*
X121438238Y-53725435D02*
X121438238Y-53677816D01*
X121438238Y-53677816D02*
X121485857Y-53582578D01*
X121485857Y-53582578D02*
X121533476Y-53534959D01*
X121533476Y-53534959D02*
X121628714Y-53487340D01*
X121628714Y-53487340D02*
X121819190Y-53487340D01*
X121819190Y-53487340D02*
X121914428Y-53534959D01*
X121914428Y-53534959D02*
X121962047Y-53582578D01*
X121962047Y-53582578D02*
X122009666Y-53677816D01*
X122009666Y-53677816D02*
X122009666Y-53725435D01*
X122009666Y-53725435D02*
X121962047Y-53820673D01*
X121962047Y-53820673D02*
X121914428Y-53868292D01*
X121914428Y-53868292D02*
X121819190Y-53915911D01*
X121819190Y-53915911D02*
X121628714Y-53915911D01*
X121628714Y-53915911D02*
X121533476Y-53963530D01*
X121533476Y-53963530D02*
X121485857Y-54011149D01*
X121485857Y-54011149D02*
X121438238Y-54106387D01*
X121438238Y-54106387D02*
X121438238Y-54296863D01*
X121438238Y-54296863D02*
X121485857Y-54392101D01*
X121485857Y-54392101D02*
X121533476Y-54439721D01*
X121533476Y-54439721D02*
X121628714Y-54487340D01*
X121628714Y-54487340D02*
X121819190Y-54487340D01*
X121819190Y-54487340D02*
X121914428Y-54439721D01*
X121914428Y-54439721D02*
X121962047Y-54392101D01*
X121962047Y-54392101D02*
X122009666Y-54296863D01*
X122009666Y-54296863D02*
X122009666Y-54106387D01*
X122009666Y-54106387D02*
X121962047Y-54011149D01*
X121962047Y-54011149D02*
X121914428Y-53963530D01*
X121914428Y-53963530D02*
X121819190Y-53915911D01*
X149833333Y-86359580D02*
X149785714Y-86407200D01*
X149785714Y-86407200D02*
X149642857Y-86454819D01*
X149642857Y-86454819D02*
X149547619Y-86454819D01*
X149547619Y-86454819D02*
X149404762Y-86407200D01*
X149404762Y-86407200D02*
X149309524Y-86311961D01*
X149309524Y-86311961D02*
X149261905Y-86216723D01*
X149261905Y-86216723D02*
X149214286Y-86026247D01*
X149214286Y-86026247D02*
X149214286Y-85883390D01*
X149214286Y-85883390D02*
X149261905Y-85692914D01*
X149261905Y-85692914D02*
X149309524Y-85597676D01*
X149309524Y-85597676D02*
X149404762Y-85502438D01*
X149404762Y-85502438D02*
X149547619Y-85454819D01*
X149547619Y-85454819D02*
X149642857Y-85454819D01*
X149642857Y-85454819D02*
X149785714Y-85502438D01*
X149785714Y-85502438D02*
X149833333Y-85550057D01*
X150166667Y-85454819D02*
X150833333Y-85454819D01*
X150833333Y-85454819D02*
X150404762Y-86454819D01*
X138521077Y-91685821D02*
X138473458Y-91733441D01*
X138473458Y-91733441D02*
X138330601Y-91781060D01*
X138330601Y-91781060D02*
X138235363Y-91781060D01*
X138235363Y-91781060D02*
X138092506Y-91733441D01*
X138092506Y-91733441D02*
X137997268Y-91638202D01*
X137997268Y-91638202D02*
X137949649Y-91542964D01*
X137949649Y-91542964D02*
X137902030Y-91352488D01*
X137902030Y-91352488D02*
X137902030Y-91209631D01*
X137902030Y-91209631D02*
X137949649Y-91019155D01*
X137949649Y-91019155D02*
X137997268Y-90923917D01*
X137997268Y-90923917D02*
X138092506Y-90828679D01*
X138092506Y-90828679D02*
X138235363Y-90781060D01*
X138235363Y-90781060D02*
X138330601Y-90781060D01*
X138330601Y-90781060D02*
X138473458Y-90828679D01*
X138473458Y-90828679D02*
X138521077Y-90876298D01*
X139473458Y-91781060D02*
X138902030Y-91781060D01*
X139187744Y-91781060D02*
X139187744Y-90781060D01*
X139187744Y-90781060D02*
X139092506Y-90923917D01*
X139092506Y-90923917D02*
X138997268Y-91019155D01*
X138997268Y-91019155D02*
X138902030Y-91066774D01*
X140092506Y-90781060D02*
X140187744Y-90781060D01*
X140187744Y-90781060D02*
X140282982Y-90828679D01*
X140282982Y-90828679D02*
X140330601Y-90876298D01*
X140330601Y-90876298D02*
X140378220Y-90971536D01*
X140378220Y-90971536D02*
X140425839Y-91162012D01*
X140425839Y-91162012D02*
X140425839Y-91400107D01*
X140425839Y-91400107D02*
X140378220Y-91590583D01*
X140378220Y-91590583D02*
X140330601Y-91685821D01*
X140330601Y-91685821D02*
X140282982Y-91733441D01*
X140282982Y-91733441D02*
X140187744Y-91781060D01*
X140187744Y-91781060D02*
X140092506Y-91781060D01*
X140092506Y-91781060D02*
X139997268Y-91733441D01*
X139997268Y-91733441D02*
X139949649Y-91685821D01*
X139949649Y-91685821D02*
X139902030Y-91590583D01*
X139902030Y-91590583D02*
X139854411Y-91400107D01*
X139854411Y-91400107D02*
X139854411Y-91162012D01*
X139854411Y-91162012D02*
X139902030Y-90971536D01*
X139902030Y-90971536D02*
X139949649Y-90876298D01*
X139949649Y-90876298D02*
X139997268Y-90828679D01*
X139997268Y-90828679D02*
X140092506Y-90781060D01*
X149574098Y-108525236D02*
X149240765Y-108049045D01*
X149002670Y-108525236D02*
X149002670Y-107525236D01*
X149002670Y-107525236D02*
X149383622Y-107525236D01*
X149383622Y-107525236D02*
X149478860Y-107572855D01*
X149478860Y-107572855D02*
X149526479Y-107620474D01*
X149526479Y-107620474D02*
X149574098Y-107715712D01*
X149574098Y-107715712D02*
X149574098Y-107858569D01*
X149574098Y-107858569D02*
X149526479Y-107953807D01*
X149526479Y-107953807D02*
X149478860Y-108001426D01*
X149478860Y-108001426D02*
X149383622Y-108049045D01*
X149383622Y-108049045D02*
X149002670Y-108049045D01*
X150526479Y-108525236D02*
X149955051Y-108525236D01*
X150240765Y-108525236D02*
X150240765Y-107525236D01*
X150240765Y-107525236D02*
X150145527Y-107668093D01*
X150145527Y-107668093D02*
X150050289Y-107763331D01*
X150050289Y-107763331D02*
X149955051Y-107810950D01*
X151097908Y-107953807D02*
X151002670Y-107906188D01*
X151002670Y-107906188D02*
X150955051Y-107858569D01*
X150955051Y-107858569D02*
X150907432Y-107763331D01*
X150907432Y-107763331D02*
X150907432Y-107715712D01*
X150907432Y-107715712D02*
X150955051Y-107620474D01*
X150955051Y-107620474D02*
X151002670Y-107572855D01*
X151002670Y-107572855D02*
X151097908Y-107525236D01*
X151097908Y-107525236D02*
X151288384Y-107525236D01*
X151288384Y-107525236D02*
X151383622Y-107572855D01*
X151383622Y-107572855D02*
X151431241Y-107620474D01*
X151431241Y-107620474D02*
X151478860Y-107715712D01*
X151478860Y-107715712D02*
X151478860Y-107763331D01*
X151478860Y-107763331D02*
X151431241Y-107858569D01*
X151431241Y-107858569D02*
X151383622Y-107906188D01*
X151383622Y-107906188D02*
X151288384Y-107953807D01*
X151288384Y-107953807D02*
X151097908Y-107953807D01*
X151097908Y-107953807D02*
X151002670Y-108001426D01*
X151002670Y-108001426D02*
X150955051Y-108049045D01*
X150955051Y-108049045D02*
X150907432Y-108144283D01*
X150907432Y-108144283D02*
X150907432Y-108334759D01*
X150907432Y-108334759D02*
X150955051Y-108429997D01*
X150955051Y-108429997D02*
X151002670Y-108477617D01*
X151002670Y-108477617D02*
X151097908Y-108525236D01*
X151097908Y-108525236D02*
X151288384Y-108525236D01*
X151288384Y-108525236D02*
X151383622Y-108477617D01*
X151383622Y-108477617D02*
X151431241Y-108429997D01*
X151431241Y-108429997D02*
X151478860Y-108334759D01*
X151478860Y-108334759D02*
X151478860Y-108144283D01*
X151478860Y-108144283D02*
X151431241Y-108049045D01*
X151431241Y-108049045D02*
X151383622Y-108001426D01*
X151383622Y-108001426D02*
X151288384Y-107953807D01*
X122634029Y-93111337D02*
X122300696Y-92635146D01*
X122062601Y-93111337D02*
X122062601Y-92111337D01*
X122062601Y-92111337D02*
X122443553Y-92111337D01*
X122443553Y-92111337D02*
X122538791Y-92158956D01*
X122538791Y-92158956D02*
X122586410Y-92206575D01*
X122586410Y-92206575D02*
X122634029Y-92301813D01*
X122634029Y-92301813D02*
X122634029Y-92444670D01*
X122634029Y-92444670D02*
X122586410Y-92539908D01*
X122586410Y-92539908D02*
X122538791Y-92587527D01*
X122538791Y-92587527D02*
X122443553Y-92635146D01*
X122443553Y-92635146D02*
X122062601Y-92635146D01*
X123586410Y-93111337D02*
X123014982Y-93111337D01*
X123300696Y-93111337D02*
X123300696Y-92111337D01*
X123300696Y-92111337D02*
X123205458Y-92254194D01*
X123205458Y-92254194D02*
X123110220Y-92349432D01*
X123110220Y-92349432D02*
X123014982Y-92397051D01*
X124062601Y-93111337D02*
X124253077Y-93111337D01*
X124253077Y-93111337D02*
X124348315Y-93063718D01*
X124348315Y-93063718D02*
X124395934Y-93016098D01*
X124395934Y-93016098D02*
X124491172Y-92873241D01*
X124491172Y-92873241D02*
X124538791Y-92682765D01*
X124538791Y-92682765D02*
X124538791Y-92301813D01*
X124538791Y-92301813D02*
X124491172Y-92206575D01*
X124491172Y-92206575D02*
X124443553Y-92158956D01*
X124443553Y-92158956D02*
X124348315Y-92111337D01*
X124348315Y-92111337D02*
X124157839Y-92111337D01*
X124157839Y-92111337D02*
X124062601Y-92158956D01*
X124062601Y-92158956D02*
X124014982Y-92206575D01*
X124014982Y-92206575D02*
X123967363Y-92301813D01*
X123967363Y-92301813D02*
X123967363Y-92539908D01*
X123967363Y-92539908D02*
X124014982Y-92635146D01*
X124014982Y-92635146D02*
X124062601Y-92682765D01*
X124062601Y-92682765D02*
X124157839Y-92730384D01*
X124157839Y-92730384D02*
X124348315Y-92730384D01*
X124348315Y-92730384D02*
X124443553Y-92682765D01*
X124443553Y-92682765D02*
X124491172Y-92635146D01*
X124491172Y-92635146D02*
X124538791Y-92539908D01*
X123500433Y-106743853D02*
X123500433Y-105743853D01*
X123500433Y-105743853D02*
X123738528Y-105743853D01*
X123738528Y-105743853D02*
X123881385Y-105791472D01*
X123881385Y-105791472D02*
X123976623Y-105886710D01*
X123976623Y-105886710D02*
X124024242Y-105981948D01*
X124024242Y-105981948D02*
X124071861Y-106172424D01*
X124071861Y-106172424D02*
X124071861Y-106315281D01*
X124071861Y-106315281D02*
X124024242Y-106505757D01*
X124024242Y-106505757D02*
X123976623Y-106600995D01*
X123976623Y-106600995D02*
X123881385Y-106696234D01*
X123881385Y-106696234D02*
X123738528Y-106743853D01*
X123738528Y-106743853D02*
X123500433Y-106743853D01*
X125024242Y-106743853D02*
X124452814Y-106743853D01*
X124738528Y-106743853D02*
X124738528Y-105743853D01*
X124738528Y-105743853D02*
X124643290Y-105886710D01*
X124643290Y-105886710D02*
X124548052Y-105981948D01*
X124548052Y-105981948D02*
X124452814Y-106029567D01*
X113833333Y-94954819D02*
X113500000Y-94478628D01*
X113261905Y-94954819D02*
X113261905Y-93954819D01*
X113261905Y-93954819D02*
X113642857Y-93954819D01*
X113642857Y-93954819D02*
X113738095Y-94002438D01*
X113738095Y-94002438D02*
X113785714Y-94050057D01*
X113785714Y-94050057D02*
X113833333Y-94145295D01*
X113833333Y-94145295D02*
X113833333Y-94288152D01*
X113833333Y-94288152D02*
X113785714Y-94383390D01*
X113785714Y-94383390D02*
X113738095Y-94431009D01*
X113738095Y-94431009D02*
X113642857Y-94478628D01*
X113642857Y-94478628D02*
X113261905Y-94478628D01*
X114309524Y-94954819D02*
X114500000Y-94954819D01*
X114500000Y-94954819D02*
X114595238Y-94907200D01*
X114595238Y-94907200D02*
X114642857Y-94859580D01*
X114642857Y-94859580D02*
X114738095Y-94716723D01*
X114738095Y-94716723D02*
X114785714Y-94526247D01*
X114785714Y-94526247D02*
X114785714Y-94145295D01*
X114785714Y-94145295D02*
X114738095Y-94050057D01*
X114738095Y-94050057D02*
X114690476Y-94002438D01*
X114690476Y-94002438D02*
X114595238Y-93954819D01*
X114595238Y-93954819D02*
X114404762Y-93954819D01*
X114404762Y-93954819D02*
X114309524Y-94002438D01*
X114309524Y-94002438D02*
X114261905Y-94050057D01*
X114261905Y-94050057D02*
X114214286Y-94145295D01*
X114214286Y-94145295D02*
X114214286Y-94383390D01*
X114214286Y-94383390D02*
X114261905Y-94478628D01*
X114261905Y-94478628D02*
X114309524Y-94526247D01*
X114309524Y-94526247D02*
X114404762Y-94573866D01*
X114404762Y-94573866D02*
X114595238Y-94573866D01*
X114595238Y-94573866D02*
X114690476Y-94526247D01*
X114690476Y-94526247D02*
X114738095Y-94478628D01*
X114738095Y-94478628D02*
X114785714Y-94383390D01*
X140393010Y-77332718D02*
X140345391Y-77380338D01*
X140345391Y-77380338D02*
X140202534Y-77427957D01*
X140202534Y-77427957D02*
X140107296Y-77427957D01*
X140107296Y-77427957D02*
X139964439Y-77380338D01*
X139964439Y-77380338D02*
X139869201Y-77285099D01*
X139869201Y-77285099D02*
X139821582Y-77189861D01*
X139821582Y-77189861D02*
X139773963Y-76999385D01*
X139773963Y-76999385D02*
X139773963Y-76856528D01*
X139773963Y-76856528D02*
X139821582Y-76666052D01*
X139821582Y-76666052D02*
X139869201Y-76570814D01*
X139869201Y-76570814D02*
X139964439Y-76475576D01*
X139964439Y-76475576D02*
X140107296Y-76427957D01*
X140107296Y-76427957D02*
X140202534Y-76427957D01*
X140202534Y-76427957D02*
X140345391Y-76475576D01*
X140345391Y-76475576D02*
X140393010Y-76523195D01*
X140726344Y-76427957D02*
X141345391Y-76427957D01*
X141345391Y-76427957D02*
X141012058Y-76808909D01*
X141012058Y-76808909D02*
X141154915Y-76808909D01*
X141154915Y-76808909D02*
X141250153Y-76856528D01*
X141250153Y-76856528D02*
X141297772Y-76904147D01*
X141297772Y-76904147D02*
X141345391Y-76999385D01*
X141345391Y-76999385D02*
X141345391Y-77237480D01*
X141345391Y-77237480D02*
X141297772Y-77332718D01*
X141297772Y-77332718D02*
X141250153Y-77380338D01*
X141250153Y-77380338D02*
X141154915Y-77427957D01*
X141154915Y-77427957D02*
X140869201Y-77427957D01*
X140869201Y-77427957D02*
X140773963Y-77380338D01*
X140773963Y-77380338D02*
X140726344Y-77332718D01*
X150166921Y-95648660D02*
X150166921Y-96362945D01*
X150166921Y-96362945D02*
X150119302Y-96505802D01*
X150119302Y-96505802D02*
X150024064Y-96601041D01*
X150024064Y-96601041D02*
X149881207Y-96648660D01*
X149881207Y-96648660D02*
X149785969Y-96648660D01*
X150690731Y-96648660D02*
X150881207Y-96648660D01*
X150881207Y-96648660D02*
X150976445Y-96601041D01*
X150976445Y-96601041D02*
X151024064Y-96553421D01*
X151024064Y-96553421D02*
X151119302Y-96410564D01*
X151119302Y-96410564D02*
X151166921Y-96220088D01*
X151166921Y-96220088D02*
X151166921Y-95839136D01*
X151166921Y-95839136D02*
X151119302Y-95743898D01*
X151119302Y-95743898D02*
X151071683Y-95696279D01*
X151071683Y-95696279D02*
X150976445Y-95648660D01*
X150976445Y-95648660D02*
X150785969Y-95648660D01*
X150785969Y-95648660D02*
X150690731Y-95696279D01*
X150690731Y-95696279D02*
X150643112Y-95743898D01*
X150643112Y-95743898D02*
X150595493Y-95839136D01*
X150595493Y-95839136D02*
X150595493Y-96077231D01*
X150595493Y-96077231D02*
X150643112Y-96172469D01*
X150643112Y-96172469D02*
X150690731Y-96220088D01*
X150690731Y-96220088D02*
X150785969Y-96267707D01*
X150785969Y-96267707D02*
X150976445Y-96267707D01*
X150976445Y-96267707D02*
X151071683Y-96220088D01*
X151071683Y-96220088D02*
X151119302Y-96172469D01*
X151119302Y-96172469D02*
X151166921Y-96077231D01*
X139501023Y-105954819D02*
X139501023Y-106669104D01*
X139501023Y-106669104D02*
X139453404Y-106811961D01*
X139453404Y-106811961D02*
X139358166Y-106907200D01*
X139358166Y-106907200D02*
X139215309Y-106954819D01*
X139215309Y-106954819D02*
X139120071Y-106954819D01*
X140453404Y-105954819D02*
X139977214Y-105954819D01*
X139977214Y-105954819D02*
X139929595Y-106431009D01*
X139929595Y-106431009D02*
X139977214Y-106383390D01*
X139977214Y-106383390D02*
X140072452Y-106335771D01*
X140072452Y-106335771D02*
X140310547Y-106335771D01*
X140310547Y-106335771D02*
X140405785Y-106383390D01*
X140405785Y-106383390D02*
X140453404Y-106431009D01*
X140453404Y-106431009D02*
X140501023Y-106526247D01*
X140501023Y-106526247D02*
X140501023Y-106764342D01*
X140501023Y-106764342D02*
X140453404Y-106859580D01*
X140453404Y-106859580D02*
X140405785Y-106907200D01*
X140405785Y-106907200D02*
X140310547Y-106954819D01*
X140310547Y-106954819D02*
X140072452Y-106954819D01*
X140072452Y-106954819D02*
X139977214Y-106907200D01*
X139977214Y-106907200D02*
X139929595Y-106859580D01*
X143761905Y-76454819D02*
X143761905Y-75454819D01*
X143761905Y-75454819D02*
X144000000Y-75454819D01*
X144000000Y-75454819D02*
X144142857Y-75502438D01*
X144142857Y-75502438D02*
X144238095Y-75597676D01*
X144238095Y-75597676D02*
X144285714Y-75692914D01*
X144285714Y-75692914D02*
X144333333Y-75883390D01*
X144333333Y-75883390D02*
X144333333Y-76026247D01*
X144333333Y-76026247D02*
X144285714Y-76216723D01*
X144285714Y-76216723D02*
X144238095Y-76311961D01*
X144238095Y-76311961D02*
X144142857Y-76407200D01*
X144142857Y-76407200D02*
X144000000Y-76454819D01*
X144000000Y-76454819D02*
X143761905Y-76454819D01*
X145190476Y-75788152D02*
X145190476Y-76454819D01*
X144952381Y-75407200D02*
X144714286Y-76121485D01*
X144714286Y-76121485D02*
X145333333Y-76121485D01*
X152353017Y-90425447D02*
X151876826Y-90758780D01*
X152353017Y-90996875D02*
X151353017Y-90996875D01*
X151353017Y-90996875D02*
X151353017Y-90615923D01*
X151353017Y-90615923D02*
X151400636Y-90520685D01*
X151400636Y-90520685D02*
X151448255Y-90473066D01*
X151448255Y-90473066D02*
X151543493Y-90425447D01*
X151543493Y-90425447D02*
X151686350Y-90425447D01*
X151686350Y-90425447D02*
X151781588Y-90473066D01*
X151781588Y-90473066D02*
X151829207Y-90520685D01*
X151829207Y-90520685D02*
X151876826Y-90615923D01*
X151876826Y-90615923D02*
X151876826Y-90996875D01*
X151448255Y-90044494D02*
X151400636Y-89996875D01*
X151400636Y-89996875D02*
X151353017Y-89901637D01*
X151353017Y-89901637D02*
X151353017Y-89663542D01*
X151353017Y-89663542D02*
X151400636Y-89568304D01*
X151400636Y-89568304D02*
X151448255Y-89520685D01*
X151448255Y-89520685D02*
X151543493Y-89473066D01*
X151543493Y-89473066D02*
X151638731Y-89473066D01*
X151638731Y-89473066D02*
X151781588Y-89520685D01*
X151781588Y-89520685D02*
X152353017Y-90092113D01*
X152353017Y-90092113D02*
X152353017Y-89473066D01*
X151448255Y-89092113D02*
X151400636Y-89044494D01*
X151400636Y-89044494D02*
X151353017Y-88949256D01*
X151353017Y-88949256D02*
X151353017Y-88711161D01*
X151353017Y-88711161D02*
X151400636Y-88615923D01*
X151400636Y-88615923D02*
X151448255Y-88568304D01*
X151448255Y-88568304D02*
X151543493Y-88520685D01*
X151543493Y-88520685D02*
X151638731Y-88520685D01*
X151638731Y-88520685D02*
X151781588Y-88568304D01*
X151781588Y-88568304D02*
X152353017Y-89139732D01*
X152353017Y-89139732D02*
X152353017Y-88520685D01*
X108539334Y-54969566D02*
X108206001Y-54493375D01*
X107967906Y-54969566D02*
X107967906Y-53969566D01*
X107967906Y-53969566D02*
X108348858Y-53969566D01*
X108348858Y-53969566D02*
X108444096Y-54017185D01*
X108444096Y-54017185D02*
X108491715Y-54064804D01*
X108491715Y-54064804D02*
X108539334Y-54160042D01*
X108539334Y-54160042D02*
X108539334Y-54302899D01*
X108539334Y-54302899D02*
X108491715Y-54398137D01*
X108491715Y-54398137D02*
X108444096Y-54445756D01*
X108444096Y-54445756D02*
X108348858Y-54493375D01*
X108348858Y-54493375D02*
X107967906Y-54493375D01*
X108872668Y-53969566D02*
X109539334Y-53969566D01*
X109539334Y-53969566D02*
X109110763Y-54969566D01*
X144357142Y-94954819D02*
X144023809Y-94478628D01*
X143785714Y-94954819D02*
X143785714Y-93954819D01*
X143785714Y-93954819D02*
X144166666Y-93954819D01*
X144166666Y-93954819D02*
X144261904Y-94002438D01*
X144261904Y-94002438D02*
X144309523Y-94050057D01*
X144309523Y-94050057D02*
X144357142Y-94145295D01*
X144357142Y-94145295D02*
X144357142Y-94288152D01*
X144357142Y-94288152D02*
X144309523Y-94383390D01*
X144309523Y-94383390D02*
X144261904Y-94431009D01*
X144261904Y-94431009D02*
X144166666Y-94478628D01*
X144166666Y-94478628D02*
X143785714Y-94478628D01*
X145309523Y-94954819D02*
X144738095Y-94954819D01*
X145023809Y-94954819D02*
X145023809Y-93954819D01*
X145023809Y-93954819D02*
X144928571Y-94097676D01*
X144928571Y-94097676D02*
X144833333Y-94192914D01*
X144833333Y-94192914D02*
X144738095Y-94240533D01*
X146166666Y-94288152D02*
X146166666Y-94954819D01*
X145928571Y-93907200D02*
X145690476Y-94621485D01*
X145690476Y-94621485D02*
X146309523Y-94621485D01*
X137904761Y-63954819D02*
X137571428Y-63478628D01*
X137333333Y-63954819D02*
X137333333Y-62954819D01*
X137333333Y-62954819D02*
X137714285Y-62954819D01*
X137714285Y-62954819D02*
X137809523Y-63002438D01*
X137809523Y-63002438D02*
X137857142Y-63050057D01*
X137857142Y-63050057D02*
X137904761Y-63145295D01*
X137904761Y-63145295D02*
X137904761Y-63288152D01*
X137904761Y-63288152D02*
X137857142Y-63383390D01*
X137857142Y-63383390D02*
X137809523Y-63431009D01*
X137809523Y-63431009D02*
X137714285Y-63478628D01*
X137714285Y-63478628D02*
X137333333Y-63478628D01*
X138190476Y-62954819D02*
X138523809Y-63954819D01*
X138523809Y-63954819D02*
X138857142Y-62954819D01*
X139142857Y-63050057D02*
X139190476Y-63002438D01*
X139190476Y-63002438D02*
X139285714Y-62954819D01*
X139285714Y-62954819D02*
X139523809Y-62954819D01*
X139523809Y-62954819D02*
X139619047Y-63002438D01*
X139619047Y-63002438D02*
X139666666Y-63050057D01*
X139666666Y-63050057D02*
X139714285Y-63145295D01*
X139714285Y-63145295D02*
X139714285Y-63240533D01*
X139714285Y-63240533D02*
X139666666Y-63383390D01*
X139666666Y-63383390D02*
X139095238Y-63954819D01*
X139095238Y-63954819D02*
X139714285Y-63954819D01*
X122576940Y-96137029D02*
X122243607Y-95660838D01*
X122005512Y-96137029D02*
X122005512Y-95137029D01*
X122005512Y-95137029D02*
X122386464Y-95137029D01*
X122386464Y-95137029D02*
X122481702Y-95184648D01*
X122481702Y-95184648D02*
X122529321Y-95232267D01*
X122529321Y-95232267D02*
X122576940Y-95327505D01*
X122576940Y-95327505D02*
X122576940Y-95470362D01*
X122576940Y-95470362D02*
X122529321Y-95565600D01*
X122529321Y-95565600D02*
X122481702Y-95613219D01*
X122481702Y-95613219D02*
X122386464Y-95660838D01*
X122386464Y-95660838D02*
X122005512Y-95660838D01*
X122957893Y-95232267D02*
X123005512Y-95184648D01*
X123005512Y-95184648D02*
X123100750Y-95137029D01*
X123100750Y-95137029D02*
X123338845Y-95137029D01*
X123338845Y-95137029D02*
X123434083Y-95184648D01*
X123434083Y-95184648D02*
X123481702Y-95232267D01*
X123481702Y-95232267D02*
X123529321Y-95327505D01*
X123529321Y-95327505D02*
X123529321Y-95422743D01*
X123529321Y-95422743D02*
X123481702Y-95565600D01*
X123481702Y-95565600D02*
X122910274Y-96137029D01*
X122910274Y-96137029D02*
X123529321Y-96137029D01*
X124148369Y-95137029D02*
X124243607Y-95137029D01*
X124243607Y-95137029D02*
X124338845Y-95184648D01*
X124338845Y-95184648D02*
X124386464Y-95232267D01*
X124386464Y-95232267D02*
X124434083Y-95327505D01*
X124434083Y-95327505D02*
X124481702Y-95517981D01*
X124481702Y-95517981D02*
X124481702Y-95756076D01*
X124481702Y-95756076D02*
X124434083Y-95946552D01*
X124434083Y-95946552D02*
X124386464Y-96041790D01*
X124386464Y-96041790D02*
X124338845Y-96089410D01*
X124338845Y-96089410D02*
X124243607Y-96137029D01*
X124243607Y-96137029D02*
X124148369Y-96137029D01*
X124148369Y-96137029D02*
X124053131Y-96089410D01*
X124053131Y-96089410D02*
X124005512Y-96041790D01*
X124005512Y-96041790D02*
X123957893Y-95946552D01*
X123957893Y-95946552D02*
X123910274Y-95756076D01*
X123910274Y-95756076D02*
X123910274Y-95517981D01*
X123910274Y-95517981D02*
X123957893Y-95327505D01*
X123957893Y-95327505D02*
X124005512Y-95232267D01*
X124005512Y-95232267D02*
X124053131Y-95184648D01*
X124053131Y-95184648D02*
X124148369Y-95137029D01*
X134711073Y-55388224D02*
X134377740Y-54912033D01*
X134139645Y-55388224D02*
X134139645Y-54388224D01*
X134139645Y-54388224D02*
X134520597Y-54388224D01*
X134520597Y-54388224D02*
X134615835Y-54435843D01*
X134615835Y-54435843D02*
X134663454Y-54483462D01*
X134663454Y-54483462D02*
X134711073Y-54578700D01*
X134711073Y-54578700D02*
X134711073Y-54721557D01*
X134711073Y-54721557D02*
X134663454Y-54816795D01*
X134663454Y-54816795D02*
X134615835Y-54864414D01*
X134615835Y-54864414D02*
X134520597Y-54912033D01*
X134520597Y-54912033D02*
X134139645Y-54912033D01*
X135044407Y-54388224D02*
X135663454Y-54388224D01*
X135663454Y-54388224D02*
X135330121Y-54769176D01*
X135330121Y-54769176D02*
X135472978Y-54769176D01*
X135472978Y-54769176D02*
X135568216Y-54816795D01*
X135568216Y-54816795D02*
X135615835Y-54864414D01*
X135615835Y-54864414D02*
X135663454Y-54959652D01*
X135663454Y-54959652D02*
X135663454Y-55197747D01*
X135663454Y-55197747D02*
X135615835Y-55292985D01*
X135615835Y-55292985D02*
X135568216Y-55340605D01*
X135568216Y-55340605D02*
X135472978Y-55388224D01*
X135472978Y-55388224D02*
X135187264Y-55388224D01*
X135187264Y-55388224D02*
X135092026Y-55340605D01*
X135092026Y-55340605D02*
X135044407Y-55292985D01*
X120223001Y-56701160D02*
X120175382Y-56748780D01*
X120175382Y-56748780D02*
X120032525Y-56796399D01*
X120032525Y-56796399D02*
X119937287Y-56796399D01*
X119937287Y-56796399D02*
X119794430Y-56748780D01*
X119794430Y-56748780D02*
X119699192Y-56653541D01*
X119699192Y-56653541D02*
X119651573Y-56558303D01*
X119651573Y-56558303D02*
X119603954Y-56367827D01*
X119603954Y-56367827D02*
X119603954Y-56224970D01*
X119603954Y-56224970D02*
X119651573Y-56034494D01*
X119651573Y-56034494D02*
X119699192Y-55939256D01*
X119699192Y-55939256D02*
X119794430Y-55844018D01*
X119794430Y-55844018D02*
X119937287Y-55796399D01*
X119937287Y-55796399D02*
X120032525Y-55796399D01*
X120032525Y-55796399D02*
X120175382Y-55844018D01*
X120175382Y-55844018D02*
X120223001Y-55891637D01*
X121175382Y-56796399D02*
X120603954Y-56796399D01*
X120889668Y-56796399D02*
X120889668Y-55796399D01*
X120889668Y-55796399D02*
X120794430Y-55939256D01*
X120794430Y-55939256D02*
X120699192Y-56034494D01*
X120699192Y-56034494D02*
X120603954Y-56082113D01*
X122127763Y-56796399D02*
X121556335Y-56796399D01*
X121842049Y-56796399D02*
X121842049Y-55796399D01*
X121842049Y-55796399D02*
X121746811Y-55939256D01*
X121746811Y-55939256D02*
X121651573Y-56034494D01*
X121651573Y-56034494D02*
X121556335Y-56082113D01*
X108853321Y-52143683D02*
X108519988Y-51667492D01*
X108281893Y-52143683D02*
X108281893Y-51143683D01*
X108281893Y-51143683D02*
X108662845Y-51143683D01*
X108662845Y-51143683D02*
X108758083Y-51191302D01*
X108758083Y-51191302D02*
X108805702Y-51238921D01*
X108805702Y-51238921D02*
X108853321Y-51334159D01*
X108853321Y-51334159D02*
X108853321Y-51477016D01*
X108853321Y-51477016D02*
X108805702Y-51572254D01*
X108805702Y-51572254D02*
X108758083Y-51619873D01*
X108758083Y-51619873D02*
X108662845Y-51667492D01*
X108662845Y-51667492D02*
X108281893Y-51667492D01*
X109424750Y-51572254D02*
X109329512Y-51524635D01*
X109329512Y-51524635D02*
X109281893Y-51477016D01*
X109281893Y-51477016D02*
X109234274Y-51381778D01*
X109234274Y-51381778D02*
X109234274Y-51334159D01*
X109234274Y-51334159D02*
X109281893Y-51238921D01*
X109281893Y-51238921D02*
X109329512Y-51191302D01*
X109329512Y-51191302D02*
X109424750Y-51143683D01*
X109424750Y-51143683D02*
X109615226Y-51143683D01*
X109615226Y-51143683D02*
X109710464Y-51191302D01*
X109710464Y-51191302D02*
X109758083Y-51238921D01*
X109758083Y-51238921D02*
X109805702Y-51334159D01*
X109805702Y-51334159D02*
X109805702Y-51381778D01*
X109805702Y-51381778D02*
X109758083Y-51477016D01*
X109758083Y-51477016D02*
X109710464Y-51524635D01*
X109710464Y-51524635D02*
X109615226Y-51572254D01*
X109615226Y-51572254D02*
X109424750Y-51572254D01*
X109424750Y-51572254D02*
X109329512Y-51619873D01*
X109329512Y-51619873D02*
X109281893Y-51667492D01*
X109281893Y-51667492D02*
X109234274Y-51762730D01*
X109234274Y-51762730D02*
X109234274Y-51953206D01*
X109234274Y-51953206D02*
X109281893Y-52048444D01*
X109281893Y-52048444D02*
X109329512Y-52096064D01*
X109329512Y-52096064D02*
X109424750Y-52143683D01*
X109424750Y-52143683D02*
X109615226Y-52143683D01*
X109615226Y-52143683D02*
X109710464Y-52096064D01*
X109710464Y-52096064D02*
X109758083Y-52048444D01*
X109758083Y-52048444D02*
X109805702Y-51953206D01*
X109805702Y-51953206D02*
X109805702Y-51762730D01*
X109805702Y-51762730D02*
X109758083Y-51667492D01*
X109758083Y-51667492D02*
X109710464Y-51619873D01*
X109710464Y-51619873D02*
X109615226Y-51572254D01*
X114404761Y-63954819D02*
X114071428Y-63478628D01*
X113833333Y-63954819D02*
X113833333Y-62954819D01*
X113833333Y-62954819D02*
X114214285Y-62954819D01*
X114214285Y-62954819D02*
X114309523Y-63002438D01*
X114309523Y-63002438D02*
X114357142Y-63050057D01*
X114357142Y-63050057D02*
X114404761Y-63145295D01*
X114404761Y-63145295D02*
X114404761Y-63288152D01*
X114404761Y-63288152D02*
X114357142Y-63383390D01*
X114357142Y-63383390D02*
X114309523Y-63431009D01*
X114309523Y-63431009D02*
X114214285Y-63478628D01*
X114214285Y-63478628D02*
X113833333Y-63478628D01*
X114690476Y-62954819D02*
X115023809Y-63954819D01*
X115023809Y-63954819D02*
X115357142Y-62954819D01*
X116214285Y-63954819D02*
X115642857Y-63954819D01*
X115928571Y-63954819D02*
X115928571Y-62954819D01*
X115928571Y-62954819D02*
X115833333Y-63097676D01*
X115833333Y-63097676D02*
X115738095Y-63192914D01*
X115738095Y-63192914D02*
X115642857Y-63240533D01*
X143357142Y-98954819D02*
X143023809Y-98478628D01*
X142785714Y-98954819D02*
X142785714Y-97954819D01*
X142785714Y-97954819D02*
X143166666Y-97954819D01*
X143166666Y-97954819D02*
X143261904Y-98002438D01*
X143261904Y-98002438D02*
X143309523Y-98050057D01*
X143309523Y-98050057D02*
X143357142Y-98145295D01*
X143357142Y-98145295D02*
X143357142Y-98288152D01*
X143357142Y-98288152D02*
X143309523Y-98383390D01*
X143309523Y-98383390D02*
X143261904Y-98431009D01*
X143261904Y-98431009D02*
X143166666Y-98478628D01*
X143166666Y-98478628D02*
X142785714Y-98478628D01*
X144309523Y-98954819D02*
X143738095Y-98954819D01*
X144023809Y-98954819D02*
X144023809Y-97954819D01*
X144023809Y-97954819D02*
X143928571Y-98097676D01*
X143928571Y-98097676D02*
X143833333Y-98192914D01*
X143833333Y-98192914D02*
X143738095Y-98240533D01*
X144690476Y-98050057D02*
X144738095Y-98002438D01*
X144738095Y-98002438D02*
X144833333Y-97954819D01*
X144833333Y-97954819D02*
X145071428Y-97954819D01*
X145071428Y-97954819D02*
X145166666Y-98002438D01*
X145166666Y-98002438D02*
X145214285Y-98050057D01*
X145214285Y-98050057D02*
X145261904Y-98145295D01*
X145261904Y-98145295D02*
X145261904Y-98240533D01*
X145261904Y-98240533D02*
X145214285Y-98383390D01*
X145214285Y-98383390D02*
X144642857Y-98954819D01*
X144642857Y-98954819D02*
X145261904Y-98954819D01*
X112857142Y-97954819D02*
X112523809Y-97478628D01*
X112285714Y-97954819D02*
X112285714Y-96954819D01*
X112285714Y-96954819D02*
X112666666Y-96954819D01*
X112666666Y-96954819D02*
X112761904Y-97002438D01*
X112761904Y-97002438D02*
X112809523Y-97050057D01*
X112809523Y-97050057D02*
X112857142Y-97145295D01*
X112857142Y-97145295D02*
X112857142Y-97288152D01*
X112857142Y-97288152D02*
X112809523Y-97383390D01*
X112809523Y-97383390D02*
X112761904Y-97431009D01*
X112761904Y-97431009D02*
X112666666Y-97478628D01*
X112666666Y-97478628D02*
X112285714Y-97478628D01*
X113809523Y-97954819D02*
X113238095Y-97954819D01*
X113523809Y-97954819D02*
X113523809Y-96954819D01*
X113523809Y-96954819D02*
X113428571Y-97097676D01*
X113428571Y-97097676D02*
X113333333Y-97192914D01*
X113333333Y-97192914D02*
X113238095Y-97240533D01*
X114428571Y-96954819D02*
X114523809Y-96954819D01*
X114523809Y-96954819D02*
X114619047Y-97002438D01*
X114619047Y-97002438D02*
X114666666Y-97050057D01*
X114666666Y-97050057D02*
X114714285Y-97145295D01*
X114714285Y-97145295D02*
X114761904Y-97335771D01*
X114761904Y-97335771D02*
X114761904Y-97573866D01*
X114761904Y-97573866D02*
X114714285Y-97764342D01*
X114714285Y-97764342D02*
X114666666Y-97859580D01*
X114666666Y-97859580D02*
X114619047Y-97907200D01*
X114619047Y-97907200D02*
X114523809Y-97954819D01*
X114523809Y-97954819D02*
X114428571Y-97954819D01*
X114428571Y-97954819D02*
X114333333Y-97907200D01*
X114333333Y-97907200D02*
X114285714Y-97859580D01*
X114285714Y-97859580D02*
X114238095Y-97764342D01*
X114238095Y-97764342D02*
X114190476Y-97573866D01*
X114190476Y-97573866D02*
X114190476Y-97335771D01*
X114190476Y-97335771D02*
X114238095Y-97145295D01*
X114238095Y-97145295D02*
X114285714Y-97050057D01*
X114285714Y-97050057D02*
X114333333Y-97002438D01*
X114333333Y-97002438D02*
X114428571Y-96954819D01*
X102361454Y-106847853D02*
X102504311Y-106895472D01*
X102504311Y-106895472D02*
X102742406Y-106895472D01*
X102742406Y-106895472D02*
X102837644Y-106847853D01*
X102837644Y-106847853D02*
X102885263Y-106800233D01*
X102885263Y-106800233D02*
X102932882Y-106704995D01*
X102932882Y-106704995D02*
X102932882Y-106609757D01*
X102932882Y-106609757D02*
X102885263Y-106514519D01*
X102885263Y-106514519D02*
X102837644Y-106466900D01*
X102837644Y-106466900D02*
X102742406Y-106419281D01*
X102742406Y-106419281D02*
X102551930Y-106371662D01*
X102551930Y-106371662D02*
X102456692Y-106324043D01*
X102456692Y-106324043D02*
X102409073Y-106276424D01*
X102409073Y-106276424D02*
X102361454Y-106181186D01*
X102361454Y-106181186D02*
X102361454Y-106085948D01*
X102361454Y-106085948D02*
X102409073Y-105990710D01*
X102409073Y-105990710D02*
X102456692Y-105943091D01*
X102456692Y-105943091D02*
X102551930Y-105895472D01*
X102551930Y-105895472D02*
X102790025Y-105895472D01*
X102790025Y-105895472D02*
X102932882Y-105943091D01*
X103266216Y-105895472D02*
X103504311Y-106895472D01*
X103504311Y-106895472D02*
X103694787Y-106181186D01*
X103694787Y-106181186D02*
X103885263Y-106895472D01*
X103885263Y-106895472D02*
X104123359Y-105895472D01*
X105028120Y-106895472D02*
X104456692Y-106895472D01*
X104742406Y-106895472D02*
X104742406Y-105895472D01*
X104742406Y-105895472D02*
X104647168Y-106038329D01*
X104647168Y-106038329D02*
X104551930Y-106133567D01*
X104551930Y-106133567D02*
X104456692Y-106181186D01*
X122596423Y-99134177D02*
X122263090Y-98657986D01*
X122024995Y-99134177D02*
X122024995Y-98134177D01*
X122024995Y-98134177D02*
X122405947Y-98134177D01*
X122405947Y-98134177D02*
X122501185Y-98181796D01*
X122501185Y-98181796D02*
X122548804Y-98229415D01*
X122548804Y-98229415D02*
X122596423Y-98324653D01*
X122596423Y-98324653D02*
X122596423Y-98467510D01*
X122596423Y-98467510D02*
X122548804Y-98562748D01*
X122548804Y-98562748D02*
X122501185Y-98610367D01*
X122501185Y-98610367D02*
X122405947Y-98657986D01*
X122405947Y-98657986D02*
X122024995Y-98657986D01*
X123548804Y-99134177D02*
X122977376Y-99134177D01*
X123263090Y-99134177D02*
X123263090Y-98134177D01*
X123263090Y-98134177D02*
X123167852Y-98277034D01*
X123167852Y-98277034D02*
X123072614Y-98372272D01*
X123072614Y-98372272D02*
X122977376Y-98419891D01*
X144833333Y-86859580D02*
X144785714Y-86907200D01*
X144785714Y-86907200D02*
X144642857Y-86954819D01*
X144642857Y-86954819D02*
X144547619Y-86954819D01*
X144547619Y-86954819D02*
X144404762Y-86907200D01*
X144404762Y-86907200D02*
X144309524Y-86811961D01*
X144309524Y-86811961D02*
X144261905Y-86716723D01*
X144261905Y-86716723D02*
X144214286Y-86526247D01*
X144214286Y-86526247D02*
X144214286Y-86383390D01*
X144214286Y-86383390D02*
X144261905Y-86192914D01*
X144261905Y-86192914D02*
X144309524Y-86097676D01*
X144309524Y-86097676D02*
X144404762Y-86002438D01*
X144404762Y-86002438D02*
X144547619Y-85954819D01*
X144547619Y-85954819D02*
X144642857Y-85954819D01*
X144642857Y-85954819D02*
X144785714Y-86002438D01*
X144785714Y-86002438D02*
X144833333Y-86050057D01*
X145690476Y-85954819D02*
X145500000Y-85954819D01*
X145500000Y-85954819D02*
X145404762Y-86002438D01*
X145404762Y-86002438D02*
X145357143Y-86050057D01*
X145357143Y-86050057D02*
X145261905Y-86192914D01*
X145261905Y-86192914D02*
X145214286Y-86383390D01*
X145214286Y-86383390D02*
X145214286Y-86764342D01*
X145214286Y-86764342D02*
X145261905Y-86859580D01*
X145261905Y-86859580D02*
X145309524Y-86907200D01*
X145309524Y-86907200D02*
X145404762Y-86954819D01*
X145404762Y-86954819D02*
X145595238Y-86954819D01*
X145595238Y-86954819D02*
X145690476Y-86907200D01*
X145690476Y-86907200D02*
X145738095Y-86859580D01*
X145738095Y-86859580D02*
X145785714Y-86764342D01*
X145785714Y-86764342D02*
X145785714Y-86526247D01*
X145785714Y-86526247D02*
X145738095Y-86431009D01*
X145738095Y-86431009D02*
X145690476Y-86383390D01*
X145690476Y-86383390D02*
X145595238Y-86335771D01*
X145595238Y-86335771D02*
X145404762Y-86335771D01*
X145404762Y-86335771D02*
X145309524Y-86383390D01*
X145309524Y-86383390D02*
X145261905Y-86431009D01*
X145261905Y-86431009D02*
X145214286Y-86526247D01*
X140192512Y-79649775D02*
X140144893Y-79697395D01*
X140144893Y-79697395D02*
X140002036Y-79745014D01*
X140002036Y-79745014D02*
X139906798Y-79745014D01*
X139906798Y-79745014D02*
X139763941Y-79697395D01*
X139763941Y-79697395D02*
X139668703Y-79602156D01*
X139668703Y-79602156D02*
X139621084Y-79506918D01*
X139621084Y-79506918D02*
X139573465Y-79316442D01*
X139573465Y-79316442D02*
X139573465Y-79173585D01*
X139573465Y-79173585D02*
X139621084Y-78983109D01*
X139621084Y-78983109D02*
X139668703Y-78887871D01*
X139668703Y-78887871D02*
X139763941Y-78792633D01*
X139763941Y-78792633D02*
X139906798Y-78745014D01*
X139906798Y-78745014D02*
X140002036Y-78745014D01*
X140002036Y-78745014D02*
X140144893Y-78792633D01*
X140144893Y-78792633D02*
X140192512Y-78840252D01*
X141049655Y-79078347D02*
X141049655Y-79745014D01*
X140811560Y-78697395D02*
X140573465Y-79411680D01*
X140573465Y-79411680D02*
X141192512Y-79411680D01*
X152493041Y-52709821D02*
X152493041Y-53424106D01*
X152493041Y-53424106D02*
X152445422Y-53566963D01*
X152445422Y-53566963D02*
X152350184Y-53662202D01*
X152350184Y-53662202D02*
X152207327Y-53709821D01*
X152207327Y-53709821D02*
X152112089Y-53709821D01*
X153397803Y-53043154D02*
X153397803Y-53709821D01*
X153159708Y-52662202D02*
X152921613Y-53376487D01*
X152921613Y-53376487D02*
X153540660Y-53376487D01*
X125166667Y-55407200D02*
X125309524Y-55454819D01*
X125309524Y-55454819D02*
X125547619Y-55454819D01*
X125547619Y-55454819D02*
X125642857Y-55407200D01*
X125642857Y-55407200D02*
X125690476Y-55359580D01*
X125690476Y-55359580D02*
X125738095Y-55264342D01*
X125738095Y-55264342D02*
X125738095Y-55169104D01*
X125738095Y-55169104D02*
X125690476Y-55073866D01*
X125690476Y-55073866D02*
X125642857Y-55026247D01*
X125642857Y-55026247D02*
X125547619Y-54978628D01*
X125547619Y-54978628D02*
X125357143Y-54931009D01*
X125357143Y-54931009D02*
X125261905Y-54883390D01*
X125261905Y-54883390D02*
X125214286Y-54835771D01*
X125214286Y-54835771D02*
X125166667Y-54740533D01*
X125166667Y-54740533D02*
X125166667Y-54645295D01*
X125166667Y-54645295D02*
X125214286Y-54550057D01*
X125214286Y-54550057D02*
X125261905Y-54502438D01*
X125261905Y-54502438D02*
X125357143Y-54454819D01*
X125357143Y-54454819D02*
X125595238Y-54454819D01*
X125595238Y-54454819D02*
X125738095Y-54502438D01*
X126071429Y-54454819D02*
X126309524Y-55454819D01*
X126309524Y-55454819D02*
X126500000Y-54740533D01*
X126500000Y-54740533D02*
X126690476Y-55454819D01*
X126690476Y-55454819D02*
X126928572Y-54454819D01*
X127214286Y-54454819D02*
X127833333Y-54454819D01*
X127833333Y-54454819D02*
X127500000Y-54835771D01*
X127500000Y-54835771D02*
X127642857Y-54835771D01*
X127642857Y-54835771D02*
X127738095Y-54883390D01*
X127738095Y-54883390D02*
X127785714Y-54931009D01*
X127785714Y-54931009D02*
X127833333Y-55026247D01*
X127833333Y-55026247D02*
X127833333Y-55264342D01*
X127833333Y-55264342D02*
X127785714Y-55359580D01*
X127785714Y-55359580D02*
X127738095Y-55407200D01*
X127738095Y-55407200D02*
X127642857Y-55454819D01*
X127642857Y-55454819D02*
X127357143Y-55454819D01*
X127357143Y-55454819D02*
X127261905Y-55407200D01*
X127261905Y-55407200D02*
X127214286Y-55359580D01*
X103857142Y-77359580D02*
X103809523Y-77407200D01*
X103809523Y-77407200D02*
X103666666Y-77454819D01*
X103666666Y-77454819D02*
X103571428Y-77454819D01*
X103571428Y-77454819D02*
X103428571Y-77407200D01*
X103428571Y-77407200D02*
X103333333Y-77311961D01*
X103333333Y-77311961D02*
X103285714Y-77216723D01*
X103285714Y-77216723D02*
X103238095Y-77026247D01*
X103238095Y-77026247D02*
X103238095Y-76883390D01*
X103238095Y-76883390D02*
X103285714Y-76692914D01*
X103285714Y-76692914D02*
X103333333Y-76597676D01*
X103333333Y-76597676D02*
X103428571Y-76502438D01*
X103428571Y-76502438D02*
X103571428Y-76454819D01*
X103571428Y-76454819D02*
X103666666Y-76454819D01*
X103666666Y-76454819D02*
X103809523Y-76502438D01*
X103809523Y-76502438D02*
X103857142Y-76550057D01*
X104809523Y-77454819D02*
X104238095Y-77454819D01*
X104523809Y-77454819D02*
X104523809Y-76454819D01*
X104523809Y-76454819D02*
X104428571Y-76597676D01*
X104428571Y-76597676D02*
X104333333Y-76692914D01*
X104333333Y-76692914D02*
X104238095Y-76740533D01*
X105190476Y-76550057D02*
X105238095Y-76502438D01*
X105238095Y-76502438D02*
X105333333Y-76454819D01*
X105333333Y-76454819D02*
X105571428Y-76454819D01*
X105571428Y-76454819D02*
X105666666Y-76502438D01*
X105666666Y-76502438D02*
X105714285Y-76550057D01*
X105714285Y-76550057D02*
X105761904Y-76645295D01*
X105761904Y-76645295D02*
X105761904Y-76740533D01*
X105761904Y-76740533D02*
X105714285Y-76883390D01*
X105714285Y-76883390D02*
X105142857Y-77454819D01*
X105142857Y-77454819D02*
X105761904Y-77454819D01*
X113677302Y-60269194D02*
X113629683Y-60316814D01*
X113629683Y-60316814D02*
X113486826Y-60364433D01*
X113486826Y-60364433D02*
X113391588Y-60364433D01*
X113391588Y-60364433D02*
X113248731Y-60316814D01*
X113248731Y-60316814D02*
X113153493Y-60221575D01*
X113153493Y-60221575D02*
X113105874Y-60126337D01*
X113105874Y-60126337D02*
X113058255Y-59935861D01*
X113058255Y-59935861D02*
X113058255Y-59793004D01*
X113058255Y-59793004D02*
X113105874Y-59602528D01*
X113105874Y-59602528D02*
X113153493Y-59507290D01*
X113153493Y-59507290D02*
X113248731Y-59412052D01*
X113248731Y-59412052D02*
X113391588Y-59364433D01*
X113391588Y-59364433D02*
X113486826Y-59364433D01*
X113486826Y-59364433D02*
X113629683Y-59412052D01*
X113629683Y-59412052D02*
X113677302Y-59459671D01*
X114248731Y-59793004D02*
X114153493Y-59745385D01*
X114153493Y-59745385D02*
X114105874Y-59697766D01*
X114105874Y-59697766D02*
X114058255Y-59602528D01*
X114058255Y-59602528D02*
X114058255Y-59554909D01*
X114058255Y-59554909D02*
X114105874Y-59459671D01*
X114105874Y-59459671D02*
X114153493Y-59412052D01*
X114153493Y-59412052D02*
X114248731Y-59364433D01*
X114248731Y-59364433D02*
X114439207Y-59364433D01*
X114439207Y-59364433D02*
X114534445Y-59412052D01*
X114534445Y-59412052D02*
X114582064Y-59459671D01*
X114582064Y-59459671D02*
X114629683Y-59554909D01*
X114629683Y-59554909D02*
X114629683Y-59602528D01*
X114629683Y-59602528D02*
X114582064Y-59697766D01*
X114582064Y-59697766D02*
X114534445Y-59745385D01*
X114534445Y-59745385D02*
X114439207Y-59793004D01*
X114439207Y-59793004D02*
X114248731Y-59793004D01*
X114248731Y-59793004D02*
X114153493Y-59840623D01*
X114153493Y-59840623D02*
X114105874Y-59888242D01*
X114105874Y-59888242D02*
X114058255Y-59983480D01*
X114058255Y-59983480D02*
X114058255Y-60173956D01*
X114058255Y-60173956D02*
X114105874Y-60269194D01*
X114105874Y-60269194D02*
X114153493Y-60316814D01*
X114153493Y-60316814D02*
X114248731Y-60364433D01*
X114248731Y-60364433D02*
X114439207Y-60364433D01*
X114439207Y-60364433D02*
X114534445Y-60316814D01*
X114534445Y-60316814D02*
X114582064Y-60269194D01*
X114582064Y-60269194D02*
X114629683Y-60173956D01*
X114629683Y-60173956D02*
X114629683Y-59983480D01*
X114629683Y-59983480D02*
X114582064Y-59888242D01*
X114582064Y-59888242D02*
X114534445Y-59840623D01*
X114534445Y-59840623D02*
X114439207Y-59793004D01*
X134608313Y-57717436D02*
X134274980Y-57241245D01*
X134036885Y-57717436D02*
X134036885Y-56717436D01*
X134036885Y-56717436D02*
X134417837Y-56717436D01*
X134417837Y-56717436D02*
X134513075Y-56765055D01*
X134513075Y-56765055D02*
X134560694Y-56812674D01*
X134560694Y-56812674D02*
X134608313Y-56907912D01*
X134608313Y-56907912D02*
X134608313Y-57050769D01*
X134608313Y-57050769D02*
X134560694Y-57146007D01*
X134560694Y-57146007D02*
X134513075Y-57193626D01*
X134513075Y-57193626D02*
X134417837Y-57241245D01*
X134417837Y-57241245D02*
X134036885Y-57241245D01*
X134989266Y-56812674D02*
X135036885Y-56765055D01*
X135036885Y-56765055D02*
X135132123Y-56717436D01*
X135132123Y-56717436D02*
X135370218Y-56717436D01*
X135370218Y-56717436D02*
X135465456Y-56765055D01*
X135465456Y-56765055D02*
X135513075Y-56812674D01*
X135513075Y-56812674D02*
X135560694Y-56907912D01*
X135560694Y-56907912D02*
X135560694Y-57003150D01*
X135560694Y-57003150D02*
X135513075Y-57146007D01*
X135513075Y-57146007D02*
X134941647Y-57717436D01*
X134941647Y-57717436D02*
X135560694Y-57717436D01*
X109598719Y-102123923D02*
X109265386Y-101647732D01*
X109027291Y-102123923D02*
X109027291Y-101123923D01*
X109027291Y-101123923D02*
X109408243Y-101123923D01*
X109408243Y-101123923D02*
X109503481Y-101171542D01*
X109503481Y-101171542D02*
X109551100Y-101219161D01*
X109551100Y-101219161D02*
X109598719Y-101314399D01*
X109598719Y-101314399D02*
X109598719Y-101457256D01*
X109598719Y-101457256D02*
X109551100Y-101552494D01*
X109551100Y-101552494D02*
X109503481Y-101600113D01*
X109503481Y-101600113D02*
X109408243Y-101647732D01*
X109408243Y-101647732D02*
X109027291Y-101647732D01*
X110551100Y-102123923D02*
X109979672Y-102123923D01*
X110265386Y-102123923D02*
X110265386Y-101123923D01*
X110265386Y-101123923D02*
X110170148Y-101266780D01*
X110170148Y-101266780D02*
X110074910Y-101362018D01*
X110074910Y-101362018D02*
X109979672Y-101409637D01*
X111503481Y-102123923D02*
X110932053Y-102123923D01*
X111217767Y-102123923D02*
X111217767Y-101123923D01*
X111217767Y-101123923D02*
X111122529Y-101266780D01*
X111122529Y-101266780D02*
X111027291Y-101362018D01*
X111027291Y-101362018D02*
X110932053Y-101409637D01*
X121338746Y-105704967D02*
X121338746Y-106419252D01*
X121338746Y-106419252D02*
X121291127Y-106562109D01*
X121291127Y-106562109D02*
X121195889Y-106657348D01*
X121195889Y-106657348D02*
X121053032Y-106704967D01*
X121053032Y-106704967D02*
X120957794Y-106704967D01*
X121719699Y-105704967D02*
X122338746Y-105704967D01*
X122338746Y-105704967D02*
X122005413Y-106085919D01*
X122005413Y-106085919D02*
X122148270Y-106085919D01*
X122148270Y-106085919D02*
X122243508Y-106133538D01*
X122243508Y-106133538D02*
X122291127Y-106181157D01*
X122291127Y-106181157D02*
X122338746Y-106276395D01*
X122338746Y-106276395D02*
X122338746Y-106514490D01*
X122338746Y-106514490D02*
X122291127Y-106609728D01*
X122291127Y-106609728D02*
X122243508Y-106657348D01*
X122243508Y-106657348D02*
X122148270Y-106704967D01*
X122148270Y-106704967D02*
X121862556Y-106704967D01*
X121862556Y-106704967D02*
X121767318Y-106657348D01*
X121767318Y-106657348D02*
X121719699Y-106609728D01*
X104023628Y-84258820D02*
X103690295Y-83782629D01*
X103452200Y-84258820D02*
X103452200Y-83258820D01*
X103452200Y-83258820D02*
X103833152Y-83258820D01*
X103833152Y-83258820D02*
X103928390Y-83306439D01*
X103928390Y-83306439D02*
X103976009Y-83354058D01*
X103976009Y-83354058D02*
X104023628Y-83449296D01*
X104023628Y-83449296D02*
X104023628Y-83592153D01*
X104023628Y-83592153D02*
X103976009Y-83687391D01*
X103976009Y-83687391D02*
X103928390Y-83735010D01*
X103928390Y-83735010D02*
X103833152Y-83782629D01*
X103833152Y-83782629D02*
X103452200Y-83782629D01*
X104928390Y-83258820D02*
X104452200Y-83258820D01*
X104452200Y-83258820D02*
X104404581Y-83735010D01*
X104404581Y-83735010D02*
X104452200Y-83687391D01*
X104452200Y-83687391D02*
X104547438Y-83639772D01*
X104547438Y-83639772D02*
X104785533Y-83639772D01*
X104785533Y-83639772D02*
X104880771Y-83687391D01*
X104880771Y-83687391D02*
X104928390Y-83735010D01*
X104928390Y-83735010D02*
X104976009Y-83830248D01*
X104976009Y-83830248D02*
X104976009Y-84068343D01*
X104976009Y-84068343D02*
X104928390Y-84163581D01*
X104928390Y-84163581D02*
X104880771Y-84211201D01*
X104880771Y-84211201D02*
X104785533Y-84258820D01*
X104785533Y-84258820D02*
X104547438Y-84258820D01*
X104547438Y-84258820D02*
X104452200Y-84211201D01*
X104452200Y-84211201D02*
X104404581Y-84163581D01*
X133714285Y-106931009D02*
X133857142Y-106978628D01*
X133857142Y-106978628D02*
X133904761Y-107026247D01*
X133904761Y-107026247D02*
X133952380Y-107121485D01*
X133952380Y-107121485D02*
X133952380Y-107264342D01*
X133952380Y-107264342D02*
X133904761Y-107359580D01*
X133904761Y-107359580D02*
X133857142Y-107407200D01*
X133857142Y-107407200D02*
X133761904Y-107454819D01*
X133761904Y-107454819D02*
X133380952Y-107454819D01*
X133380952Y-107454819D02*
X133380952Y-106454819D01*
X133380952Y-106454819D02*
X133714285Y-106454819D01*
X133714285Y-106454819D02*
X133809523Y-106502438D01*
X133809523Y-106502438D02*
X133857142Y-106550057D01*
X133857142Y-106550057D02*
X133904761Y-106645295D01*
X133904761Y-106645295D02*
X133904761Y-106740533D01*
X133904761Y-106740533D02*
X133857142Y-106835771D01*
X133857142Y-106835771D02*
X133809523Y-106883390D01*
X133809523Y-106883390D02*
X133714285Y-106931009D01*
X133714285Y-106931009D02*
X133380952Y-106931009D01*
X134238095Y-106454819D02*
X134809523Y-106454819D01*
X134523809Y-107454819D02*
X134523809Y-106454819D01*
X135666666Y-107454819D02*
X135095238Y-107454819D01*
X135380952Y-107454819D02*
X135380952Y-106454819D01*
X135380952Y-106454819D02*
X135285714Y-106597676D01*
X135285714Y-106597676D02*
X135190476Y-106692914D01*
X135190476Y-106692914D02*
X135095238Y-106740533D01*
X102743044Y-99005669D02*
X102266853Y-99339002D01*
X102743044Y-99577097D02*
X101743044Y-99577097D01*
X101743044Y-99577097D02*
X101743044Y-99196145D01*
X101743044Y-99196145D02*
X101790663Y-99100907D01*
X101790663Y-99100907D02*
X101838282Y-99053288D01*
X101838282Y-99053288D02*
X101933520Y-99005669D01*
X101933520Y-99005669D02*
X102076377Y-99005669D01*
X102076377Y-99005669D02*
X102171615Y-99053288D01*
X102171615Y-99053288D02*
X102219234Y-99100907D01*
X102219234Y-99100907D02*
X102266853Y-99196145D01*
X102266853Y-99196145D02*
X102266853Y-99577097D01*
X102743044Y-98053288D02*
X102743044Y-98624716D01*
X102743044Y-98339002D02*
X101743044Y-98339002D01*
X101743044Y-98339002D02*
X101885901Y-98434240D01*
X101885901Y-98434240D02*
X101981139Y-98529478D01*
X101981139Y-98529478D02*
X102028758Y-98624716D01*
X101743044Y-97719954D02*
X101743044Y-97053288D01*
X101743044Y-97053288D02*
X102743044Y-97481859D01*
X116857142Y-61454819D02*
X116523809Y-60978628D01*
X116285714Y-61454819D02*
X116285714Y-60454819D01*
X116285714Y-60454819D02*
X116666666Y-60454819D01*
X116666666Y-60454819D02*
X116761904Y-60502438D01*
X116761904Y-60502438D02*
X116809523Y-60550057D01*
X116809523Y-60550057D02*
X116857142Y-60645295D01*
X116857142Y-60645295D02*
X116857142Y-60788152D01*
X116857142Y-60788152D02*
X116809523Y-60883390D01*
X116809523Y-60883390D02*
X116761904Y-60931009D01*
X116761904Y-60931009D02*
X116666666Y-60978628D01*
X116666666Y-60978628D02*
X116285714Y-60978628D01*
X117809523Y-61454819D02*
X117238095Y-61454819D01*
X117523809Y-61454819D02*
X117523809Y-60454819D01*
X117523809Y-60454819D02*
X117428571Y-60597676D01*
X117428571Y-60597676D02*
X117333333Y-60692914D01*
X117333333Y-60692914D02*
X117238095Y-60740533D01*
X118714285Y-60454819D02*
X118238095Y-60454819D01*
X118238095Y-60454819D02*
X118190476Y-60931009D01*
X118190476Y-60931009D02*
X118238095Y-60883390D01*
X118238095Y-60883390D02*
X118333333Y-60835771D01*
X118333333Y-60835771D02*
X118571428Y-60835771D01*
X118571428Y-60835771D02*
X118666666Y-60883390D01*
X118666666Y-60883390D02*
X118714285Y-60931009D01*
X118714285Y-60931009D02*
X118761904Y-61026247D01*
X118761904Y-61026247D02*
X118761904Y-61264342D01*
X118761904Y-61264342D02*
X118714285Y-61359580D01*
X118714285Y-61359580D02*
X118666666Y-61407200D01*
X118666666Y-61407200D02*
X118571428Y-61454819D01*
X118571428Y-61454819D02*
X118333333Y-61454819D01*
X118333333Y-61454819D02*
X118238095Y-61407200D01*
X118238095Y-61407200D02*
X118190476Y-61359580D01*
X104495110Y-59137029D02*
X104161777Y-58660838D01*
X103923682Y-59137029D02*
X103923682Y-58137029D01*
X103923682Y-58137029D02*
X104304634Y-58137029D01*
X104304634Y-58137029D02*
X104399872Y-58184648D01*
X104399872Y-58184648D02*
X104447491Y-58232267D01*
X104447491Y-58232267D02*
X104495110Y-58327505D01*
X104495110Y-58327505D02*
X104495110Y-58470362D01*
X104495110Y-58470362D02*
X104447491Y-58565600D01*
X104447491Y-58565600D02*
X104399872Y-58613219D01*
X104399872Y-58613219D02*
X104304634Y-58660838D01*
X104304634Y-58660838D02*
X103923682Y-58660838D01*
X104876063Y-58232267D02*
X104923682Y-58184648D01*
X104923682Y-58184648D02*
X105018920Y-58137029D01*
X105018920Y-58137029D02*
X105257015Y-58137029D01*
X105257015Y-58137029D02*
X105352253Y-58184648D01*
X105352253Y-58184648D02*
X105399872Y-58232267D01*
X105399872Y-58232267D02*
X105447491Y-58327505D01*
X105447491Y-58327505D02*
X105447491Y-58422743D01*
X105447491Y-58422743D02*
X105399872Y-58565600D01*
X105399872Y-58565600D02*
X104828444Y-59137029D01*
X104828444Y-59137029D02*
X105447491Y-59137029D01*
X106399872Y-59137029D02*
X105828444Y-59137029D01*
X106114158Y-59137029D02*
X106114158Y-58137029D01*
X106114158Y-58137029D02*
X106018920Y-58279886D01*
X106018920Y-58279886D02*
X105923682Y-58375124D01*
X105923682Y-58375124D02*
X105828444Y-58422743D01*
X141083071Y-83170235D02*
X141035452Y-83217855D01*
X141035452Y-83217855D02*
X140892595Y-83265474D01*
X140892595Y-83265474D02*
X140797357Y-83265474D01*
X140797357Y-83265474D02*
X140654500Y-83217855D01*
X140654500Y-83217855D02*
X140559262Y-83122616D01*
X140559262Y-83122616D02*
X140511643Y-83027378D01*
X140511643Y-83027378D02*
X140464024Y-82836902D01*
X140464024Y-82836902D02*
X140464024Y-82694045D01*
X140464024Y-82694045D02*
X140511643Y-82503569D01*
X140511643Y-82503569D02*
X140559262Y-82408331D01*
X140559262Y-82408331D02*
X140654500Y-82313093D01*
X140654500Y-82313093D02*
X140797357Y-82265474D01*
X140797357Y-82265474D02*
X140892595Y-82265474D01*
X140892595Y-82265474D02*
X141035452Y-82313093D01*
X141035452Y-82313093D02*
X141083071Y-82360712D01*
X141987833Y-82265474D02*
X141511643Y-82265474D01*
X141511643Y-82265474D02*
X141464024Y-82741664D01*
X141464024Y-82741664D02*
X141511643Y-82694045D01*
X141511643Y-82694045D02*
X141606881Y-82646426D01*
X141606881Y-82646426D02*
X141844976Y-82646426D01*
X141844976Y-82646426D02*
X141940214Y-82694045D01*
X141940214Y-82694045D02*
X141987833Y-82741664D01*
X141987833Y-82741664D02*
X142035452Y-82836902D01*
X142035452Y-82836902D02*
X142035452Y-83074997D01*
X142035452Y-83074997D02*
X141987833Y-83170235D01*
X141987833Y-83170235D02*
X141940214Y-83217855D01*
X141940214Y-83217855D02*
X141844976Y-83265474D01*
X141844976Y-83265474D02*
X141606881Y-83265474D01*
X141606881Y-83265474D02*
X141511643Y-83217855D01*
X141511643Y-83217855D02*
X141464024Y-83170235D01*
X128738095Y-81788358D02*
X128738095Y-82597881D01*
X128738095Y-82597881D02*
X128785714Y-82693119D01*
X128785714Y-82693119D02*
X128833333Y-82740739D01*
X128833333Y-82740739D02*
X128928571Y-82788358D01*
X128928571Y-82788358D02*
X129119047Y-82788358D01*
X129119047Y-82788358D02*
X129214285Y-82740739D01*
X129214285Y-82740739D02*
X129261904Y-82693119D01*
X129261904Y-82693119D02*
X129309523Y-82597881D01*
X129309523Y-82597881D02*
X129309523Y-81788358D01*
X130309523Y-82788358D02*
X129738095Y-82788358D01*
X130023809Y-82788358D02*
X130023809Y-81788358D01*
X130023809Y-81788358D02*
X129928571Y-81931215D01*
X129928571Y-81931215D02*
X129833333Y-82026453D01*
X129833333Y-82026453D02*
X129738095Y-82074072D01*
X132081183Y-74059856D02*
X132033564Y-74107476D01*
X132033564Y-74107476D02*
X131890707Y-74155095D01*
X131890707Y-74155095D02*
X131795469Y-74155095D01*
X131795469Y-74155095D02*
X131652612Y-74107476D01*
X131652612Y-74107476D02*
X131557374Y-74012237D01*
X131557374Y-74012237D02*
X131509755Y-73916999D01*
X131509755Y-73916999D02*
X131462136Y-73726523D01*
X131462136Y-73726523D02*
X131462136Y-73583666D01*
X131462136Y-73583666D02*
X131509755Y-73393190D01*
X131509755Y-73393190D02*
X131557374Y-73297952D01*
X131557374Y-73297952D02*
X131652612Y-73202714D01*
X131652612Y-73202714D02*
X131795469Y-73155095D01*
X131795469Y-73155095D02*
X131890707Y-73155095D01*
X131890707Y-73155095D02*
X132033564Y-73202714D01*
X132033564Y-73202714D02*
X132081183Y-73250333D01*
X132462136Y-73250333D02*
X132509755Y-73202714D01*
X132509755Y-73202714D02*
X132604993Y-73155095D01*
X132604993Y-73155095D02*
X132843088Y-73155095D01*
X132843088Y-73155095D02*
X132938326Y-73202714D01*
X132938326Y-73202714D02*
X132985945Y-73250333D01*
X132985945Y-73250333D02*
X133033564Y-73345571D01*
X133033564Y-73345571D02*
X133033564Y-73440809D01*
X133033564Y-73440809D02*
X132985945Y-73583666D01*
X132985945Y-73583666D02*
X132414517Y-74155095D01*
X132414517Y-74155095D02*
X133033564Y-74155095D01*
X143835293Y-106907200D02*
X143978150Y-106954819D01*
X143978150Y-106954819D02*
X144216245Y-106954819D01*
X144216245Y-106954819D02*
X144311483Y-106907200D01*
X144311483Y-106907200D02*
X144359102Y-106859580D01*
X144359102Y-106859580D02*
X144406721Y-106764342D01*
X144406721Y-106764342D02*
X144406721Y-106669104D01*
X144406721Y-106669104D02*
X144359102Y-106573866D01*
X144359102Y-106573866D02*
X144311483Y-106526247D01*
X144311483Y-106526247D02*
X144216245Y-106478628D01*
X144216245Y-106478628D02*
X144025769Y-106431009D01*
X144025769Y-106431009D02*
X143930531Y-106383390D01*
X143930531Y-106383390D02*
X143882912Y-106335771D01*
X143882912Y-106335771D02*
X143835293Y-106240533D01*
X143835293Y-106240533D02*
X143835293Y-106145295D01*
X143835293Y-106145295D02*
X143882912Y-106050057D01*
X143882912Y-106050057D02*
X143930531Y-106002438D01*
X143930531Y-106002438D02*
X144025769Y-105954819D01*
X144025769Y-105954819D02*
X144263864Y-105954819D01*
X144263864Y-105954819D02*
X144406721Y-106002438D01*
X144740055Y-105954819D02*
X144978150Y-106954819D01*
X144978150Y-106954819D02*
X145168626Y-106240533D01*
X145168626Y-106240533D02*
X145359102Y-106954819D01*
X145359102Y-106954819D02*
X145597198Y-105954819D01*
X145930531Y-106050057D02*
X145978150Y-106002438D01*
X145978150Y-106002438D02*
X146073388Y-105954819D01*
X146073388Y-105954819D02*
X146311483Y-105954819D01*
X146311483Y-105954819D02*
X146406721Y-106002438D01*
X146406721Y-106002438D02*
X146454340Y-106050057D01*
X146454340Y-106050057D02*
X146501959Y-106145295D01*
X146501959Y-106145295D02*
X146501959Y-106240533D01*
X146501959Y-106240533D02*
X146454340Y-106383390D01*
X146454340Y-106383390D02*
X145882912Y-106954819D01*
X145882912Y-106954819D02*
X146501959Y-106954819D01*
X113907242Y-91799752D02*
X113573909Y-91323561D01*
X113335814Y-91799752D02*
X113335814Y-90799752D01*
X113335814Y-90799752D02*
X113716766Y-90799752D01*
X113716766Y-90799752D02*
X113812004Y-90847371D01*
X113812004Y-90847371D02*
X113859623Y-90894990D01*
X113859623Y-90894990D02*
X113907242Y-90990228D01*
X113907242Y-90990228D02*
X113907242Y-91133085D01*
X113907242Y-91133085D02*
X113859623Y-91228323D01*
X113859623Y-91228323D02*
X113812004Y-91275942D01*
X113812004Y-91275942D02*
X113716766Y-91323561D01*
X113716766Y-91323561D02*
X113335814Y-91323561D01*
X114764385Y-90799752D02*
X114573909Y-90799752D01*
X114573909Y-90799752D02*
X114478671Y-90847371D01*
X114478671Y-90847371D02*
X114431052Y-90894990D01*
X114431052Y-90894990D02*
X114335814Y-91037847D01*
X114335814Y-91037847D02*
X114288195Y-91228323D01*
X114288195Y-91228323D02*
X114288195Y-91609275D01*
X114288195Y-91609275D02*
X114335814Y-91704513D01*
X114335814Y-91704513D02*
X114383433Y-91752133D01*
X114383433Y-91752133D02*
X114478671Y-91799752D01*
X114478671Y-91799752D02*
X114669147Y-91799752D01*
X114669147Y-91799752D02*
X114764385Y-91752133D01*
X114764385Y-91752133D02*
X114812004Y-91704513D01*
X114812004Y-91704513D02*
X114859623Y-91609275D01*
X114859623Y-91609275D02*
X114859623Y-91371180D01*
X114859623Y-91371180D02*
X114812004Y-91275942D01*
X114812004Y-91275942D02*
X114764385Y-91228323D01*
X114764385Y-91228323D02*
X114669147Y-91180704D01*
X114669147Y-91180704D02*
X114478671Y-91180704D01*
X114478671Y-91180704D02*
X114383433Y-91228323D01*
X114383433Y-91228323D02*
X114335814Y-91275942D01*
X114335814Y-91275942D02*
X114288195Y-91371180D01*
D11*
%TO.C,D2*%
X111470000Y-106530000D02*
X111470000Y-106660000D01*
X111470000Y-109470000D02*
X111470000Y-109340000D01*
X115890000Y-109470000D02*
X115890000Y-106530000D01*
X116010000Y-109470000D02*
X116010000Y-106530000D01*
X116130000Y-109470000D02*
X116130000Y-106530000D01*
X116910000Y-106530000D02*
X111470000Y-106530000D01*
X116910000Y-106660000D02*
X116910000Y-106530000D01*
X116910000Y-109340000D02*
X116910000Y-109470000D01*
X116910000Y-109470000D02*
X111470000Y-109470000D01*
%TO.C,D3*%
X106805000Y-78455000D02*
X106805000Y-78920000D01*
X106805000Y-81080000D02*
X106805000Y-81545000D01*
X106805000Y-78455170D02*
G75*
G02*
X112152815Y-78919173I2560000J-1544830D01*
G01*
X107110316Y-78920000D02*
G75*
G02*
X111619479Y-78919571I2254684J-1080000D01*
G01*
X111619479Y-81080429D02*
G75*
G02*
X107110316Y-81080000I-2254479J1080429D01*
G01*
X112152815Y-81080827D02*
G75*
G02*
X106805000Y-81544830I-2787815J1080827D01*
G01*
%TO.C,R16*%
X131765033Y-93535273D02*
X131765033Y-100075273D01*
X131765033Y-100075273D02*
X134505033Y-100075273D01*
X133135033Y-92765273D02*
X133135033Y-93535273D01*
X133135033Y-100845273D02*
X133135033Y-100075273D01*
X134505033Y-93535273D02*
X131765033Y-93535273D01*
X134505033Y-100075273D02*
X134505033Y-93535273D01*
%TO.C,R13*%
X139960000Y-101000000D02*
X140730000Y-101000000D01*
X140730000Y-99630000D02*
X140730000Y-102370000D01*
X140730000Y-102370000D02*
X147270000Y-102370000D01*
X147270000Y-99630000D02*
X140730000Y-99630000D01*
X147270000Y-102370000D02*
X147270000Y-99630000D01*
X148040000Y-101000000D02*
X147270000Y-101000000D01*
%TO.C,C9*%
X116521261Y-76762489D02*
X116521261Y-74022489D01*
X123761261Y-74022489D02*
X116521261Y-74022489D01*
X123761261Y-76762489D02*
X116521261Y-76762489D01*
X123761261Y-76762489D02*
X123761261Y-74022489D01*
%TO.C,R4*%
X138224369Y-51938278D02*
X138994369Y-51938278D01*
X138994369Y-50568278D02*
X138994369Y-53308278D01*
X138994369Y-53308278D02*
X145534369Y-53308278D01*
X145534369Y-50568278D02*
X138994369Y-50568278D01*
X145534369Y-53308278D02*
X145534369Y-50568278D01*
X146304369Y-51938278D02*
X145534369Y-51938278D01*
%TO.C,C7*%
X141380000Y-87370000D02*
X141380000Y-84630000D01*
X148620000Y-84630000D02*
X141380000Y-84630000D01*
X148620000Y-87370000D02*
X141380000Y-87370000D01*
X148620000Y-87370000D02*
X148620000Y-84630000D01*
%TO.C,C10*%
X140653178Y-90345983D02*
X140653178Y-93085983D01*
X140653178Y-90345983D02*
X147893178Y-90345983D01*
X140653178Y-93085983D02*
X147893178Y-93085983D01*
X147893178Y-90345983D02*
X147893178Y-93085983D01*
%TO.C,R18*%
X151122686Y-100147906D02*
X151122686Y-106687906D01*
X151122686Y-106687906D02*
X153862686Y-106687906D01*
X152492686Y-99377906D02*
X152492686Y-100147906D01*
X152492686Y-107457906D02*
X152492686Y-106687906D01*
X153862686Y-100147906D02*
X151122686Y-100147906D01*
X153862686Y-106687906D02*
X153862686Y-100147906D01*
%TO.C,R19*%
X120960000Y-92000000D02*
X121730000Y-92000000D01*
X121730000Y-90630000D02*
X121730000Y-93370000D01*
X121730000Y-93370000D02*
X128270000Y-93370000D01*
X128270000Y-90630000D02*
X121730000Y-90630000D01*
X128270000Y-93370000D02*
X128270000Y-90630000D01*
X129040000Y-92000000D02*
X128270000Y-92000000D01*
%TO.C,D1*%
X125290000Y-106740000D02*
X125290000Y-106920000D01*
X125290000Y-106740000D02*
X128710000Y-106740000D01*
X125290000Y-109080000D02*
X125290000Y-109260000D01*
X125290000Y-109260000D02*
X128710000Y-109260000D01*
X125410000Y-106740000D02*
X125410000Y-106920000D01*
X125410000Y-109080000D02*
X125410000Y-109260000D01*
X125530000Y-106740000D02*
X125530000Y-106920000D01*
X125530000Y-109080000D02*
X125530000Y-109260000D01*
X128710000Y-106740000D02*
X128710000Y-106905000D01*
X128710000Y-109095000D02*
X128710000Y-109260000D01*
%TO.C,R9*%
X107960000Y-95000000D02*
X108730000Y-95000000D01*
X108730000Y-93630000D02*
X108730000Y-96370000D01*
X108730000Y-96370000D02*
X115270000Y-96370000D01*
X115270000Y-93630000D02*
X108730000Y-93630000D01*
X115270000Y-96370000D02*
X115270000Y-93630000D01*
X116040000Y-95000000D02*
X115270000Y-95000000D01*
%TO.C,C3*%
X131939677Y-78343138D02*
X131939677Y-75603138D01*
X139179677Y-75603138D02*
X131939677Y-75603138D01*
X139179677Y-78343138D02*
X131939677Y-78343138D01*
X139179677Y-78343138D02*
X139179677Y-75603138D01*
%TO.C,D4*%
X146925000Y-78920000D02*
X146925000Y-78455000D01*
X146925000Y-81545000D02*
X146925000Y-81080000D01*
X141577185Y-78919173D02*
G75*
G02*
X146925000Y-78455170I2787815J-1080827D01*
G01*
X142110521Y-78919571D02*
G75*
G02*
X146619684Y-78920000I2254479J-1080429D01*
G01*
X146619684Y-81080000D02*
G75*
G02*
X142110521Y-81080429I-2254684J1080000D01*
G01*
X146925000Y-81544830D02*
G75*
G02*
X141577185Y-81080827I-2560000J1544830D01*
G01*
%TO.C,R22*%
X151091572Y-84766935D02*
X151091572Y-91306935D01*
X151091572Y-91306935D02*
X153831572Y-91306935D01*
X152461572Y-83996935D02*
X152461572Y-84766935D01*
X152461572Y-92076935D02*
X152461572Y-91306935D01*
X153831572Y-84766935D02*
X151091572Y-84766935D01*
X153831572Y-91306935D02*
X153831572Y-84766935D01*
%TO.C,R7*%
X102880000Y-55000000D02*
X103650000Y-55000000D01*
X103650000Y-53630000D02*
X103650000Y-56370000D01*
X103650000Y-56370000D02*
X110190000Y-56370000D01*
X110190000Y-53630000D02*
X103650000Y-53630000D01*
X110190000Y-56370000D02*
X110190000Y-53630000D01*
X110960000Y-55000000D02*
X110190000Y-55000000D01*
%TO.C,R14*%
X139927232Y-94788600D02*
X140697232Y-94788600D01*
X140697232Y-93418600D02*
X140697232Y-96158600D01*
X140697232Y-96158600D02*
X147237232Y-96158600D01*
X147237232Y-93418600D02*
X140697232Y-93418600D01*
X147237232Y-96158600D02*
X147237232Y-93418600D01*
X148007232Y-94788600D02*
X147237232Y-94788600D01*
%TO.C,RV2*%
X141979000Y-59930000D02*
X152020000Y-59930000D01*
X141979000Y-63866000D02*
X141979000Y-59930000D01*
X141979000Y-72170000D02*
X141979000Y-68233000D01*
X141979000Y-72170000D02*
X143300000Y-72170000D01*
X145750000Y-72170000D02*
X146130000Y-72170000D01*
X147871000Y-72170000D02*
X148630000Y-72170000D01*
X150370000Y-72170000D02*
X152020000Y-72170000D01*
X152020000Y-63866000D02*
X152020000Y-59930000D01*
X152020000Y-72170000D02*
X152020000Y-68233000D01*
%TO.C,R20*%
X120960000Y-95000000D02*
X121730000Y-95000000D01*
X121730000Y-93630000D02*
X121730000Y-96370000D01*
X121730000Y-96370000D02*
X128270000Y-96370000D01*
X128270000Y-93630000D02*
X121730000Y-93630000D01*
X128270000Y-96370000D02*
X128270000Y-93630000D01*
X129040000Y-95000000D02*
X128270000Y-95000000D01*
%TO.C,R3*%
X138304369Y-54938278D02*
X139074369Y-54938278D01*
X139074369Y-53568278D02*
X139074369Y-56308278D01*
X139074369Y-56308278D02*
X145614369Y-56308278D01*
X145614369Y-53568278D02*
X139074369Y-53568278D01*
X145614369Y-56308278D02*
X145614369Y-53568278D01*
X146384369Y-54938278D02*
X145614369Y-54938278D01*
%TO.C,C11*%
X116630000Y-51880000D02*
X116630000Y-59120000D01*
X119370000Y-51880000D02*
X116630000Y-51880000D01*
X119370000Y-51880000D02*
X119370000Y-59120000D01*
X119370000Y-59120000D02*
X116630000Y-59120000D01*
%TO.C,R8*%
X102880000Y-52000000D02*
X103650000Y-52000000D01*
X103650000Y-50630000D02*
X103650000Y-53370000D01*
X103650000Y-53370000D02*
X110190000Y-53370000D01*
X110190000Y-50630000D02*
X103650000Y-50630000D01*
X110190000Y-53370000D02*
X110190000Y-50630000D01*
X110960000Y-52000000D02*
X110190000Y-52000000D01*
%TO.C,RV1*%
X101979000Y-59930000D02*
X112020000Y-59930000D01*
X101979000Y-63866000D02*
X101979000Y-59930000D01*
X101979000Y-72170000D02*
X101979000Y-68233000D01*
X101979000Y-72170000D02*
X103300000Y-72170000D01*
X105750000Y-72170000D02*
X106130000Y-72170000D01*
X107871000Y-72170000D02*
X108630000Y-72170000D01*
X110370000Y-72170000D02*
X112020000Y-72170000D01*
X112020000Y-63866000D02*
X112020000Y-59930000D01*
X112020000Y-72170000D02*
X112020000Y-68233000D01*
%TO.C,R12*%
X139960000Y-97914528D02*
X140730000Y-97914528D01*
X140730000Y-96544528D02*
X140730000Y-99284528D01*
X140730000Y-99284528D02*
X147270000Y-99284528D01*
X147270000Y-96544528D02*
X140730000Y-96544528D01*
X147270000Y-99284528D02*
X147270000Y-96544528D01*
X148040000Y-97914528D02*
X147270000Y-97914528D01*
%TO.C,R10*%
X107960000Y-98000000D02*
X108730000Y-98000000D01*
X108730000Y-96630000D02*
X108730000Y-99370000D01*
X108730000Y-99370000D02*
X115270000Y-99370000D01*
X115270000Y-96630000D02*
X108730000Y-96630000D01*
X115270000Y-99370000D02*
X115270000Y-96630000D01*
X116040000Y-98000000D02*
X115270000Y-98000000D01*
%TO.C,R1*%
X120960000Y-98000000D02*
X121730000Y-98000000D01*
X121730000Y-96630000D02*
X121730000Y-99370000D01*
X121730000Y-99370000D02*
X128270000Y-99370000D01*
X128270000Y-96630000D02*
X121730000Y-96630000D01*
X128270000Y-99370000D02*
X128270000Y-96630000D01*
X129040000Y-98000000D02*
X128270000Y-98000000D01*
%TO.C,C6*%
X131880000Y-87370000D02*
X131880000Y-84630000D01*
X139120000Y-84630000D02*
X131880000Y-84630000D01*
X139120000Y-87370000D02*
X131880000Y-87370000D01*
X139120000Y-87370000D02*
X139120000Y-84630000D01*
%TO.C,C4*%
X131939677Y-81343138D02*
X131939677Y-78603138D01*
X139179677Y-78603138D02*
X131939677Y-78603138D01*
X139179677Y-81343138D02*
X131939677Y-81343138D01*
X139179677Y-81343138D02*
X139179677Y-78603138D01*
%TO.C,SW3*%
X120700000Y-57800000D02*
X123300000Y-57800000D01*
X120700000Y-62700000D02*
X120700000Y-57800000D01*
X120700000Y-66400000D02*
X120700000Y-71200000D01*
X120700000Y-71200000D02*
X123200000Y-71200000D01*
X122900000Y-71700000D02*
X123200000Y-72000000D01*
X122900000Y-72300000D02*
X122900000Y-71700000D01*
X123200000Y-72000000D02*
X122900000Y-72300000D01*
X125700000Y-57800000D02*
X128300000Y-57800000D01*
X126500000Y-64500000D02*
X127500000Y-64500000D01*
X127000000Y-65000000D02*
X127000000Y-64000000D01*
X130700000Y-57800000D02*
X133300000Y-57800000D01*
X133300000Y-57800000D02*
X133300000Y-62700000D01*
X133300000Y-66300000D02*
X133300000Y-71200000D01*
X133300000Y-71200000D02*
X130500000Y-71200000D01*
X130000000Y-64500000D02*
G75*
G02*
X124000000Y-64500000I-3000000J0D01*
G01*
X124000000Y-64500000D02*
G75*
G02*
X130000000Y-64500000I3000000J0D01*
G01*
%TO.C,C12*%
X100206468Y-76182941D02*
X102946468Y-76182941D01*
X100206468Y-83422941D02*
X100206468Y-76182941D01*
X100206468Y-83422941D02*
X102946468Y-83422941D01*
X102946468Y-83422941D02*
X102946468Y-76182941D01*
%TO.C,C8*%
X113630000Y-51880000D02*
X116370000Y-51880000D01*
X113630000Y-59120000D02*
X113630000Y-51880000D01*
X113630000Y-59120000D02*
X116370000Y-59120000D01*
X116370000Y-59120000D02*
X116370000Y-51880000D01*
%TO.C,R2*%
X138304369Y-57938278D02*
X139074369Y-57938278D01*
X139074369Y-56568278D02*
X139074369Y-59308278D01*
X139074369Y-59308278D02*
X145614369Y-59308278D01*
X145614369Y-56568278D02*
X139074369Y-56568278D01*
X145614369Y-59308278D02*
X145614369Y-56568278D01*
X146384369Y-57938278D02*
X145614369Y-57938278D01*
%TO.C,R11*%
X107960000Y-101000000D02*
X108730000Y-101000000D01*
X108730000Y-99630000D02*
X108730000Y-102370000D01*
X108730000Y-102370000D02*
X115270000Y-102370000D01*
X115270000Y-99630000D02*
X108730000Y-99630000D01*
X115270000Y-102370000D02*
X115270000Y-99630000D01*
X116040000Y-101000000D02*
X115270000Y-101000000D01*
%TO.C,R5*%
X102714916Y-85877458D02*
X103484916Y-85877458D01*
X103484916Y-84507458D02*
X103484916Y-87247458D01*
X103484916Y-87247458D02*
X110024916Y-87247458D01*
X110024916Y-84507458D02*
X103484916Y-84507458D01*
X110024916Y-87247458D02*
X110024916Y-84507458D01*
X110794916Y-85877458D02*
X110024916Y-85877458D01*
%TO.C,R17*%
X101498752Y-93285009D02*
X101498752Y-99825009D01*
X101498752Y-99825009D02*
X104238752Y-99825009D01*
X102868752Y-92515009D02*
X102868752Y-93285009D01*
X102868752Y-100595009D02*
X102868752Y-99825009D01*
X104238752Y-93285009D02*
X101498752Y-93285009D01*
X104238752Y-99825009D02*
X104238752Y-93285009D01*
%TO.C,R15*%
X116208672Y-64393604D02*
X116208672Y-70933604D01*
X116208672Y-70933604D02*
X118948672Y-70933604D01*
X117578672Y-63623604D02*
X117578672Y-64393604D01*
X117578672Y-71703604D02*
X117578672Y-70933604D01*
X118948672Y-64393604D02*
X116208672Y-64393604D01*
X118948672Y-70933604D02*
X118948672Y-64393604D01*
%TO.C,R21*%
X102880000Y-58000000D02*
X103650000Y-58000000D01*
X103650000Y-56630000D02*
X103650000Y-59370000D01*
X103650000Y-59370000D02*
X110190000Y-59370000D01*
X110190000Y-56630000D02*
X103650000Y-56630000D01*
X110190000Y-59370000D02*
X110190000Y-56630000D01*
X110960000Y-58000000D02*
X110190000Y-58000000D01*
%TO.C,C5*%
X131939677Y-84343138D02*
X131939677Y-81603138D01*
X139179677Y-81603138D02*
X131939677Y-81603138D01*
X139179677Y-84343138D02*
X131939677Y-84343138D01*
X139179677Y-84343138D02*
X139179677Y-81603138D01*
%TO.C,U1*%
X113436294Y-77193539D02*
X113436294Y-87473539D01*
X113436294Y-87473539D02*
X131456294Y-87473539D01*
X113496294Y-79683539D02*
X113496294Y-84983539D01*
X113496294Y-84983539D02*
X131396294Y-84983539D01*
X131396294Y-79683539D02*
X113496294Y-79683539D01*
X131396294Y-81333539D02*
X131396294Y-79683539D01*
X131396294Y-84983539D02*
X131396294Y-83333539D01*
X131456294Y-77193539D02*
X113436294Y-77193539D01*
X131456294Y-87473539D02*
X131456294Y-77193539D01*
X131396294Y-83333539D02*
G75*
G02*
X131396294Y-81333539I0J1000000D01*
G01*
%TO.C,C2*%
X124042851Y-76798426D02*
X124042851Y-74058426D01*
X131282851Y-74058426D02*
X124042851Y-74058426D01*
X131282851Y-76798426D02*
X124042851Y-76798426D01*
X131282851Y-76798426D02*
X131282851Y-74058426D01*
%TO.C,R6*%
X107832500Y-91889742D02*
X108602500Y-91889742D01*
X108602500Y-90519742D02*
X108602500Y-93259742D01*
X108602500Y-93259742D02*
X115142500Y-93259742D01*
X115142500Y-90519742D02*
X108602500Y-90519742D01*
X115142500Y-93259742D02*
X115142500Y-90519742D01*
X115912500Y-91889742D02*
X115142500Y-91889742D01*
%TD*%
M02*
