%TF.GenerationSoftware,KiCad,Pcbnew,8.0.2-8.0.2-0~ubuntu22.04.1*%
%TF.CreationDate,2024-05-27T12:02:15+10:00*%
%TF.ProjectId,podal_1590b,706f6461-6c5f-4313-9539-30622e6b6963,0.3*%
%TF.SameCoordinates,Original*%
%TF.FileFunction,Copper,L2,Bot*%
%TF.FilePolarity,Positive*%
%FSLAX46Y46*%
G04 Gerber Fmt 4.6, Leading zero omitted, Abs format (unit mm)*
G04 Created by KiCad (PCBNEW 8.0.2-8.0.2-0~ubuntu22.04.1) date 2024-05-27 12:02:15*
%MOMM*%
%LPD*%
G01*
G04 APERTURE LIST*
G04 Aperture macros list*
%AMRoundRect*
0 Rectangle with rounded corners*
0 $1 Rounding radius*
0 $2 $3 $4 $5 $6 $7 $8 $9 X,Y pos of 4 corners*
0 Add a 4 corners polygon primitive as box body*
4,1,4,$2,$3,$4,$5,$6,$7,$8,$9,$2,$3,0*
0 Add four circle primitives for the rounded corners*
1,1,$1+$1,$2,$3*
1,1,$1+$1,$4,$5*
1,1,$1+$1,$6,$7*
1,1,$1+$1,$8,$9*
0 Add four rect primitives between the rounded corners*
20,1,$1+$1,$2,$3,$4,$5,0*
20,1,$1+$1,$4,$5,$6,$7,0*
20,1,$1+$1,$6,$7,$8,$9,0*
20,1,$1+$1,$8,$9,$2,$3,0*%
G04 Aperture macros list end*
%TA.AperFunction,ComponentPad*%
%ADD10RoundRect,0.250000X-0.750000X-0.750000X0.750000X-0.750000X0.750000X0.750000X-0.750000X0.750000X0*%
%TD*%
%TA.AperFunction,ComponentPad*%
%ADD11R,2.200000X2.200000*%
%TD*%
%TA.AperFunction,ComponentPad*%
%ADD12O,2.200000X2.200000*%
%TD*%
%TA.AperFunction,ComponentPad*%
%ADD13R,1.070000X1.800000*%
%TD*%
%TA.AperFunction,ComponentPad*%
%ADD14O,1.070000X1.800000*%
%TD*%
%TA.AperFunction,ComponentPad*%
%ADD15C,1.600000*%
%TD*%
%TA.AperFunction,ComponentPad*%
%ADD16O,1.600000X1.600000*%
%TD*%
%TA.AperFunction,ComponentPad*%
%ADD17RoundRect,0.250000X0.750000X0.750000X-0.750000X0.750000X-0.750000X-0.750000X0.750000X-0.750000X0*%
%TD*%
%TA.AperFunction,ComponentPad*%
%ADD18R,1.800000X1.800000*%
%TD*%
%TA.AperFunction,ComponentPad*%
%ADD19C,1.800000*%
%TD*%
%TA.AperFunction,ComponentPad*%
%ADD20RoundRect,0.750000X0.750000X-1.250000X0.750000X1.250000X-0.750000X1.250000X-0.750000X-1.250000X0*%
%TD*%
%TA.AperFunction,ComponentPad*%
%ADD21RoundRect,0.250000X0.600000X0.600000X-0.600000X0.600000X-0.600000X-0.600000X0.600000X-0.600000X0*%
%TD*%
%TA.AperFunction,ComponentPad*%
%ADD22C,1.700000*%
%TD*%
%TA.AperFunction,ComponentPad*%
%ADD23R,2.000000X2.000000*%
%TD*%
%TA.AperFunction,ComponentPad*%
%ADD24C,2.000000*%
%TD*%
%TA.AperFunction,ComponentPad*%
%ADD25R,2.500000X3.000000*%
%TD*%
%TA.AperFunction,ComponentPad*%
%ADD26RoundRect,0.250000X-0.675000X-0.675000X0.675000X-0.675000X0.675000X0.675000X-0.675000X0.675000X0*%
%TD*%
%TA.AperFunction,ComponentPad*%
%ADD27C,1.850000*%
%TD*%
%TA.AperFunction,ComponentPad*%
%ADD28R,1.600000X1.600000*%
%TD*%
%TA.AperFunction,ComponentPad*%
%ADD29R,1.700000X1.700000*%
%TD*%
%TA.AperFunction,ViaPad*%
%ADD30C,0.800000*%
%TD*%
%TA.AperFunction,Conductor*%
%ADD31C,0.250000*%
%TD*%
%TA.AperFunction,Conductor*%
%ADD32C,0.300000*%
%TD*%
G04 APERTURE END LIST*
D10*
%TO.P,J7,1*%
%TO.N,N/C*%
X1775000Y-13675000D03*
%TD*%
%TO.P,J6,1,Pin_1*%
%TO.N,Net-(J6-Pin_1)*%
X1775000Y-9625000D03*
%TD*%
%TO.P,J2,1,Pin_1*%
%TO.N,Net-(J2-Pin_1)*%
X1775000Y-5575000D03*
%TD*%
%TO.P,J1,1*%
%TO.N,N/C*%
X1775000Y-1525000D03*
%TD*%
D11*
%TO.P,D2,1,K*%
%TO.N,/VCC*%
X118000000Y-108000000D03*
D12*
%TO.P,D2,2,A*%
%TO.N,Net-(BT1-+)*%
X110380000Y-108000000D03*
%TD*%
D13*
%TO.P,D3,1,RK*%
%TO.N,Net-(D3-RK)*%
X107460000Y-80000000D03*
D14*
%TO.P,D3,2,A*%
%TO.N,/3v3*%
X108730000Y-80000000D03*
%TO.P,D3,3,GK*%
%TO.N,Net-(D3-GK)*%
X110000000Y-80000000D03*
%TO.P,D3,4,BK*%
%TO.N,Net-(D3-BK)*%
X111270000Y-80000000D03*
%TD*%
D15*
%TO.P,R16,1*%
%TO.N,Net-(U1B--)*%
X133135033Y-101885273D03*
D16*
%TO.P,R16,2*%
%TO.N,Net-(C10-Pad1)*%
X133135033Y-91725273D03*
%TD*%
D15*
%TO.P,R13,1*%
%TO.N,/LED_2_G*%
X138920000Y-101000000D03*
D16*
%TO.P,R13,2*%
%TO.N,Net-(D4-GK)*%
X149080000Y-101000000D03*
%TD*%
D15*
%TO.P,C9,1*%
%TO.N,Net-(C9-Pad1)*%
X122641261Y-75392489D03*
%TO.P,C9,2*%
%TO.N,Net-(C9-Pad2)*%
X117641261Y-75392489D03*
%TD*%
%TO.P,R4,1*%
%TO.N,Net-(U1A-+)*%
X137184369Y-51938278D03*
D16*
%TO.P,R4,2*%
%TO.N,GND*%
X147344369Y-51938278D03*
%TD*%
D17*
%TO.P,J8,1*%
%TO.N,N/C*%
X121343000Y-51832521D03*
%TD*%
D15*
%TO.P,C7,1*%
%TO.N,Net-(C12-Pad2)*%
X147500000Y-86000000D03*
%TO.P,C7,2*%
%TO.N,Net-(U1C-+)*%
X142500000Y-86000000D03*
%TD*%
%TO.P,C10,1*%
%TO.N,Net-(C10-Pad1)*%
X141773178Y-91715983D03*
%TO.P,C10,2*%
%TO.N,Net-(J9-Pin_1)*%
X146773178Y-91715983D03*
%TD*%
%TO.P,R18,1*%
%TO.N,Net-(J9-Pin_1)*%
X152492686Y-98337906D03*
D16*
%TO.P,R18,2*%
%TO.N,GND*%
X152492686Y-108497906D03*
%TD*%
D15*
%TO.P,R19,1*%
%TO.N,+5V*%
X130080000Y-92000000D03*
D16*
%TO.P,R19,2*%
%TO.N,Net-(U1D-+)*%
X119920000Y-92000000D03*
%TD*%
D18*
%TO.P,D1,1,K*%
%TO.N,Net-(D1-K)*%
X125730000Y-108000000D03*
D19*
%TO.P,D1,2,A*%
%TO.N,Net-(D1-A)*%
X128270000Y-108000000D03*
%TD*%
D15*
%TO.P,R9,1*%
%TO.N,/LED_1_R*%
X117080000Y-95000000D03*
D16*
%TO.P,R9,2*%
%TO.N,Net-(D3-RK)*%
X106920000Y-95000000D03*
%TD*%
D15*
%TO.P,C3,1*%
%TO.N,GND*%
X138059677Y-76973138D03*
%TO.P,C3,2*%
%TO.N,/VCC*%
X133059677Y-76973138D03*
%TD*%
D10*
%TO.P,J9,1,Pin_1*%
%TO.N,Net-(J9-Pin_1)*%
X152544920Y-95704947D03*
%TD*%
%TO.P,J5,1,Pin_1*%
%TO.N,GND*%
X139834357Y-108332163D03*
%TD*%
D13*
%TO.P,D4,1,RK*%
%TO.N,Net-(D4-RK)*%
X146270000Y-80000000D03*
D14*
%TO.P,D4,2,A*%
%TO.N,/3v3*%
X145000000Y-80000000D03*
%TO.P,D4,3,GK*%
%TO.N,Net-(D4-GK)*%
X143730000Y-80000000D03*
%TO.P,D4,4,BK*%
%TO.N,Net-(D4-BK)*%
X142460000Y-80000000D03*
%TD*%
D15*
%TO.P,R22,1*%
%TO.N,/Right out*%
X152461572Y-93116935D03*
D16*
%TO.P,R22,2*%
%TO.N,Net-(C12-Pad2)*%
X152461572Y-82956935D03*
%TD*%
D15*
%TO.P,R7,1*%
%TO.N,+5V*%
X101840000Y-55000000D03*
D16*
%TO.P,R7,2*%
%TO.N,Net-(U1B-+)*%
X112000000Y-55000000D03*
%TD*%
D15*
%TO.P,R14,1*%
%TO.N,/LED_2_B*%
X138887232Y-94788600D03*
D16*
%TO.P,R14,2*%
%TO.N,Net-(D4-BK)*%
X149047232Y-94788600D03*
%TD*%
D18*
%TO.P,RV2,1,1*%
%TO.N,GND*%
X144500000Y-73050000D03*
D19*
%TO.P,RV2,2,2*%
%TO.N,Net-(A1-ADC_0)*%
X147000000Y-73050000D03*
%TO.P,RV2,3,3*%
%TO.N,/3v3*%
X149500000Y-73050000D03*
D20*
%TO.P,RV2,MP*%
%TO.N,N/C*%
X142600000Y-66050000D03*
X151400000Y-66050000D03*
%TD*%
D15*
%TO.P,R20,1*%
%TO.N,Net-(U1D-+)*%
X119920000Y-95000000D03*
D16*
%TO.P,R20,2*%
%TO.N,GND*%
X130080000Y-95000000D03*
%TD*%
D15*
%TO.P,R3,1*%
%TO.N,+5V*%
X137264369Y-54938278D03*
D16*
%TO.P,R3,2*%
%TO.N,Net-(U1A-+)*%
X147424369Y-54938278D03*
%TD*%
D15*
%TO.P,C11,1*%
%TO.N,GND*%
X118000000Y-53000000D03*
%TO.P,C11,2*%
%TO.N,Net-(C11-Pad2)*%
X118000000Y-58000000D03*
%TD*%
%TO.P,R8,1*%
%TO.N,Net-(U1B-+)*%
X112000000Y-52000000D03*
D16*
%TO.P,R8,2*%
%TO.N,GND*%
X101840000Y-52000000D03*
%TD*%
D18*
%TO.P,RV1,1,1*%
%TO.N,GND*%
X104500000Y-73050000D03*
D19*
%TO.P,RV1,2,2*%
%TO.N,Net-(A1-ADC_6)*%
X107000000Y-73050000D03*
%TO.P,RV1,3,3*%
%TO.N,/3v3*%
X109500000Y-73050000D03*
D20*
%TO.P,RV1,MP*%
%TO.N,N/C*%
X102600000Y-66050000D03*
X111400000Y-66050000D03*
%TD*%
D15*
%TO.P,R12,1*%
%TO.N,/LED_2_R*%
X138920000Y-97914528D03*
D16*
%TO.P,R12,2*%
%TO.N,Net-(D4-RK)*%
X149080000Y-97914528D03*
%TD*%
D15*
%TO.P,R10,1*%
%TO.N,/LED_1_G*%
X117080000Y-98000000D03*
D16*
%TO.P,R10,2*%
%TO.N,Net-(D3-GK)*%
X106920000Y-98000000D03*
%TD*%
D21*
%TO.P,SW1,1,1*%
%TO.N,Net-(A1-SAI2_FS)*%
X106000000Y-108000000D03*
D22*
%TO.P,SW1,2,2*%
%TO.N,GND*%
X102000000Y-108000000D03*
%TD*%
D15*
%TO.P,R1,1*%
%TO.N,Net-(BT1-+)*%
X130080000Y-98000000D03*
D16*
%TO.P,R1,2*%
%TO.N,Net-(D1-A)*%
X119920000Y-98000000D03*
%TD*%
D15*
%TO.P,C6,1*%
%TO.N,GND*%
X138000000Y-86000000D03*
%TO.P,C6,2*%
%TO.N,+5V*%
X133000000Y-86000000D03*
%TD*%
%TO.P,C4,1*%
%TO.N,GND*%
X138059677Y-79973138D03*
%TO.P,C4,2*%
%TO.N,/VCC*%
X133059677Y-79973138D03*
%TD*%
D17*
%TO.P,J4,1,Pin_1*%
%TO.N,Net-(J4-Pin_1)*%
X151000000Y-52000000D03*
%TD*%
D23*
%TO.P,SW3,A,A*%
%TO.N,Net-(A1-SAI2_SD_A)*%
X124500000Y-72000000D03*
D24*
%TO.P,SW3,B,B*%
%TO.N,Net-(A1-SAI2_SD_B)*%
X129500000Y-72000000D03*
%TO.P,SW3,C,C*%
%TO.N,GND*%
X127000000Y-72000000D03*
D25*
%TO.P,SW3,MP*%
%TO.N,N/C*%
X121400000Y-64500000D03*
X132600000Y-64500000D03*
D24*
%TO.P,SW3,S1,S1*%
%TO.N,GND*%
X124500000Y-57500000D03*
%TO.P,SW3,S2,S2*%
%TO.N,/ENC_CLICK*%
X129500000Y-57500000D03*
%TD*%
D15*
%TO.P,C12,1*%
%TO.N,GND*%
X101576468Y-82302941D03*
%TO.P,C12,2*%
%TO.N,Net-(C12-Pad2)*%
X101576468Y-77302941D03*
%TD*%
%TO.P,C8,1*%
%TO.N,Net-(C11-Pad2)*%
X115000000Y-58000000D03*
%TO.P,C8,2*%
%TO.N,Net-(U1B-+)*%
X115000000Y-53000000D03*
%TD*%
%TO.P,R2,1*%
%TO.N,Net-(J4-Pin_1)*%
X147424369Y-57938278D03*
D16*
%TO.P,R2,2*%
%TO.N,GND*%
X137264369Y-57938278D03*
%TD*%
D15*
%TO.P,R11,1*%
%TO.N,/LED_1_B*%
X117080000Y-101000000D03*
D16*
%TO.P,R11,2*%
%TO.N,Net-(D3-BK)*%
X106920000Y-101000000D03*
%TD*%
D10*
%TO.P,J3,1,Pin_1*%
%TO.N,Net-(D1-K)*%
X121717602Y-108046503D03*
%TD*%
D15*
%TO.P,R5,1*%
%TO.N,+5V*%
X111834916Y-85877458D03*
D16*
%TO.P,R5,2*%
%TO.N,Net-(U1C-+)*%
X101674916Y-85877458D03*
%TD*%
D26*
%TO.P,BT1,1,+*%
%TO.N,Net-(BT1-+)*%
X132234097Y-108341084D03*
D27*
%TO.P,BT1,2,-*%
%TO.N,GND*%
X136434097Y-108341084D03*
%TD*%
D15*
%TO.P,R17,1*%
%TO.N,Net-(C9-Pad2)*%
X102868752Y-91475009D03*
D16*
%TO.P,R17,2*%
%TO.N,GND*%
X102868752Y-101635009D03*
%TD*%
D15*
%TO.P,R15,1*%
%TO.N,Net-(U1C--)*%
X117578672Y-72743604D03*
D16*
%TO.P,R15,2*%
%TO.N,Net-(C9-Pad1)*%
X117578672Y-62583604D03*
%TD*%
D15*
%TO.P,R21,1*%
%TO.N,/Left out*%
X101840000Y-58000000D03*
D16*
%TO.P,R21,2*%
%TO.N,Net-(C11-Pad2)*%
X112000000Y-58000000D03*
%TD*%
D15*
%TO.P,C5,1*%
%TO.N,GND*%
X138059677Y-82973138D03*
%TO.P,C5,2*%
%TO.N,+5V*%
X133059677Y-82973138D03*
%TD*%
D28*
%TO.P,U1,1*%
%TO.N,/Left in*%
X130066294Y-78523539D03*
D16*
%TO.P,U1,2,-*%
X127526294Y-78523539D03*
%TO.P,U1,3,+*%
%TO.N,Net-(U1A-+)*%
X124986294Y-78523539D03*
%TO.P,U1,4,V+*%
%TO.N,+5V*%
X122446294Y-78523539D03*
%TO.P,U1,5,+*%
%TO.N,Net-(U1B-+)*%
X119906294Y-78523539D03*
%TO.P,U1,6,-*%
%TO.N,Net-(U1B--)*%
X117366294Y-78523539D03*
%TO.P,U1,7*%
X114826294Y-78523539D03*
%TO.P,U1,8*%
%TO.N,Net-(U1C--)*%
X114826294Y-86143539D03*
%TO.P,U1,9,-*%
X117366294Y-86143539D03*
%TO.P,U1,10,+*%
%TO.N,Net-(U1C-+)*%
X119906294Y-86143539D03*
%TO.P,U1,11,V-*%
%TO.N,GND*%
X122446294Y-86143539D03*
%TO.P,U1,12,+*%
%TO.N,Net-(U1D-+)*%
X124986294Y-86143539D03*
%TO.P,U1,13,-*%
%TO.N,Net-(U1D--)*%
X127526294Y-86143539D03*
%TO.P,U1,14*%
X130066294Y-86143539D03*
%TD*%
D15*
%TO.P,C2,1*%
%TO.N,Net-(J4-Pin_1)*%
X130162851Y-75428426D03*
%TO.P,C2,2*%
%TO.N,Net-(U1A-+)*%
X125162851Y-75428426D03*
%TD*%
D21*
%TO.P,SW2,1,1*%
%TO.N,Net-(A1-SAI2_SCK)*%
X147168626Y-108207141D03*
D22*
%TO.P,SW2,2,2*%
%TO.N,GND*%
X143168626Y-108207141D03*
%TD*%
D15*
%TO.P,R6,1*%
%TO.N,Net-(U1C-+)*%
X106792500Y-91889742D03*
D16*
%TO.P,R6,2*%
%TO.N,GND*%
X116952500Y-91889742D03*
%TD*%
D15*
%TO.P,C1,1*%
%TO.N,/VCC*%
X151425383Y-55481020D03*
%TO.P,C1,2*%
%TO.N,GND*%
X151425383Y-57481020D03*
%TD*%
D29*
%TO.P,A1,1,USB_ID*%
%TO.N,unconnected-(A1-USB_ID-Pad1)*%
X101520000Y-89000000D03*
D22*
%TO.P,A1,2,SD_DATA_3*%
%TO.N,unconnected-(A1-SD_DATA_3-Pad2)*%
X104060000Y-89000000D03*
%TO.P,A1,3,SD_DATA_2*%
%TO.N,unconnected-(A1-SD_DATA_2-Pad3)*%
X106600000Y-89000000D03*
%TO.P,A1,4,SD_DATA_1*%
%TO.N,unconnected-(A1-SD_DATA_1-Pad4)*%
X109140000Y-89000000D03*
%TO.P,A1,5,SD_DATA_0*%
%TO.N,unconnected-(A1-SD_DATA_0-Pad5)*%
X111680000Y-89000000D03*
%TO.P,A1,6,SD_CMD*%
%TO.N,unconnected-(A1-SD_CMD-Pad6)*%
X114220000Y-89000000D03*
%TO.P,A1,7,SD_CLK*%
%TO.N,unconnected-(A1-SD_CLK-Pad7)*%
X116760000Y-89000000D03*
%TO.P,A1,8,SPI1_CS*%
%TO.N,unconnected-(A1-SPI1_CS-Pad8)*%
X119300000Y-89000000D03*
%TO.P,A1,9,SPI1_SCK*%
%TO.N,unconnected-(A1-SPI1_SCK-Pad9)*%
X121840000Y-89000000D03*
%TO.P,A1,10,SPI1_POCI*%
%TO.N,unconnected-(A1-SPI1_POCI-Pad10)*%
X124380000Y-89000000D03*
%TO.P,A1,11,SPI1_PICO*%
%TO.N,unconnected-(A1-SPI1_PICO-Pad11)*%
X126920000Y-89000000D03*
%TO.P,A1,12,I2C1_SCL*%
%TO.N,unconnected-(A1-I2C1_SCL-Pad12)*%
X129460000Y-89000000D03*
%TO.P,A1,13,I2C1_SDA*%
%TO.N,unconnected-(A1-I2C1_SDA-Pad13)*%
X132000000Y-89000000D03*
%TO.P,A1,14,USART1_TX*%
%TO.N,/ENC_CLICK*%
X134540000Y-89000000D03*
%TO.P,A1,15,USART1_RX*%
%TO.N,unconnected-(A1-USART1_RX-Pad15)*%
X137080000Y-89000000D03*
%TO.P,A1,16,AUDIO_IN_1*%
%TO.N,/Left in*%
X139620000Y-89000000D03*
%TO.P,A1,17,AUDIO_IN_2*%
%TO.N,unconnected-(A1-AUDIO_IN_2-Pad17)*%
X142160000Y-89000000D03*
%TO.P,A1,18,AUDIO_OUT_1*%
%TO.N,/Left out*%
X144700000Y-89000000D03*
%TO.P,A1,19,AUDIO_OUT_2*%
%TO.N,/Right out*%
X147240000Y-89000000D03*
%TO.P,A1,20,AGND*%
%TO.N,GND*%
X149780000Y-89000000D03*
%TO.P,A1,21,3V3_A*%
%TO.N,/3v3*%
X149780000Y-104240000D03*
%TO.P,A1,22,ADC_0*%
%TO.N,Net-(A1-ADC_0)*%
X147240000Y-104240000D03*
%TO.P,A1,23,ADC_1*%
%TO.N,unconnected-(A1-ADC_1-Pad23)*%
X144700000Y-104240000D03*
%TO.P,A1,24,ADC_2*%
%TO.N,/LED_2_R*%
X142160000Y-104240000D03*
%TO.P,A1,25,ADC_3*%
%TO.N,/LED_1_B*%
X139620000Y-104240000D03*
%TO.P,A1,26,ADC_4*%
%TO.N,/LED_1_G*%
X137080000Y-104240000D03*
%TO.P,A1,27,ADC_5*%
%TO.N,/LED_1_R*%
X134540000Y-104240000D03*
%TO.P,A1,28,ADC_6*%
%TO.N,Net-(A1-ADC_6)*%
X132000000Y-104240000D03*
%TO.P,A1,29,DAC_OUT2*%
%TO.N,unconnected-(A1-DAC_OUT2-Pad29)*%
X129460000Y-104240000D03*
%TO.P,A1,30,DAC_OUT1*%
%TO.N,/LED_2_B*%
X126920000Y-104240000D03*
%TO.P,A1,31,SAI2_MCLK*%
%TO.N,/LED_2_G*%
X124380000Y-104240000D03*
%TO.P,A1,32,SAI2_SD_B*%
%TO.N,Net-(A1-SAI2_SD_B)*%
X121840000Y-104240000D03*
%TO.P,A1,33,SAI2_SD_A*%
%TO.N,Net-(A1-SAI2_SD_A)*%
X119300000Y-104240000D03*
%TO.P,A1,34,SAI2_FS*%
%TO.N,Net-(A1-SAI2_FS)*%
X116760000Y-104240000D03*
%TO.P,A1,35,SAI2_SCK*%
%TO.N,Net-(A1-SAI2_SCK)*%
X114220000Y-104240000D03*
%TO.P,A1,36,USB_D_-*%
%TO.N,unconnected-(A1-USB_D_--Pad36)*%
X111680000Y-104240000D03*
%TO.P,A1,37,USB_D_+*%
%TO.N,unconnected-(A1-USB_D_+-Pad37)*%
X109140000Y-104240000D03*
%TO.P,A1,38,3V3_D*%
%TO.N,unconnected-(A1-3V3_D-Pad38)*%
X106600000Y-104240000D03*
%TO.P,A1,39,VIN*%
%TO.N,/VCC*%
X104060000Y-104240000D03*
%TO.P,A1,40,DGND*%
%TO.N,GND*%
X101520000Y-104240000D03*
%TD*%
D18*
%TO.P,U2,1,VO*%
%TO.N,+5V*%
X150720433Y-75940131D03*
D19*
%TO.P,U2,2,GND*%
%TO.N,GND*%
X150720433Y-78480131D03*
%TO.P,U2,3,VI*%
%TO.N,/VCC*%
X150720433Y-81020131D03*
%TD*%
D30*
%TO.N,/ENC_CLICK*%
X135000000Y-86000000D03*
%TO.N,/Left in*%
X135487347Y-84487347D03*
%TO.N,GND*%
X136000000Y-87000000D03*
X131550000Y-90500000D03*
X137000000Y-97500000D03*
X130250000Y-61250000D03*
%TO.N,/LED_1_B*%
X135000000Y-100000000D03*
%TO.N,/LED_1_G*%
X134000000Y-99000000D03*
%TO.N,/LED_1_R*%
X124000000Y-100500000D03*
%TO.N,/LED_2_B*%
X132000000Y-106000000D03*
%TO.N,Net-(A1-SAI2_SD_A)*%
X113000000Y-101000000D03*
%TO.N,Net-(A1-SAI2_SCK)*%
X135000000Y-93000000D03*
%TO.N,/VCC*%
X153000000Y-79500000D03*
%TO.N,+5V*%
X131000000Y-83500000D03*
X139810000Y-84275000D03*
%TO.N,Net-(J4-Pin_1)*%
X147500000Y-63000000D03*
%TO.N,Net-(U1A-+)*%
X135500000Y-59000000D03*
%TO.N,Net-(U1C-+)*%
X133000000Y-87500000D03*
%TO.N,Net-(C12-Pad2)*%
X135000000Y-82000000D03*
%TD*%
D31*
%TO.N,/ENC_CLICK*%
X136355000Y-84645000D02*
X136355000Y-64355000D01*
X135000000Y-86000000D02*
X136355000Y-84645000D01*
X136355000Y-64355000D02*
X129500000Y-57500000D01*
%TO.N,/Left in*%
X132340893Y-81848138D02*
X133525668Y-81848138D01*
X133525668Y-81848138D02*
X135487347Y-83809817D01*
X130066294Y-79573539D02*
X132340893Y-81848138D01*
X130066294Y-78523539D02*
X130066294Y-79573539D01*
X135487347Y-83809817D02*
X135487347Y-84487347D01*
%TO.N,/Left out*%
X144700000Y-85308152D02*
X144700000Y-89000000D01*
X150213021Y-79795131D02*
X144700000Y-85308152D01*
X128325000Y-50675000D02*
X151995100Y-50675000D01*
X103500000Y-56500000D02*
X122500000Y-56500000D01*
X151995100Y-50675000D02*
X153225000Y-51904900D01*
X153225000Y-51904900D02*
X153225000Y-77775000D01*
X101840000Y-58000000D02*
X102000000Y-58000000D01*
X122500000Y-56500000D02*
X128325000Y-50675000D01*
X153225000Y-77775000D02*
X151204869Y-79795131D01*
X102000000Y-58000000D02*
X103500000Y-56500000D01*
X151204869Y-79795131D02*
X150213021Y-79795131D01*
%TO.N,/Right out*%
X151356935Y-93116935D02*
X147240000Y-89000000D01*
X152461572Y-93116935D02*
X151356935Y-93116935D01*
%TO.N,GND*%
X138059677Y-79973138D02*
X138026862Y-79973138D01*
X124218299Y-90500000D02*
X131550000Y-90500000D01*
X138059677Y-85940323D02*
X138000000Y-86000000D01*
X101840000Y-52000000D02*
X100715000Y-53125000D01*
X122446294Y-86143539D02*
X122446294Y-86053706D01*
X123205000Y-89486701D02*
X124218299Y-90500000D01*
X138059677Y-82973138D02*
X138059677Y-85940323D01*
X123205000Y-86705000D02*
X123205000Y-89486701D01*
X138026862Y-79973138D02*
X138059677Y-79940323D01*
X135905000Y-107811987D02*
X135905000Y-103595000D01*
X128250000Y-61250000D02*
X124500000Y-57500000D01*
X152000000Y-70170282D02*
X152000000Y-77200564D01*
X100715000Y-69265000D02*
X104500000Y-73050000D01*
X138059677Y-79940323D02*
X138059677Y-76973138D01*
X136000000Y-87000000D02*
X137000000Y-87000000D01*
X149575000Y-59331403D02*
X149575000Y-67745282D01*
X136434097Y-108341084D02*
X135905000Y-107811987D01*
X151425383Y-57481020D02*
X149575000Y-59331403D01*
X122446294Y-86053706D02*
X122500000Y-86000000D01*
X122500000Y-86000000D02*
X123205000Y-86705000D01*
X152000000Y-77200564D02*
X150720433Y-78480131D01*
X137000000Y-102500000D02*
X137000000Y-97500000D01*
X149575000Y-67745282D02*
X152000000Y-70170282D01*
X138059677Y-79973138D02*
X138059677Y-82973138D01*
X135905000Y-103595000D02*
X137000000Y-102500000D01*
X137000000Y-87000000D02*
X138000000Y-86000000D01*
X130250000Y-61250000D02*
X128250000Y-61250000D01*
X100715000Y-53125000D02*
X100715000Y-69265000D01*
%TO.N,/3v3*%
X138725000Y-63725000D02*
X143795282Y-63725000D01*
X123126167Y-59423833D02*
X123126167Y-57000000D01*
X125126167Y-55000000D02*
X130000000Y-55000000D01*
X130000000Y-55000000D02*
X138725000Y-63725000D01*
X149500000Y-69429718D02*
X149500000Y-73050000D01*
X109500000Y-73050000D02*
X123126167Y-59423833D01*
X123126167Y-57000000D02*
X125126167Y-55000000D01*
X143795282Y-63725000D02*
X149500000Y-69429718D01*
%TO.N,Net-(A1-ADC_0)*%
X135905000Y-88513299D02*
X136875000Y-87543299D01*
X138090991Y-87500000D02*
X139125000Y-86465991D01*
X137956701Y-87543299D02*
X138000000Y-87500000D01*
X136875000Y-87543299D02*
X137956701Y-87543299D01*
X139000000Y-84500000D02*
X139000000Y-84000000D01*
X139125000Y-86465991D02*
X139125000Y-84625000D01*
X139184677Y-77815323D02*
X142500000Y-74500000D01*
X139125000Y-84625000D02*
X139000000Y-84500000D01*
X138000000Y-87500000D02*
X138090991Y-87500000D01*
X139000000Y-84000000D02*
X139184677Y-83815323D01*
X147240000Y-104240000D02*
X147240000Y-101550377D01*
X145500000Y-74500000D02*
X147000000Y-73000000D01*
X147240000Y-101550377D02*
X135905000Y-90215377D01*
X135905000Y-90215377D02*
X135905000Y-88513299D01*
X147000000Y-73000000D02*
X147000000Y-73050000D01*
X139184677Y-83815323D02*
X139184677Y-77815323D01*
X142500000Y-74500000D02*
X145500000Y-74500000D01*
%TO.N,/LED_2_R*%
X142160000Y-101154528D02*
X142160000Y-104240000D01*
X138920000Y-97914528D02*
X142160000Y-101154528D01*
%TO.N,/LED_1_B*%
X130545991Y-96875000D02*
X133670991Y-100000000D01*
X119454009Y-96875000D02*
X130545991Y-96875000D01*
X118795000Y-99285000D02*
X118795000Y-97534009D01*
X117080000Y-101000000D02*
X118795000Y-99285000D01*
X133670991Y-100000000D02*
X135000000Y-100000000D01*
X118795000Y-97534009D02*
X119454009Y-96875000D01*
%TO.N,/LED_1_G*%
X117000000Y-98000000D02*
X118771646Y-96228354D01*
X117080000Y-98000000D02*
X117000000Y-98000000D01*
X118771646Y-96228354D02*
X131228354Y-96228354D01*
X131228354Y-96228354D02*
X134000000Y-99000000D01*
%TO.N,/LED_1_R*%
X133310273Y-103010273D02*
X134540000Y-104240000D01*
X124000000Y-100500000D02*
X126510273Y-103010273D01*
X126510273Y-103010273D02*
X133310273Y-103010273D01*
%TO.N,Net-(A1-ADC_6)*%
X129145908Y-109591084D02*
X133408916Y-109591084D01*
X124365000Y-109225000D02*
X128777412Y-109225000D01*
X124000000Y-108860000D02*
X124365000Y-109225000D01*
X134000000Y-109000000D02*
X134000000Y-106240000D01*
X107000000Y-73050000D02*
X107000000Y-75288418D01*
X133408916Y-109591084D02*
X134000000Y-109000000D01*
X101000000Y-106000000D02*
X123730000Y-106000000D01*
X128777412Y-109222588D02*
X129145908Y-109591084D01*
X134000000Y-106240000D02*
X132000000Y-104240000D01*
X124000000Y-106270000D02*
X124000000Y-108860000D01*
X100125000Y-105125000D02*
X101000000Y-106000000D01*
X123730000Y-106000000D02*
X124000000Y-106270000D01*
X128777412Y-109225000D02*
X128777412Y-109222588D01*
X107000000Y-75288418D02*
X100125000Y-82163418D01*
X100125000Y-82163418D02*
X100125000Y-105125000D01*
%TO.N,/LED_2_B*%
X126920000Y-104240000D02*
X128680000Y-106000000D01*
X128680000Y-106000000D02*
X132000000Y-106000000D01*
%TO.N,Net-(A1-SAI2_SD_A)*%
X112000000Y-75000000D02*
X112000000Y-76000000D01*
X115381396Y-71618604D02*
X112000000Y-75000000D01*
X124118604Y-71618604D02*
X115381396Y-71618604D01*
X124500000Y-72000000D02*
X124118604Y-71618604D01*
X113000000Y-77000000D02*
X113000000Y-101000000D01*
X124500000Y-72000000D02*
X123861294Y-72638706D01*
X112000000Y-76000000D02*
X113000000Y-77000000D01*
%TO.N,Net-(A1-SAI2_SCK)*%
X114220000Y-104240000D02*
X115000000Y-103460000D01*
X115000000Y-103460000D02*
X115000000Y-95000000D01*
X134875000Y-93125000D02*
X135000000Y-93000000D01*
X116875000Y-93125000D02*
X134875000Y-93125000D01*
X115000000Y-95000000D02*
X116875000Y-93125000D01*
%TO.N,/VCC*%
X153000000Y-79500000D02*
X152240564Y-79500000D01*
X152240564Y-79500000D02*
X150720433Y-81020131D01*
%TO.N,+5V*%
X122446294Y-78523539D02*
X127422755Y-83500000D01*
D32*
X139810000Y-84275000D02*
X140000000Y-84085000D01*
X140000000Y-78000000D02*
X142059869Y-75940131D01*
D31*
X127422755Y-83500000D02*
X131000000Y-83500000D01*
D32*
X142059869Y-75940131D02*
X150720433Y-75940131D01*
X140000000Y-84085000D02*
X140000000Y-78000000D01*
D31*
%TO.N,Net-(J4-Pin_1)*%
X147424369Y-57575631D02*
X147424369Y-57938278D01*
X151000000Y-54000000D02*
X147424369Y-57575631D01*
X151000000Y-52000000D02*
X151000000Y-54000000D01*
X147424369Y-62924369D02*
X147424369Y-57938278D01*
X147500000Y-63000000D02*
X147424369Y-62924369D01*
%TO.N,Net-(U1A-+)*%
X135500000Y-59000000D02*
X135500000Y-53622647D01*
X135500000Y-53622647D02*
X137184369Y-51938278D01*
X144424369Y-51938278D02*
X147424369Y-54938278D01*
X137184369Y-51938278D02*
X144424369Y-51938278D01*
%TO.N,Net-(D1-A)*%
X128270000Y-108000000D02*
X128270000Y-108270000D01*
X125685000Y-103765000D02*
X119920000Y-98000000D01*
X125685000Y-105415000D02*
X125685000Y-103765000D01*
X128270000Y-108000000D02*
X125685000Y-105415000D01*
%TO.N,Net-(D3-RK)*%
X107917500Y-81607500D02*
X107460000Y-81150000D01*
X106920000Y-95000000D02*
X107917500Y-94002500D01*
X107460000Y-81150000D02*
X107460000Y-80000000D01*
X107917500Y-94002500D02*
X107917500Y-81607500D01*
%TO.N,Net-(D4-RK)*%
X140535000Y-86423299D02*
X140535000Y-78828604D01*
X140535000Y-78828604D02*
X141363604Y-78000000D01*
X146270000Y-79635000D02*
X146270000Y-80000000D01*
X149080000Y-97914528D02*
X151000000Y-99834528D01*
X138445000Y-88513299D02*
X140535000Y-86423299D01*
X149500000Y-102500000D02*
X148500000Y-102500000D01*
X148500000Y-102500000D02*
X147690000Y-101690000D01*
X138445000Y-91445000D02*
X138445000Y-88513299D01*
X147690000Y-100690000D02*
X138445000Y-91445000D01*
X141363604Y-78000000D02*
X144635000Y-78000000D01*
X151000000Y-99834528D02*
X151000000Y-101000000D01*
X151000000Y-101000000D02*
X149500000Y-102500000D01*
X147690000Y-101690000D02*
X147690000Y-100690000D01*
X144635000Y-78000000D02*
X146270000Y-79635000D01*
%TO.N,Net-(D4-GK)*%
X140985000Y-89486701D02*
X140986701Y-89486701D01*
X140000000Y-91920000D02*
X143040000Y-94960000D01*
X140000000Y-90500000D02*
X140000000Y-91920000D01*
X149080000Y-101000000D02*
X143040000Y-94960000D01*
X142816224Y-78775000D02*
X141725000Y-78775000D01*
X143730000Y-80000000D02*
X143730000Y-79688776D01*
X140986701Y-89486701D02*
X141000000Y-89500000D01*
X141725000Y-78775000D02*
X140985000Y-79515000D01*
X141000000Y-89500000D02*
X140000000Y-90500000D01*
X140985000Y-79515000D02*
X140985000Y-89486701D01*
X143730000Y-79688776D02*
X142816224Y-78775000D01*
%TO.N,Net-(D4-BK)*%
X143525000Y-90397738D02*
X147915862Y-94788600D01*
X142460000Y-80000000D02*
X142460000Y-84369009D01*
X147915862Y-94788600D02*
X149047232Y-94788600D01*
X143525000Y-88475000D02*
X143525000Y-90397738D01*
X144000000Y-88000000D02*
X143525000Y-88475000D01*
X142460000Y-84369009D02*
X144000000Y-85909009D01*
X144000000Y-85909009D02*
X144000000Y-88000000D01*
%TO.N,Net-(U1C-+)*%
X107010991Y-96500000D02*
X106164505Y-96500000D01*
X119906294Y-86093706D02*
X118731461Y-87268539D01*
X113025305Y-102000000D02*
X112500000Y-102000000D01*
X132909009Y-87500000D02*
X131875000Y-86465991D01*
X130532285Y-85018539D02*
X121031294Y-85018539D01*
X102885000Y-87087542D02*
X101674916Y-85877458D01*
X118731461Y-87268539D02*
X116639760Y-87268539D01*
X119906294Y-86143539D02*
X119906294Y-86093706D01*
X113725000Y-101300305D02*
X113025305Y-102000000D01*
X105425000Y-95760495D02*
X105425000Y-93257242D01*
X121031294Y-85018539D02*
X119906294Y-86143539D01*
X131875000Y-86361254D02*
X130532285Y-85018539D01*
X105288041Y-91889742D02*
X102885000Y-89486701D01*
X116639760Y-87268539D02*
X115395000Y-88513299D01*
X115395000Y-88513299D02*
X115395000Y-89486701D01*
X115395000Y-89486701D02*
X113725000Y-91156701D01*
X108045000Y-97534009D02*
X107010991Y-96500000D01*
X106164505Y-96500000D02*
X105425000Y-95760495D01*
X108045000Y-97545000D02*
X108045000Y-97534009D01*
X105425000Y-93257242D02*
X106792500Y-91889742D01*
X131875000Y-86465991D02*
X131875000Y-86361254D01*
X133000000Y-87500000D02*
X132909009Y-87500000D01*
X113725000Y-91156701D02*
X113725000Y-101300305D01*
X112500000Y-102000000D02*
X108045000Y-97545000D01*
X106792500Y-91889742D02*
X105288041Y-91889742D01*
X102885000Y-89486701D02*
X102885000Y-87087542D01*
%TO.N,Net-(U1C--)*%
X117366294Y-86143539D02*
X115951294Y-84728539D01*
X115951294Y-74370982D02*
X117578672Y-72743604D01*
X115951294Y-84728539D02*
X115951294Y-74370982D01*
%TO.N,Net-(U1B--)*%
X134624880Y-101885273D02*
X133135033Y-101885273D01*
X133090991Y-84500000D02*
X134184677Y-85593686D01*
X134184677Y-87503622D02*
X133175000Y-88513299D01*
X136000000Y-92974695D02*
X136000000Y-100510153D01*
X133175000Y-90149695D02*
X136000000Y-92974695D01*
X117366294Y-78523539D02*
X123342755Y-84500000D01*
X134184677Y-85593686D02*
X134184677Y-87503622D01*
X133175000Y-88513299D02*
X133175000Y-90149695D01*
X136000000Y-100510153D02*
X134624880Y-101885273D01*
X123342755Y-84500000D02*
X133090991Y-84500000D01*
%TO.N,Net-(U1D--)*%
X127526294Y-86143539D02*
X130066294Y-86143539D01*
%TO.N,Net-(C12-Pad2)*%
X101576468Y-77302941D02*
X104349081Y-77302941D01*
X135000000Y-75626167D02*
X135000000Y-82000000D01*
X106492588Y-71825000D02*
X107507412Y-71825000D01*
X109217588Y-74500000D02*
X110500000Y-74500000D01*
X110500000Y-74500000D02*
X114325000Y-70675000D01*
X108225000Y-72542588D02*
X108225000Y-73507412D01*
X130048833Y-70675000D02*
X135000000Y-75626167D01*
X105775000Y-72542588D02*
X106492588Y-71825000D01*
X104349081Y-77302941D02*
X105775000Y-75877022D01*
X114325000Y-70675000D02*
X130048833Y-70675000D01*
X108225000Y-73507412D02*
X109217588Y-74500000D01*
X105775000Y-75877022D02*
X105775000Y-72542588D01*
X107507412Y-71825000D02*
X108225000Y-72542588D01*
%TD*%
%TA.AperFunction,Conductor*%
%TO.N,GND*%
G36*
X104880809Y-106645185D02*
G01*
X104926564Y-106697989D01*
X104936508Y-106767147D01*
X104907483Y-106830703D01*
X104901451Y-106837181D01*
X104807289Y-106931342D01*
X104715187Y-107080663D01*
X104715185Y-107080668D01*
X104687349Y-107164670D01*
X104660001Y-107247203D01*
X104660001Y-107247204D01*
X104660000Y-107247204D01*
X104649500Y-107349983D01*
X104649500Y-108650001D01*
X104649501Y-108650018D01*
X104660000Y-108752796D01*
X104666948Y-108773762D01*
X104687902Y-108836995D01*
X104690304Y-108906822D01*
X104654573Y-108966865D01*
X104592053Y-108998058D01*
X104570196Y-108999999D01*
X103186040Y-108999999D01*
X103119001Y-108980314D01*
X103073246Y-108927510D01*
X103063302Y-108858352D01*
X103084465Y-108804875D01*
X103173600Y-108677578D01*
X103273429Y-108463492D01*
X103273433Y-108463483D01*
X103334567Y-108235326D01*
X103334569Y-108235315D01*
X103355157Y-108000001D01*
X103355157Y-107999998D01*
X103334569Y-107764684D01*
X103334567Y-107764673D01*
X103273433Y-107536516D01*
X103273429Y-107536507D01*
X103173600Y-107322423D01*
X103173599Y-107322421D01*
X103114925Y-107238626D01*
X103114925Y-107238625D01*
X102350000Y-108003550D01*
X102350000Y-107953922D01*
X102326148Y-107864905D01*
X102280070Y-107785095D01*
X102214905Y-107719930D01*
X102135095Y-107673852D01*
X102046078Y-107650000D01*
X101996447Y-107650000D01*
X102761373Y-106885073D01*
X102761373Y-106885072D01*
X102712819Y-106851075D01*
X102669194Y-106796499D01*
X102662000Y-106727000D01*
X102693522Y-106664645D01*
X102753752Y-106629231D01*
X102783942Y-106625500D01*
X104813770Y-106625500D01*
X104880809Y-106645185D01*
G37*
%TD.AperFunction*%
%TA.AperFunction,Conductor*%
G36*
X151713440Y-99386191D02*
G01*
X151745402Y-99402270D01*
X151839952Y-99468474D01*
X152046190Y-99564645D01*
X152265994Y-99623541D01*
X152427916Y-99637707D01*
X152492684Y-99643374D01*
X152492686Y-99643374D01*
X152492688Y-99643374D01*
X152549359Y-99638415D01*
X152719378Y-99623541D01*
X152836150Y-99592252D01*
X152905994Y-99593915D01*
X152963857Y-99633077D01*
X152991362Y-99697305D01*
X152992239Y-99712027D01*
X152992239Y-107124300D01*
X152972554Y-107191339D01*
X152919750Y-107237094D01*
X152850592Y-107247038D01*
X152836145Y-107244075D01*
X152742686Y-107219032D01*
X152742686Y-108182220D01*
X152738292Y-108177826D01*
X152647080Y-108125165D01*
X152545347Y-108097906D01*
X152440025Y-108097906D01*
X152338292Y-108125165D01*
X152247080Y-108177826D01*
X152242686Y-108182220D01*
X152242686Y-107219033D01*
X152046357Y-107271640D01*
X151840203Y-107367771D01*
X151653865Y-107498248D01*
X151493028Y-107659085D01*
X151362551Y-107845423D01*
X151266420Y-108051579D01*
X151266416Y-108051588D01*
X151213813Y-108247905D01*
X151213814Y-108247906D01*
X152177000Y-108247906D01*
X152172606Y-108252300D01*
X152119945Y-108343512D01*
X152092686Y-108445245D01*
X152092686Y-108550567D01*
X152119945Y-108652300D01*
X152172606Y-108743512D01*
X152177000Y-108747906D01*
X151213814Y-108747906D01*
X151239537Y-108843905D01*
X151237874Y-108913755D01*
X151198712Y-108971618D01*
X151134483Y-108999122D01*
X151119762Y-108999999D01*
X148641846Y-108999999D01*
X148574807Y-108980314D01*
X148529052Y-108927510D01*
X148518488Y-108863396D01*
X148519003Y-108858352D01*
X148519126Y-108857150D01*
X148519125Y-107557133D01*
X148508625Y-107454344D01*
X148453440Y-107287807D01*
X148361338Y-107138485D01*
X148237282Y-107014429D01*
X148094051Y-106926084D01*
X148087962Y-106922328D01*
X148087957Y-106922326D01*
X148067611Y-106915584D01*
X147921423Y-106867142D01*
X147921421Y-106867141D01*
X147818636Y-106856641D01*
X146518624Y-106856641D01*
X146518607Y-106856642D01*
X146415829Y-106867141D01*
X146415826Y-106867142D01*
X146249294Y-106922326D01*
X146249289Y-106922328D01*
X146099968Y-107014430D01*
X145975915Y-107138483D01*
X145883813Y-107287804D01*
X145883811Y-107287809D01*
X145855975Y-107371811D01*
X145828627Y-107454344D01*
X145828627Y-107454345D01*
X145828626Y-107454345D01*
X145818126Y-107557124D01*
X145818126Y-108857142D01*
X145818128Y-108857162D01*
X145818765Y-108863399D01*
X145805995Y-108932092D01*
X145758113Y-108982975D01*
X145695407Y-108999999D01*
X144483112Y-108999999D01*
X144416073Y-108980314D01*
X144370318Y-108927510D01*
X144360374Y-108858352D01*
X144370730Y-108823595D01*
X144442054Y-108670638D01*
X144442059Y-108670624D01*
X144503193Y-108442467D01*
X144503195Y-108442456D01*
X144523783Y-108207142D01*
X144523783Y-108207139D01*
X144503195Y-107971825D01*
X144503193Y-107971814D01*
X144442059Y-107743657D01*
X144442055Y-107743648D01*
X144342226Y-107529564D01*
X144342225Y-107529562D01*
X144283551Y-107445767D01*
X144283551Y-107445766D01*
X143518626Y-108210691D01*
X143518626Y-108161063D01*
X143494774Y-108072046D01*
X143448696Y-107992236D01*
X143383531Y-107927071D01*
X143303721Y-107880993D01*
X143214704Y-107857141D01*
X143122548Y-107857141D01*
X143033531Y-107880993D01*
X142953721Y-107927071D01*
X142888556Y-107992236D01*
X142842478Y-108072046D01*
X142818626Y-108161063D01*
X142818626Y-108210694D01*
X142053698Y-107445766D01*
X141995027Y-107529560D01*
X141895196Y-107743648D01*
X141895192Y-107743657D01*
X141834058Y-107971814D01*
X141834056Y-107971825D01*
X141813469Y-108207139D01*
X141813469Y-108207142D01*
X141834056Y-108442456D01*
X141834058Y-108442467D01*
X141895192Y-108670624D01*
X141895197Y-108670638D01*
X141966522Y-108823595D01*
X141977014Y-108892672D01*
X141948494Y-108956456D01*
X141890017Y-108994695D01*
X141854140Y-108999999D01*
X141458357Y-108999999D01*
X141391318Y-108980314D01*
X141345563Y-108927510D01*
X141334357Y-108875999D01*
X141334357Y-108582163D01*
X140180767Y-108582163D01*
X140230394Y-108496207D01*
X140259357Y-108388115D01*
X140259357Y-108276211D01*
X140230394Y-108168119D01*
X140180767Y-108082163D01*
X141334356Y-108082163D01*
X141334356Y-107532191D01*
X141334355Y-107532176D01*
X141323862Y-107429465D01*
X141268715Y-107263043D01*
X141268713Y-107263038D01*
X141176672Y-107113817D01*
X141155068Y-107092213D01*
X142407251Y-107092213D01*
X143168626Y-107853588D01*
X143168627Y-107853588D01*
X143929999Y-107092214D01*
X143929999Y-107092213D01*
X143846209Y-107033543D01*
X143846205Y-107033541D01*
X143632118Y-106933711D01*
X143632109Y-106933707D01*
X143403952Y-106872573D01*
X143403941Y-106872571D01*
X143168628Y-106851984D01*
X143168624Y-106851984D01*
X142933310Y-106872571D01*
X142933299Y-106872573D01*
X142705142Y-106933707D01*
X142705133Y-106933711D01*
X142491045Y-107033542D01*
X142407251Y-107092213D01*
X141155068Y-107092213D01*
X141052702Y-106989847D01*
X140903481Y-106897806D01*
X140903476Y-106897804D01*
X140737054Y-106842657D01*
X140737047Y-106842656D01*
X140634343Y-106832163D01*
X140084357Y-106832163D01*
X140084357Y-107985753D01*
X139998401Y-107936126D01*
X139890309Y-107907163D01*
X139778405Y-107907163D01*
X139670313Y-107936126D01*
X139584357Y-107985753D01*
X139584357Y-106832163D01*
X139034385Y-106832163D01*
X139034369Y-106832164D01*
X138931659Y-106842657D01*
X138765237Y-106897804D01*
X138765232Y-106897806D01*
X138616011Y-106989847D01*
X138492041Y-107113817D01*
X138400000Y-107263038D01*
X138399998Y-107263043D01*
X138344851Y-107429465D01*
X138344850Y-107429472D01*
X138334357Y-107532176D01*
X138334357Y-108082163D01*
X139487947Y-108082163D01*
X139438320Y-108168119D01*
X139409357Y-108276211D01*
X139409357Y-108388115D01*
X139438320Y-108496207D01*
X139487947Y-108582163D01*
X138334358Y-108582163D01*
X138334358Y-108875999D01*
X138314673Y-108943038D01*
X138261869Y-108988793D01*
X138210358Y-108999999D01*
X137890929Y-108999999D01*
X137823890Y-108980314D01*
X137778135Y-108927510D01*
X137768191Y-108858352D01*
X137777373Y-108826190D01*
X137786505Y-108805370D01*
X137844479Y-108576431D01*
X137863981Y-108341089D01*
X137863981Y-108341078D01*
X137844479Y-108105736D01*
X137786505Y-107876800D01*
X137691643Y-107660537D01*
X137603345Y-107525386D01*
X136855822Y-108272909D01*
X136830134Y-108177040D01*
X136774181Y-108080128D01*
X136695053Y-108001000D01*
X136598141Y-107945047D01*
X136502270Y-107919358D01*
X137250709Y-107170917D01*
X137250709Y-107170915D01*
X137216177Y-107144038D01*
X137216171Y-107144034D01*
X137008475Y-107031634D01*
X137008467Y-107031631D01*
X136785115Y-106954954D01*
X136552176Y-106916084D01*
X136316018Y-106916084D01*
X136083078Y-106954954D01*
X135859726Y-107031631D01*
X135859718Y-107031634D01*
X135652019Y-107144036D01*
X135617483Y-107170915D01*
X135617482Y-107170917D01*
X136365924Y-107919358D01*
X136270053Y-107945047D01*
X136173141Y-108001000D01*
X136094013Y-108080128D01*
X136038060Y-108177040D01*
X136012371Y-108272911D01*
X135264846Y-107525386D01*
X135176551Y-107660534D01*
X135081688Y-107876800D01*
X135023714Y-108105736D01*
X135004213Y-108341078D01*
X135004213Y-108341089D01*
X135023714Y-108576431D01*
X135081688Y-108805370D01*
X135090821Y-108826190D01*
X135099724Y-108895490D01*
X135069746Y-108958602D01*
X135010407Y-108995488D01*
X134977265Y-108999999D01*
X134749500Y-108999999D01*
X134682461Y-108980314D01*
X134636706Y-108927510D01*
X134625500Y-108875999D01*
X134625500Y-106178393D01*
X134625499Y-106178389D01*
X134622137Y-106161485D01*
X134601463Y-106057548D01*
X134577626Y-106000000D01*
X134554312Y-105943714D01*
X134505903Y-105871267D01*
X134485858Y-105841267D01*
X134485856Y-105841264D01*
X134451932Y-105807340D01*
X134418447Y-105746017D01*
X134423431Y-105676325D01*
X134465303Y-105620392D01*
X134530767Y-105595975D01*
X134539613Y-105595659D01*
X134540001Y-105595659D01*
X134579234Y-105592226D01*
X134775408Y-105575063D01*
X135003663Y-105513903D01*
X135217830Y-105414035D01*
X135411401Y-105278495D01*
X135578495Y-105111401D01*
X135708425Y-104925842D01*
X135763002Y-104882217D01*
X135832500Y-104875023D01*
X135894855Y-104906546D01*
X135911575Y-104925842D01*
X136041500Y-105111395D01*
X136041505Y-105111401D01*
X136208599Y-105278495D01*
X136293839Y-105338181D01*
X136402165Y-105414032D01*
X136402167Y-105414033D01*
X136402170Y-105414035D01*
X136616337Y-105513903D01*
X136616343Y-105513904D01*
X136616344Y-105513905D01*
X136671285Y-105528626D01*
X136844592Y-105575063D01*
X137032918Y-105591539D01*
X137079999Y-105595659D01*
X137080000Y-105595659D01*
X137080001Y-105595659D01*
X137119234Y-105592226D01*
X137315408Y-105575063D01*
X137543663Y-105513903D01*
X137757830Y-105414035D01*
X137951401Y-105278495D01*
X138118495Y-105111401D01*
X138248425Y-104925842D01*
X138303002Y-104882217D01*
X138372500Y-104875023D01*
X138434855Y-104906546D01*
X138451575Y-104925842D01*
X138581500Y-105111395D01*
X138581505Y-105111401D01*
X138748599Y-105278495D01*
X138833839Y-105338181D01*
X138942165Y-105414032D01*
X138942167Y-105414033D01*
X138942170Y-105414035D01*
X139156337Y-105513903D01*
X139156343Y-105513904D01*
X139156344Y-105513905D01*
X139211285Y-105528626D01*
X139384592Y-105575063D01*
X139572918Y-105591539D01*
X139619999Y-105595659D01*
X139620000Y-105595659D01*
X139620001Y-105595659D01*
X139659234Y-105592226D01*
X139855408Y-105575063D01*
X140083663Y-105513903D01*
X140297830Y-105414035D01*
X140491401Y-105278495D01*
X140658495Y-105111401D01*
X140788425Y-104925842D01*
X140843002Y-104882217D01*
X140912500Y-104875023D01*
X140974855Y-104906546D01*
X140991575Y-104925842D01*
X141121500Y-105111395D01*
X141121505Y-105111401D01*
X141288599Y-105278495D01*
X141373839Y-105338181D01*
X141482165Y-105414032D01*
X141482167Y-105414033D01*
X141482170Y-105414035D01*
X141696337Y-105513903D01*
X141696343Y-105513904D01*
X141696344Y-105513905D01*
X141751285Y-105528626D01*
X141924592Y-105575063D01*
X142112918Y-105591539D01*
X142159999Y-105595659D01*
X142160000Y-105595659D01*
X142160001Y-105595659D01*
X142199234Y-105592226D01*
X142395408Y-105575063D01*
X142623663Y-105513903D01*
X142837830Y-105414035D01*
X143031401Y-105278495D01*
X143198495Y-105111401D01*
X143328425Y-104925842D01*
X143383002Y-104882217D01*
X143452500Y-104875023D01*
X143514855Y-104906546D01*
X143531575Y-104925842D01*
X143661500Y-105111395D01*
X143661505Y-105111401D01*
X143828599Y-105278495D01*
X143913839Y-105338181D01*
X144022165Y-105414032D01*
X144022167Y-105414033D01*
X144022170Y-105414035D01*
X144236337Y-105513903D01*
X144236343Y-105513904D01*
X144236344Y-105513905D01*
X144291285Y-105528626D01*
X144464592Y-105575063D01*
X144652918Y-105591539D01*
X144699999Y-105595659D01*
X144700000Y-105595659D01*
X144700001Y-105595659D01*
X144739234Y-105592226D01*
X144935408Y-105575063D01*
X145163663Y-105513903D01*
X145377830Y-105414035D01*
X145571401Y-105278495D01*
X145738495Y-105111401D01*
X145868425Y-104925842D01*
X145923002Y-104882217D01*
X145992500Y-104875023D01*
X146054855Y-104906546D01*
X146071575Y-104925842D01*
X146201500Y-105111395D01*
X146201505Y-105111401D01*
X146368599Y-105278495D01*
X146453839Y-105338181D01*
X146562165Y-105414032D01*
X146562167Y-105414033D01*
X146562170Y-105414035D01*
X146776337Y-105513903D01*
X146776343Y-105513904D01*
X146776344Y-105513905D01*
X146831285Y-105528626D01*
X147004592Y-105575063D01*
X147192918Y-105591539D01*
X147239999Y-105595659D01*
X147240000Y-105595659D01*
X147240001Y-105595659D01*
X147279234Y-105592226D01*
X147475408Y-105575063D01*
X147703663Y-105513903D01*
X147917830Y-105414035D01*
X148111401Y-105278495D01*
X148278495Y-105111401D01*
X148408425Y-104925842D01*
X148463002Y-104882217D01*
X148532500Y-104875023D01*
X148594855Y-104906546D01*
X148611575Y-104925842D01*
X148741500Y-105111395D01*
X148741505Y-105111401D01*
X148908599Y-105278495D01*
X148993839Y-105338181D01*
X149102165Y-105414032D01*
X149102167Y-105414033D01*
X149102170Y-105414035D01*
X149316337Y-105513903D01*
X149316343Y-105513904D01*
X149316344Y-105513905D01*
X149371285Y-105528626D01*
X149544592Y-105575063D01*
X149732918Y-105591539D01*
X149779999Y-105595659D01*
X149780000Y-105595659D01*
X149780001Y-105595659D01*
X149819234Y-105592226D01*
X150015408Y-105575063D01*
X150243663Y-105513903D01*
X150457830Y-105414035D01*
X150651401Y-105278495D01*
X150818495Y-105111401D01*
X150954035Y-104917830D01*
X151053903Y-104703663D01*
X151115063Y-104475408D01*
X151135659Y-104240000D01*
X151115063Y-104004592D01*
X151053903Y-103776337D01*
X150954035Y-103562171D01*
X150948731Y-103554595D01*
X150818494Y-103368597D01*
X150651402Y-103201506D01*
X150651395Y-103201501D01*
X150646379Y-103197989D01*
X150570968Y-103145185D01*
X150457834Y-103065967D01*
X150457830Y-103065965D01*
X150405500Y-103041563D01*
X150243663Y-102966097D01*
X150243658Y-102966095D01*
X150243649Y-102966092D01*
X150194663Y-102952966D01*
X150135003Y-102916601D01*
X150104475Y-102853754D01*
X150112770Y-102784378D01*
X150139074Y-102745514D01*
X151485857Y-101398734D01*
X151485866Y-101398721D01*
X151489209Y-101393719D01*
X151554307Y-101296292D01*
X151554307Y-101296291D01*
X151554311Y-101296286D01*
X151601463Y-101182452D01*
X151624921Y-101064519D01*
X151625500Y-101061607D01*
X151625500Y-100938394D01*
X151625500Y-100938393D01*
X151625500Y-99772922D01*
X151625095Y-99770888D01*
X151625097Y-99770857D01*
X151625090Y-99770859D01*
X151609230Y-99691130D01*
X151601463Y-99652077D01*
X151593029Y-99631716D01*
X151589642Y-99623540D01*
X151572143Y-99581292D01*
X151565248Y-99564645D01*
X151559719Y-99551298D01*
X151552251Y-99481830D01*
X151583526Y-99419351D01*
X151643614Y-99383698D01*
X151713440Y-99386191D01*
G37*
%TD.AperFunction*%
%TA.AperFunction,Conductor*%
G36*
X102634925Y-105001373D02*
G01*
X102688119Y-104925405D01*
X102742696Y-104881781D01*
X102812195Y-104874588D01*
X102874549Y-104906110D01*
X102891269Y-104925405D01*
X103021505Y-105111401D01*
X103021506Y-105111402D01*
X103072923Y-105162819D01*
X103106408Y-105224142D01*
X103101424Y-105293834D01*
X103059552Y-105349767D01*
X102994088Y-105374184D01*
X102985242Y-105374500D01*
X102352309Y-105374500D01*
X102285270Y-105354815D01*
X102264628Y-105338181D01*
X101690234Y-104763787D01*
X101732292Y-104752518D01*
X101857708Y-104680110D01*
X101960110Y-104577708D01*
X102032518Y-104452292D01*
X102043787Y-104410235D01*
X102634925Y-105001373D01*
G37*
%TD.AperFunction*%
%TA.AperFunction,Conductor*%
G36*
X101921752Y-90370184D02*
G01*
X101967507Y-90422988D01*
X101977451Y-90492146D01*
X101948426Y-90555702D01*
X101942394Y-90562180D01*
X101868706Y-90635867D01*
X101738184Y-90822274D01*
X101738183Y-90822276D01*
X101642013Y-91028511D01*
X101642010Y-91028520D01*
X101583118Y-91248311D01*
X101583116Y-91248322D01*
X101563284Y-91475007D01*
X101563284Y-91475010D01*
X101583116Y-91701695D01*
X101583118Y-91701706D01*
X101642010Y-91921497D01*
X101642013Y-91921506D01*
X101738183Y-92127741D01*
X101738184Y-92127743D01*
X101868706Y-92314150D01*
X102029610Y-92475054D01*
X102044830Y-92485711D01*
X102216018Y-92605577D01*
X102422256Y-92701748D01*
X102642060Y-92760644D01*
X102803982Y-92774810D01*
X102868750Y-92780477D01*
X102868752Y-92780477D01*
X102868754Y-92780477D01*
X102925425Y-92775518D01*
X103095444Y-92760644D01*
X103315248Y-92701748D01*
X103521486Y-92605577D01*
X103707891Y-92475056D01*
X103868799Y-92314148D01*
X103999320Y-92127743D01*
X104095491Y-91921505D01*
X104111695Y-91861029D01*
X104148059Y-91801370D01*
X104210906Y-91770840D01*
X104280282Y-91779134D01*
X104319151Y-91805442D01*
X104799057Y-92285348D01*
X104799086Y-92285379D01*
X104889304Y-92375597D01*
X104889308Y-92375600D01*
X104991748Y-92444049D01*
X104991761Y-92444056D01*
X105040396Y-92464201D01*
X105076163Y-92479016D01*
X105130567Y-92522856D01*
X105152632Y-92589151D01*
X105135353Y-92656850D01*
X105116393Y-92681258D01*
X105026270Y-92771381D01*
X104939144Y-92858506D01*
X104939138Y-92858514D01*
X104870690Y-92960950D01*
X104870688Y-92960955D01*
X104845630Y-93021450D01*
X104845631Y-93021451D01*
X104828260Y-93063390D01*
X104828258Y-93063395D01*
X104823537Y-93074790D01*
X104802124Y-93182447D01*
X104802122Y-93182453D01*
X104799500Y-93195631D01*
X104799500Y-93195636D01*
X104799500Y-95822101D01*
X104811518Y-95882524D01*
X104823537Y-95942949D01*
X104824675Y-95945695D01*
X104824676Y-95945697D01*
X104870685Y-96056776D01*
X104870687Y-96056780D01*
X104882351Y-96074235D01*
X104882352Y-96074237D01*
X104939141Y-96159227D01*
X104939144Y-96159231D01*
X105030586Y-96250673D01*
X105030608Y-96250693D01*
X105675521Y-96895606D01*
X105675550Y-96895637D01*
X105765769Y-96985856D01*
X105765772Y-96985858D01*
X105816995Y-97020084D01*
X105848916Y-97041414D01*
X105893719Y-97095025D01*
X105902426Y-97164350D01*
X105881599Y-97215636D01*
X105789431Y-97347267D01*
X105693261Y-97553502D01*
X105693258Y-97553511D01*
X105634366Y-97773302D01*
X105634364Y-97773313D01*
X105614532Y-97999998D01*
X105614532Y-98000001D01*
X105634364Y-98226686D01*
X105634366Y-98226697D01*
X105693258Y-98446488D01*
X105693261Y-98446497D01*
X105789431Y-98652732D01*
X105789432Y-98652734D01*
X105919954Y-98839141D01*
X106080858Y-99000045D01*
X106119370Y-99027011D01*
X106267266Y-99130568D01*
X106473504Y-99226739D01*
X106693308Y-99285635D01*
X106850780Y-99299412D01*
X106919998Y-99305468D01*
X106920000Y-99305468D01*
X106920002Y-99305468D01*
X106989220Y-99299412D01*
X107146692Y-99285635D01*
X107366496Y-99226739D01*
X107572734Y-99130568D01*
X107759139Y-99000047D01*
X107920047Y-98839139D01*
X108050568Y-98652734D01*
X108050568Y-98652732D01*
X108053673Y-98648299D01*
X108055114Y-98649308D01*
X108099955Y-98606538D01*
X108168560Y-98593305D01*
X108233429Y-98619262D01*
X108244473Y-98629063D01*
X112014141Y-102398732D01*
X112014142Y-102398733D01*
X112101267Y-102485858D01*
X112120568Y-102498754D01*
X112138554Y-102510772D01*
X112138555Y-102510773D01*
X112203715Y-102554312D01*
X112260631Y-102577887D01*
X112317548Y-102601463D01*
X112438388Y-102625499D01*
X112438392Y-102625500D01*
X112438393Y-102625500D01*
X113086913Y-102625500D01*
X113086913Y-102625499D01*
X113157095Y-102611540D01*
X113157097Y-102611540D01*
X113182598Y-102606467D01*
X113207757Y-102601463D01*
X113248137Y-102584737D01*
X113321591Y-102554312D01*
X113386750Y-102510773D01*
X113424038Y-102485858D01*
X113511163Y-102398733D01*
X113511164Y-102398731D01*
X113518230Y-102391665D01*
X113518233Y-102391661D01*
X114116664Y-101793230D01*
X114116671Y-101793224D01*
X114123731Y-101786163D01*
X114123733Y-101786163D01*
X114162819Y-101747077D01*
X114224142Y-101713592D01*
X114293834Y-101718576D01*
X114349767Y-101760448D01*
X114374184Y-101825912D01*
X114374500Y-101834758D01*
X114374500Y-102762535D01*
X114354815Y-102829574D01*
X114302011Y-102875329D01*
X114239696Y-102886063D01*
X114220007Y-102884341D01*
X114219999Y-102884341D01*
X113984596Y-102904936D01*
X113984586Y-102904938D01*
X113756344Y-102966094D01*
X113756335Y-102966098D01*
X113542171Y-103065964D01*
X113542169Y-103065965D01*
X113348597Y-103201505D01*
X113181505Y-103368597D01*
X113051575Y-103554158D01*
X112996998Y-103597783D01*
X112927500Y-103604977D01*
X112865145Y-103573454D01*
X112848425Y-103554158D01*
X112718494Y-103368597D01*
X112551402Y-103201506D01*
X112551395Y-103201501D01*
X112546379Y-103197989D01*
X112470968Y-103145185D01*
X112357834Y-103065967D01*
X112357830Y-103065965D01*
X112305500Y-103041563D01*
X112143663Y-102966097D01*
X112143659Y-102966096D01*
X112143655Y-102966094D01*
X111915413Y-102904938D01*
X111915403Y-102904936D01*
X111680001Y-102884341D01*
X111679999Y-102884341D01*
X111444596Y-102904936D01*
X111444586Y-102904938D01*
X111216344Y-102966094D01*
X111216335Y-102966098D01*
X111002171Y-103065964D01*
X111002169Y-103065965D01*
X110808597Y-103201505D01*
X110641505Y-103368597D01*
X110511575Y-103554158D01*
X110456998Y-103597783D01*
X110387500Y-103604977D01*
X110325145Y-103573454D01*
X110308425Y-103554158D01*
X110178494Y-103368597D01*
X110011402Y-103201506D01*
X110011395Y-103201501D01*
X110006379Y-103197989D01*
X109930968Y-103145185D01*
X109817834Y-103065967D01*
X109817830Y-103065965D01*
X109765500Y-103041563D01*
X109603663Y-102966097D01*
X109603659Y-102966096D01*
X109603655Y-102966094D01*
X109375413Y-102904938D01*
X109375403Y-102904936D01*
X109140001Y-102884341D01*
X109139999Y-102884341D01*
X108904596Y-102904936D01*
X108904586Y-102904938D01*
X108676344Y-102966094D01*
X108676335Y-102966098D01*
X108462171Y-103065964D01*
X108462169Y-103065965D01*
X108268597Y-103201505D01*
X108101505Y-103368597D01*
X107971575Y-103554158D01*
X107916998Y-103597783D01*
X107847500Y-103604977D01*
X107785145Y-103573454D01*
X107768425Y-103554158D01*
X107638494Y-103368597D01*
X107471402Y-103201506D01*
X107471395Y-103201501D01*
X107466379Y-103197989D01*
X107390968Y-103145185D01*
X107277834Y-103065967D01*
X107277830Y-103065965D01*
X107225500Y-103041563D01*
X107063663Y-102966097D01*
X107063659Y-102966096D01*
X107063655Y-102966094D01*
X106835413Y-102904938D01*
X106835403Y-102904936D01*
X106600001Y-102884341D01*
X106599999Y-102884341D01*
X106364596Y-102904936D01*
X106364586Y-102904938D01*
X106136344Y-102966094D01*
X106136335Y-102966098D01*
X105922171Y-103065964D01*
X105922169Y-103065965D01*
X105728597Y-103201505D01*
X105561505Y-103368597D01*
X105431575Y-103554158D01*
X105376998Y-103597783D01*
X105307500Y-103604977D01*
X105245145Y-103573454D01*
X105228425Y-103554158D01*
X105098494Y-103368597D01*
X104931402Y-103201506D01*
X104931395Y-103201501D01*
X104926379Y-103197989D01*
X104850968Y-103145185D01*
X104737834Y-103065967D01*
X104737830Y-103065965D01*
X104685500Y-103041563D01*
X104523663Y-102966097D01*
X104523659Y-102966096D01*
X104523655Y-102966094D01*
X104295413Y-102904938D01*
X104295403Y-102904936D01*
X104060001Y-102884341D01*
X104059999Y-102884341D01*
X103824596Y-102904936D01*
X103824586Y-102904938D01*
X103689062Y-102941251D01*
X103619212Y-102939588D01*
X103561349Y-102900425D01*
X103533846Y-102836196D01*
X103545433Y-102767294D01*
X103585846Y-102719901D01*
X103707569Y-102634669D01*
X103868409Y-102473829D01*
X103998886Y-102287491D01*
X104095017Y-102081335D01*
X104095021Y-102081326D01*
X104147624Y-101885009D01*
X103184438Y-101885009D01*
X103188832Y-101880615D01*
X103241493Y-101789403D01*
X103268752Y-101687670D01*
X103268752Y-101582348D01*
X103241493Y-101480615D01*
X103188832Y-101389403D01*
X103184438Y-101385009D01*
X104147624Y-101385009D01*
X104147624Y-101385008D01*
X104095021Y-101188691D01*
X104095017Y-101188682D01*
X104007033Y-100999998D01*
X105614532Y-100999998D01*
X105614532Y-101000001D01*
X105634364Y-101226686D01*
X105634366Y-101226697D01*
X105693258Y-101446488D01*
X105693261Y-101446497D01*
X105789431Y-101652732D01*
X105789432Y-101652734D01*
X105919954Y-101839141D01*
X106080858Y-102000045D01*
X106080861Y-102000047D01*
X106267266Y-102130568D01*
X106473504Y-102226739D01*
X106693308Y-102285635D01*
X106855230Y-102299801D01*
X106919998Y-102305468D01*
X106920000Y-102305468D01*
X106920002Y-102305468D01*
X106976673Y-102300509D01*
X107146692Y-102285635D01*
X107366496Y-102226739D01*
X107572734Y-102130568D01*
X107759139Y-102000047D01*
X107920047Y-101839139D01*
X108050568Y-101652734D01*
X108146739Y-101446496D01*
X108205635Y-101226692D01*
X108225468Y-101000000D01*
X108223025Y-100972081D01*
X108215427Y-100885227D01*
X108205635Y-100773308D01*
X108153786Y-100579805D01*
X108146741Y-100553511D01*
X108146738Y-100553502D01*
X108123743Y-100504189D01*
X108050568Y-100347266D01*
X107952839Y-100207693D01*
X107920045Y-100160858D01*
X107759141Y-99999954D01*
X107572734Y-99869432D01*
X107572732Y-99869431D01*
X107366497Y-99773261D01*
X107366488Y-99773258D01*
X107146697Y-99714366D01*
X107146693Y-99714365D01*
X107146692Y-99714365D01*
X107146691Y-99714364D01*
X107146686Y-99714364D01*
X106920002Y-99694532D01*
X106919998Y-99694532D01*
X106693313Y-99714364D01*
X106693302Y-99714366D01*
X106473511Y-99773258D01*
X106473502Y-99773261D01*
X106267267Y-99869431D01*
X106267265Y-99869432D01*
X106080858Y-99999954D01*
X105919954Y-100160858D01*
X105789432Y-100347265D01*
X105789431Y-100347267D01*
X105693261Y-100553502D01*
X105693258Y-100553511D01*
X105634366Y-100773302D01*
X105634364Y-100773313D01*
X105614532Y-100999998D01*
X104007033Y-100999998D01*
X103998886Y-100982526D01*
X103868409Y-100796188D01*
X103707572Y-100635351D01*
X103521234Y-100504874D01*
X103315080Y-100408743D01*
X103118752Y-100356136D01*
X103118752Y-101319323D01*
X103114358Y-101314929D01*
X103023146Y-101262268D01*
X102921413Y-101235009D01*
X102816091Y-101235009D01*
X102714358Y-101262268D01*
X102623146Y-101314929D01*
X102618752Y-101319323D01*
X102618752Y-100356136D01*
X102422423Y-100408743D01*
X102216269Y-100504874D01*
X102029931Y-100635351D01*
X101869094Y-100796188D01*
X101738617Y-100982526D01*
X101642486Y-101188682D01*
X101642482Y-101188691D01*
X101589879Y-101385008D01*
X101589880Y-101385009D01*
X102553066Y-101385009D01*
X102548672Y-101389403D01*
X102496011Y-101480615D01*
X102468752Y-101582348D01*
X102468752Y-101687670D01*
X102496011Y-101789403D01*
X102548672Y-101880615D01*
X102553066Y-101885009D01*
X101589880Y-101885009D01*
X101642482Y-102081326D01*
X101642486Y-102081335D01*
X101738617Y-102287491D01*
X101869094Y-102473829D01*
X102029931Y-102634666D01*
X102216269Y-102765143D01*
X102422425Y-102861274D01*
X102422434Y-102861278D01*
X102618751Y-102913881D01*
X102618752Y-102913880D01*
X102618752Y-101950695D01*
X102623146Y-101955089D01*
X102714358Y-102007750D01*
X102816091Y-102035009D01*
X102921413Y-102035009D01*
X103023146Y-102007750D01*
X103114358Y-101955089D01*
X103118752Y-101950695D01*
X103118752Y-102913880D01*
X103218016Y-102887283D01*
X103287866Y-102888946D01*
X103345729Y-102928108D01*
X103373233Y-102992337D01*
X103361647Y-103061239D01*
X103321234Y-103108633D01*
X103188594Y-103201508D01*
X103021505Y-103368597D01*
X102891269Y-103554595D01*
X102836692Y-103598220D01*
X102767194Y-103605414D01*
X102704839Y-103573891D01*
X102688119Y-103554595D01*
X102634925Y-103478626D01*
X102634925Y-103478625D01*
X102043787Y-104069764D01*
X102032518Y-104027708D01*
X101960110Y-103902292D01*
X101857708Y-103799890D01*
X101732292Y-103727482D01*
X101690234Y-103716212D01*
X102281373Y-103125073D01*
X102281373Y-103125072D01*
X102197583Y-103066402D01*
X102197579Y-103066400D01*
X101983492Y-102966570D01*
X101983483Y-102966566D01*
X101755326Y-102905432D01*
X101755315Y-102905430D01*
X101520002Y-102884843D01*
X101519998Y-102884843D01*
X101284684Y-102905430D01*
X101284673Y-102905432D01*
X101138459Y-102944610D01*
X101068609Y-102942947D01*
X101010747Y-102903784D01*
X100983243Y-102839556D01*
X100982366Y-102824835D01*
X100982366Y-90474499D01*
X101002051Y-90407460D01*
X101054855Y-90361705D01*
X101106362Y-90350499D01*
X101854713Y-90350499D01*
X101921752Y-90370184D01*
G37*
%TD.AperFunction*%
%TA.AperFunction,Conductor*%
G36*
X135245188Y-90241258D02*
G01*
X135283428Y-90299735D01*
X135286349Y-90311421D01*
X135303535Y-90397823D01*
X135303540Y-90397838D01*
X135350685Y-90511658D01*
X135350690Y-90511667D01*
X135379805Y-90555239D01*
X135379806Y-90555240D01*
X135419140Y-90614108D01*
X135419141Y-90614109D01*
X135419142Y-90614110D01*
X135506267Y-90701235D01*
X135506268Y-90701235D01*
X135513335Y-90708302D01*
X135513334Y-90708302D01*
X135513338Y-90708305D01*
X138265154Y-93460122D01*
X138298639Y-93521445D01*
X138293655Y-93591137D01*
X138251783Y-93647070D01*
X138238899Y-93654812D01*
X138239193Y-93655321D01*
X138234500Y-93658030D01*
X138048090Y-93788554D01*
X137887186Y-93949458D01*
X137756664Y-94135865D01*
X137756664Y-94135866D01*
X137660493Y-94342102D01*
X137660490Y-94342111D01*
X137601598Y-94561902D01*
X137601596Y-94561913D01*
X137581764Y-94788598D01*
X137581764Y-94788601D01*
X137601596Y-95015286D01*
X137601598Y-95015297D01*
X137660490Y-95235088D01*
X137660493Y-95235097D01*
X137756663Y-95441332D01*
X137756664Y-95441334D01*
X137887186Y-95627741D01*
X138048090Y-95788645D01*
X138048093Y-95788647D01*
X138234498Y-95919168D01*
X138440736Y-96015339D01*
X138660540Y-96074235D01*
X138822462Y-96088401D01*
X138887230Y-96094068D01*
X138887232Y-96094068D01*
X138887234Y-96094068D01*
X138943905Y-96089109D01*
X139113924Y-96074235D01*
X139333728Y-96015339D01*
X139539966Y-95919168D01*
X139726371Y-95788647D01*
X139887279Y-95627739D01*
X140017800Y-95441334D01*
X140017804Y-95441325D01*
X140020508Y-95436643D01*
X140022796Y-95437964D01*
X140061429Y-95393759D01*
X140128551Y-95374358D01*
X140195507Y-95394326D01*
X140215708Y-95410676D01*
X146578181Y-101773148D01*
X146611666Y-101834471D01*
X146614500Y-101860829D01*
X146614500Y-102964773D01*
X146594815Y-103031812D01*
X146561623Y-103066348D01*
X146368597Y-103201505D01*
X146201505Y-103368597D01*
X146071575Y-103554158D01*
X146016998Y-103597783D01*
X145947500Y-103604977D01*
X145885145Y-103573454D01*
X145868425Y-103554158D01*
X145738494Y-103368597D01*
X145571402Y-103201506D01*
X145571395Y-103201501D01*
X145566379Y-103197989D01*
X145490968Y-103145185D01*
X145377834Y-103065967D01*
X145377830Y-103065965D01*
X145325500Y-103041563D01*
X145163663Y-102966097D01*
X145163659Y-102966096D01*
X145163655Y-102966094D01*
X144935413Y-102904938D01*
X144935403Y-102904936D01*
X144700001Y-102884341D01*
X144699999Y-102884341D01*
X144464596Y-102904936D01*
X144464586Y-102904938D01*
X144236344Y-102966094D01*
X144236335Y-102966098D01*
X144022171Y-103065964D01*
X144022169Y-103065965D01*
X143828597Y-103201505D01*
X143661505Y-103368597D01*
X143531575Y-103554158D01*
X143476998Y-103597783D01*
X143407500Y-103604977D01*
X143345145Y-103573454D01*
X143328425Y-103554158D01*
X143198494Y-103368597D01*
X143031402Y-103201506D01*
X143031401Y-103201505D01*
X142868802Y-103087652D01*
X142838376Y-103066347D01*
X142794751Y-103011770D01*
X142785500Y-102964772D01*
X142785500Y-101092924D01*
X142785500Y-101092922D01*
X142784662Y-101088711D01*
X142784664Y-101088689D01*
X142784658Y-101088691D01*
X142764289Y-100986285D01*
X142764289Y-100986284D01*
X142763179Y-100980706D01*
X142761463Y-100972076D01*
X142731083Y-100898733D01*
X142714312Y-100858243D01*
X142672913Y-100796286D01*
X142672913Y-100796285D01*
X142672911Y-100796284D01*
X142645858Y-100755795D01*
X142645857Y-100755793D01*
X142555637Y-100665573D01*
X142555606Y-100665544D01*
X140219412Y-98329350D01*
X140185927Y-98268027D01*
X140187318Y-98209576D01*
X140205635Y-98141220D01*
X140225468Y-97914528D01*
X140223445Y-97891410D01*
X140205635Y-97687841D01*
X140205635Y-97687836D01*
X140154974Y-97498767D01*
X140146741Y-97468039D01*
X140146738Y-97468030D01*
X140090425Y-97347267D01*
X140050568Y-97261794D01*
X139952839Y-97122221D01*
X139920045Y-97075386D01*
X139759141Y-96914482D01*
X139572734Y-96783960D01*
X139572732Y-96783959D01*
X139366497Y-96687789D01*
X139366488Y-96687786D01*
X139146697Y-96628894D01*
X139146693Y-96628893D01*
X139146692Y-96628893D01*
X139146691Y-96628892D01*
X139146686Y-96628892D01*
X138920002Y-96609060D01*
X138919998Y-96609060D01*
X138693313Y-96628892D01*
X138693302Y-96628894D01*
X138473511Y-96687786D01*
X138473502Y-96687789D01*
X138267267Y-96783959D01*
X138267265Y-96783960D01*
X138080858Y-96914482D01*
X137919954Y-97075386D01*
X137789432Y-97261793D01*
X137789431Y-97261795D01*
X137693261Y-97468030D01*
X137693258Y-97468039D01*
X137634366Y-97687830D01*
X137634364Y-97687841D01*
X137614532Y-97914526D01*
X137614532Y-97914529D01*
X137634364Y-98141214D01*
X137634366Y-98141225D01*
X137693258Y-98361016D01*
X137693261Y-98361025D01*
X137789431Y-98567260D01*
X137789432Y-98567262D01*
X137919954Y-98753669D01*
X138080858Y-98914573D01*
X138080861Y-98914575D01*
X138267266Y-99045096D01*
X138473504Y-99141267D01*
X138693308Y-99200163D01*
X138850780Y-99213940D01*
X138919998Y-99219996D01*
X138920000Y-99219996D01*
X138920002Y-99219996D01*
X138989220Y-99213940D01*
X139146692Y-99200163D01*
X139215048Y-99181847D01*
X139284896Y-99183508D01*
X139334822Y-99213940D01*
X141498181Y-101377299D01*
X141531666Y-101438622D01*
X141534500Y-101464980D01*
X141534500Y-102964773D01*
X141514815Y-103031812D01*
X141481623Y-103066348D01*
X141288597Y-103201505D01*
X141121505Y-103368597D01*
X140991575Y-103554158D01*
X140936998Y-103597783D01*
X140867500Y-103604977D01*
X140805145Y-103573454D01*
X140788425Y-103554158D01*
X140658494Y-103368597D01*
X140491402Y-103201506D01*
X140491395Y-103201501D01*
X140486379Y-103197989D01*
X140410968Y-103145185D01*
X140297834Y-103065967D01*
X140297830Y-103065965D01*
X140245500Y-103041563D01*
X140083663Y-102966097D01*
X140083659Y-102966096D01*
X140083655Y-102966094D01*
X139855413Y-102904938D01*
X139855403Y-102904936D01*
X139620001Y-102884341D01*
X139619999Y-102884341D01*
X139384596Y-102904936D01*
X139384586Y-102904938D01*
X139156344Y-102966094D01*
X139156335Y-102966098D01*
X138942171Y-103065964D01*
X138942169Y-103065965D01*
X138748597Y-103201505D01*
X138581505Y-103368597D01*
X138451575Y-103554158D01*
X138396998Y-103597783D01*
X138327500Y-103604977D01*
X138265145Y-103573454D01*
X138248425Y-103554158D01*
X138118494Y-103368597D01*
X137951402Y-103201506D01*
X137951395Y-103201501D01*
X137946379Y-103197989D01*
X137870968Y-103145185D01*
X137757834Y-103065967D01*
X137757830Y-103065965D01*
X137705500Y-103041563D01*
X137543663Y-102966097D01*
X137543659Y-102966096D01*
X137543655Y-102966094D01*
X137315413Y-102904938D01*
X137315403Y-102904936D01*
X137080001Y-102884341D01*
X137079999Y-102884341D01*
X136844596Y-102904936D01*
X136844586Y-102904938D01*
X136616344Y-102966094D01*
X136616335Y-102966098D01*
X136402171Y-103065964D01*
X136402169Y-103065965D01*
X136208597Y-103201505D01*
X136041505Y-103368597D01*
X135911575Y-103554158D01*
X135856998Y-103597783D01*
X135787500Y-103604977D01*
X135725145Y-103573454D01*
X135708425Y-103554158D01*
X135578494Y-103368597D01*
X135411402Y-103201506D01*
X135411395Y-103201501D01*
X135406379Y-103197989D01*
X135330968Y-103145185D01*
X135217834Y-103065967D01*
X135217830Y-103065965D01*
X135165500Y-103041563D01*
X135003663Y-102966097D01*
X135003659Y-102966096D01*
X135003655Y-102966094D01*
X134775413Y-102904938D01*
X134775403Y-102904936D01*
X134540001Y-102884341D01*
X134539999Y-102884341D01*
X134304596Y-102904936D01*
X134304580Y-102904939D01*
X134269409Y-102914363D01*
X134199559Y-102912699D01*
X134141698Y-102873536D01*
X134114195Y-102809307D01*
X134125782Y-102740405D01*
X134135743Y-102723465D01*
X134247646Y-102563650D01*
X134302223Y-102520025D01*
X134349221Y-102510773D01*
X134686487Y-102510773D01*
X134746909Y-102498754D01*
X134807332Y-102486736D01*
X134807335Y-102486734D01*
X134807338Y-102486734D01*
X134840667Y-102472927D01*
X134840666Y-102472927D01*
X134840672Y-102472925D01*
X134921166Y-102439585D01*
X134972389Y-102405357D01*
X135023613Y-102371131D01*
X135110738Y-102284006D01*
X135110738Y-102284004D01*
X135120946Y-102273797D01*
X135120947Y-102273794D01*
X136394746Y-100999998D01*
X137614532Y-100999998D01*
X137614532Y-101000001D01*
X137634364Y-101226686D01*
X137634366Y-101226697D01*
X137693258Y-101446488D01*
X137693261Y-101446497D01*
X137789431Y-101652732D01*
X137789432Y-101652734D01*
X137919954Y-101839141D01*
X138080858Y-102000045D01*
X138080861Y-102000047D01*
X138267266Y-102130568D01*
X138473504Y-102226739D01*
X138693308Y-102285635D01*
X138855230Y-102299801D01*
X138919998Y-102305468D01*
X138920000Y-102305468D01*
X138920002Y-102305468D01*
X138976673Y-102300509D01*
X139146692Y-102285635D01*
X139366496Y-102226739D01*
X139572734Y-102130568D01*
X139759139Y-102000047D01*
X139920047Y-101839139D01*
X140050568Y-101652734D01*
X140146739Y-101446496D01*
X140205635Y-101226692D01*
X140225468Y-101000000D01*
X140223025Y-100972081D01*
X140215427Y-100885227D01*
X140205635Y-100773308D01*
X140153786Y-100579805D01*
X140146741Y-100553511D01*
X140146738Y-100553502D01*
X140123743Y-100504189D01*
X140050568Y-100347266D01*
X139952839Y-100207693D01*
X139920045Y-100160858D01*
X139759141Y-99999954D01*
X139572734Y-99869432D01*
X139572732Y-99869431D01*
X139366497Y-99773261D01*
X139366488Y-99773258D01*
X139146697Y-99714366D01*
X139146693Y-99714365D01*
X139146692Y-99714365D01*
X139146691Y-99714364D01*
X139146686Y-99714364D01*
X138920002Y-99694532D01*
X138919998Y-99694532D01*
X138693313Y-99714364D01*
X138693302Y-99714366D01*
X138473511Y-99773258D01*
X138473502Y-99773261D01*
X138267267Y-99869431D01*
X138267265Y-99869432D01*
X138080858Y-99999954D01*
X137919954Y-100160858D01*
X137789432Y-100347265D01*
X137789431Y-100347267D01*
X137693261Y-100553502D01*
X137693258Y-100553511D01*
X137634366Y-100773302D01*
X137634364Y-100773313D01*
X137614532Y-100999998D01*
X136394746Y-100999998D01*
X136485857Y-100908887D01*
X136519697Y-100858243D01*
X136554311Y-100806439D01*
X136601463Y-100692605D01*
X136625500Y-100571759D01*
X136625500Y-92913089D01*
X136620865Y-92889789D01*
X136609197Y-92831128D01*
X136601463Y-92792243D01*
X136569894Y-92716030D01*
X136554314Y-92678415D01*
X136554307Y-92678402D01*
X136485858Y-92575962D01*
X136485855Y-92575958D01*
X136395637Y-92485740D01*
X136395606Y-92485711D01*
X134475666Y-90565771D01*
X134442181Y-90504448D01*
X134447165Y-90434756D01*
X134489037Y-90378823D01*
X134552539Y-90354562D01*
X134598966Y-90350500D01*
X134775408Y-90335063D01*
X135003663Y-90273903D01*
X135112330Y-90223230D01*
X135181404Y-90212739D01*
X135245188Y-90241258D01*
G37*
%TD.AperFunction*%
%TA.AperFunction,Conductor*%
G36*
X134527702Y-93770185D02*
G01*
X134533548Y-93774182D01*
X134547265Y-93784148D01*
X134547270Y-93784151D01*
X134720192Y-93861142D01*
X134720197Y-93861144D01*
X134905354Y-93900500D01*
X134905355Y-93900500D01*
X135094644Y-93900500D01*
X135094646Y-93900500D01*
X135224720Y-93872852D01*
X135294386Y-93878168D01*
X135350120Y-93920305D01*
X135374225Y-93985885D01*
X135374500Y-93994142D01*
X135374500Y-99005857D01*
X135354815Y-99072896D01*
X135302011Y-99118651D01*
X135232853Y-99128595D01*
X135224720Y-99127147D01*
X135094647Y-99099500D01*
X135094646Y-99099500D01*
X135027568Y-99099500D01*
X134960529Y-99079815D01*
X134914774Y-99027011D01*
X134904247Y-98988462D01*
X134900787Y-98955539D01*
X134885674Y-98811744D01*
X134827179Y-98631716D01*
X134732533Y-98467784D01*
X134605871Y-98327112D01*
X134561736Y-98295046D01*
X134452734Y-98215851D01*
X134452729Y-98215848D01*
X134279807Y-98138857D01*
X134279802Y-98138855D01*
X134134001Y-98107865D01*
X134094646Y-98099500D01*
X134094645Y-98099500D01*
X134035453Y-98099500D01*
X133968414Y-98079815D01*
X133947772Y-98063181D01*
X131721282Y-95836692D01*
X131721279Y-95836688D01*
X131721279Y-95836689D01*
X131714212Y-95829622D01*
X131714212Y-95829621D01*
X131627087Y-95742496D01*
X131627086Y-95742495D01*
X131627085Y-95742494D01*
X131575863Y-95708269D01*
X131524640Y-95674042D01*
X131524637Y-95674040D01*
X131524634Y-95674039D01*
X131444146Y-95640701D01*
X131412853Y-95627739D01*
X131410806Y-95626891D01*
X131410796Y-95626889D01*
X131393051Y-95623359D01*
X131331140Y-95590973D01*
X131296567Y-95530257D01*
X131300308Y-95460487D01*
X131304864Y-95449334D01*
X131306264Y-95446330D01*
X131306269Y-95446317D01*
X131358872Y-95250000D01*
X130395686Y-95250000D01*
X130400080Y-95245606D01*
X130452741Y-95154394D01*
X130480000Y-95052661D01*
X130480000Y-94947339D01*
X130452741Y-94845606D01*
X130400080Y-94754394D01*
X130395686Y-94750000D01*
X131358872Y-94750000D01*
X131358872Y-94749999D01*
X131306269Y-94553682D01*
X131306265Y-94553673D01*
X131210134Y-94347517D01*
X131079657Y-94161179D01*
X130918817Y-94000339D01*
X130884164Y-93976075D01*
X130840539Y-93921498D01*
X130833345Y-93852000D01*
X130864868Y-93789645D01*
X130925098Y-93754231D01*
X130955287Y-93750500D01*
X134460663Y-93750500D01*
X134527702Y-93770185D01*
G37*
%TD.AperFunction*%
%TA.AperFunction,Conductor*%
G36*
X129271752Y-93770185D02*
G01*
X129317507Y-93822989D01*
X129327451Y-93892147D01*
X129298426Y-93955703D01*
X129275836Y-93976075D01*
X129241182Y-94000339D01*
X129080342Y-94161179D01*
X128949865Y-94347517D01*
X128853734Y-94553673D01*
X128853730Y-94553682D01*
X128801127Y-94749999D01*
X128801128Y-94750000D01*
X129764314Y-94750000D01*
X129759920Y-94754394D01*
X129707259Y-94845606D01*
X129680000Y-94947339D01*
X129680000Y-95052661D01*
X129707259Y-95154394D01*
X129759920Y-95245606D01*
X129764314Y-95250000D01*
X128801128Y-95250000D01*
X128853849Y-95446761D01*
X128852186Y-95516611D01*
X128813023Y-95574473D01*
X128748795Y-95601977D01*
X128734074Y-95602854D01*
X121266443Y-95602854D01*
X121199404Y-95583169D01*
X121153649Y-95530365D01*
X121143705Y-95461207D01*
X121146668Y-95446761D01*
X121156337Y-95410676D01*
X121205635Y-95226692D01*
X121225468Y-95000000D01*
X121205635Y-94773308D01*
X121146739Y-94553504D01*
X121050568Y-94347266D01*
X120920047Y-94160861D01*
X120920045Y-94160858D01*
X120759141Y-93999954D01*
X120725038Y-93976075D01*
X120681413Y-93921498D01*
X120674219Y-93852000D01*
X120705742Y-93789645D01*
X120765971Y-93754231D01*
X120796161Y-93750500D01*
X129204713Y-93750500D01*
X129271752Y-93770185D01*
G37*
%TD.AperFunction*%
%TA.AperFunction,Conductor*%
G36*
X130814855Y-89666546D02*
G01*
X130831575Y-89685842D01*
X130961505Y-89871401D01*
X131128599Y-90038495D01*
X131205485Y-90092331D01*
X131322165Y-90174032D01*
X131322167Y-90174033D01*
X131322170Y-90174035D01*
X131536337Y-90273903D01*
X131536343Y-90273904D01*
X131536344Y-90273905D01*
X131564193Y-90281367D01*
X131764592Y-90335063D01*
X131941034Y-90350500D01*
X131999999Y-90355659D01*
X132000000Y-90355659D01*
X132000001Y-90355659D01*
X132058966Y-90350500D01*
X132235408Y-90335063D01*
X132435806Y-90281367D01*
X132505656Y-90283030D01*
X132563518Y-90322193D01*
X132582460Y-90353689D01*
X132604490Y-90406874D01*
X132611959Y-90476343D01*
X132580684Y-90538823D01*
X132542335Y-90566708D01*
X132482306Y-90594700D01*
X132482301Y-90594703D01*
X132295891Y-90725227D01*
X132134987Y-90886131D01*
X132004465Y-91072538D01*
X132004464Y-91072540D01*
X131908294Y-91278775D01*
X131908291Y-91278784D01*
X131849399Y-91498575D01*
X131849397Y-91498586D01*
X131829565Y-91725271D01*
X131829565Y-91725274D01*
X131849397Y-91951959D01*
X131849399Y-91951970D01*
X131908291Y-92171761D01*
X131908293Y-92171765D01*
X131908294Y-92171769D01*
X131973955Y-92312579D01*
X131978859Y-92323095D01*
X131989351Y-92392173D01*
X131960831Y-92455957D01*
X131902355Y-92494196D01*
X131866477Y-92499500D01*
X131454137Y-92499500D01*
X131387098Y-92479815D01*
X131341343Y-92427011D01*
X131331399Y-92357853D01*
X131334362Y-92343407D01*
X131356045Y-92262483D01*
X131365635Y-92226692D01*
X131385468Y-92000000D01*
X131381265Y-91951965D01*
X131375861Y-91890193D01*
X131365635Y-91773308D01*
X131306739Y-91553504D01*
X131210568Y-91347266D01*
X131080047Y-91160861D01*
X131080045Y-91160858D01*
X130919141Y-90999954D01*
X130732734Y-90869432D01*
X130732732Y-90869431D01*
X130526497Y-90773261D01*
X130526488Y-90773258D01*
X130306697Y-90714366D01*
X130306693Y-90714365D01*
X130306692Y-90714365D01*
X130306691Y-90714364D01*
X130306686Y-90714364D01*
X130080002Y-90694532D01*
X130079998Y-90694532D01*
X129853313Y-90714364D01*
X129853302Y-90714366D01*
X129633511Y-90773258D01*
X129633502Y-90773261D01*
X129427267Y-90869431D01*
X129427265Y-90869432D01*
X129240858Y-90999954D01*
X129079954Y-91160858D01*
X128949432Y-91347265D01*
X128949431Y-91347267D01*
X128853261Y-91553502D01*
X128853258Y-91553511D01*
X128794366Y-91773302D01*
X128794364Y-91773313D01*
X128774532Y-91999998D01*
X128774532Y-92000001D01*
X128794364Y-92226686D01*
X128794366Y-92226697D01*
X128825638Y-92343407D01*
X128823975Y-92413257D01*
X128784812Y-92471119D01*
X128720583Y-92498623D01*
X128705863Y-92499500D01*
X121294137Y-92499500D01*
X121227098Y-92479815D01*
X121181343Y-92427011D01*
X121171399Y-92357853D01*
X121174362Y-92343407D01*
X121196045Y-92262483D01*
X121205635Y-92226692D01*
X121225468Y-92000000D01*
X121221265Y-91951965D01*
X121215861Y-91890193D01*
X121205635Y-91773308D01*
X121146739Y-91553504D01*
X121050568Y-91347266D01*
X120920047Y-91160861D01*
X120920045Y-91160858D01*
X120759141Y-90999954D01*
X120572734Y-90869432D01*
X120572732Y-90869431D01*
X120366497Y-90773261D01*
X120366488Y-90773258D01*
X120146697Y-90714366D01*
X120146693Y-90714365D01*
X120146692Y-90714365D01*
X120146691Y-90714364D01*
X120146686Y-90714364D01*
X119920002Y-90694532D01*
X119919998Y-90694532D01*
X119693313Y-90714364D01*
X119693302Y-90714366D01*
X119473511Y-90773258D01*
X119473502Y-90773261D01*
X119267267Y-90869431D01*
X119267265Y-90869432D01*
X119080858Y-90999954D01*
X118919954Y-91160858D01*
X118789432Y-91347265D01*
X118789431Y-91347267D01*
X118693261Y-91553502D01*
X118693258Y-91553511D01*
X118634366Y-91773302D01*
X118634364Y-91773313D01*
X118614532Y-91999998D01*
X118614532Y-92000001D01*
X118634364Y-92226686D01*
X118634366Y-92226697D01*
X118665638Y-92343407D01*
X118663975Y-92413257D01*
X118624812Y-92471119D01*
X118560583Y-92498623D01*
X118545863Y-92499500D01*
X118296373Y-92499500D01*
X118229334Y-92479815D01*
X118183579Y-92427011D01*
X118173635Y-92357853D01*
X118177764Y-92341403D01*
X118177366Y-92341297D01*
X118231372Y-92139742D01*
X117268186Y-92139742D01*
X117272580Y-92135348D01*
X117325241Y-92044136D01*
X117352500Y-91942403D01*
X117352500Y-91837081D01*
X117325241Y-91735348D01*
X117272580Y-91644136D01*
X117268186Y-91639742D01*
X118231372Y-91639742D01*
X118231372Y-91639741D01*
X118178769Y-91443424D01*
X118178765Y-91443415D01*
X118082634Y-91237259D01*
X117952157Y-91050921D01*
X117791320Y-90890084D01*
X117604982Y-90759607D01*
X117398828Y-90663476D01*
X117202500Y-90610869D01*
X117202500Y-91574056D01*
X117198106Y-91569662D01*
X117106894Y-91517001D01*
X117005161Y-91489742D01*
X116899839Y-91489742D01*
X116798106Y-91517001D01*
X116706894Y-91569662D01*
X116702500Y-91574056D01*
X116702500Y-90610869D01*
X116702498Y-90610868D01*
X116506175Y-90663475D01*
X116300017Y-90759607D01*
X116113679Y-90890084D01*
X115952842Y-91050921D01*
X115822365Y-91237259D01*
X115726234Y-91443415D01*
X115726230Y-91443424D01*
X115673627Y-91639741D01*
X115673628Y-91639742D01*
X116636814Y-91639742D01*
X116632420Y-91644136D01*
X116579759Y-91735348D01*
X116552500Y-91837081D01*
X116552500Y-91942403D01*
X116579759Y-92044136D01*
X116632420Y-92135348D01*
X116636814Y-92139742D01*
X115673628Y-92139742D01*
X115726230Y-92336059D01*
X115726234Y-92336068D01*
X115822365Y-92542224D01*
X115952839Y-92728558D01*
X116082163Y-92857883D01*
X116115647Y-92919206D01*
X116110663Y-92988898D01*
X116082162Y-93033245D01*
X114601269Y-94514140D01*
X114562181Y-94553228D01*
X114500858Y-94586713D01*
X114431166Y-94581729D01*
X114375233Y-94539857D01*
X114350816Y-94474393D01*
X114350500Y-94465547D01*
X114350500Y-91467152D01*
X114370185Y-91400113D01*
X114386814Y-91379476D01*
X115720819Y-90045470D01*
X115782140Y-90011987D01*
X115851832Y-90016971D01*
X115883955Y-90035688D01*
X115884164Y-90035390D01*
X115887733Y-90037889D01*
X115888203Y-90038163D01*
X115888600Y-90038496D01*
X116082165Y-90174032D01*
X116082167Y-90174033D01*
X116082170Y-90174035D01*
X116296337Y-90273903D01*
X116296343Y-90273904D01*
X116296344Y-90273905D01*
X116324193Y-90281367D01*
X116524592Y-90335063D01*
X116734105Y-90353393D01*
X116737144Y-90354582D01*
X116743507Y-90354216D01*
X116760000Y-90355659D01*
X116995408Y-90335063D01*
X117223663Y-90273903D01*
X117437830Y-90174035D01*
X117631401Y-90038495D01*
X117798495Y-89871401D01*
X117928425Y-89685842D01*
X117983002Y-89642217D01*
X118052500Y-89635023D01*
X118114855Y-89666546D01*
X118131575Y-89685842D01*
X118261505Y-89871401D01*
X118428599Y-90038495D01*
X118505485Y-90092331D01*
X118622165Y-90174032D01*
X118622167Y-90174033D01*
X118622170Y-90174035D01*
X118836337Y-90273903D01*
X118836343Y-90273904D01*
X118836344Y-90273905D01*
X118864193Y-90281367D01*
X119064592Y-90335063D01*
X119241034Y-90350500D01*
X119299999Y-90355659D01*
X119300000Y-90355659D01*
X119300001Y-90355659D01*
X119358966Y-90350500D01*
X119535408Y-90335063D01*
X119763663Y-90273903D01*
X119977830Y-90174035D01*
X120171401Y-90038495D01*
X120338495Y-89871401D01*
X120468425Y-89685842D01*
X120523002Y-89642217D01*
X120592500Y-89635023D01*
X120654855Y-89666546D01*
X120671575Y-89685842D01*
X120801505Y-89871401D01*
X120968599Y-90038495D01*
X121045485Y-90092331D01*
X121162165Y-90174032D01*
X121162167Y-90174033D01*
X121162170Y-90174035D01*
X121376337Y-90273903D01*
X121376343Y-90273904D01*
X121376344Y-90273905D01*
X121404193Y-90281367D01*
X121604592Y-90335063D01*
X121781034Y-90350500D01*
X121839999Y-90355659D01*
X121840000Y-90355659D01*
X121840001Y-90355659D01*
X121898966Y-90350500D01*
X122075408Y-90335063D01*
X122303663Y-90273903D01*
X122517830Y-90174035D01*
X122711401Y-90038495D01*
X122878495Y-89871401D01*
X123008425Y-89685842D01*
X123063002Y-89642217D01*
X123132500Y-89635023D01*
X123194855Y-89666546D01*
X123211575Y-89685842D01*
X123341505Y-89871401D01*
X123508599Y-90038495D01*
X123585485Y-90092331D01*
X123702165Y-90174032D01*
X123702167Y-90174033D01*
X123702170Y-90174035D01*
X123916337Y-90273903D01*
X123916343Y-90273904D01*
X123916344Y-90273905D01*
X123944193Y-90281367D01*
X124144592Y-90335063D01*
X124321034Y-90350500D01*
X124379999Y-90355659D01*
X124380000Y-90355659D01*
X124380001Y-90355659D01*
X124438966Y-90350500D01*
X124615408Y-90335063D01*
X124843663Y-90273903D01*
X125057830Y-90174035D01*
X125251401Y-90038495D01*
X125418495Y-89871401D01*
X125548425Y-89685842D01*
X125603002Y-89642217D01*
X125672500Y-89635023D01*
X125734855Y-89666546D01*
X125751575Y-89685842D01*
X125881505Y-89871401D01*
X126048599Y-90038495D01*
X126125485Y-90092331D01*
X126242165Y-90174032D01*
X126242167Y-90174033D01*
X126242170Y-90174035D01*
X126456337Y-90273903D01*
X126456343Y-90273904D01*
X126456344Y-90273905D01*
X126484193Y-90281367D01*
X126684592Y-90335063D01*
X126861034Y-90350500D01*
X126919999Y-90355659D01*
X126920000Y-90355659D01*
X126920001Y-90355659D01*
X126978966Y-90350500D01*
X127155408Y-90335063D01*
X127383663Y-90273903D01*
X127597830Y-90174035D01*
X127791401Y-90038495D01*
X127958495Y-89871401D01*
X128088425Y-89685842D01*
X128143002Y-89642217D01*
X128212500Y-89635023D01*
X128274855Y-89666546D01*
X128291575Y-89685842D01*
X128421505Y-89871401D01*
X128588599Y-90038495D01*
X128665485Y-90092331D01*
X128782165Y-90174032D01*
X128782167Y-90174033D01*
X128782170Y-90174035D01*
X128996337Y-90273903D01*
X128996343Y-90273904D01*
X128996344Y-90273905D01*
X129024193Y-90281367D01*
X129224592Y-90335063D01*
X129401034Y-90350500D01*
X129459999Y-90355659D01*
X129460000Y-90355659D01*
X129460001Y-90355659D01*
X129518966Y-90350500D01*
X129695408Y-90335063D01*
X129923663Y-90273903D01*
X130137830Y-90174035D01*
X130331401Y-90038495D01*
X130498495Y-89871401D01*
X130628425Y-89685842D01*
X130683002Y-89642217D01*
X130752500Y-89635023D01*
X130814855Y-89666546D01*
G37*
%TD.AperFunction*%
%TA.AperFunction,Conductor*%
G36*
X149401590Y-81593664D02*
G01*
X149457523Y-81635536D01*
X149471811Y-81660034D01*
X149484507Y-81688978D01*
X149611449Y-81883278D01*
X149611452Y-81883282D01*
X149611454Y-81883284D01*
X149768649Y-82054044D01*
X149768652Y-82054046D01*
X149768655Y-82054049D01*
X149951798Y-82196595D01*
X149951804Y-82196599D01*
X149951807Y-82196601D01*
X150044698Y-82246871D01*
X150148309Y-82302943D01*
X150155930Y-82307067D01*
X150220690Y-82329299D01*
X150375448Y-82382428D01*
X150375450Y-82382428D01*
X150375452Y-82382429D01*
X150604384Y-82420631D01*
X150604385Y-82420631D01*
X150836481Y-82420631D01*
X150836482Y-82420631D01*
X151065414Y-82382429D01*
X151069434Y-82381049D01*
X151139233Y-82377895D01*
X151199656Y-82412979D01*
X151231519Y-82475160D01*
X151229478Y-82530421D01*
X151175938Y-82730237D01*
X151175936Y-82730248D01*
X151156104Y-82956933D01*
X151156104Y-82956936D01*
X151175936Y-83183621D01*
X151175938Y-83183632D01*
X151234830Y-83403423D01*
X151234833Y-83403432D01*
X151331003Y-83609667D01*
X151331004Y-83609669D01*
X151461526Y-83796076D01*
X151622430Y-83956980D01*
X151622433Y-83956982D01*
X151808838Y-84087503D01*
X152015076Y-84183674D01*
X152234880Y-84242570D01*
X152396802Y-84256736D01*
X152461570Y-84262403D01*
X152461572Y-84262403D01*
X152461574Y-84262403D01*
X152518245Y-84257444D01*
X152688264Y-84242570D01*
X152836147Y-84202945D01*
X152905995Y-84204608D01*
X152963858Y-84243770D01*
X152991362Y-84307999D01*
X152992239Y-84322720D01*
X152992239Y-91751149D01*
X152972554Y-91818188D01*
X152919750Y-91863943D01*
X152850592Y-91873887D01*
X152836146Y-91870924D01*
X152688269Y-91831301D01*
X152688265Y-91831300D01*
X152688264Y-91831300D01*
X152688263Y-91831299D01*
X152688258Y-91831299D01*
X152461574Y-91811467D01*
X152461570Y-91811467D01*
X152234885Y-91831299D01*
X152234874Y-91831301D01*
X152015083Y-91890193D01*
X152015074Y-91890196D01*
X151808839Y-91986366D01*
X151808837Y-91986367D01*
X151622430Y-92116889D01*
X151519636Y-92219684D01*
X151458313Y-92253169D01*
X151388621Y-92248185D01*
X151344274Y-92219684D01*
X149691428Y-90566838D01*
X149657943Y-90505515D01*
X149662927Y-90435823D01*
X149704799Y-90379890D01*
X149770263Y-90355473D01*
X149779109Y-90355157D01*
X149780002Y-90355157D01*
X150015315Y-90334569D01*
X150015326Y-90334567D01*
X150243483Y-90273433D01*
X150243492Y-90273429D01*
X150457578Y-90173600D01*
X150457582Y-90173598D01*
X150541373Y-90114926D01*
X150541373Y-90114925D01*
X149950234Y-89523787D01*
X149992292Y-89512518D01*
X150117708Y-89440110D01*
X150220110Y-89337708D01*
X150292518Y-89212292D01*
X150303787Y-89170235D01*
X150894925Y-89761373D01*
X150894926Y-89761373D01*
X150953598Y-89677582D01*
X150953600Y-89677578D01*
X151053429Y-89463492D01*
X151053433Y-89463483D01*
X151114567Y-89235326D01*
X151114569Y-89235315D01*
X151135157Y-89000001D01*
X151135157Y-88999998D01*
X151114569Y-88764684D01*
X151114567Y-88764673D01*
X151053433Y-88536516D01*
X151053429Y-88536507D01*
X150953600Y-88322423D01*
X150953599Y-88322421D01*
X150894925Y-88238626D01*
X150894925Y-88238625D01*
X150303787Y-88829764D01*
X150292518Y-88787708D01*
X150220110Y-88662292D01*
X150117708Y-88559890D01*
X149992292Y-88487482D01*
X149950234Y-88476212D01*
X150541373Y-87885073D01*
X150541373Y-87885072D01*
X150457583Y-87826402D01*
X150457579Y-87826400D01*
X150243492Y-87726570D01*
X150243483Y-87726566D01*
X150015326Y-87665432D01*
X150015315Y-87665430D01*
X149780002Y-87644843D01*
X149779998Y-87644843D01*
X149544684Y-87665430D01*
X149544673Y-87665432D01*
X149316516Y-87726566D01*
X149316507Y-87726570D01*
X149102419Y-87826401D01*
X149018625Y-87885072D01*
X149609765Y-88476212D01*
X149567708Y-88487482D01*
X149442292Y-88559890D01*
X149339890Y-88662292D01*
X149267482Y-88787708D01*
X149256212Y-88829765D01*
X148665073Y-88238626D01*
X148611881Y-88314594D01*
X148557304Y-88358219D01*
X148487806Y-88365413D01*
X148425451Y-88333891D01*
X148408730Y-88314594D01*
X148278494Y-88128597D01*
X148111402Y-87961506D01*
X148111395Y-87961501D01*
X148098220Y-87952276D01*
X148036975Y-87909391D01*
X147917834Y-87825967D01*
X147917830Y-87825965D01*
X147865500Y-87801563D01*
X147703663Y-87726097D01*
X147703659Y-87726096D01*
X147703655Y-87726094D01*
X147475413Y-87664938D01*
X147475403Y-87664936D01*
X147240001Y-87644341D01*
X147239999Y-87644341D01*
X147004596Y-87664936D01*
X147004586Y-87664938D01*
X146776344Y-87726094D01*
X146776335Y-87726098D01*
X146562171Y-87825964D01*
X146562169Y-87825965D01*
X146368597Y-87961505D01*
X146201505Y-88128597D01*
X146071575Y-88314158D01*
X146016998Y-88357783D01*
X145947500Y-88364977D01*
X145885145Y-88333454D01*
X145868425Y-88314158D01*
X145738494Y-88128597D01*
X145571402Y-87961506D01*
X145571401Y-87961505D01*
X145438093Y-87868161D01*
X145378376Y-87826347D01*
X145334751Y-87771770D01*
X145325500Y-87724772D01*
X145325500Y-85999998D01*
X146194532Y-85999998D01*
X146194532Y-86000001D01*
X146214364Y-86226686D01*
X146214366Y-86226697D01*
X146273258Y-86446488D01*
X146273261Y-86446497D01*
X146369431Y-86652732D01*
X146369432Y-86652734D01*
X146499954Y-86839141D01*
X146660858Y-87000045D01*
X146680991Y-87014142D01*
X146847266Y-87130568D01*
X147053504Y-87226739D01*
X147273308Y-87285635D01*
X147435230Y-87299801D01*
X147499998Y-87305468D01*
X147500000Y-87305468D01*
X147500002Y-87305468D01*
X147556673Y-87300509D01*
X147726692Y-87285635D01*
X147946496Y-87226739D01*
X148152734Y-87130568D01*
X148339139Y-87000047D01*
X148500047Y-86839139D01*
X148630568Y-86652734D01*
X148726739Y-86446496D01*
X148785635Y-86226692D01*
X148805468Y-86000000D01*
X148785635Y-85773308D01*
X148726739Y-85553504D01*
X148630568Y-85347266D01*
X148500047Y-85160861D01*
X148500045Y-85160858D01*
X148339141Y-84999954D01*
X148152734Y-84869432D01*
X148152732Y-84869431D01*
X147946497Y-84773261D01*
X147946488Y-84773258D01*
X147726697Y-84714366D01*
X147726693Y-84714365D01*
X147726692Y-84714365D01*
X147726691Y-84714364D01*
X147726686Y-84714364D01*
X147500002Y-84694532D01*
X147499998Y-84694532D01*
X147273313Y-84714364D01*
X147273302Y-84714366D01*
X147053511Y-84773258D01*
X147053502Y-84773261D01*
X146847267Y-84869431D01*
X146847265Y-84869432D01*
X146660858Y-84999954D01*
X146499954Y-85160858D01*
X146369432Y-85347265D01*
X146369431Y-85347267D01*
X146273261Y-85553502D01*
X146273258Y-85553511D01*
X146214366Y-85773302D01*
X146214364Y-85773313D01*
X146194532Y-85999998D01*
X145325500Y-85999998D01*
X145325500Y-85618603D01*
X145345185Y-85551564D01*
X145361814Y-85530927D01*
X149270577Y-81622163D01*
X149331898Y-81588680D01*
X149401590Y-81593664D01*
G37*
%TD.AperFunction*%
%TA.AperFunction,Conductor*%
G36*
X107979293Y-74154357D02*
G01*
X108009603Y-74176606D01*
X108731729Y-74898732D01*
X108731730Y-74898733D01*
X108818855Y-74985858D01*
X108842832Y-75001879D01*
X108921302Y-75054311D01*
X109035136Y-75101463D01*
X109155976Y-75125499D01*
X109155980Y-75125500D01*
X109155981Y-75125500D01*
X110561608Y-75125500D01*
X110561608Y-75125499D01*
X110659808Y-75105967D01*
X110659809Y-75105967D01*
X110682442Y-75101465D01*
X110682442Y-75101464D01*
X110682452Y-75101463D01*
X110715792Y-75087652D01*
X110796286Y-75054312D01*
X110847509Y-75020084D01*
X110898733Y-74985858D01*
X110985858Y-74898733D01*
X110985860Y-74898730D01*
X110992925Y-74891665D01*
X110992927Y-74891661D01*
X111192839Y-74691749D01*
X111254162Y-74658265D01*
X111323854Y-74663249D01*
X111379787Y-74705121D01*
X111404204Y-74770585D01*
X111399615Y-74811553D01*
X111399725Y-74811575D01*
X111399469Y-74812857D01*
X111399183Y-74815419D01*
X111398536Y-74817551D01*
X111384188Y-74889686D01*
X111374500Y-74938389D01*
X111374500Y-76061610D01*
X111398535Y-76182444D01*
X111398538Y-76182454D01*
X111412347Y-76215792D01*
X111412347Y-76215793D01*
X111445685Y-76296281D01*
X111445687Y-76296284D01*
X111445688Y-76296286D01*
X111456861Y-76313007D01*
X111461804Y-76320404D01*
X111461805Y-76320406D01*
X111514140Y-76398731D01*
X111514141Y-76398732D01*
X111514142Y-76398733D01*
X111601267Y-76485858D01*
X111601268Y-76485858D01*
X111608335Y-76492925D01*
X111608334Y-76492925D01*
X111608338Y-76492928D01*
X112338181Y-77222771D01*
X112371666Y-77284094D01*
X112374500Y-77310452D01*
X112374500Y-79015376D01*
X112354815Y-79082415D01*
X112302011Y-79128170D01*
X112232853Y-79138114D01*
X112169297Y-79109089D01*
X112147398Y-79084267D01*
X112074325Y-78974907D01*
X112074322Y-78974903D01*
X111930096Y-78830677D01*
X111930092Y-78830674D01*
X111760499Y-78717355D01*
X111760486Y-78717348D01*
X111572048Y-78639295D01*
X111572038Y-78639292D01*
X111371990Y-78599500D01*
X111371988Y-78599500D01*
X111168012Y-78599500D01*
X111168010Y-78599500D01*
X110967961Y-78639292D01*
X110967951Y-78639295D01*
X110779509Y-78717350D01*
X110703891Y-78767877D01*
X110637213Y-78788755D01*
X110569833Y-78770270D01*
X110566109Y-78767877D01*
X110533960Y-78746396D01*
X110490493Y-78717352D01*
X110490492Y-78717351D01*
X110490490Y-78717350D01*
X110302048Y-78639295D01*
X110302038Y-78639292D01*
X110101990Y-78599500D01*
X110101988Y-78599500D01*
X109898012Y-78599500D01*
X109898010Y-78599500D01*
X109697961Y-78639292D01*
X109697951Y-78639295D01*
X109509509Y-78717350D01*
X109433891Y-78767877D01*
X109367213Y-78788755D01*
X109299833Y-78770270D01*
X109296109Y-78767877D01*
X109263960Y-78746396D01*
X109220493Y-78717352D01*
X109220492Y-78717351D01*
X109220490Y-78717350D01*
X109032048Y-78639295D01*
X109032038Y-78639292D01*
X108831990Y-78599500D01*
X108831988Y-78599500D01*
X108628012Y-78599500D01*
X108628010Y-78599500D01*
X108427962Y-78639292D01*
X108427959Y-78639293D01*
X108427957Y-78639293D01*
X108427956Y-78639294D01*
X108380487Y-78658956D01*
X108355927Y-78669129D01*
X108286458Y-78676597D01*
X108245931Y-78658956D01*
X108245114Y-78660454D01*
X108237328Y-78656202D01*
X108102482Y-78605908D01*
X108102483Y-78605908D01*
X108042883Y-78599501D01*
X108042881Y-78599500D01*
X108042873Y-78599500D01*
X108042864Y-78599500D01*
X106877129Y-78599500D01*
X106877123Y-78599501D01*
X106817516Y-78605908D01*
X106682671Y-78656202D01*
X106682664Y-78656206D01*
X106567455Y-78742452D01*
X106567452Y-78742455D01*
X106481206Y-78857664D01*
X106481202Y-78857671D01*
X106430908Y-78992517D01*
X106428451Y-79015376D01*
X106424501Y-79052123D01*
X106424500Y-79052135D01*
X106424500Y-80947870D01*
X106424501Y-80947876D01*
X106430908Y-81007483D01*
X106481202Y-81142328D01*
X106481206Y-81142335D01*
X106567452Y-81257544D01*
X106567455Y-81257547D01*
X106682664Y-81343793D01*
X106682671Y-81343797D01*
X106817517Y-81394091D01*
X106825062Y-81395874D01*
X106824758Y-81397158D01*
X106881841Y-81420798D01*
X106907142Y-81448462D01*
X106925829Y-81476428D01*
X106925830Y-81476431D01*
X106925831Y-81476431D01*
X106974140Y-81548731D01*
X106974141Y-81548732D01*
X106974142Y-81548733D01*
X107061267Y-81635858D01*
X107061268Y-81635858D01*
X107068335Y-81642925D01*
X107068334Y-81642925D01*
X107068338Y-81642928D01*
X107255681Y-81830271D01*
X107289166Y-81891594D01*
X107292000Y-81917952D01*
X107292000Y-87637931D01*
X107272315Y-87704970D01*
X107219511Y-87750725D01*
X107150353Y-87760669D01*
X107115596Y-87750314D01*
X107064677Y-87726570D01*
X107063663Y-87726097D01*
X107063660Y-87726096D01*
X107063655Y-87726094D01*
X106835413Y-87664938D01*
X106835403Y-87664936D01*
X106600001Y-87644341D01*
X106599999Y-87644341D01*
X106364596Y-87664936D01*
X106364586Y-87664938D01*
X106136344Y-87726094D01*
X106136335Y-87726098D01*
X105922171Y-87825964D01*
X105922169Y-87825965D01*
X105728597Y-87961505D01*
X105561505Y-88128597D01*
X105431575Y-88314158D01*
X105376998Y-88357783D01*
X105307500Y-88364977D01*
X105245145Y-88333454D01*
X105228425Y-88314158D01*
X105098494Y-88128597D01*
X104931402Y-87961506D01*
X104931395Y-87961501D01*
X104918220Y-87952276D01*
X104856975Y-87909391D01*
X104737834Y-87825967D01*
X104737830Y-87825965D01*
X104685500Y-87801563D01*
X104523663Y-87726097D01*
X104523659Y-87726096D01*
X104523655Y-87726094D01*
X104295413Y-87664938D01*
X104295403Y-87664936D01*
X104060001Y-87644341D01*
X104059999Y-87644341D01*
X103824596Y-87664936D01*
X103824583Y-87664939D01*
X103666592Y-87707271D01*
X103596742Y-87705608D01*
X103538880Y-87666445D01*
X103511377Y-87602216D01*
X103510500Y-87587496D01*
X103510500Y-87025934D01*
X103510266Y-87024760D01*
X103510256Y-87024712D01*
X103493772Y-86941835D01*
X103493772Y-86941834D01*
X103486464Y-86905096D01*
X103486463Y-86905090D01*
X103439311Y-86791256D01*
X103439310Y-86791255D01*
X103439307Y-86791249D01*
X103370858Y-86688809D01*
X103370855Y-86688805D01*
X103280637Y-86598587D01*
X103280606Y-86598558D01*
X102974328Y-86292280D01*
X102940843Y-86230957D01*
X102942234Y-86172506D01*
X102960551Y-86104150D01*
X102980384Y-85877458D01*
X102960551Y-85650766D01*
X102901655Y-85430962D01*
X102805484Y-85224724D01*
X102678755Y-85043734D01*
X102674961Y-85038316D01*
X102514057Y-84877412D01*
X102327650Y-84746890D01*
X102327648Y-84746889D01*
X102121413Y-84650719D01*
X102121404Y-84650716D01*
X101901613Y-84591824D01*
X101901609Y-84591823D01*
X101901608Y-84591823D01*
X101901607Y-84591822D01*
X101901602Y-84591822D01*
X101674918Y-84571990D01*
X101674914Y-84571990D01*
X101448229Y-84591822D01*
X101448218Y-84591824D01*
X101228427Y-84650716D01*
X101228418Y-84650720D01*
X101158771Y-84683197D01*
X101089693Y-84693689D01*
X101025909Y-84665169D01*
X100987670Y-84606693D01*
X100982366Y-84570815D01*
X100982366Y-83651211D01*
X101002051Y-83584172D01*
X101054855Y-83538417D01*
X101124013Y-83528473D01*
X101138460Y-83531436D01*
X101349861Y-83588081D01*
X101349868Y-83588082D01*
X101576466Y-83607907D01*
X101576470Y-83607907D01*
X101803067Y-83588082D01*
X101803078Y-83588080D01*
X102022785Y-83529210D01*
X102022799Y-83529205D01*
X102228946Y-83433077D01*
X102301939Y-83381965D01*
X101622915Y-82702941D01*
X101629129Y-82702941D01*
X101730862Y-82675682D01*
X101822074Y-82623021D01*
X101896548Y-82548547D01*
X101949209Y-82457335D01*
X101976468Y-82355602D01*
X101976468Y-82349388D01*
X102655492Y-83028412D01*
X102706604Y-82955419D01*
X102802732Y-82749272D01*
X102802737Y-82749258D01*
X102861607Y-82529551D01*
X102861609Y-82529540D01*
X102881434Y-82302943D01*
X102881434Y-82302938D01*
X102861609Y-82076341D01*
X102861607Y-82076330D01*
X102802737Y-81856623D01*
X102802732Y-81856609D01*
X102706604Y-81650462D01*
X102706600Y-81650454D01*
X102655493Y-81577467D01*
X101976468Y-82256492D01*
X101976468Y-82250280D01*
X101949209Y-82148547D01*
X101896548Y-82057335D01*
X101822074Y-81982861D01*
X101730862Y-81930200D01*
X101629129Y-81902941D01*
X101622915Y-81902941D01*
X102301940Y-81223915D01*
X102228949Y-81172806D01*
X102224265Y-81170102D01*
X102225522Y-81167924D01*
X102181011Y-81128740D01*
X102161852Y-81061549D01*
X102182061Y-80994666D01*
X102198159Y-80974848D01*
X107398729Y-75774278D01*
X107398733Y-75774276D01*
X107485858Y-75687151D01*
X107554311Y-75584704D01*
X107601463Y-75470870D01*
X107613481Y-75410447D01*
X107625500Y-75350025D01*
X107625500Y-75226811D01*
X107625500Y-74377814D01*
X107645185Y-74310775D01*
X107690483Y-74268759D01*
X107768620Y-74226473D01*
X107768626Y-74226470D01*
X107845761Y-74166433D01*
X107910753Y-74140791D01*
X107979293Y-74154357D01*
G37*
%TD.AperFunction*%
%TA.AperFunction,Conductor*%
G36*
X122696294Y-87422411D02*
G01*
X122892611Y-87369808D01*
X122892620Y-87369804D01*
X123098776Y-87273673D01*
X123285114Y-87143196D01*
X123445951Y-86982359D01*
X123576426Y-86796023D01*
X123603635Y-86737673D01*
X123649807Y-86685234D01*
X123717001Y-86666081D01*
X123783882Y-86686296D01*
X123828399Y-86737671D01*
X123847341Y-86778291D01*
X123855725Y-86796271D01*
X123855726Y-86796273D01*
X123986248Y-86982680D01*
X124147152Y-87143584D01*
X124148559Y-87144569D01*
X124333560Y-87274107D01*
X124539798Y-87370278D01*
X124759602Y-87429174D01*
X124914559Y-87442731D01*
X124986292Y-87449007D01*
X124986294Y-87449007D01*
X124986296Y-87449007D01*
X125042967Y-87444048D01*
X125212986Y-87429174D01*
X125432790Y-87370278D01*
X125639028Y-87274107D01*
X125825433Y-87143586D01*
X125986341Y-86982678D01*
X126116862Y-86796273D01*
X126143912Y-86738263D01*
X126190084Y-86685824D01*
X126257277Y-86666672D01*
X126324159Y-86686887D01*
X126368676Y-86738264D01*
X126395723Y-86796267D01*
X126395726Y-86796273D01*
X126526248Y-86982680D01*
X126687152Y-87143584D01*
X126688559Y-87144569D01*
X126873560Y-87274107D01*
X127079798Y-87370278D01*
X127299602Y-87429174D01*
X127454559Y-87442731D01*
X127526292Y-87449007D01*
X127526294Y-87449007D01*
X127526296Y-87449007D01*
X127582967Y-87444048D01*
X127752986Y-87429174D01*
X127972790Y-87370278D01*
X128179028Y-87274107D01*
X128365433Y-87143586D01*
X128526341Y-86982678D01*
X128638907Y-86821916D01*
X128693483Y-86778291D01*
X128740482Y-86769039D01*
X128852106Y-86769039D01*
X128919145Y-86788724D01*
X128953681Y-86821916D01*
X129066248Y-86982680D01*
X129227152Y-87143584D01*
X129228559Y-87144569D01*
X129413560Y-87274107D01*
X129619798Y-87370278D01*
X129839602Y-87429174D01*
X129994559Y-87442731D01*
X130066292Y-87449007D01*
X130066294Y-87449007D01*
X130066296Y-87449007D01*
X130122967Y-87444048D01*
X130292986Y-87429174D01*
X130512790Y-87370278D01*
X130719028Y-87274107D01*
X130905433Y-87143586D01*
X131066341Y-86982678D01*
X131167878Y-86837665D01*
X131222453Y-86794042D01*
X131291951Y-86786848D01*
X131354306Y-86818370D01*
X131372554Y-86839899D01*
X131389140Y-86864722D01*
X131389141Y-86864723D01*
X131389142Y-86864724D01*
X131476267Y-86951849D01*
X131476268Y-86951849D01*
X131483335Y-86958916D01*
X131483334Y-86958916D01*
X131483338Y-86958919D01*
X131967149Y-87442731D01*
X132000634Y-87504054D01*
X131995650Y-87573746D01*
X131953778Y-87629679D01*
X131890276Y-87653940D01*
X131764596Y-87664936D01*
X131764586Y-87664938D01*
X131536344Y-87726094D01*
X131536335Y-87726098D01*
X131322171Y-87825964D01*
X131322169Y-87825965D01*
X131128597Y-87961505D01*
X130961505Y-88128597D01*
X130831575Y-88314158D01*
X130776998Y-88357783D01*
X130707500Y-88364977D01*
X130645145Y-88333454D01*
X130628425Y-88314158D01*
X130498494Y-88128597D01*
X130331402Y-87961506D01*
X130331395Y-87961501D01*
X130318220Y-87952276D01*
X130256975Y-87909391D01*
X130137834Y-87825967D01*
X130137830Y-87825965D01*
X130085500Y-87801563D01*
X129923663Y-87726097D01*
X129923659Y-87726096D01*
X129923655Y-87726094D01*
X129695413Y-87664938D01*
X129695403Y-87664936D01*
X129460001Y-87644341D01*
X129459999Y-87644341D01*
X129224596Y-87664936D01*
X129224586Y-87664938D01*
X128996344Y-87726094D01*
X128996335Y-87726098D01*
X128782171Y-87825964D01*
X128782169Y-87825965D01*
X128588597Y-87961505D01*
X128421505Y-88128597D01*
X128291575Y-88314158D01*
X128236998Y-88357783D01*
X128167500Y-88364977D01*
X128105145Y-88333454D01*
X128088425Y-88314158D01*
X127958494Y-88128597D01*
X127791402Y-87961506D01*
X127791395Y-87961501D01*
X127778220Y-87952276D01*
X127716975Y-87909391D01*
X127597834Y-87825967D01*
X127597830Y-87825965D01*
X127545500Y-87801563D01*
X127383663Y-87726097D01*
X127383659Y-87726096D01*
X127383655Y-87726094D01*
X127155413Y-87664938D01*
X127155403Y-87664936D01*
X126920001Y-87644341D01*
X126919999Y-87644341D01*
X126684596Y-87664936D01*
X126684586Y-87664938D01*
X126456344Y-87726094D01*
X126456335Y-87726098D01*
X126242171Y-87825964D01*
X126242169Y-87825965D01*
X126048597Y-87961505D01*
X125881505Y-88128597D01*
X125751575Y-88314158D01*
X125696998Y-88357783D01*
X125627500Y-88364977D01*
X125565145Y-88333454D01*
X125548425Y-88314158D01*
X125418494Y-88128597D01*
X125251402Y-87961506D01*
X125251395Y-87961501D01*
X125238220Y-87952276D01*
X125176975Y-87909391D01*
X125057834Y-87825967D01*
X125057830Y-87825965D01*
X125005500Y-87801563D01*
X124843663Y-87726097D01*
X124843659Y-87726096D01*
X124843655Y-87726094D01*
X124615413Y-87664938D01*
X124615403Y-87664936D01*
X124380001Y-87644341D01*
X124379999Y-87644341D01*
X124144596Y-87664936D01*
X124144586Y-87664938D01*
X123916344Y-87726094D01*
X123916335Y-87726098D01*
X123702171Y-87825964D01*
X123702169Y-87825965D01*
X123508597Y-87961505D01*
X123341505Y-88128597D01*
X123211575Y-88314158D01*
X123156998Y-88357783D01*
X123087500Y-88364977D01*
X123025145Y-88333454D01*
X123008425Y-88314158D01*
X122878494Y-88128597D01*
X122711402Y-87961506D01*
X122711395Y-87961501D01*
X122698220Y-87952276D01*
X122636975Y-87909391D01*
X122517834Y-87825967D01*
X122517830Y-87825965D01*
X122465500Y-87801563D01*
X122303663Y-87726097D01*
X122303659Y-87726096D01*
X122303655Y-87726094D01*
X122075413Y-87664938D01*
X122075403Y-87664936D01*
X121840001Y-87644341D01*
X121839999Y-87644341D01*
X121604596Y-87664936D01*
X121604586Y-87664938D01*
X121376344Y-87726094D01*
X121376335Y-87726098D01*
X121162171Y-87825964D01*
X121162169Y-87825965D01*
X120968597Y-87961505D01*
X120801505Y-88128597D01*
X120671575Y-88314158D01*
X120616998Y-88357783D01*
X120547500Y-88364977D01*
X120485145Y-88333454D01*
X120468425Y-88314158D01*
X120338494Y-88128597D01*
X120171402Y-87961506D01*
X120171395Y-87961501D01*
X120158220Y-87952276D01*
X120096975Y-87909391D01*
X119977834Y-87825967D01*
X119977830Y-87825965D01*
X119925500Y-87801563D01*
X119763663Y-87726097D01*
X119763659Y-87726096D01*
X119763655Y-87726094D01*
X119535413Y-87664938D01*
X119535404Y-87664936D01*
X119509958Y-87662710D01*
X119444890Y-87637256D01*
X119403912Y-87580664D01*
X119400036Y-87510902D01*
X119433085Y-87451503D01*
X119452170Y-87432418D01*
X119513491Y-87398935D01*
X119571938Y-87400325D01*
X119679602Y-87429174D01*
X119834559Y-87442731D01*
X119906292Y-87449007D01*
X119906294Y-87449007D01*
X119906296Y-87449007D01*
X119962967Y-87444048D01*
X120132986Y-87429174D01*
X120352790Y-87370278D01*
X120559028Y-87274107D01*
X120745433Y-87143586D01*
X120906341Y-86982678D01*
X121036862Y-86796273D01*
X121064189Y-86737668D01*
X121110358Y-86685234D01*
X121177551Y-86666081D01*
X121244433Y-86686296D01*
X121288951Y-86737672D01*
X121316159Y-86796021D01*
X121446636Y-86982359D01*
X121607473Y-87143196D01*
X121793811Y-87273673D01*
X121999967Y-87369804D01*
X121999976Y-87369808D01*
X122196293Y-87422411D01*
X122196294Y-87422410D01*
X122196294Y-86459225D01*
X122200688Y-86463619D01*
X122291900Y-86516280D01*
X122393633Y-86543539D01*
X122498955Y-86543539D01*
X122600688Y-86516280D01*
X122691900Y-86463619D01*
X122696294Y-86459225D01*
X122696294Y-87422411D01*
G37*
%TD.AperFunction*%
%TA.AperFunction,Conductor*%
G36*
X137659677Y-83025799D02*
G01*
X137686936Y-83127532D01*
X137739597Y-83218744D01*
X137814071Y-83293218D01*
X137905283Y-83345879D01*
X138007016Y-83373138D01*
X138013228Y-83373138D01*
X137334203Y-84052163D01*
X137407190Y-84103270D01*
X137407198Y-84103274D01*
X137613345Y-84199402D01*
X137613359Y-84199407D01*
X137833066Y-84258277D01*
X137833077Y-84258279D01*
X138059675Y-84278104D01*
X138059678Y-84278104D01*
X138239692Y-84262354D01*
X138308192Y-84276120D01*
X138358375Y-84324735D01*
X138374500Y-84385882D01*
X138374500Y-84561609D01*
X138376125Y-84569781D01*
X138369890Y-84639372D01*
X138327022Y-84694545D01*
X138261130Y-84717783D01*
X138232122Y-84714757D01*
X138231939Y-84715800D01*
X138226599Y-84714858D01*
X138000002Y-84695034D01*
X137999998Y-84695034D01*
X137773400Y-84714858D01*
X137773389Y-84714860D01*
X137553682Y-84773730D01*
X137553673Y-84773734D01*
X137347516Y-84869866D01*
X137347512Y-84869868D01*
X137274526Y-84920973D01*
X137274526Y-84920974D01*
X137953552Y-85600000D01*
X137947339Y-85600000D01*
X137845606Y-85627259D01*
X137754394Y-85679920D01*
X137679920Y-85754394D01*
X137627259Y-85845606D01*
X137600000Y-85947339D01*
X137600000Y-85953552D01*
X136920973Y-85274525D01*
X136919644Y-85274642D01*
X136860856Y-85262826D01*
X136874740Y-85300050D01*
X136863438Y-85361300D01*
X136773735Y-85553668D01*
X136773730Y-85553682D01*
X136714860Y-85773389D01*
X136714858Y-85773400D01*
X136695034Y-85999997D01*
X136695034Y-86000002D01*
X136714858Y-86226599D01*
X136714860Y-86226610D01*
X136773730Y-86446317D01*
X136773734Y-86446326D01*
X136869866Y-86652483D01*
X136869870Y-86652489D01*
X136919015Y-86722675D01*
X136941343Y-86788881D01*
X136924333Y-86856648D01*
X136873386Y-86904462D01*
X136817441Y-86917799D01*
X136813389Y-86917799D01*
X136752971Y-86929817D01*
X136709743Y-86938415D01*
X136692546Y-86941836D01*
X136668372Y-86951850D01*
X136668371Y-86951849D01*
X136578718Y-86988984D01*
X136578714Y-86988986D01*
X136550545Y-87007809D01*
X136541068Y-87014142D01*
X136476268Y-87057439D01*
X136453462Y-87080246D01*
X136389142Y-87144566D01*
X136389139Y-87144569D01*
X135579181Y-87954526D01*
X135517858Y-87988011D01*
X135448166Y-87983027D01*
X135416044Y-87964311D01*
X135415836Y-87964610D01*
X135412264Y-87962109D01*
X135411799Y-87961838D01*
X135411404Y-87961507D01*
X135217834Y-87825967D01*
X135217830Y-87825965D01*
X135165500Y-87801563D01*
X135003663Y-87726097D01*
X135003659Y-87726096D01*
X135003657Y-87726095D01*
X134901336Y-87698678D01*
X134841676Y-87662313D01*
X134811147Y-87599465D01*
X134810184Y-87571320D01*
X134810177Y-87571320D01*
X134810177Y-87571128D01*
X134810027Y-87566747D01*
X134810177Y-87565224D01*
X134810177Y-87024500D01*
X134829862Y-86957461D01*
X134882666Y-86911706D01*
X134934177Y-86900500D01*
X135094644Y-86900500D01*
X135094646Y-86900500D01*
X135279803Y-86861144D01*
X135452730Y-86784151D01*
X135605871Y-86672888D01*
X135732533Y-86532216D01*
X135827179Y-86368284D01*
X135885674Y-86188256D01*
X135903321Y-86020344D01*
X135929904Y-85955734D01*
X135938951Y-85945638D01*
X136663376Y-85221214D01*
X136724698Y-85187730D01*
X136794390Y-85192714D01*
X136796808Y-85194524D01*
X136785029Y-85144230D01*
X136808405Y-85078387D01*
X136821153Y-85063437D01*
X136840857Y-85043734D01*
X136844476Y-85038319D01*
X136909311Y-84941286D01*
X136956463Y-84827452D01*
X136972487Y-84746890D01*
X136979726Y-84710500D01*
X136979730Y-84710500D01*
X136979730Y-84710475D01*
X136980500Y-84706607D01*
X136980500Y-84583394D01*
X136980500Y-83750124D01*
X137000185Y-83683085D01*
X137016819Y-83662443D01*
X137659677Y-83019585D01*
X137659677Y-83025799D01*
G37*
%TD.AperFunction*%
%TA.AperFunction,Conductor*%
G36*
X149262973Y-76610316D02*
G01*
X149308728Y-76663120D01*
X149319934Y-76714631D01*
X149319934Y-76888007D01*
X149326341Y-76947614D01*
X149376635Y-77082459D01*
X149376639Y-77082466D01*
X149462885Y-77197675D01*
X149462888Y-77197678D01*
X149578097Y-77283924D01*
X149578104Y-77283928D01*
X149603012Y-77293218D01*
X149712950Y-77334222D01*
X149772560Y-77340631D01*
X149883126Y-77340630D01*
X149950163Y-77360314D01*
X149970805Y-77376949D01*
X150591024Y-77997168D01*
X150527440Y-78014206D01*
X150413426Y-78080032D01*
X150320334Y-78173124D01*
X150254508Y-78287138D01*
X150237470Y-78350722D01*
X149569244Y-77682496D01*
X149484949Y-77811521D01*
X149391750Y-78023995D01*
X149334794Y-78248912D01*
X149315635Y-78480125D01*
X149315635Y-78480136D01*
X149334794Y-78711349D01*
X149391750Y-78936266D01*
X149484950Y-79148742D01*
X149611848Y-79342973D01*
X149611856Y-79342984D01*
X149612154Y-79343307D01*
X149612233Y-79343468D01*
X149615004Y-79347028D01*
X149614271Y-79347598D01*
X149643070Y-79405964D01*
X149635203Y-79475390D01*
X149608597Y-79514962D01*
X144301270Y-84822291D01*
X144214141Y-84909419D01*
X144214141Y-84909420D01*
X144206214Y-84921284D01*
X144206212Y-84921287D01*
X144166247Y-84981096D01*
X144112633Y-85025900D01*
X144043308Y-85034606D01*
X143980281Y-85004450D01*
X143975465Y-84999884D01*
X143121819Y-84146238D01*
X143088334Y-84084915D01*
X143085500Y-84058557D01*
X143085500Y-81404435D01*
X143105185Y-81337396D01*
X143157989Y-81291641D01*
X143227147Y-81281697D01*
X143256950Y-81289873D01*
X143427956Y-81360706D01*
X143427960Y-81360706D01*
X143427961Y-81360707D01*
X143628009Y-81400500D01*
X143628012Y-81400500D01*
X143831990Y-81400500D01*
X143993610Y-81368351D01*
X144032044Y-81360706D01*
X144220493Y-81282648D01*
X144296109Y-81232123D01*
X144362786Y-81211245D01*
X144430166Y-81229729D01*
X144433891Y-81232123D01*
X144471936Y-81257544D01*
X144509507Y-81282648D01*
X144509509Y-81282649D01*
X144509513Y-81282651D01*
X144697951Y-81360704D01*
X144697956Y-81360706D01*
X144697960Y-81360706D01*
X144697961Y-81360707D01*
X144898009Y-81400500D01*
X144898012Y-81400500D01*
X145101990Y-81400500D01*
X145263610Y-81368351D01*
X145302044Y-81360706D01*
X145374071Y-81330870D01*
X145443539Y-81323402D01*
X145484067Y-81341044D01*
X145484886Y-81339546D01*
X145492671Y-81343797D01*
X145627517Y-81394091D01*
X145627516Y-81394091D01*
X145634444Y-81394835D01*
X145687127Y-81400500D01*
X146852872Y-81400499D01*
X146912483Y-81394091D01*
X147047331Y-81343796D01*
X147162546Y-81257546D01*
X147248796Y-81142331D01*
X147299091Y-81007483D01*
X147305500Y-80947873D01*
X147305499Y-79052128D01*
X147299091Y-78992517D01*
X147294471Y-78980131D01*
X147248797Y-78857671D01*
X147248793Y-78857664D01*
X147162547Y-78742455D01*
X147162544Y-78742452D01*
X147047335Y-78656206D01*
X147047328Y-78656202D01*
X146912482Y-78605908D01*
X146912483Y-78605908D01*
X146852883Y-78599501D01*
X146852881Y-78599500D01*
X146852873Y-78599500D01*
X146852865Y-78599500D01*
X146170452Y-78599500D01*
X146103413Y-78579815D01*
X146082771Y-78563181D01*
X145125198Y-77605608D01*
X145125178Y-77605586D01*
X145033735Y-77514143D01*
X145015901Y-77502227D01*
X144980711Y-77478714D01*
X144980712Y-77478714D01*
X144980710Y-77478712D01*
X144931290Y-77445690D01*
X144931286Y-77445688D01*
X144820229Y-77399687D01*
X144820228Y-77399686D01*
X144820228Y-77399687D01*
X144817455Y-77398538D01*
X144817453Y-77398537D01*
X144817452Y-77398537D01*
X144817449Y-77398536D01*
X144817440Y-77398534D01*
X144705485Y-77376265D01*
X144705484Y-77376265D01*
X144696611Y-77374500D01*
X144696607Y-77374500D01*
X144696606Y-77374500D01*
X141844808Y-77374500D01*
X141777769Y-77354815D01*
X141732014Y-77302011D01*
X141722070Y-77232853D01*
X141751095Y-77169297D01*
X141757127Y-77162819D01*
X142292996Y-76626950D01*
X142354319Y-76593465D01*
X142380677Y-76590631D01*
X149195934Y-76590631D01*
X149262973Y-76610316D01*
G37*
%TD.AperFunction*%
%TA.AperFunction,Conductor*%
G36*
X137659677Y-80025799D02*
G01*
X137686936Y-80127532D01*
X137739597Y-80218744D01*
X137814071Y-80293218D01*
X137905283Y-80345879D01*
X138007016Y-80373138D01*
X138013228Y-80373138D01*
X137334203Y-81052163D01*
X137407190Y-81103270D01*
X137407198Y-81103274D01*
X137613345Y-81199402D01*
X137613359Y-81199407D01*
X137833066Y-81258277D01*
X137833077Y-81258279D01*
X138059675Y-81278104D01*
X138059679Y-81278104D01*
X138286276Y-81258279D01*
X138286286Y-81258277D01*
X138403084Y-81226982D01*
X138472933Y-81228645D01*
X138530796Y-81267807D01*
X138558300Y-81332036D01*
X138559177Y-81346757D01*
X138559177Y-81599518D01*
X138539492Y-81666557D01*
X138486688Y-81712312D01*
X138417530Y-81722256D01*
X138403084Y-81719293D01*
X138286287Y-81687998D01*
X138286276Y-81687996D01*
X138059679Y-81668172D01*
X138059675Y-81668172D01*
X137833077Y-81687996D01*
X137833066Y-81687998D01*
X137613359Y-81746868D01*
X137613350Y-81746872D01*
X137407193Y-81843004D01*
X137407189Y-81843006D01*
X137334203Y-81894111D01*
X137334203Y-81894112D01*
X138013230Y-82573138D01*
X138007016Y-82573138D01*
X137905283Y-82600397D01*
X137814071Y-82653058D01*
X137739597Y-82727532D01*
X137686936Y-82818744D01*
X137659677Y-82920477D01*
X137659677Y-82926690D01*
X137016819Y-82283832D01*
X136983334Y-82222509D01*
X136980500Y-82196151D01*
X136980500Y-80750124D01*
X137000185Y-80683085D01*
X137016819Y-80662443D01*
X137659677Y-80019585D01*
X137659677Y-80025799D01*
G37*
%TD.AperFunction*%
%TA.AperFunction,Conductor*%
G36*
X128232625Y-72879073D02*
G01*
X128266111Y-72885244D01*
X128307122Y-72921949D01*
X128308683Y-72920735D01*
X128311830Y-72924779D01*
X128353726Y-72970290D01*
X128480256Y-73107738D01*
X128676491Y-73260474D01*
X128676493Y-73260475D01*
X128894332Y-73378364D01*
X128895190Y-73378828D01*
X129084426Y-73443793D01*
X129128964Y-73459083D01*
X129130386Y-73459571D01*
X129375665Y-73500500D01*
X129624335Y-73500500D01*
X129869614Y-73459571D01*
X130104810Y-73378828D01*
X130323509Y-73260474D01*
X130519744Y-73107738D01*
X130688164Y-72924785D01*
X130824173Y-72716607D01*
X130867643Y-72617503D01*
X130912596Y-72564022D01*
X130979332Y-72543331D01*
X131046660Y-72562005D01*
X131068878Y-72579636D01*
X134338181Y-75848938D01*
X134371666Y-75910261D01*
X134374500Y-75936619D01*
X134374500Y-76190269D01*
X134354815Y-76257308D01*
X134302011Y-76303063D01*
X134232853Y-76313007D01*
X134169297Y-76283982D01*
X134148925Y-76261392D01*
X134059722Y-76133996D01*
X133898818Y-75973092D01*
X133712411Y-75842570D01*
X133712409Y-75842569D01*
X133506174Y-75746399D01*
X133506165Y-75746396D01*
X133286374Y-75687504D01*
X133286370Y-75687503D01*
X133286369Y-75687503D01*
X133286368Y-75687502D01*
X133286363Y-75687502D01*
X133059679Y-75667670D01*
X133059675Y-75667670D01*
X132832990Y-75687502D01*
X132832979Y-75687504D01*
X132613188Y-75746396D01*
X132613179Y-75746399D01*
X132406944Y-75842569D01*
X132406942Y-75842570D01*
X132220535Y-75973092D01*
X132059631Y-76133996D01*
X131929109Y-76320403D01*
X131929109Y-76320404D01*
X131832938Y-76526640D01*
X131832935Y-76526649D01*
X131774043Y-76746440D01*
X131774041Y-76746451D01*
X131754209Y-76973136D01*
X131754209Y-76973139D01*
X131774041Y-77199824D01*
X131774043Y-77199835D01*
X131832935Y-77419626D01*
X131832938Y-77419635D01*
X131929108Y-77625870D01*
X131929109Y-77625872D01*
X132059631Y-77812279D01*
X132220535Y-77973183D01*
X132220538Y-77973185D01*
X132406943Y-78103706D01*
X132613181Y-78199877D01*
X132832985Y-78258773D01*
X132994907Y-78272939D01*
X133059675Y-78278606D01*
X133059677Y-78278606D01*
X133059679Y-78278606D01*
X133116350Y-78273647D01*
X133286369Y-78258773D01*
X133506173Y-78199877D01*
X133712411Y-78103706D01*
X133898816Y-77973185D01*
X134059724Y-77812277D01*
X134148925Y-77684882D01*
X134203501Y-77641258D01*
X134272999Y-77634064D01*
X134335354Y-77665586D01*
X134370769Y-77725816D01*
X134374500Y-77756006D01*
X134374500Y-79190269D01*
X134354815Y-79257308D01*
X134302011Y-79303063D01*
X134232853Y-79313007D01*
X134169297Y-79283982D01*
X134148925Y-79261392D01*
X134059722Y-79133996D01*
X133898818Y-78973092D01*
X133712411Y-78842570D01*
X133712409Y-78842569D01*
X133506174Y-78746399D01*
X133506165Y-78746396D01*
X133286374Y-78687504D01*
X133286370Y-78687503D01*
X133286369Y-78687503D01*
X133286368Y-78687502D01*
X133286363Y-78687502D01*
X133059679Y-78667670D01*
X133059675Y-78667670D01*
X132832990Y-78687502D01*
X132832979Y-78687504D01*
X132613188Y-78746396D01*
X132613179Y-78746399D01*
X132406944Y-78842569D01*
X132406942Y-78842570D01*
X132220535Y-78973092D01*
X132059631Y-79133996D01*
X131929109Y-79320403D01*
X131929108Y-79320405D01*
X131832938Y-79526640D01*
X131832935Y-79526649D01*
X131774043Y-79746440D01*
X131774041Y-79746451D01*
X131754209Y-79973136D01*
X131754209Y-79973139D01*
X131763224Y-80076182D01*
X131749457Y-80144682D01*
X131700842Y-80194865D01*
X131632813Y-80210798D01*
X131566970Y-80187423D01*
X131552015Y-80174670D01*
X131228816Y-79851471D01*
X131195331Y-79790148D01*
X131200315Y-79720456D01*
X131220238Y-79689468D01*
X131218525Y-79688185D01*
X131223841Y-79681083D01*
X131310090Y-79565870D01*
X131360385Y-79431022D01*
X131366794Y-79371412D01*
X131366793Y-77675667D01*
X131360385Y-77616056D01*
X131356488Y-77605608D01*
X131310091Y-77481210D01*
X131310087Y-77481203D01*
X131223841Y-77365994D01*
X131223838Y-77365991D01*
X131108629Y-77279745D01*
X131108622Y-77279741D01*
X130973776Y-77229447D01*
X130973777Y-77229447D01*
X130914177Y-77223040D01*
X130914175Y-77223039D01*
X130914167Y-77223039D01*
X130914158Y-77223039D01*
X129218423Y-77223039D01*
X129218417Y-77223040D01*
X129158810Y-77229447D01*
X129023965Y-77279741D01*
X129023958Y-77279745D01*
X128908749Y-77365991D01*
X128908746Y-77365994D01*
X128822500Y-77481203D01*
X128822496Y-77481210D01*
X128772202Y-77616055D01*
X128768431Y-77651135D01*
X128741692Y-77715685D01*
X128684300Y-77755533D01*
X128614474Y-77758026D01*
X128554386Y-77722373D01*
X128543567Y-77709001D01*
X128526339Y-77684397D01*
X128365435Y-77523493D01*
X128179028Y-77392971D01*
X128179026Y-77392970D01*
X127972791Y-77296800D01*
X127972782Y-77296797D01*
X127752991Y-77237905D01*
X127752987Y-77237904D01*
X127752986Y-77237904D01*
X127752985Y-77237903D01*
X127752980Y-77237903D01*
X127526296Y-77218071D01*
X127526292Y-77218071D01*
X127299607Y-77237903D01*
X127299596Y-77237905D01*
X127079805Y-77296797D01*
X127079796Y-77296800D01*
X126873561Y-77392970D01*
X126873559Y-77392971D01*
X126687152Y-77523493D01*
X126526248Y-77684397D01*
X126395726Y-77870804D01*
X126395725Y-77870806D01*
X126388085Y-77887191D01*
X126370426Y-77925062D01*
X126368676Y-77928814D01*
X126322503Y-77981253D01*
X126255310Y-78000405D01*
X126188429Y-77980189D01*
X126143912Y-77928814D01*
X126143738Y-77928441D01*
X126116862Y-77870805D01*
X125986341Y-77684400D01*
X125986339Y-77684397D01*
X125825435Y-77523493D01*
X125639028Y-77392971D01*
X125639026Y-77392970D01*
X125432791Y-77296800D01*
X125432782Y-77296797D01*
X125212991Y-77237905D01*
X125212987Y-77237904D01*
X125212986Y-77237904D01*
X125212985Y-77237903D01*
X125212980Y-77237903D01*
X124986296Y-77218071D01*
X124986292Y-77218071D01*
X124759607Y-77237903D01*
X124759596Y-77237905D01*
X124539805Y-77296797D01*
X124539796Y-77296800D01*
X124333561Y-77392970D01*
X124333559Y-77392971D01*
X124147152Y-77523493D01*
X123986248Y-77684397D01*
X123855726Y-77870804D01*
X123855725Y-77870806D01*
X123848085Y-77887191D01*
X123830426Y-77925062D01*
X123828676Y-77928814D01*
X123782503Y-77981253D01*
X123715310Y-78000405D01*
X123648429Y-77980189D01*
X123603912Y-77928814D01*
X123603738Y-77928441D01*
X123576862Y-77870805D01*
X123446341Y-77684400D01*
X123446339Y-77684397D01*
X123285435Y-77523493D01*
X123099028Y-77392971D01*
X123099026Y-77392970D01*
X122892791Y-77296800D01*
X122892782Y-77296797D01*
X122672991Y-77237905D01*
X122672987Y-77237904D01*
X122672986Y-77237904D01*
X122672985Y-77237903D01*
X122672980Y-77237903D01*
X122446296Y-77218071D01*
X122446292Y-77218071D01*
X122219607Y-77237903D01*
X122219596Y-77237905D01*
X121999805Y-77296797D01*
X121999796Y-77296800D01*
X121793561Y-77392970D01*
X121793559Y-77392971D01*
X121607152Y-77523493D01*
X121446248Y-77684397D01*
X121315726Y-77870804D01*
X121315725Y-77870806D01*
X121308085Y-77887191D01*
X121290426Y-77925062D01*
X121288676Y-77928814D01*
X121242503Y-77981253D01*
X121175310Y-78000405D01*
X121108429Y-77980189D01*
X121063912Y-77928814D01*
X121063738Y-77928441D01*
X121036862Y-77870805D01*
X120906341Y-77684400D01*
X120906339Y-77684397D01*
X120745435Y-77523493D01*
X120559028Y-77392971D01*
X120559026Y-77392970D01*
X120352791Y-77296800D01*
X120352782Y-77296797D01*
X120132991Y-77237905D01*
X120132987Y-77237904D01*
X120132986Y-77237904D01*
X120132985Y-77237903D01*
X120132980Y-77237903D01*
X119906296Y-77218071D01*
X119906292Y-77218071D01*
X119679607Y-77237903D01*
X119679596Y-77237905D01*
X119459805Y-77296797D01*
X119459796Y-77296800D01*
X119253561Y-77392970D01*
X119253559Y-77392971D01*
X119067152Y-77523493D01*
X118906248Y-77684397D01*
X118775726Y-77870804D01*
X118775725Y-77870806D01*
X118768085Y-77887191D01*
X118750426Y-77925062D01*
X118748676Y-77928814D01*
X118702503Y-77981253D01*
X118635310Y-78000405D01*
X118568429Y-77980189D01*
X118523912Y-77928814D01*
X118523738Y-77928441D01*
X118496862Y-77870805D01*
X118366341Y-77684400D01*
X118366339Y-77684397D01*
X118205435Y-77523493D01*
X118019028Y-77392971D01*
X118019026Y-77392970D01*
X117812791Y-77296800D01*
X117812782Y-77296797D01*
X117592991Y-77237905D01*
X117592987Y-77237904D01*
X117592986Y-77237904D01*
X117592985Y-77237903D01*
X117592980Y-77237903D01*
X117366296Y-77218071D01*
X117366292Y-77218071D01*
X117139607Y-77237903D01*
X117139596Y-77237905D01*
X116919805Y-77296797D01*
X116919798Y-77296799D01*
X116919798Y-77296800D01*
X116771419Y-77365991D01*
X116753199Y-77374487D01*
X116684121Y-77384979D01*
X116620337Y-77356459D01*
X116582098Y-77297983D01*
X116576794Y-77262105D01*
X116576794Y-76466571D01*
X116596479Y-76399532D01*
X116649283Y-76353777D01*
X116718441Y-76343833D01*
X116781997Y-76372858D01*
X116788475Y-76378890D01*
X116802119Y-76392534D01*
X116802122Y-76392536D01*
X116988527Y-76523057D01*
X117194765Y-76619228D01*
X117414569Y-76678124D01*
X117576491Y-76692290D01*
X117641259Y-76697957D01*
X117641261Y-76697957D01*
X117641263Y-76697957D01*
X117697934Y-76692998D01*
X117867953Y-76678124D01*
X118087757Y-76619228D01*
X118293995Y-76523057D01*
X118480400Y-76392536D01*
X118641308Y-76231628D01*
X118771829Y-76045223D01*
X118868000Y-75838985D01*
X118926896Y-75619181D01*
X118946729Y-75392489D01*
X118946729Y-75392487D01*
X121335793Y-75392487D01*
X121335793Y-75392490D01*
X121355625Y-75619175D01*
X121355627Y-75619186D01*
X121414519Y-75838977D01*
X121414522Y-75838986D01*
X121510692Y-76045221D01*
X121510693Y-76045223D01*
X121641215Y-76231630D01*
X121802119Y-76392534D01*
X121802122Y-76392536D01*
X121988527Y-76523057D01*
X122194765Y-76619228D01*
X122414569Y-76678124D01*
X122576491Y-76692290D01*
X122641259Y-76697957D01*
X122641261Y-76697957D01*
X122641263Y-76697957D01*
X122697934Y-76692998D01*
X122867953Y-76678124D01*
X123087757Y-76619228D01*
X123293995Y-76523057D01*
X123480400Y-76392536D01*
X123641308Y-76231628D01*
X123771829Y-76045223D01*
X123781296Y-76024920D01*
X123827466Y-75972483D01*
X123894660Y-75953331D01*
X123961541Y-75973546D01*
X124006059Y-76024922D01*
X124032282Y-76081158D01*
X124032283Y-76081160D01*
X124162805Y-76267567D01*
X124323709Y-76428471D01*
X124323712Y-76428473D01*
X124510117Y-76558994D01*
X124716355Y-76655165D01*
X124716360Y-76655166D01*
X124716362Y-76655167D01*
X124769266Y-76669342D01*
X124936159Y-76714061D01*
X125090133Y-76727532D01*
X125162849Y-76733894D01*
X125162851Y-76733894D01*
X125162853Y-76733894D01*
X125219524Y-76728935D01*
X125389543Y-76714061D01*
X125609347Y-76655165D01*
X125815585Y-76558994D01*
X126001990Y-76428473D01*
X126162898Y-76267565D01*
X126293419Y-76081160D01*
X126389590Y-75874922D01*
X126448486Y-75655118D01*
X126468319Y-75428426D01*
X126468319Y-75428424D01*
X128857383Y-75428424D01*
X128857383Y-75428427D01*
X128877215Y-75655112D01*
X128877217Y-75655123D01*
X128936109Y-75874914D01*
X128936112Y-75874923D01*
X129032282Y-76081158D01*
X129032283Y-76081160D01*
X129162805Y-76267567D01*
X129323709Y-76428471D01*
X129323712Y-76428473D01*
X129510117Y-76558994D01*
X129716355Y-76655165D01*
X129716360Y-76655166D01*
X129716362Y-76655167D01*
X129769266Y-76669342D01*
X129936159Y-76714061D01*
X130090133Y-76727532D01*
X130162849Y-76733894D01*
X130162851Y-76733894D01*
X130162853Y-76733894D01*
X130219524Y-76728935D01*
X130389543Y-76714061D01*
X130609347Y-76655165D01*
X130815585Y-76558994D01*
X131001990Y-76428473D01*
X131162898Y-76267565D01*
X131293419Y-76081160D01*
X131389590Y-75874922D01*
X131448486Y-75655118D01*
X131468319Y-75428426D01*
X131448486Y-75201734D01*
X131392356Y-74992254D01*
X131389592Y-74981937D01*
X131389589Y-74981928D01*
X131347498Y-74891665D01*
X131293419Y-74775692D01*
X131171286Y-74601267D01*
X131162896Y-74589284D01*
X131001992Y-74428380D01*
X130815585Y-74297858D01*
X130815583Y-74297857D01*
X130609348Y-74201687D01*
X130609339Y-74201684D01*
X130389548Y-74142792D01*
X130389544Y-74142791D01*
X130389543Y-74142791D01*
X130389542Y-74142790D01*
X130389537Y-74142790D01*
X130162853Y-74122958D01*
X130162849Y-74122958D01*
X129936164Y-74142790D01*
X129936153Y-74142792D01*
X129716362Y-74201684D01*
X129716353Y-74201687D01*
X129510118Y-74297857D01*
X129510116Y-74297858D01*
X129323709Y-74428380D01*
X129162805Y-74589284D01*
X129032283Y-74775691D01*
X129032282Y-74775693D01*
X128936112Y-74981928D01*
X128936109Y-74981937D01*
X128877217Y-75201728D01*
X128877215Y-75201739D01*
X128857383Y-75428424D01*
X126468319Y-75428424D01*
X126448486Y-75201734D01*
X126392356Y-74992254D01*
X126389592Y-74981937D01*
X126389589Y-74981928D01*
X126347498Y-74891665D01*
X126293419Y-74775692D01*
X126171286Y-74601267D01*
X126162896Y-74589284D01*
X126001992Y-74428380D01*
X125815585Y-74297858D01*
X125815583Y-74297857D01*
X125609348Y-74201687D01*
X125609339Y-74201684D01*
X125389548Y-74142792D01*
X125389544Y-74142791D01*
X125389543Y-74142791D01*
X125389542Y-74142790D01*
X125389537Y-74142790D01*
X125162853Y-74122958D01*
X125162849Y-74122958D01*
X124936164Y-74142790D01*
X124936153Y-74142792D01*
X124716362Y-74201684D01*
X124716353Y-74201687D01*
X124510118Y-74297857D01*
X124510116Y-74297858D01*
X124323709Y-74428380D01*
X124162805Y-74589284D01*
X124032283Y-74775691D01*
X124032280Y-74775696D01*
X124022814Y-74795996D01*
X123976640Y-74848434D01*
X123909445Y-74867583D01*
X123842565Y-74847365D01*
X123798052Y-74795991D01*
X123788588Y-74775696D01*
X123771829Y-74739755D01*
X123641308Y-74553350D01*
X123641306Y-74553347D01*
X123480402Y-74392443D01*
X123293995Y-74261921D01*
X123293993Y-74261920D01*
X123087758Y-74165750D01*
X123087749Y-74165747D01*
X122867958Y-74106855D01*
X122867954Y-74106854D01*
X122867953Y-74106854D01*
X122867952Y-74106853D01*
X122867947Y-74106853D01*
X122641263Y-74087021D01*
X122641259Y-74087021D01*
X122414574Y-74106853D01*
X122414563Y-74106855D01*
X122194772Y-74165747D01*
X122194763Y-74165750D01*
X121988528Y-74261920D01*
X121988526Y-74261921D01*
X121802119Y-74392443D01*
X121641215Y-74553347D01*
X121510693Y-74739754D01*
X121510692Y-74739756D01*
X121414522Y-74945991D01*
X121414519Y-74946000D01*
X121355627Y-75165791D01*
X121355625Y-75165802D01*
X121335793Y-75392487D01*
X118946729Y-75392487D01*
X118926896Y-75165797D01*
X118878682Y-74985858D01*
X118868002Y-74946000D01*
X118867999Y-74945991D01*
X118771829Y-74739755D01*
X118641308Y-74553350D01*
X118641306Y-74553347D01*
X118480402Y-74392443D01*
X118293995Y-74261921D01*
X118293993Y-74261920D01*
X118087940Y-74165835D01*
X118035501Y-74119662D01*
X118016349Y-74052469D01*
X118036565Y-73985588D01*
X118087938Y-73941072D01*
X118231406Y-73874172D01*
X118417811Y-73743651D01*
X118578719Y-73582743D01*
X118709240Y-73396338D01*
X118805411Y-73190100D01*
X118864307Y-72970296D01*
X118884140Y-72743604D01*
X118864307Y-72516912D01*
X118845238Y-72445744D01*
X118833034Y-72400197D01*
X118834697Y-72330347D01*
X118873860Y-72272485D01*
X118938089Y-72244981D01*
X118952809Y-72244104D01*
X122875501Y-72244104D01*
X122942540Y-72263789D01*
X122988295Y-72316593D01*
X122999501Y-72368104D01*
X122999501Y-73047876D01*
X123005908Y-73107483D01*
X123056202Y-73242328D01*
X123056206Y-73242335D01*
X123142452Y-73357544D01*
X123142455Y-73357547D01*
X123257664Y-73443793D01*
X123257671Y-73443797D01*
X123392517Y-73494091D01*
X123392516Y-73494091D01*
X123399444Y-73494835D01*
X123452127Y-73500500D01*
X125547872Y-73500499D01*
X125607483Y-73494091D01*
X125742331Y-73443796D01*
X125857546Y-73357546D01*
X125943796Y-73242331D01*
X125943796Y-73242329D01*
X125945461Y-73240106D01*
X126001395Y-73198235D01*
X126071087Y-73193251D01*
X126120890Y-73216564D01*
X126176762Y-73260051D01*
X126176771Y-73260057D01*
X126395385Y-73378364D01*
X126395396Y-73378369D01*
X126630506Y-73459083D01*
X126875707Y-73500000D01*
X127124293Y-73500000D01*
X127369493Y-73459083D01*
X127604603Y-73378369D01*
X127604614Y-73378364D01*
X127823228Y-73260057D01*
X127823231Y-73260055D01*
X127870056Y-73223609D01*
X127129409Y-72482962D01*
X127192993Y-72465925D01*
X127307007Y-72400099D01*
X127400099Y-72307007D01*
X127465925Y-72192993D01*
X127482962Y-72129410D01*
X128232625Y-72879073D01*
G37*
%TD.AperFunction*%
%TA.AperFunction,Conductor*%
G36*
X137659677Y-77025799D02*
G01*
X137686936Y-77127532D01*
X137739597Y-77218744D01*
X137814071Y-77293218D01*
X137905283Y-77345879D01*
X138007016Y-77373138D01*
X138013230Y-77373138D01*
X137334203Y-78052163D01*
X137407190Y-78103270D01*
X137407198Y-78103274D01*
X137613345Y-78199402D01*
X137613359Y-78199407D01*
X137833066Y-78258277D01*
X137833077Y-78258279D01*
X138059675Y-78278104D01*
X138059679Y-78278104D01*
X138286276Y-78258279D01*
X138286286Y-78258277D01*
X138403084Y-78226982D01*
X138472933Y-78228645D01*
X138530796Y-78267807D01*
X138558300Y-78332036D01*
X138559177Y-78346757D01*
X138559177Y-78599518D01*
X138539492Y-78666557D01*
X138486688Y-78712312D01*
X138417530Y-78722256D01*
X138403084Y-78719293D01*
X138286287Y-78687998D01*
X138286276Y-78687996D01*
X138059679Y-78668172D01*
X138059675Y-78668172D01*
X137833077Y-78687996D01*
X137833066Y-78687998D01*
X137613359Y-78746868D01*
X137613350Y-78746872D01*
X137407193Y-78843004D01*
X137407189Y-78843006D01*
X137334203Y-78894111D01*
X137334203Y-78894112D01*
X138013230Y-79573138D01*
X138007016Y-79573138D01*
X137905283Y-79600397D01*
X137814071Y-79653058D01*
X137739597Y-79727532D01*
X137686936Y-79818744D01*
X137659677Y-79920477D01*
X137659677Y-79926690D01*
X137016819Y-79283832D01*
X136983334Y-79222509D01*
X136980500Y-79196151D01*
X136980500Y-77750124D01*
X137000185Y-77683085D01*
X137016819Y-77662443D01*
X137659677Y-77019585D01*
X137659677Y-77025799D01*
G37*
%TD.AperFunction*%
%TA.AperFunction,Conductor*%
G36*
X144180956Y-52583463D02*
G01*
X144201598Y-52600097D01*
X146124955Y-54523455D01*
X146158440Y-54584778D01*
X146157049Y-54643227D01*
X146138736Y-54711574D01*
X146138733Y-54711591D01*
X146118901Y-54938277D01*
X146118901Y-54938279D01*
X146138733Y-55164964D01*
X146138735Y-55164975D01*
X146197627Y-55384766D01*
X146197630Y-55384775D01*
X146293800Y-55591010D01*
X146293801Y-55591012D01*
X146424323Y-55777419D01*
X146585227Y-55938323D01*
X146585230Y-55938325D01*
X146771635Y-56068846D01*
X146977873Y-56165017D01*
X147197677Y-56223913D01*
X147359599Y-56238079D01*
X147424367Y-56243746D01*
X147424369Y-56243746D01*
X147424370Y-56243746D01*
X147440194Y-56242361D01*
X147575159Y-56230553D01*
X147643657Y-56244319D01*
X147693840Y-56292934D01*
X147709774Y-56360963D01*
X147686399Y-56426807D01*
X147673646Y-56441762D01*
X147518800Y-56596608D01*
X147457477Y-56630093D01*
X147429782Y-56631852D01*
X147429782Y-56632810D01*
X147424367Y-56632810D01*
X147197682Y-56652642D01*
X147197671Y-56652644D01*
X146977880Y-56711536D01*
X146977871Y-56711539D01*
X146771636Y-56807709D01*
X146771634Y-56807710D01*
X146585227Y-56938232D01*
X146424323Y-57099136D01*
X146293801Y-57285543D01*
X146293800Y-57285545D01*
X146197630Y-57491780D01*
X146197627Y-57491789D01*
X146138735Y-57711580D01*
X146138733Y-57711591D01*
X146118901Y-57938276D01*
X146118901Y-57938279D01*
X146138733Y-58164964D01*
X146138735Y-58164975D01*
X146197627Y-58384766D01*
X146197630Y-58384775D01*
X146293800Y-58591010D01*
X146293801Y-58591012D01*
X146424323Y-58777419D01*
X146585227Y-58938323D01*
X146745992Y-59050891D01*
X146789617Y-59105467D01*
X146798869Y-59152466D01*
X146798869Y-62385309D01*
X146779184Y-62452348D01*
X146768799Y-62465950D01*
X146767464Y-62467787D01*
X146672821Y-62631715D01*
X146672818Y-62631722D01*
X146631896Y-62757669D01*
X146614326Y-62811744D01*
X146594540Y-63000000D01*
X146614326Y-63188256D01*
X146614327Y-63188259D01*
X146672818Y-63368277D01*
X146672821Y-63368284D01*
X146767467Y-63532216D01*
X146817059Y-63587293D01*
X146894129Y-63672888D01*
X147047265Y-63784148D01*
X147047270Y-63784151D01*
X147220192Y-63861142D01*
X147220197Y-63861144D01*
X147405354Y-63900500D01*
X147405355Y-63900500D01*
X147594644Y-63900500D01*
X147594646Y-63900500D01*
X147779803Y-63861144D01*
X147952730Y-63784151D01*
X148105871Y-63672888D01*
X148232533Y-63532216D01*
X148327179Y-63368284D01*
X148385674Y-63188256D01*
X148405460Y-63000000D01*
X148385674Y-62811744D01*
X148327179Y-62631716D01*
X148232533Y-62467784D01*
X148158272Y-62385309D01*
X148105876Y-62327116D01*
X148105871Y-62327112D01*
X148100982Y-62323560D01*
X148058317Y-62268229D01*
X148049869Y-62223243D01*
X148049869Y-59152466D01*
X148069554Y-59085427D01*
X148102746Y-59050891D01*
X148151205Y-59016959D01*
X148263508Y-58938325D01*
X148424416Y-58777417D01*
X148554937Y-58591012D01*
X148651108Y-58384774D01*
X148710004Y-58164970D01*
X148729837Y-57938278D01*
X148710004Y-57711586D01*
X148651108Y-57491782D01*
X148605657Y-57394314D01*
X148595166Y-57325237D01*
X148623686Y-57261453D01*
X148630346Y-57254242D01*
X149996601Y-55887987D01*
X150057922Y-55854504D01*
X150127614Y-55859488D01*
X150183547Y-55901360D01*
X150196662Y-55923265D01*
X150198643Y-55927514D01*
X150198644Y-55927516D01*
X150232211Y-55999500D01*
X150294814Y-56133752D01*
X150294815Y-56133754D01*
X150425337Y-56320161D01*
X150586241Y-56481065D01*
X150586244Y-56481067D01*
X150772649Y-56611588D01*
X150978887Y-56707759D01*
X150978889Y-56707759D01*
X150978896Y-56707762D01*
X150983386Y-56708965D01*
X151038975Y-56741059D01*
X151378936Y-57081020D01*
X151372722Y-57081020D01*
X151270989Y-57108279D01*
X151179777Y-57160940D01*
X151105303Y-57235414D01*
X151052642Y-57326626D01*
X151025383Y-57428359D01*
X151025383Y-57434572D01*
X150346357Y-56755546D01*
X150346356Y-56755546D01*
X150295251Y-56828532D01*
X150295249Y-56828536D01*
X150199117Y-57034693D01*
X150199113Y-57034702D01*
X150140243Y-57254409D01*
X150140242Y-57254417D01*
X150120417Y-57481017D01*
X150120417Y-57481022D01*
X150140241Y-57707619D01*
X150140243Y-57707630D01*
X150199113Y-57927337D01*
X150199118Y-57927351D01*
X150295246Y-58133498D01*
X150346357Y-58206492D01*
X151025383Y-57527466D01*
X151025383Y-57533681D01*
X151052642Y-57635414D01*
X151105303Y-57726626D01*
X151179777Y-57801100D01*
X151270989Y-57853761D01*
X151372722Y-57881020D01*
X151378936Y-57881020D01*
X150699909Y-58560045D01*
X150772896Y-58611152D01*
X150772904Y-58611156D01*
X150979051Y-58707284D01*
X150979065Y-58707289D01*
X151198772Y-58766159D01*
X151198783Y-58766161D01*
X151425381Y-58785986D01*
X151425385Y-58785986D01*
X151651982Y-58766161D01*
X151651993Y-58766159D01*
X151871700Y-58707289D01*
X151871714Y-58707284D01*
X152077861Y-58611156D01*
X152150854Y-58560044D01*
X151471830Y-57881020D01*
X151478044Y-57881020D01*
X151579777Y-57853761D01*
X151670989Y-57801100D01*
X151745463Y-57726626D01*
X151798124Y-57635414D01*
X151825383Y-57533681D01*
X151825383Y-57527467D01*
X152518744Y-58220828D01*
X152533192Y-58223732D01*
X152583375Y-58272347D01*
X152599500Y-58333494D01*
X152599500Y-63464555D01*
X152579815Y-63531594D01*
X152527011Y-63577349D01*
X152457853Y-63587293D01*
X152445202Y-63584797D01*
X152410336Y-63576011D01*
X152346412Y-63559904D01*
X152214217Y-63549500D01*
X152214215Y-63549500D01*
X150585791Y-63549500D01*
X150585776Y-63549501D01*
X150453586Y-63559904D01*
X150453579Y-63559905D01*
X150235321Y-63614902D01*
X150235318Y-63614903D01*
X150030377Y-63707991D01*
X150030367Y-63707997D01*
X149845354Y-63836174D01*
X149845342Y-63836184D01*
X149686184Y-63995342D01*
X149686174Y-63995354D01*
X149557997Y-64180367D01*
X149557991Y-64180377D01*
X149464903Y-64385318D01*
X149464902Y-64385321D01*
X149409905Y-64603579D01*
X149409904Y-64603586D01*
X149399500Y-64735777D01*
X149399500Y-67364208D01*
X149399501Y-67364223D01*
X149409904Y-67496413D01*
X149409905Y-67496420D01*
X149464902Y-67714678D01*
X149464903Y-67714681D01*
X149557991Y-67919622D01*
X149557997Y-67919632D01*
X149686174Y-68104645D01*
X149686178Y-68104650D01*
X149686181Y-68104654D01*
X149845346Y-68263819D01*
X149845350Y-68263822D01*
X149845354Y-68263825D01*
X149946945Y-68334207D01*
X150030374Y-68392007D01*
X150235317Y-68485096D01*
X150235321Y-68485097D01*
X150453579Y-68540094D01*
X150453581Y-68540094D01*
X150453588Y-68540096D01*
X150585783Y-68550500D01*
X152214216Y-68550499D01*
X152346412Y-68540096D01*
X152445201Y-68515203D01*
X152515018Y-68517910D01*
X152572289Y-68557933D01*
X152598829Y-68622566D01*
X152599500Y-68635444D01*
X152599500Y-77464546D01*
X152579815Y-77531585D01*
X152563181Y-77552227D01*
X152190345Y-77925062D01*
X152129022Y-77958547D01*
X152059330Y-77953563D01*
X152003397Y-77911691D01*
X151989108Y-77887191D01*
X151955917Y-77811524D01*
X151871619Y-77682496D01*
X151203395Y-78350720D01*
X151186358Y-78287138D01*
X151120532Y-78173124D01*
X151027440Y-78080032D01*
X150913426Y-78014206D01*
X150849842Y-77997168D01*
X151470060Y-77376949D01*
X151531383Y-77343464D01*
X151557740Y-77340630D01*
X151668305Y-77340630D01*
X151727916Y-77334222D01*
X151862764Y-77283927D01*
X151977979Y-77197677D01*
X152064229Y-77082462D01*
X152114524Y-76947614D01*
X152120933Y-76888004D01*
X152120932Y-74992259D01*
X152114524Y-74932648D01*
X152101874Y-74898732D01*
X152064230Y-74797802D01*
X152064226Y-74797795D01*
X151977980Y-74682586D01*
X151977977Y-74682583D01*
X151862768Y-74596337D01*
X151862761Y-74596333D01*
X151727915Y-74546039D01*
X151727916Y-74546039D01*
X151668316Y-74539632D01*
X151668314Y-74539631D01*
X151668306Y-74539631D01*
X151668298Y-74539631D01*
X150179619Y-74539631D01*
X150112580Y-74519946D01*
X150066825Y-74467142D01*
X150056881Y-74397984D01*
X150085906Y-74334428D01*
X150120599Y-74306578D01*
X150268626Y-74226470D01*
X150451784Y-74083913D01*
X150608979Y-73913153D01*
X150735924Y-73718849D01*
X150829157Y-73506300D01*
X150886134Y-73281305D01*
X150889363Y-73242335D01*
X150905300Y-73050006D01*
X150905300Y-73049993D01*
X150886135Y-72818702D01*
X150886133Y-72818691D01*
X150829157Y-72593699D01*
X150735924Y-72381151D01*
X150608983Y-72186852D01*
X150608980Y-72186849D01*
X150608979Y-72186847D01*
X150451784Y-72016087D01*
X150451779Y-72016083D01*
X150451777Y-72016081D01*
X150268634Y-71873535D01*
X150268619Y-71873525D01*
X150190482Y-71831239D01*
X150140891Y-71782020D01*
X150125500Y-71722185D01*
X150125500Y-69497459D01*
X150125501Y-69497438D01*
X150125501Y-69368109D01*
X150101464Y-69247273D01*
X150101463Y-69247267D01*
X150054312Y-69133433D01*
X149985858Y-69030985D01*
X149985855Y-69030981D01*
X144288210Y-63333338D01*
X144288207Y-63333334D01*
X144288207Y-63333335D01*
X144281140Y-63326268D01*
X144281140Y-63326267D01*
X144194015Y-63239142D01*
X144194014Y-63239141D01*
X144194013Y-63239140D01*
X144142791Y-63204915D01*
X144117864Y-63188259D01*
X144091568Y-63170688D01*
X144091565Y-63170686D01*
X144091562Y-63170685D01*
X144011074Y-63137347D01*
X143977735Y-63123537D01*
X143967709Y-63121543D01*
X143917311Y-63111518D01*
X143856892Y-63099500D01*
X143856889Y-63099500D01*
X143856888Y-63099500D01*
X139035453Y-63099500D01*
X138968414Y-63079815D01*
X138947772Y-63063181D01*
X135883805Y-59999215D01*
X135850320Y-59937892D01*
X135855304Y-59868200D01*
X135897176Y-59812267D01*
X135921044Y-59798258D01*
X135952730Y-59784151D01*
X136105871Y-59672888D01*
X136232533Y-59532216D01*
X136327179Y-59368284D01*
X136385674Y-59188256D01*
X136390909Y-59138443D01*
X136417492Y-59073833D01*
X136474789Y-59033847D01*
X136544608Y-59031187D01*
X136585352Y-59049833D01*
X136611881Y-59068409D01*
X136611885Y-59068411D01*
X136818042Y-59164543D01*
X136818051Y-59164547D01*
X137014368Y-59217150D01*
X137014369Y-59217149D01*
X137014369Y-58253964D01*
X137018763Y-58258358D01*
X137109975Y-58311019D01*
X137211708Y-58338278D01*
X137317030Y-58338278D01*
X137418763Y-58311019D01*
X137509975Y-58258358D01*
X137514369Y-58253964D01*
X137514369Y-59217150D01*
X137710686Y-59164547D01*
X137710695Y-59164543D01*
X137916851Y-59068412D01*
X138103189Y-58937935D01*
X138264026Y-58777098D01*
X138394503Y-58590760D01*
X138490634Y-58384604D01*
X138490638Y-58384595D01*
X138543241Y-58188278D01*
X137580055Y-58188278D01*
X137584449Y-58183884D01*
X137637110Y-58092672D01*
X137664369Y-57990939D01*
X137664369Y-57885617D01*
X137637110Y-57783884D01*
X137584449Y-57692672D01*
X137580055Y-57688278D01*
X138543241Y-57688278D01*
X138543241Y-57688277D01*
X138490638Y-57491960D01*
X138490634Y-57491951D01*
X138394503Y-57285795D01*
X138264026Y-57099457D01*
X138103189Y-56938620D01*
X137916851Y-56808143D01*
X137710697Y-56712012D01*
X137514369Y-56659405D01*
X137514369Y-57622592D01*
X137509975Y-57618198D01*
X137418763Y-57565537D01*
X137317030Y-57538278D01*
X137211708Y-57538278D01*
X137109975Y-57565537D01*
X137018763Y-57618198D01*
X137014369Y-57622592D01*
X137014369Y-56659405D01*
X136818040Y-56712012D01*
X136611886Y-56808143D01*
X136425548Y-56938620D01*
X136337181Y-57026988D01*
X136275858Y-57060473D01*
X136206166Y-57055489D01*
X136150233Y-57013617D01*
X136125816Y-56948153D01*
X136125500Y-56939307D01*
X136125500Y-55937958D01*
X136145185Y-55870919D01*
X136197989Y-55825164D01*
X136267147Y-55815220D01*
X136330703Y-55844245D01*
X136337181Y-55850277D01*
X136425227Y-55938323D01*
X136425230Y-55938325D01*
X136611635Y-56068846D01*
X136817873Y-56165017D01*
X137037677Y-56223913D01*
X137199599Y-56238079D01*
X137264367Y-56243746D01*
X137264369Y-56243746D01*
X137264371Y-56243746D01*
X137321042Y-56238787D01*
X137491061Y-56223913D01*
X137710865Y-56165017D01*
X137917103Y-56068846D01*
X138103508Y-55938325D01*
X138264416Y-55777417D01*
X138394937Y-55591012D01*
X138491108Y-55384774D01*
X138550004Y-55164970D01*
X138569837Y-54938278D01*
X138550004Y-54711586D01*
X138491108Y-54491782D01*
X138394937Y-54285544D01*
X138264416Y-54099139D01*
X138264414Y-54099136D01*
X138103510Y-53938232D01*
X137917103Y-53807710D01*
X137917101Y-53807709D01*
X137710866Y-53711539D01*
X137710857Y-53711536D01*
X137491066Y-53652644D01*
X137491062Y-53652643D01*
X137491061Y-53652643D01*
X137491060Y-53652642D01*
X137491055Y-53652642D01*
X137264371Y-53632810D01*
X137264367Y-53632810D01*
X137037682Y-53652642D01*
X137037671Y-53652644D01*
X136817880Y-53711536D01*
X136817871Y-53711539D01*
X136611636Y-53807709D01*
X136611634Y-53807710D01*
X136425227Y-53938232D01*
X136337181Y-54026279D01*
X136275858Y-54059764D01*
X136206166Y-54054780D01*
X136150233Y-54012908D01*
X136125816Y-53947444D01*
X136125500Y-53938598D01*
X136125500Y-53933099D01*
X136145185Y-53866060D01*
X136161819Y-53845418D01*
X136449777Y-53557460D01*
X136769548Y-53237688D01*
X136830869Y-53204205D01*
X136889316Y-53205595D01*
X136957677Y-53223913D01*
X137115149Y-53237690D01*
X137184367Y-53243746D01*
X137184369Y-53243746D01*
X137184371Y-53243746D01*
X137253589Y-53237690D01*
X137411061Y-53223913D01*
X137630865Y-53165017D01*
X137837103Y-53068846D01*
X138023508Y-52938325D01*
X138184416Y-52777417D01*
X138296982Y-52616655D01*
X138351558Y-52573030D01*
X138398557Y-52563778D01*
X144113917Y-52563778D01*
X144180956Y-52583463D01*
G37*
%TD.AperFunction*%
%TA.AperFunction,Conductor*%
G36*
X131141875Y-57035336D02*
G01*
X131173844Y-57058435D01*
X135393545Y-61278136D01*
X138239141Y-64123732D01*
X138239142Y-64123733D01*
X138287954Y-64172545D01*
X138326268Y-64210859D01*
X138428707Y-64279307D01*
X138428713Y-64279310D01*
X138428714Y-64279311D01*
X138542548Y-64326463D01*
X138602971Y-64338481D01*
X138663393Y-64350500D01*
X138663394Y-64350500D01*
X140514555Y-64350500D01*
X140581594Y-64370185D01*
X140627349Y-64422989D01*
X140637293Y-64492147D01*
X140634797Y-64504798D01*
X140609904Y-64603588D01*
X140599500Y-64735777D01*
X140599500Y-67364208D01*
X140599501Y-67364223D01*
X140609904Y-67496413D01*
X140609905Y-67496420D01*
X140664902Y-67714678D01*
X140664903Y-67714681D01*
X140757991Y-67919622D01*
X140757997Y-67919632D01*
X140886174Y-68104645D01*
X140886178Y-68104650D01*
X140886181Y-68104654D01*
X141045346Y-68263819D01*
X141045350Y-68263822D01*
X141045354Y-68263825D01*
X141146945Y-68334207D01*
X141230374Y-68392007D01*
X141435317Y-68485096D01*
X141435321Y-68485097D01*
X141653579Y-68540094D01*
X141653581Y-68540094D01*
X141653588Y-68540096D01*
X141785783Y-68550500D01*
X143414216Y-68550499D01*
X143546412Y-68540096D01*
X143764683Y-68485096D01*
X143969626Y-68392007D01*
X144154654Y-68263819D01*
X144313819Y-68104654D01*
X144442007Y-67919626D01*
X144535096Y-67714683D01*
X144590096Y-67496412D01*
X144600500Y-67364217D01*
X144600499Y-65714168D01*
X144620184Y-65647130D01*
X144672987Y-65601375D01*
X144742146Y-65591431D01*
X144805702Y-65620456D01*
X144812180Y-65626488D01*
X148838181Y-69652489D01*
X148871666Y-69713812D01*
X148874500Y-69740170D01*
X148874500Y-71722185D01*
X148854815Y-71789224D01*
X148809518Y-71831239D01*
X148731380Y-71873525D01*
X148731365Y-71873535D01*
X148548222Y-72016081D01*
X148548219Y-72016084D01*
X148548216Y-72016086D01*
X148548216Y-72016087D01*
X148403847Y-72172915D01*
X148391015Y-72186854D01*
X148353808Y-72243804D01*
X148300662Y-72289161D01*
X148231430Y-72298584D01*
X148168095Y-72269082D01*
X148146192Y-72243804D01*
X148108984Y-72186854D01*
X148108982Y-72186852D01*
X148108979Y-72186847D01*
X147951784Y-72016087D01*
X147951779Y-72016083D01*
X147951777Y-72016081D01*
X147768634Y-71873535D01*
X147768628Y-71873531D01*
X147564504Y-71763064D01*
X147564495Y-71763061D01*
X147344984Y-71687702D01*
X147157404Y-71656401D01*
X147116049Y-71649500D01*
X146883951Y-71649500D01*
X146842596Y-71656401D01*
X146655015Y-71687702D01*
X146435504Y-71763061D01*
X146435495Y-71763064D01*
X146231372Y-71873531D01*
X146054023Y-72011567D01*
X145989029Y-72037209D01*
X145920489Y-72023642D01*
X145870164Y-71975174D01*
X145861679Y-71957045D01*
X145843355Y-71907915D01*
X145843350Y-71907906D01*
X145757190Y-71792812D01*
X145757187Y-71792809D01*
X145642093Y-71706649D01*
X145642086Y-71706645D01*
X145507379Y-71656403D01*
X145507372Y-71656401D01*
X145447844Y-71650000D01*
X144750000Y-71650000D01*
X144750000Y-72616988D01*
X144692993Y-72584075D01*
X144565826Y-72550000D01*
X144434174Y-72550000D01*
X144307007Y-72584075D01*
X144250000Y-72616988D01*
X144250000Y-71650000D01*
X143552155Y-71650000D01*
X143492627Y-71656401D01*
X143492620Y-71656403D01*
X143357913Y-71706645D01*
X143357906Y-71706649D01*
X143242812Y-71792809D01*
X143242809Y-71792812D01*
X143156649Y-71907906D01*
X143156645Y-71907913D01*
X143106403Y-72042620D01*
X143106401Y-72042627D01*
X143100000Y-72102155D01*
X143100000Y-72800000D01*
X144066988Y-72800000D01*
X144034075Y-72857007D01*
X144000000Y-72984174D01*
X144000000Y-73115826D01*
X144034075Y-73242993D01*
X144066988Y-73300000D01*
X143100000Y-73300000D01*
X143100000Y-73750500D01*
X143080315Y-73817539D01*
X143027511Y-73863294D01*
X142976000Y-73874500D01*
X142561607Y-73874500D01*
X142438393Y-73874500D01*
X142384982Y-73885124D01*
X142384981Y-73885123D01*
X142317555Y-73898535D01*
X142317545Y-73898538D01*
X142299181Y-73906145D01*
X142299180Y-73906145D01*
X142203715Y-73945686D01*
X142193627Y-73952428D01*
X142193626Y-73952429D01*
X142101268Y-74014140D01*
X142066337Y-74049072D01*
X142014142Y-74101267D01*
X142014139Y-74101270D01*
X139501770Y-76613637D01*
X139440447Y-76647122D01*
X139370755Y-76642138D01*
X139314822Y-76600266D01*
X139294314Y-76558049D01*
X139285946Y-76526820D01*
X139285941Y-76526806D01*
X139189813Y-76320659D01*
X139189809Y-76320651D01*
X139138702Y-76247664D01*
X138459677Y-76926690D01*
X138459677Y-76920477D01*
X138432418Y-76818744D01*
X138379757Y-76727532D01*
X138305283Y-76653058D01*
X138214071Y-76600397D01*
X138112338Y-76573138D01*
X138106125Y-76573138D01*
X138785149Y-75894112D01*
X138712155Y-75843001D01*
X138506008Y-75746873D01*
X138505994Y-75746868D01*
X138286287Y-75687998D01*
X138286276Y-75687996D01*
X138059679Y-75668172D01*
X138059675Y-75668172D01*
X137833077Y-75687996D01*
X137833066Y-75687998D01*
X137613359Y-75746868D01*
X137613350Y-75746872D01*
X137407193Y-75843004D01*
X137407189Y-75843006D01*
X137334203Y-75894111D01*
X137334203Y-75894112D01*
X138013230Y-76573138D01*
X138007016Y-76573138D01*
X137905283Y-76600397D01*
X137814071Y-76653058D01*
X137739597Y-76727532D01*
X137686936Y-76818744D01*
X137659677Y-76920477D01*
X137659677Y-76926690D01*
X137016819Y-76283832D01*
X136983334Y-76222509D01*
X136980500Y-76196151D01*
X136980500Y-64293393D01*
X136980499Y-64293389D01*
X136958020Y-64180377D01*
X136956463Y-64172548D01*
X136936243Y-64123733D01*
X136909312Y-64058715D01*
X136909311Y-64058713D01*
X136909310Y-64058711D01*
X136909309Y-64058709D01*
X136884303Y-64021286D01*
X136884302Y-64021285D01*
X136840858Y-63956267D01*
X136840855Y-63956263D01*
X136750637Y-63866045D01*
X136750606Y-63866016D01*
X130963660Y-58079070D01*
X130930175Y-58017747D01*
X130931135Y-57960950D01*
X130985108Y-57747821D01*
X130985116Y-57747729D01*
X131005643Y-57500005D01*
X131005643Y-57499994D01*
X130985109Y-57252187D01*
X130985108Y-57252184D01*
X130985108Y-57252179D01*
X130965958Y-57176557D01*
X130968582Y-57106737D01*
X131008537Y-57049419D01*
X131073138Y-57022802D01*
X131141875Y-57035336D01*
G37*
%TD.AperFunction*%
%TA.AperFunction,Conductor*%
G36*
X110853552Y-57145185D02*
G01*
X110899307Y-57197989D01*
X110909251Y-57267147D01*
X110888088Y-57320621D01*
X110884857Y-57325237D01*
X110869432Y-57347265D01*
X110869431Y-57347267D01*
X110773261Y-57553502D01*
X110773258Y-57553511D01*
X110714366Y-57773302D01*
X110714364Y-57773313D01*
X110694532Y-57999998D01*
X110694532Y-58000001D01*
X110714364Y-58226686D01*
X110714366Y-58226697D01*
X110773258Y-58446488D01*
X110773261Y-58446497D01*
X110869431Y-58652732D01*
X110869432Y-58652734D01*
X110999954Y-58839141D01*
X111160858Y-59000045D01*
X111160861Y-59000047D01*
X111347266Y-59130568D01*
X111553504Y-59226739D01*
X111773308Y-59285635D01*
X111935230Y-59299801D01*
X111999998Y-59305468D01*
X112000000Y-59305468D01*
X112000002Y-59305468D01*
X112056673Y-59300509D01*
X112226692Y-59285635D01*
X112446496Y-59226739D01*
X112652734Y-59130568D01*
X112839139Y-59000047D01*
X113000047Y-58839139D01*
X113130568Y-58652734D01*
X113226739Y-58446496D01*
X113285635Y-58226692D01*
X113305468Y-58000000D01*
X113285635Y-57773308D01*
X113226739Y-57553504D01*
X113130568Y-57347266D01*
X113111911Y-57320621D01*
X113089585Y-57254417D01*
X113106595Y-57186650D01*
X113157543Y-57138837D01*
X113213487Y-57125500D01*
X113786513Y-57125500D01*
X113853552Y-57145185D01*
X113899307Y-57197989D01*
X113909251Y-57267147D01*
X113888088Y-57320621D01*
X113884857Y-57325237D01*
X113869432Y-57347265D01*
X113869431Y-57347267D01*
X113773261Y-57553502D01*
X113773258Y-57553511D01*
X113714366Y-57773302D01*
X113714364Y-57773313D01*
X113694532Y-57999998D01*
X113694532Y-58000001D01*
X113714364Y-58226686D01*
X113714366Y-58226697D01*
X113773258Y-58446488D01*
X113773261Y-58446497D01*
X113869431Y-58652732D01*
X113869432Y-58652734D01*
X113999954Y-58839141D01*
X114160858Y-59000045D01*
X114160861Y-59000047D01*
X114347266Y-59130568D01*
X114553504Y-59226739D01*
X114773308Y-59285635D01*
X114935230Y-59299801D01*
X114999998Y-59305468D01*
X115000000Y-59305468D01*
X115000002Y-59305468D01*
X115056673Y-59300509D01*
X115226692Y-59285635D01*
X115446496Y-59226739D01*
X115652734Y-59130568D01*
X115839139Y-59000047D01*
X116000047Y-58839139D01*
X116130568Y-58652734D01*
X116226739Y-58446496D01*
X116285635Y-58226692D01*
X116305468Y-58000000D01*
X116285635Y-57773308D01*
X116226739Y-57553504D01*
X116130568Y-57347266D01*
X116111911Y-57320621D01*
X116089585Y-57254417D01*
X116106595Y-57186650D01*
X116157543Y-57138837D01*
X116213487Y-57125500D01*
X116786513Y-57125500D01*
X116853552Y-57145185D01*
X116899307Y-57197989D01*
X116909251Y-57267147D01*
X116888088Y-57320621D01*
X116884857Y-57325237D01*
X116869432Y-57347265D01*
X116869431Y-57347267D01*
X116773261Y-57553502D01*
X116773258Y-57553511D01*
X116714366Y-57773302D01*
X116714364Y-57773313D01*
X116694532Y-57999998D01*
X116694532Y-58000001D01*
X116714364Y-58226686D01*
X116714366Y-58226697D01*
X116773258Y-58446488D01*
X116773261Y-58446497D01*
X116869431Y-58652732D01*
X116869432Y-58652734D01*
X116999954Y-58839141D01*
X117160858Y-59000045D01*
X117160861Y-59000047D01*
X117347266Y-59130568D01*
X117553504Y-59226739D01*
X117773308Y-59285635D01*
X117935230Y-59299801D01*
X117999998Y-59305468D01*
X118000000Y-59305468D01*
X118000002Y-59305468D01*
X118056673Y-59300509D01*
X118226692Y-59285635D01*
X118446496Y-59226739D01*
X118652734Y-59130568D01*
X118839139Y-59000047D01*
X119000047Y-58839139D01*
X119130568Y-58652734D01*
X119226739Y-58446496D01*
X119285635Y-58226692D01*
X119305468Y-58000000D01*
X119285635Y-57773308D01*
X119226739Y-57553504D01*
X119130568Y-57347266D01*
X119111911Y-57320621D01*
X119089585Y-57254417D01*
X119106595Y-57186650D01*
X119157543Y-57138837D01*
X119213487Y-57125500D01*
X122376667Y-57125500D01*
X122443706Y-57145185D01*
X122489461Y-57197989D01*
X122500667Y-57249500D01*
X122500667Y-59113380D01*
X122480982Y-59180419D01*
X122464348Y-59201061D01*
X119088074Y-62577334D01*
X119026751Y-62610819D01*
X118957059Y-62605835D01*
X118901126Y-62563963D01*
X118876866Y-62500462D01*
X118864307Y-62356912D01*
X118805411Y-62137108D01*
X118709240Y-61930870D01*
X118578719Y-61744465D01*
X118578717Y-61744462D01*
X118417813Y-61583558D01*
X118231406Y-61453036D01*
X118231404Y-61453035D01*
X118025169Y-61356865D01*
X118025160Y-61356862D01*
X117805369Y-61297970D01*
X117805365Y-61297969D01*
X117805364Y-61297969D01*
X117805363Y-61297968D01*
X117805358Y-61297968D01*
X117578674Y-61278136D01*
X117578670Y-61278136D01*
X117351985Y-61297968D01*
X117351974Y-61297970D01*
X117132183Y-61356862D01*
X117132174Y-61356865D01*
X116925939Y-61453035D01*
X116925937Y-61453036D01*
X116739530Y-61583558D01*
X116578626Y-61744462D01*
X116448104Y-61930869D01*
X116448103Y-61930871D01*
X116351933Y-62137106D01*
X116351930Y-62137115D01*
X116293038Y-62356906D01*
X116293036Y-62356917D01*
X116273204Y-62583602D01*
X116273204Y-62583605D01*
X116293036Y-62810290D01*
X116293038Y-62810301D01*
X116351930Y-63030092D01*
X116351933Y-63030101D01*
X116448103Y-63236336D01*
X116448104Y-63236338D01*
X116578626Y-63422745D01*
X116739530Y-63583649D01*
X116739533Y-63583651D01*
X116925938Y-63714172D01*
X117132176Y-63810343D01*
X117351980Y-63869239D01*
X117495530Y-63881798D01*
X117560597Y-63907249D01*
X117601575Y-63963840D01*
X117605454Y-64033602D01*
X117572402Y-64093006D01*
X109998520Y-71666888D01*
X109937197Y-71700373D01*
X109870577Y-71696488D01*
X109844986Y-71687702D01*
X109654204Y-71655867D01*
X109616049Y-71649500D01*
X109383951Y-71649500D01*
X109342596Y-71656401D01*
X109155015Y-71687702D01*
X108935504Y-71763061D01*
X108935495Y-71763064D01*
X108731372Y-71873530D01*
X108654237Y-71933566D01*
X108589242Y-71959207D01*
X108520702Y-71945640D01*
X108490395Y-71923392D01*
X108000340Y-71433338D01*
X108000337Y-71433334D01*
X108000337Y-71433335D01*
X107993270Y-71426268D01*
X107993270Y-71426267D01*
X107906145Y-71339142D01*
X107848313Y-71300500D01*
X107848314Y-71300500D01*
X107848312Y-71300498D01*
X107803702Y-71270690D01*
X107803698Y-71270688D01*
X107803691Y-71270685D01*
X107723204Y-71237347D01*
X107689865Y-71223537D01*
X107679839Y-71221543D01*
X107629441Y-71211518D01*
X107569022Y-71199500D01*
X107569019Y-71199500D01*
X107569018Y-71199500D01*
X106560329Y-71199500D01*
X106560309Y-71199499D01*
X106554195Y-71199499D01*
X106430982Y-71199499D01*
X106330185Y-71219548D01*
X106330180Y-71219548D01*
X106310137Y-71223536D01*
X106310135Y-71223536D01*
X106262985Y-71243067D01*
X106196307Y-71270685D01*
X106196305Y-71270686D01*
X106093854Y-71339141D01*
X105759808Y-71673187D01*
X105698485Y-71706672D01*
X105628794Y-71701688D01*
X105507379Y-71656403D01*
X105507372Y-71656401D01*
X105447844Y-71650000D01*
X104750000Y-71650000D01*
X104750000Y-72616988D01*
X104692993Y-72584075D01*
X104565826Y-72550000D01*
X104434174Y-72550000D01*
X104307007Y-72584075D01*
X104250000Y-72616988D01*
X104250000Y-71650000D01*
X103552155Y-71650000D01*
X103492627Y-71656401D01*
X103492620Y-71656403D01*
X103357913Y-71706645D01*
X103357906Y-71706649D01*
X103242812Y-71792809D01*
X103242809Y-71792812D01*
X103156649Y-71907906D01*
X103156645Y-71907913D01*
X103106403Y-72042620D01*
X103106401Y-72042627D01*
X103100000Y-72102155D01*
X103100000Y-72800000D01*
X104066988Y-72800000D01*
X104034075Y-72857007D01*
X104000000Y-72984174D01*
X104000000Y-73115826D01*
X104034075Y-73242993D01*
X104066988Y-73300000D01*
X103100000Y-73300000D01*
X103100000Y-73997844D01*
X103106401Y-74057372D01*
X103106403Y-74057379D01*
X103156645Y-74192086D01*
X103156649Y-74192093D01*
X103242809Y-74307187D01*
X103242812Y-74307190D01*
X103357906Y-74393350D01*
X103357913Y-74393354D01*
X103492620Y-74443596D01*
X103492627Y-74443598D01*
X103552155Y-74449999D01*
X103552172Y-74450000D01*
X104250000Y-74450000D01*
X104250000Y-73483012D01*
X104307007Y-73515925D01*
X104434174Y-73550000D01*
X104565826Y-73550000D01*
X104692993Y-73515925D01*
X104750000Y-73483012D01*
X104750000Y-74450000D01*
X105025500Y-74450000D01*
X105092539Y-74469685D01*
X105138294Y-74522489D01*
X105149500Y-74574000D01*
X105149500Y-75566570D01*
X105129815Y-75633609D01*
X105113181Y-75654251D01*
X104126310Y-76641122D01*
X104064987Y-76674607D01*
X104038629Y-76677441D01*
X102790656Y-76677441D01*
X102723617Y-76657756D01*
X102689081Y-76624564D01*
X102576513Y-76463799D01*
X102415609Y-76302895D01*
X102229202Y-76172373D01*
X102229200Y-76172372D01*
X102022965Y-76076202D01*
X102022956Y-76076199D01*
X101803165Y-76017307D01*
X101803161Y-76017306D01*
X101803160Y-76017306D01*
X101803159Y-76017305D01*
X101803154Y-76017305D01*
X101576470Y-75997473D01*
X101576466Y-75997473D01*
X101349781Y-76017305D01*
X101349770Y-76017307D01*
X101138459Y-76073927D01*
X101068609Y-76072264D01*
X101010747Y-76033101D01*
X100983243Y-75968872D01*
X100982366Y-75954152D01*
X100982366Y-68456945D01*
X101002051Y-68389906D01*
X101054855Y-68344151D01*
X101124013Y-68334207D01*
X101176982Y-68355017D01*
X101230367Y-68392003D01*
X101230371Y-68392005D01*
X101230374Y-68392007D01*
X101435317Y-68485096D01*
X101435321Y-68485097D01*
X101653579Y-68540094D01*
X101653581Y-68540094D01*
X101653588Y-68540096D01*
X101785783Y-68550500D01*
X103414216Y-68550499D01*
X103546412Y-68540096D01*
X103764683Y-68485096D01*
X103969626Y-68392007D01*
X104154654Y-68263819D01*
X104313819Y-68104654D01*
X104442007Y-67919626D01*
X104535096Y-67714683D01*
X104590096Y-67496412D01*
X104600500Y-67364217D01*
X104600499Y-64735784D01*
X104600498Y-64735777D01*
X109399500Y-64735777D01*
X109399500Y-67364208D01*
X109399501Y-67364223D01*
X109409904Y-67496413D01*
X109409905Y-67496420D01*
X109464902Y-67714678D01*
X109464903Y-67714681D01*
X109557991Y-67919622D01*
X109557997Y-67919632D01*
X109686174Y-68104645D01*
X109686178Y-68104650D01*
X109686181Y-68104654D01*
X109845346Y-68263819D01*
X109845350Y-68263822D01*
X109845354Y-68263825D01*
X109946945Y-68334207D01*
X110030374Y-68392007D01*
X110235317Y-68485096D01*
X110235321Y-68485097D01*
X110453579Y-68540094D01*
X110453581Y-68540094D01*
X110453588Y-68540096D01*
X110585783Y-68550500D01*
X112214216Y-68550499D01*
X112346412Y-68540096D01*
X112564683Y-68485096D01*
X112769626Y-68392007D01*
X112954654Y-68263819D01*
X113113819Y-68104654D01*
X113242007Y-67919626D01*
X113335096Y-67714683D01*
X113390096Y-67496412D01*
X113400500Y-67364217D01*
X113400499Y-64735784D01*
X113390096Y-64603588D01*
X113335096Y-64385317D01*
X113242007Y-64180374D01*
X113157721Y-64058715D01*
X113113825Y-63995354D01*
X113113822Y-63995350D01*
X113113819Y-63995346D01*
X112954654Y-63836181D01*
X112954650Y-63836178D01*
X112954645Y-63836174D01*
X112769632Y-63707997D01*
X112769630Y-63707995D01*
X112769626Y-63707993D01*
X112692339Y-63672888D01*
X112564681Y-63614903D01*
X112564678Y-63614902D01*
X112346420Y-63559905D01*
X112346413Y-63559904D01*
X112302347Y-63556436D01*
X112214217Y-63549500D01*
X112214215Y-63549500D01*
X110585791Y-63549500D01*
X110585776Y-63549501D01*
X110453586Y-63559904D01*
X110453579Y-63559905D01*
X110235321Y-63614902D01*
X110235318Y-63614903D01*
X110030377Y-63707991D01*
X110030367Y-63707997D01*
X109845354Y-63836174D01*
X109845342Y-63836184D01*
X109686184Y-63995342D01*
X109686174Y-63995354D01*
X109557997Y-64180367D01*
X109557991Y-64180377D01*
X109464903Y-64385318D01*
X109464902Y-64385321D01*
X109409905Y-64603579D01*
X109409904Y-64603586D01*
X109399500Y-64735777D01*
X104600498Y-64735777D01*
X104590096Y-64603588D01*
X104535096Y-64385317D01*
X104442007Y-64180374D01*
X104357721Y-64058715D01*
X104313825Y-63995354D01*
X104313822Y-63995350D01*
X104313819Y-63995346D01*
X104154654Y-63836181D01*
X104154650Y-63836178D01*
X104154645Y-63836174D01*
X103969632Y-63707997D01*
X103969630Y-63707995D01*
X103969626Y-63707993D01*
X103892339Y-63672888D01*
X103764681Y-63614903D01*
X103764678Y-63614902D01*
X103546420Y-63559905D01*
X103546413Y-63559904D01*
X103502347Y-63556436D01*
X103414217Y-63549500D01*
X103414215Y-63549500D01*
X101785791Y-63549500D01*
X101785776Y-63549501D01*
X101653586Y-63559904D01*
X101653579Y-63559905D01*
X101435321Y-63614902D01*
X101435318Y-63614903D01*
X101230377Y-63707991D01*
X101230369Y-63707995D01*
X101176981Y-63744983D01*
X101110664Y-63766979D01*
X101042983Y-63749631D01*
X100995425Y-63698444D01*
X100982366Y-63643054D01*
X100982366Y-59225296D01*
X101002051Y-59158257D01*
X101054855Y-59112502D01*
X101124013Y-59102558D01*
X101177486Y-59123720D01*
X101187266Y-59130568D01*
X101393504Y-59226739D01*
X101613308Y-59285635D01*
X101775230Y-59299801D01*
X101839998Y-59305468D01*
X101840000Y-59305468D01*
X101840002Y-59305468D01*
X101896673Y-59300509D01*
X102066692Y-59285635D01*
X102286496Y-59226739D01*
X102492734Y-59130568D01*
X102679139Y-59000047D01*
X102840047Y-58839139D01*
X102970568Y-58652734D01*
X103066739Y-58446496D01*
X103125635Y-58226692D01*
X103145468Y-58000000D01*
X103129519Y-57817708D01*
X103143285Y-57749211D01*
X103165362Y-57719226D01*
X103722772Y-57161819D01*
X103784095Y-57128334D01*
X103810453Y-57125500D01*
X110786513Y-57125500D01*
X110853552Y-57145185D01*
G37*
%TD.AperFunction*%
%TA.AperFunction,Conductor*%
G36*
X129756587Y-55645185D02*
G01*
X129777229Y-55661819D01*
X129939468Y-55824058D01*
X129972953Y-55885381D01*
X129967969Y-55955073D01*
X129926097Y-56011006D01*
X129860633Y-56035423D01*
X129831378Y-56034048D01*
X129624335Y-55999500D01*
X129375665Y-55999500D01*
X129130383Y-56040429D01*
X128895197Y-56121169D01*
X128895188Y-56121172D01*
X128676493Y-56239524D01*
X128480257Y-56392261D01*
X128311833Y-56575217D01*
X128175826Y-56783393D01*
X128075936Y-57011118D01*
X128014892Y-57252175D01*
X128014890Y-57252187D01*
X127994357Y-57499994D01*
X127994357Y-57500005D01*
X128014890Y-57747812D01*
X128014892Y-57747824D01*
X128075936Y-57988881D01*
X128175826Y-58216606D01*
X128311833Y-58424782D01*
X128311836Y-58424785D01*
X128480256Y-58607738D01*
X128676491Y-58760474D01*
X128707799Y-58777417D01*
X128894332Y-58878364D01*
X128895190Y-58878828D01*
X129060736Y-58935660D01*
X129128964Y-58959083D01*
X129130386Y-58959571D01*
X129375665Y-59000500D01*
X129624335Y-59000500D01*
X129869614Y-58959571D01*
X129949287Y-58932218D01*
X130019082Y-58929068D01*
X130077229Y-58961819D01*
X133403229Y-62287819D01*
X133436714Y-62349142D01*
X133431730Y-62418834D01*
X133389858Y-62474767D01*
X133324394Y-62499184D01*
X133315548Y-62499500D01*
X131302129Y-62499500D01*
X131302123Y-62499501D01*
X131242516Y-62505908D01*
X131107671Y-62556202D01*
X131107664Y-62556206D01*
X130992455Y-62642452D01*
X130992452Y-62642455D01*
X130906206Y-62757664D01*
X130906202Y-62757671D01*
X130855908Y-62892517D01*
X130849501Y-62952116D01*
X130849501Y-62952123D01*
X130849500Y-62952135D01*
X130849500Y-66047870D01*
X130849501Y-66047876D01*
X130855908Y-66107483D01*
X130906202Y-66242328D01*
X130906206Y-66242335D01*
X130992452Y-66357544D01*
X130992455Y-66357547D01*
X131107664Y-66443793D01*
X131107671Y-66443797D01*
X131242517Y-66494091D01*
X131242516Y-66494091D01*
X131249444Y-66494835D01*
X131302127Y-66500500D01*
X133897872Y-66500499D01*
X133957483Y-66494091D01*
X134092331Y-66443796D01*
X134207546Y-66357546D01*
X134293796Y-66242331D01*
X134344091Y-66107483D01*
X134350500Y-66047873D01*
X134350499Y-63534450D01*
X134370184Y-63467412D01*
X134422987Y-63421657D01*
X134492146Y-63411713D01*
X134555702Y-63440738D01*
X134562180Y-63446770D01*
X135693181Y-64577771D01*
X135726666Y-64639094D01*
X135729500Y-64665452D01*
X135729500Y-75183296D01*
X135709815Y-75250335D01*
X135657011Y-75296090D01*
X135587853Y-75306034D01*
X135524297Y-75277009D01*
X135502398Y-75252187D01*
X135485858Y-75227434D01*
X135485855Y-75227430D01*
X130541761Y-70283338D01*
X130541758Y-70283334D01*
X130541758Y-70283335D01*
X130534691Y-70276268D01*
X130534691Y-70276267D01*
X130447566Y-70189142D01*
X130447565Y-70189141D01*
X130447564Y-70189140D01*
X130396342Y-70154915D01*
X130345120Y-70120689D01*
X130345119Y-70120688D01*
X130345116Y-70120686D01*
X130345113Y-70120685D01*
X130264625Y-70087347D01*
X130231286Y-70073537D01*
X130221260Y-70071543D01*
X130170862Y-70061518D01*
X130110443Y-70049500D01*
X130110440Y-70049500D01*
X130110439Y-70049500D01*
X114386607Y-70049500D01*
X114263393Y-70049500D01*
X114263389Y-70049500D01*
X114202971Y-70061518D01*
X114142548Y-70073537D01*
X114142543Y-70073538D01*
X114109207Y-70087347D01*
X114095397Y-70093067D01*
X114073169Y-70102274D01*
X114028713Y-70120688D01*
X114018557Y-70127475D01*
X114018449Y-70127547D01*
X113926268Y-70189140D01*
X113882705Y-70232703D01*
X113839142Y-70276267D01*
X113839139Y-70276270D01*
X111106717Y-73008691D01*
X111045394Y-73042176D01*
X110975702Y-73037192D01*
X110919769Y-72995320D01*
X110895460Y-72931253D01*
X110886134Y-72818695D01*
X110848823Y-72671361D01*
X110851447Y-72601544D01*
X110881345Y-72553243D01*
X119437821Y-63996767D01*
X119499142Y-63963284D01*
X119568834Y-63968268D01*
X119624767Y-64010140D01*
X119649184Y-64075604D01*
X119649500Y-64084450D01*
X119649500Y-66047870D01*
X119649501Y-66047876D01*
X119655908Y-66107483D01*
X119706202Y-66242328D01*
X119706206Y-66242335D01*
X119792452Y-66357544D01*
X119792455Y-66357547D01*
X119907664Y-66443793D01*
X119907671Y-66443797D01*
X120042517Y-66494091D01*
X120042516Y-66494091D01*
X120049444Y-66494835D01*
X120102127Y-66500500D01*
X122697872Y-66500499D01*
X122757483Y-66494091D01*
X122892331Y-66443796D01*
X123007546Y-66357546D01*
X123093796Y-66242331D01*
X123144091Y-66107483D01*
X123150500Y-66047873D01*
X123150499Y-62952128D01*
X123144091Y-62892517D01*
X123113426Y-62810301D01*
X123093797Y-62757671D01*
X123093793Y-62757664D01*
X123007547Y-62642455D01*
X123007544Y-62642452D01*
X122892335Y-62556206D01*
X122892328Y-62556202D01*
X122757482Y-62505908D01*
X122757483Y-62505908D01*
X122697883Y-62499501D01*
X122697881Y-62499500D01*
X122697873Y-62499500D01*
X122697865Y-62499500D01*
X121234451Y-62499500D01*
X121167412Y-62479815D01*
X121121657Y-62427011D01*
X121111713Y-62357853D01*
X121140738Y-62294297D01*
X121146770Y-62287819D01*
X122156453Y-61278136D01*
X123524896Y-59909693D01*
X123524900Y-59909691D01*
X123612025Y-59822566D01*
X123680478Y-59720119D01*
X123727630Y-59606285D01*
X123751667Y-59485439D01*
X123751667Y-59002699D01*
X123771352Y-58935660D01*
X123824156Y-58889905D01*
X123893314Y-58879961D01*
X123915930Y-58885418D01*
X124130506Y-58959083D01*
X124375707Y-59000000D01*
X124624293Y-59000000D01*
X124869493Y-58959083D01*
X125104603Y-58878369D01*
X125104614Y-58878364D01*
X125323228Y-58760057D01*
X125323231Y-58760055D01*
X125370056Y-58723609D01*
X124629409Y-57982962D01*
X124692993Y-57965925D01*
X124807007Y-57900099D01*
X124900099Y-57807007D01*
X124965925Y-57692993D01*
X124982962Y-57629410D01*
X125723434Y-58369882D01*
X125823731Y-58216369D01*
X125923587Y-57988717D01*
X125984612Y-57747738D01*
X125984614Y-57747729D01*
X126005141Y-57500005D01*
X126005141Y-57499994D01*
X125984614Y-57252270D01*
X125984612Y-57252261D01*
X125923587Y-57011282D01*
X125823731Y-56783630D01*
X125723434Y-56630116D01*
X124982962Y-57370589D01*
X124965925Y-57307007D01*
X124900099Y-57192993D01*
X124807007Y-57099901D01*
X124692993Y-57034075D01*
X124629409Y-57017037D01*
X125370057Y-56276389D01*
X125323231Y-56239945D01*
X125111041Y-56125113D01*
X125061451Y-56075893D01*
X125046343Y-56007677D01*
X125070513Y-55942121D01*
X125082359Y-55928397D01*
X125348940Y-55661816D01*
X125410261Y-55628334D01*
X125436619Y-55625500D01*
X129689548Y-55625500D01*
X129756587Y-55645185D01*
G37*
%TD.AperFunction*%
%TA.AperFunction,Conductor*%
G36*
X152518834Y-56329270D02*
G01*
X152574767Y-56371142D01*
X152599184Y-56436606D01*
X152599500Y-56445452D01*
X152599500Y-56628544D01*
X152579815Y-56695583D01*
X152527011Y-56741338D01*
X152516869Y-56743085D01*
X151825383Y-57434571D01*
X151825383Y-57428359D01*
X151798124Y-57326626D01*
X151745463Y-57235414D01*
X151670989Y-57160940D01*
X151579777Y-57108279D01*
X151478044Y-57081020D01*
X151471831Y-57081020D01*
X151811790Y-56741059D01*
X151867379Y-56708965D01*
X151869216Y-56708472D01*
X151871879Y-56707759D01*
X152078117Y-56611588D01*
X152264522Y-56481067D01*
X152318782Y-56426807D01*
X152387819Y-56357771D01*
X152449142Y-56324286D01*
X152518834Y-56329270D01*
G37*
%TD.AperFunction*%
%TA.AperFunction,Conductor*%
G36*
X110941427Y-51019684D02*
G01*
X110987182Y-51072488D01*
X110997126Y-51141646D01*
X110975963Y-51195122D01*
X110869432Y-51347265D01*
X110869431Y-51347267D01*
X110773261Y-51553502D01*
X110773258Y-51553511D01*
X110714366Y-51773302D01*
X110714364Y-51773313D01*
X110694532Y-51999998D01*
X110694532Y-52000001D01*
X110714364Y-52226686D01*
X110714366Y-52226697D01*
X110773258Y-52446488D01*
X110773261Y-52446497D01*
X110869431Y-52652732D01*
X110869432Y-52652734D01*
X110999954Y-52839141D01*
X111160858Y-53000045D01*
X111160861Y-53000047D01*
X111347266Y-53130568D01*
X111553504Y-53226739D01*
X111773308Y-53285635D01*
X111935230Y-53299801D01*
X111999998Y-53305468D01*
X112000000Y-53305468D01*
X112000002Y-53305468D01*
X112056673Y-53300509D01*
X112226692Y-53285635D01*
X112446496Y-53226739D01*
X112652734Y-53130568D01*
X112839139Y-53000047D01*
X112839188Y-52999998D01*
X113694532Y-52999998D01*
X113694532Y-53000001D01*
X113714364Y-53226686D01*
X113714366Y-53226697D01*
X113773258Y-53446488D01*
X113773261Y-53446497D01*
X113869431Y-53652732D01*
X113869432Y-53652734D01*
X113999954Y-53839141D01*
X114160858Y-54000045D01*
X114207693Y-54032839D01*
X114347266Y-54130568D01*
X114553504Y-54226739D01*
X114773308Y-54285635D01*
X114935230Y-54299801D01*
X114999998Y-54305468D01*
X115000000Y-54305468D01*
X115000002Y-54305468D01*
X115056673Y-54300509D01*
X115226692Y-54285635D01*
X115446496Y-54226739D01*
X115652734Y-54130568D01*
X115839139Y-54000047D01*
X116000047Y-53839139D01*
X116130568Y-53652734D01*
X116226739Y-53446496D01*
X116285635Y-53226692D01*
X116305468Y-53000000D01*
X116305468Y-52999997D01*
X116695034Y-52999997D01*
X116695034Y-53000002D01*
X116714858Y-53226599D01*
X116714860Y-53226610D01*
X116773730Y-53446317D01*
X116773735Y-53446331D01*
X116869863Y-53652478D01*
X116920974Y-53725472D01*
X117600000Y-53046446D01*
X117600000Y-53052661D01*
X117627259Y-53154394D01*
X117679920Y-53245606D01*
X117754394Y-53320080D01*
X117845606Y-53372741D01*
X117947339Y-53400000D01*
X117953553Y-53400000D01*
X117274526Y-54079025D01*
X117347513Y-54130132D01*
X117347521Y-54130136D01*
X117553668Y-54226264D01*
X117553682Y-54226269D01*
X117773389Y-54285139D01*
X117773400Y-54285141D01*
X117999998Y-54304966D01*
X118000002Y-54304966D01*
X118226599Y-54285141D01*
X118226610Y-54285139D01*
X118446317Y-54226269D01*
X118446331Y-54226264D01*
X118652478Y-54130136D01*
X118725471Y-54079024D01*
X118046447Y-53400000D01*
X118052661Y-53400000D01*
X118154394Y-53372741D01*
X118245606Y-53320080D01*
X118320080Y-53245606D01*
X118372741Y-53154394D01*
X118400000Y-53052661D01*
X118400000Y-53046447D01*
X119079024Y-53725471D01*
X119130136Y-53652478D01*
X119226264Y-53446331D01*
X119226269Y-53446317D01*
X119285139Y-53226610D01*
X119285141Y-53226599D01*
X119304966Y-53000002D01*
X119304966Y-52999997D01*
X119285141Y-52773400D01*
X119285139Y-52773389D01*
X119226269Y-52553682D01*
X119226264Y-52553668D01*
X119130136Y-52347521D01*
X119130132Y-52347513D01*
X119079025Y-52274526D01*
X118400000Y-52953551D01*
X118400000Y-52947339D01*
X118372741Y-52845606D01*
X118320080Y-52754394D01*
X118245606Y-52679920D01*
X118154394Y-52627259D01*
X118052661Y-52600000D01*
X118046448Y-52600000D01*
X118725472Y-51920974D01*
X118652478Y-51869863D01*
X118446331Y-51773735D01*
X118446317Y-51773730D01*
X118226610Y-51714860D01*
X118226599Y-51714858D01*
X118000002Y-51695034D01*
X117999998Y-51695034D01*
X117773400Y-51714858D01*
X117773389Y-51714860D01*
X117553682Y-51773730D01*
X117553673Y-51773734D01*
X117347516Y-51869866D01*
X117347512Y-51869868D01*
X117274526Y-51920973D01*
X117274526Y-51920974D01*
X117953553Y-52600000D01*
X117947339Y-52600000D01*
X117845606Y-52627259D01*
X117754394Y-52679920D01*
X117679920Y-52754394D01*
X117627259Y-52845606D01*
X117600000Y-52947339D01*
X117600000Y-52953552D01*
X116920974Y-52274526D01*
X116920973Y-52274526D01*
X116869868Y-52347512D01*
X116869866Y-52347516D01*
X116773734Y-52553673D01*
X116773730Y-52553682D01*
X116714860Y-52773389D01*
X116714858Y-52773400D01*
X116695034Y-52999997D01*
X116305468Y-52999997D01*
X116285635Y-52773308D01*
X116240916Y-52606415D01*
X116226741Y-52553511D01*
X116226738Y-52553502D01*
X116176836Y-52446488D01*
X116130568Y-52347266D01*
X116002924Y-52164970D01*
X116000045Y-52160858D01*
X115839141Y-51999954D01*
X115652734Y-51869432D01*
X115652732Y-51869431D01*
X115446497Y-51773261D01*
X115446488Y-51773258D01*
X115226697Y-51714366D01*
X115226693Y-51714365D01*
X115226692Y-51714365D01*
X115226691Y-51714364D01*
X115226686Y-51714364D01*
X115000002Y-51694532D01*
X114999998Y-51694532D01*
X114773313Y-51714364D01*
X114773302Y-51714366D01*
X114553511Y-51773258D01*
X114553502Y-51773261D01*
X114347267Y-51869431D01*
X114347265Y-51869432D01*
X114160858Y-51999954D01*
X113999954Y-52160858D01*
X113869432Y-52347265D01*
X113869431Y-52347267D01*
X113773261Y-52553502D01*
X113773258Y-52553511D01*
X113714366Y-52773302D01*
X113714364Y-52773313D01*
X113694532Y-52999998D01*
X112839188Y-52999998D01*
X113000047Y-52839139D01*
X113130568Y-52652734D01*
X113226739Y-52446496D01*
X113285635Y-52226692D01*
X113305468Y-52000000D01*
X113285635Y-51773308D01*
X113226739Y-51553504D01*
X113130568Y-51347266D01*
X113031095Y-51205202D01*
X113024037Y-51195122D01*
X113001710Y-51128915D01*
X113018721Y-51061148D01*
X113069669Y-51013336D01*
X113125612Y-50999999D01*
X119718500Y-50999999D01*
X119785539Y-51019684D01*
X119831294Y-51072488D01*
X119842500Y-51123999D01*
X119842500Y-52632522D01*
X119842501Y-52632539D01*
X119853000Y-52735317D01*
X119853001Y-52735320D01*
X119908185Y-52901852D01*
X119908187Y-52901857D01*
X119930681Y-52938325D01*
X120000288Y-53051177D01*
X120124344Y-53175233D01*
X120273666Y-53267335D01*
X120440203Y-53322520D01*
X120542991Y-53333021D01*
X122143008Y-53333020D01*
X122245797Y-53322520D01*
X122412334Y-53267335D01*
X122561656Y-53175233D01*
X122685712Y-53051177D01*
X122777814Y-52901855D01*
X122832999Y-52735318D01*
X122843500Y-52632530D01*
X122843499Y-51123998D01*
X122863184Y-51056960D01*
X122915987Y-51011205D01*
X122967499Y-50999999D01*
X126816048Y-50999999D01*
X126883087Y-51019684D01*
X126928842Y-51072488D01*
X126938786Y-51141646D01*
X126909761Y-51205202D01*
X126903729Y-51211680D01*
X122277229Y-55838181D01*
X122215906Y-55871666D01*
X122189548Y-55874500D01*
X113213487Y-55874500D01*
X113146448Y-55854815D01*
X113100693Y-55802011D01*
X113090749Y-55732853D01*
X113111911Y-55679378D01*
X113130568Y-55652734D01*
X113226739Y-55446496D01*
X113285635Y-55226692D01*
X113305468Y-55000000D01*
X113285635Y-54773308D01*
X113226739Y-54553504D01*
X113130568Y-54347266D01*
X113000047Y-54160861D01*
X113000045Y-54160858D01*
X112839141Y-53999954D01*
X112652734Y-53869432D01*
X112652732Y-53869431D01*
X112446497Y-53773261D01*
X112446488Y-53773258D01*
X112226697Y-53714366D01*
X112226693Y-53714365D01*
X112226692Y-53714365D01*
X112226691Y-53714364D01*
X112226686Y-53714364D01*
X112000002Y-53694532D01*
X111999998Y-53694532D01*
X111773313Y-53714364D01*
X111773302Y-53714366D01*
X111553511Y-53773258D01*
X111553502Y-53773261D01*
X111347267Y-53869431D01*
X111347265Y-53869432D01*
X111160858Y-53999954D01*
X110999954Y-54160858D01*
X110869432Y-54347265D01*
X110869431Y-54347267D01*
X110773261Y-54553502D01*
X110773258Y-54553511D01*
X110714366Y-54773302D01*
X110714364Y-54773313D01*
X110694532Y-54999998D01*
X110694532Y-55000001D01*
X110714364Y-55226686D01*
X110714366Y-55226697D01*
X110773258Y-55446488D01*
X110773261Y-55446497D01*
X110832349Y-55573210D01*
X110869432Y-55652734D01*
X110888088Y-55679378D01*
X110910415Y-55745583D01*
X110893405Y-55813350D01*
X110842457Y-55861163D01*
X110786513Y-55874500D01*
X103438389Y-55874500D01*
X103383687Y-55885381D01*
X103377971Y-55886518D01*
X103334743Y-55895116D01*
X103317546Y-55898537D01*
X103203716Y-55945687D01*
X103123182Y-55999499D01*
X103101266Y-56014142D01*
X103101260Y-56014147D01*
X102381010Y-56734398D01*
X102319687Y-56767883D01*
X102261236Y-56766492D01*
X102066697Y-56714366D01*
X102066693Y-56714365D01*
X102066692Y-56714365D01*
X102066691Y-56714364D01*
X102066686Y-56714364D01*
X101840002Y-56694532D01*
X101839998Y-56694532D01*
X101613313Y-56714364D01*
X101613302Y-56714366D01*
X101393511Y-56773258D01*
X101393502Y-56773261D01*
X101187267Y-56869431D01*
X101187266Y-56869432D01*
X101177486Y-56876279D01*
X101111281Y-56898606D01*
X101043514Y-56881594D01*
X100995702Y-56830645D01*
X100982366Y-56774703D01*
X100982366Y-56225296D01*
X101002051Y-56158257D01*
X101054855Y-56112502D01*
X101124013Y-56102558D01*
X101177486Y-56123720D01*
X101187266Y-56130568D01*
X101187269Y-56130569D01*
X101187270Y-56130570D01*
X101261146Y-56165019D01*
X101393504Y-56226739D01*
X101393509Y-56226740D01*
X101393511Y-56226741D01*
X101441226Y-56239526D01*
X101613308Y-56285635D01*
X101775230Y-56299801D01*
X101839998Y-56305468D01*
X101840000Y-56305468D01*
X101840002Y-56305468D01*
X101896673Y-56300509D01*
X102066692Y-56285635D01*
X102286496Y-56226739D01*
X102492734Y-56130568D01*
X102679139Y-56000047D01*
X102840047Y-55839139D01*
X102970568Y-55652734D01*
X103066739Y-55446496D01*
X103125635Y-55226692D01*
X103145468Y-55000000D01*
X103125635Y-54773308D01*
X103066739Y-54553504D01*
X102970568Y-54347266D01*
X102840047Y-54160861D01*
X102840045Y-54160858D01*
X102679141Y-53999954D01*
X102492734Y-53869432D01*
X102492732Y-53869431D01*
X102286497Y-53773261D01*
X102286488Y-53773258D01*
X102066697Y-53714366D01*
X102066693Y-53714365D01*
X102066692Y-53714365D01*
X102066691Y-53714364D01*
X102066686Y-53714364D01*
X101840002Y-53694532D01*
X101839998Y-53694532D01*
X101613313Y-53714364D01*
X101613302Y-53714366D01*
X101393511Y-53773258D01*
X101393502Y-53773261D01*
X101187267Y-53869431D01*
X101187266Y-53869432D01*
X101177486Y-53876279D01*
X101111281Y-53898606D01*
X101043514Y-53881594D01*
X100995702Y-53830645D01*
X100982366Y-53774703D01*
X100982366Y-53224687D01*
X101002051Y-53157648D01*
X101054855Y-53111893D01*
X101124013Y-53101949D01*
X101177492Y-53123114D01*
X101187514Y-53130132D01*
X101187516Y-53130133D01*
X101393673Y-53226265D01*
X101393682Y-53226269D01*
X101589999Y-53278872D01*
X101590000Y-53278871D01*
X101590000Y-52315686D01*
X101594394Y-52320080D01*
X101685606Y-52372741D01*
X101787339Y-52400000D01*
X101892661Y-52400000D01*
X101994394Y-52372741D01*
X102085606Y-52320080D01*
X102090000Y-52315686D01*
X102090000Y-53278872D01*
X102286317Y-53226269D01*
X102286326Y-53226265D01*
X102492482Y-53130134D01*
X102678820Y-52999657D01*
X102839657Y-52838820D01*
X102970134Y-52652482D01*
X103066265Y-52446326D01*
X103066269Y-52446317D01*
X103118872Y-52250000D01*
X102155686Y-52250000D01*
X102160080Y-52245606D01*
X102212741Y-52154394D01*
X102240000Y-52052661D01*
X102240000Y-51947339D01*
X102212741Y-51845606D01*
X102160080Y-51754394D01*
X102155686Y-51750000D01*
X103118872Y-51750000D01*
X103118872Y-51749999D01*
X103066269Y-51553682D01*
X103066265Y-51553673D01*
X102970134Y-51347517D01*
X102863425Y-51195123D01*
X102841098Y-51128917D01*
X102858108Y-51061150D01*
X102909056Y-51013336D01*
X102965000Y-50999999D01*
X110874388Y-50999999D01*
X110941427Y-51019684D01*
G37*
%TD.AperFunction*%
%TA.AperFunction,Conductor*%
G36*
X149442539Y-51320185D02*
G01*
X149488294Y-51372989D01*
X149499500Y-51424500D01*
X149499500Y-52800001D01*
X149499501Y-52800018D01*
X149510000Y-52902796D01*
X149510001Y-52902799D01*
X149559169Y-53051177D01*
X149565186Y-53069334D01*
X149657288Y-53218656D01*
X149781344Y-53342712D01*
X149930666Y-53434814D01*
X150097203Y-53489999D01*
X150199991Y-53500500D01*
X150250500Y-53500499D01*
X150317538Y-53520182D01*
X150363293Y-53572985D01*
X150374500Y-53624499D01*
X150374500Y-53689547D01*
X150354815Y-53756586D01*
X150338181Y-53777228D01*
X148927853Y-55187555D01*
X148866530Y-55221040D01*
X148796838Y-55216056D01*
X148740905Y-55174184D01*
X148716488Y-55108720D01*
X148716643Y-55089075D01*
X148729837Y-54938278D01*
X148710004Y-54711586D01*
X148651108Y-54491782D01*
X148554937Y-54285544D01*
X148424416Y-54099139D01*
X148424414Y-54099136D01*
X148263510Y-53938232D01*
X148077103Y-53807710D01*
X148077101Y-53807709D01*
X147870866Y-53711539D01*
X147870857Y-53711536D01*
X147651066Y-53652644D01*
X147651062Y-53652643D01*
X147651061Y-53652643D01*
X147651060Y-53652642D01*
X147651055Y-53652642D01*
X147424371Y-53632810D01*
X147424368Y-53632810D01*
X147197682Y-53652642D01*
X147197665Y-53652645D01*
X147129318Y-53670958D01*
X147059468Y-53669294D01*
X147009546Y-53638864D01*
X146715483Y-53344801D01*
X146681998Y-53283478D01*
X146686982Y-53213786D01*
X146728854Y-53157853D01*
X146794318Y-53133436D01*
X146855569Y-53144738D01*
X146898042Y-53164544D01*
X146898051Y-53164547D01*
X147094368Y-53217150D01*
X147094369Y-53217149D01*
X147094369Y-52253964D01*
X147098763Y-52258358D01*
X147189975Y-52311019D01*
X147291708Y-52338278D01*
X147397030Y-52338278D01*
X147498763Y-52311019D01*
X147589975Y-52258358D01*
X147594369Y-52253964D01*
X147594369Y-53217150D01*
X147790686Y-53164547D01*
X147790695Y-53164543D01*
X147996851Y-53068412D01*
X148183189Y-52937935D01*
X148344026Y-52777098D01*
X148474503Y-52590760D01*
X148570634Y-52384604D01*
X148570638Y-52384595D01*
X148623241Y-52188278D01*
X147660055Y-52188278D01*
X147664449Y-52183884D01*
X147717110Y-52092672D01*
X147744369Y-51990939D01*
X147744369Y-51885617D01*
X147717110Y-51783884D01*
X147664449Y-51692672D01*
X147660055Y-51688278D01*
X148623241Y-51688278D01*
X148623241Y-51688277D01*
X148570638Y-51491960D01*
X148570636Y-51491955D01*
X148563618Y-51476904D01*
X148553127Y-51407826D01*
X148581647Y-51344043D01*
X148640124Y-51305804D01*
X148676001Y-51300500D01*
X149375500Y-51300500D01*
X149442539Y-51320185D01*
G37*
%TD.AperFunction*%
%TA.AperFunction,Conductor*%
G36*
X146079776Y-51320185D02*
G01*
X146125531Y-51372989D01*
X146135475Y-51442147D01*
X146125120Y-51476904D01*
X146118101Y-51491955D01*
X146118099Y-51491960D01*
X146065496Y-51688277D01*
X146065497Y-51688278D01*
X147028683Y-51688278D01*
X147024289Y-51692672D01*
X146971628Y-51783884D01*
X146944369Y-51885617D01*
X146944369Y-51990939D01*
X146971628Y-52092672D01*
X147024289Y-52183884D01*
X147028683Y-52188278D01*
X146065497Y-52188278D01*
X146118099Y-52384595D01*
X146118101Y-52384600D01*
X146137909Y-52427079D01*
X146148400Y-52496157D01*
X146119879Y-52559941D01*
X146061402Y-52598180D01*
X145991535Y-52598733D01*
X145937845Y-52567164D01*
X144917297Y-51546616D01*
X144917295Y-51546613D01*
X144882863Y-51512181D01*
X144849378Y-51450858D01*
X144854362Y-51381166D01*
X144896234Y-51325233D01*
X144961698Y-51300816D01*
X144970544Y-51300500D01*
X146012737Y-51300500D01*
X146079776Y-51320185D01*
G37*
%TD.AperFunction*%
%TD*%
M02*
